<svg width="401" height="299" viewBox="0 0 401 299" fill="none" xmlns="http://www.w3.org/2000/svg">
<g clip-path="url(#clip0_2044_7907)">
<path d="M183.421 3.90244C180.82 1.30081 177.568 0 173.665 0H59.8438V13.6585C59.8438 17.2358 61.1446 20.4878 63.7462 23.0894C66.3478 25.6911 69.925 27.3171 73.8274 27.3171H110.25V163.577H123.584C127.486 163.577 130.738 162.276 133.34 159.675C135.942 157.073 137.568 153.821 137.568 150.244V26.9919H187.649V14.3089C187.649 10.7317 186.348 6.82927 183.421 3.90244Z" fill="#03031C"/>
<path d="M255.942 49.7563C252.039 49.7563 248.787 51.0571 246.185 53.6588C243.584 56.2604 241.958 59.5124 241.958 63.0897V117.398C237.08 130.732 222.446 137.236 206.836 137.236C193.828 137.236 187.649 131.382 187.649 119.025V63.4149C187.649 59.8376 186.348 56.5856 183.421 53.984C180.82 51.3823 177.568 50.0816 173.665 50.0816H160.007V121.951C160.007 149.594 174.316 163.577 203.584 163.577C217.893 163.577 233.828 158.699 241.633 148.618C240.982 157.399 240.007 161.951 235.129 168.455C229.6 175.61 218.868 178.537 207.486 178.537C196.755 178.537 186.348 176.26 174.966 172.033C173.015 171.707 171.389 171.382 169.763 171.382C163.584 171.382 160.007 174.634 160.007 180.813V191.87L160.982 192.52C173.99 200.325 189.275 204.228 207.486 204.228C245.535 204.228 268.95 183.415 268.95 142.764V49.7563H255.942Z" fill="#03031C"/>
<path d="M381.145 113.496C379.194 107.642 376.592 106.667 373.99 104.065C375.291 102.439 376.917 99.187 379.194 92.3577L396.429 50.0813H380.82C372.364 50.0813 366.836 53.6585 364.559 60.1626L352.852 87.1545C351.877 89.4309 349.275 90.4065 344.722 90.4065H319.031V13.0081C319.031 9.43089 317.73 6.50406 315.129 3.90244C312.527 1.30081 309.275 0 305.372 0H291.714V163.252H305.372C309.275 163.252 312.527 161.951 315.454 159.35C318.055 156.748 319.356 153.496 319.356 149.919L319.031 118.049H349.275C353.503 118.049 354.803 120 355.129 121.626L369.112 153.821C371.389 160.325 376.592 163.577 385.047 163.577H400.657L381.145 113.496Z" fill="#03031C"/>
<path d="M73.8274 78.0491C72.2014 59.5125 56.9169 45.2036 38.0551 44.8784H8.4616H7.48599H1.30713V51.0572V53.0085V82.6019C1.95753 101.789 17.2421 117.073 36.1038 117.724H66.3477H67.3234H73.5022V111.545L73.8274 78.0491C73.8274 78.3743 73.8274 78.3743 73.8274 78.0491Z" fill="#20EDBA"/>
<path d="M112.202 268.293C108.299 276.423 102.446 280.325 93.99 280.325C79.3559 280.325 71.8762 271.87 71.8762 254.634C71.8762 237.398 79.6811 228.943 95.6161 228.943C111.551 228.943 119.356 237.398 119.356 254.634V279.675H115.779C114.803 279.675 113.828 279.35 113.177 278.699C112.527 278.049 112.202 277.073 112.202 276.098V268.293ZM112.202 254.309C112.202 248.455 111.226 244.228 108.95 240.976C106.348 237.073 101.795 235.447 95.6161 235.447C89.4372 235.447 85.2096 237.398 82.2827 240.976C80.0063 243.902 79.0307 248.455 79.0307 254.309C79.0307 260.163 80.0063 264.715 81.9575 267.642C84.5591 271.545 88.7868 273.171 94.9656 273.171C103.421 273.171 108.95 269.594 111.551 262.114V254.309H112.202Z" fill="#8438FA"/>
<path d="M174.966 279.675H171.389C170.413 279.675 169.437 279.35 168.787 278.699C168.137 278.049 167.811 277.073 167.811 276.098V246.504C167.811 239.35 163.909 235.773 156.104 235.773C147.649 235.773 142.12 239.35 139.519 246.829V276.098C139.519 277.073 139.194 278.049 138.543 278.699C137.893 279.35 136.917 279.675 135.942 279.675H132.364V229.268H135.942C136.917 229.268 137.893 229.594 138.543 230.244C139.194 230.894 139.519 231.87 139.519 232.846V240.651C143.421 232.52 149.275 228.618 157.73 228.618C169.437 228.618 175.291 234.146 175.291 245.203V279.675H174.966Z" fill="#8438FA"/>
<path d="M225.698 268.293C221.795 276.423 215.942 280.325 207.486 280.325C192.852 280.325 185.372 271.87 185.372 254.634C185.372 237.398 193.177 228.943 209.112 228.943C225.047 228.943 232.852 237.398 232.852 254.634V279.675H229.275C228.299 279.675 227.324 279.35 226.673 278.699C226.023 278.049 225.698 277.073 225.698 276.098V268.293ZM225.698 254.309C225.698 248.455 224.722 244.228 222.446 240.976C219.844 237.073 215.291 235.447 209.112 235.447C202.933 235.447 198.706 237.398 195.779 240.976C193.503 243.902 192.527 248.455 192.527 254.309C192.527 260.163 193.503 264.715 195.454 267.642C198.055 271.545 202.283 273.171 208.462 273.171C216.917 273.171 222.446 269.594 225.047 262.114V254.309H225.698Z" fill="#8438FA"/>
<path d="M283.259 268.293C279.356 276.423 273.503 280.325 265.047 280.325C250.413 280.325 242.933 271.87 242.933 254.634C242.933 237.398 250.738 228.943 266.673 228.943C282.608 228.943 290.413 237.398 290.413 254.634V273.171C290.413 290.407 282.608 298.862 266.673 298.862C258.868 298.862 252.364 297.236 247.161 294.309V290.407C247.161 289.106 247.811 288.455 248.787 288.455C249.112 288.455 249.763 288.455 250.413 288.781C255.942 290.732 261.145 291.707 266.673 291.707C272.852 291.707 277.08 289.756 280.007 286.179C281.958 283.252 283.259 278.699 283.259 272.846V268.293ZM283.259 254.309C283.259 248.455 282.283 244.228 280.007 240.976C277.405 237.073 272.852 235.447 266.673 235.447C260.494 235.447 256.267 237.398 253.34 240.976C251.063 243.902 250.088 248.455 250.088 254.309C250.088 260.163 251.064 264.715 253.015 267.642C255.616 271.545 259.844 273.171 266.023 273.171C274.478 273.171 280.007 269.594 282.608 262.114V254.309H283.259Z" fill="#8438FA"/>
<path d="M300.82 254.309C300.82 237.073 308.299 228.618 322.933 228.618C331.063 228.618 336.592 231.22 340.169 236.098C342.771 240 344.397 246.179 344.397 254.309C344.397 256.586 343.096 257.561 340.82 257.561H308.624C308.95 267.968 314.153 273.171 324.885 273.171C330.088 273.171 335.616 272.195 340.82 270.244C341.47 269.919 341.795 269.919 342.446 269.919C343.421 269.919 344.072 270.569 344.072 271.87V275.773C339.194 278.699 332.689 280.325 324.885 280.325C308.95 280.325 300.82 271.545 300.82 254.309ZM336.917 250.732C336.592 245.529 335.616 241.951 333.99 240C332.039 237.073 328.137 235.773 323.259 235.773C318.055 235.773 314.153 237.073 311.876 240C309.925 242.277 308.95 245.854 308.624 251.057H336.917V250.732Z" fill="#8438FA"/>
<path d="M393.503 268.293C389.6 276.423 383.746 280.325 375.291 280.325C360.657 280.325 353.177 271.87 353.177 254.634C353.177 237.398 360.982 228.943 376.917 228.943C382.446 228.943 387.974 229.919 393.177 231.87V214.309C393.177 213.333 393.502 212.358 394.153 211.707C394.803 211.057 395.779 210.732 396.755 210.732H400.332V279.675H396.755C395.779 279.675 394.803 279.35 394.153 278.699C393.502 278.049 393.177 277.073 393.177 276.098V268.293H393.503ZM393.503 238.699C387.974 236.748 382.446 235.447 377.242 235.447C371.389 235.447 366.836 237.073 364.234 240.651C361.958 243.577 360.982 248.13 360.982 254.309C360.982 260.488 361.958 264.716 364.234 267.968C366.836 271.545 371.063 273.171 376.917 273.171C385.372 273.171 390.901 269.594 393.503 262.114V238.699Z" fill="#8438FA"/>
<path d="M0.656738 279.025V225.366C0.656738 224.39 0.981941 223.415 1.63235 222.764C2.28276 222.114 3.25837 221.789 4.23398 221.789H8.13641C10.738 221.789 12.364 223.09 13.3396 225.691L31.551 272.521L49.7624 225.691C50.738 223.09 52.6892 221.789 54.9656 221.789H58.8681C59.8437 221.789 60.8193 222.114 61.4697 222.764C62.1201 223.415 62.4453 224.39 62.4453 225.366V279.025H58.8681C57.8925 279.025 56.9169 278.699 56.2665 278.049C55.6161 277.399 55.2908 276.423 55.2908 275.447V229.919L37.7299 275.447C36.7543 277.724 35.4534 279.025 33.177 279.025H30.2502C27.9738 279.025 26.673 277.724 25.6973 275.447L8.13641 229.919V275.122C8.13641 276.098 7.81121 277.073 7.16081 277.724C6.5104 278.374 5.53479 278.699 4.55918 278.699H0.656738V279.025Z" fill="#8438FA"/>
<path d="M73.5023 204.228C74.8031 203.252 75.4535 202.276 75.4535 200.65C75.4535 199.024 74.4779 197.724 72.8519 197.073C72.2015 196.748 69.9251 196.423 66.9983 195.772C64.0714 195.447 61.795 194.797 60.4942 193.821C58.543 192.52 57.5674 190.244 57.5674 187.317C57.5674 184.39 58.543 182.114 60.8194 180.488C62.7706 178.862 65.3722 178.211 68.2991 178.211C71.5511 178.211 75.1283 178.862 79.0308 180.163V181.789C79.0308 182.439 78.7056 183.089 78.3804 183.415C78.0552 183.74 77.4048 184.065 76.4292 184.065C73.5023 183.089 70.5755 182.764 68.2991 182.764C66.6731 182.764 65.3722 183.089 64.3966 184.065C63.0958 185.041 62.4454 186.016 62.4454 187.642C62.4454 189.268 63.421 190.244 65.047 190.894C65.6974 191.22 67.6487 191.545 71.2259 191.87C74.1527 192.195 76.4292 193.171 77.73 194.146C79.6812 195.447 80.6568 197.724 80.6568 200.65V200.976C80.6568 203.902 79.356 206.179 77.0796 207.805C75.1283 209.431 72.5267 210.081 69.5999 210.081C66.3479 210.081 62.7706 209.431 58.8682 208.13V206.504C58.8682 205.854 59.1934 205.203 59.5186 204.878C59.8438 204.553 60.4942 204.228 61.4698 204.228C64.3966 205.203 67.3235 205.529 69.5999 205.529C70.9007 205.529 72.2015 205.203 73.5023 204.228Z" fill="#8438FA"/>
<path d="M83.5835 198.374C83.5835 190.569 87.1608 186.667 93.99 186.667C97.8925 186.667 100.494 187.967 102.12 190.244C103.421 192.195 104.072 194.797 104.072 198.374C104.072 199.675 103.421 200.65 101.795 200.65H88.7868C88.7868 204.228 91.0632 205.854 94.9656 205.854C97.2421 205.854 99.1933 205.528 101.47 204.553C101.795 204.553 102.12 204.553 102.446 204.553C103.421 204.553 104.072 205.203 104.072 206.179V208.13C101.47 209.756 98.5429 210.406 94.9656 210.406C87.1608 210.081 83.5835 206.179 83.5835 198.374ZM98.8681 195.772C98.8681 194.146 98.5429 192.845 97.8925 192.195C97.2421 191.219 95.9412 190.569 93.99 190.569C92.0388 190.569 90.738 191.219 89.7624 192.195C89.112 193.171 88.7868 194.146 88.4616 195.772H98.8681Z" fill="#8438FA"/>
<path d="M107.649 178.537H109.925C110.576 178.537 111.226 178.862 111.551 179.187C111.876 179.512 112.202 180.163 112.202 180.813V201.951C112.202 204.228 112.527 205.203 112.852 205.203C113.177 205.203 113.503 205.203 113.828 205.203C114.153 205.203 114.478 205.203 114.803 205.203C116.429 205.203 117.08 205.854 117.08 207.155V209.431C115.779 209.756 114.478 210.081 113.177 210.081C112.852 210.081 112.527 210.081 112.202 210.081C110.576 210.081 109.275 209.431 108.299 208.13C107.324 206.829 106.998 204.878 106.998 201.951V178.537H107.649Z" fill="#8438FA"/>
<path d="M130.413 186.667C131.064 186.667 131.714 186.992 132.039 187.317C132.364 187.642 132.69 188.293 132.69 188.943V191.22H125.21V207.48C125.21 208.13 124.885 208.781 124.559 209.106C124.234 209.431 123.584 209.756 122.933 209.756H120.657V191.22H120.007C119.356 191.22 118.706 190.894 118.381 190.569C117.73 189.919 117.73 189.594 117.73 188.943V186.667H120.657C120.657 183.415 121.633 181.463 123.259 180.163C124.559 178.862 127.161 178.537 130.088 178.537C131.389 178.537 133.015 178.862 134.966 179.187V181.463C134.966 182.764 134.316 183.415 132.69 183.415C131.714 183.415 131.064 183.089 130.413 183.089C128.787 183.089 127.486 183.415 126.836 183.74C126.185 184.39 125.535 185.366 125.535 186.992H130.413V186.667Z" fill="#8438FA"/>
<path d="M137.242 200.325C136.592 200.325 136.267 200 135.616 199.675C135.291 199.35 135.291 198.699 135.291 198.049V196.423H147.324C147.974 196.423 148.299 196.748 148.95 197.073C149.275 197.398 149.275 198.049 149.275 198.699V200.325H137.242Z" fill="#8438FA"/>
</g>
<defs>
<clipPath id="clip0_2044_7907">
<rect width="400" height="299" fill="white" transform="translate(0.656738)"/>
</clipPath>
</defs>
</svg>
