<svg width="22" height="20" viewBox="0 0 22 20" fill="none" xmlns="http://www.w3.org/2000/svg">
<path d="M21.7 12.3V20H17.2V12.8C17.2 11 16.6 9.7 14.9 9.7C13.7 9.7 12.9 10.5 12.6 11.3C12.5 11.6 12.5 12 12.5 12.4V19.9H8.00005C8.00005 19.9 8.10005 7.7 8.00005 6.4H12.5V8.3C13.1 7.4 14.2 6.1 16.5 6.1C19.5 6.2 21.7 8.1 21.7 12.3ZM3.30005 0C1.80005 0 0.800049 1 0.800049 2.3C0.800049 3.6 1.80005 4.6 3.30005 4.6C4.90005 4.6 5.80005 3.6 5.80005 2.3C5.80005 1 4.80005 0 3.30005 0ZM1.00005 20H5.50005V6.5H1.00005V20Z" fill="#EDEDF9"/>
</svg>
