<svg width="918" height="207" viewBox="0 0 918 207" fill="none" xmlns="http://www.w3.org/2000/svg">
<path d="M561.907 101.958C561.907 121.23 555.785 136.388 543.54 147.433C531.593 158.255 515.749 163.666 496.009 163.666H430V61.7082C430 42.5101 436.122 27.3518 448.367 16.2332C460.315 5.41105 476.195 0 496.009 0C515.749 0 531.593 5.41105 543.54 16.2332C555.785 27.3518 561.907 42.5101 561.907 61.7082V101.958ZM496.009 140.539C507.808 140.539 517.27 137.315 524.394 130.866C531.964 124.121 535.748 114.781 535.748 102.847V61.7082C535.748 49.7743 531.964 40.3976 524.394 33.5782C517.27 27.1294 507.808 23.905 496.009 23.905C484.136 23.905 474.637 27.1294 467.513 33.5782C459.943 40.3976 456.159 49.7743 456.159 61.7082V140.539H496.009Z" fill="#00D9BA"/>
<path d="M640.94 65.7109C628.77 65.7109 620.199 69.2689 615.227 76.3848C610.922 82.3888 608.77 91.5431 608.77 103.848C608.77 116.152 610.922 125.344 615.227 131.422C620.199 138.538 628.77 142.096 640.94 142.096C653.11 142.096 661.682 138.538 666.654 131.422C670.884 125.344 672.998 116.152 672.998 103.848C672.998 91.5431 670.884 82.3888 666.654 76.3848C661.682 69.2689 653.11 65.7109 640.94 65.7109ZM640.94 42.6954C679.084 42.6954 698.155 63.0795 698.155 103.848C698.155 144.616 679.084 165 640.94 165C602.722 165 583.613 144.616 583.613 103.848C583.613 63.0795 602.722 42.6954 640.94 42.6954Z" fill="#00D9BA"/>
<path d="M819.265 153.214C806.13 161.071 790.323 165 771.845 165C733.628 165 714.519 144.616 714.519 103.848C714.519 63.0795 733.628 42.6954 771.845 42.6954C790.323 42.6954 806.13 46.624 819.265 54.4811V64.9326C819.265 70.1954 816.594 72.8268 811.25 72.8268C809.766 72.8268 808.097 72.6044 806.241 72.1597C794.516 67.7864 783.051 65.5997 771.845 65.5997C759.675 65.5997 751.104 69.1947 746.132 76.3848C741.828 82.3888 739.676 91.5431 739.676 103.848C739.676 116.152 741.828 125.307 746.132 131.311C751.104 138.501 759.675 142.096 771.845 142.096C783.051 142.096 794.516 139.909 806.241 135.536C808.097 135.091 809.766 134.869 811.25 134.869C816.594 134.869 819.265 137.5 819.265 142.763V153.214Z" fill="#00D9BA"/>
<path d="M869.69 42.6954C886.313 42.6954 901.192 46.6611 914.327 54.5923V64.9326C914.327 70.2695 911.656 72.938 906.313 72.938C904.903 72.938 903.233 72.6786 901.304 72.1597C889.504 67.8605 878.966 65.7109 869.69 65.7109C864.125 65.7109 859.82 67.1193 856.778 69.936C853.884 72.4562 852.437 75.6065 852.437 79.3868C852.437 83.686 855.368 86.7621 861.23 88.6152L883.159 92.8403C893.92 94.7675 901.897 97.8807 907.092 102.18C914.142 107.962 917.667 116.375 917.667 127.419V128.42C917.518 138.278 913.771 146.654 906.424 153.548C898.261 161.183 887.352 165 873.698 165C857.001 165 842.084 161.071 828.949 153.214V142.874C828.949 137.537 831.658 134.869 837.075 134.869C838.485 134.869 840.118 135.091 841.973 135.536C853.772 139.909 864.347 142.096 873.698 142.096C879.338 142.096 883.901 140.65 887.389 137.759C890.58 135.165 892.176 132.052 892.176 128.42C892.176 123.305 889.356 119.673 883.716 117.524C881.861 116.856 874.551 115.374 861.787 113.076C851.101 111.075 843.272 108.221 838.3 104.515C830.73 98.8073 826.946 90.4313 826.946 79.3868C826.946 69.4542 830.434 61.0782 837.409 54.2588C845.201 46.5499 855.962 42.6954 869.69 42.6954Z" fill="#00D9BA"/>
<path d="M182.3 4C179.7 1.3 176.3 0 172.4 0H58.7V13.7C58.7 17.4 60 20.6 62.7 23.2C65.4 25.9 68.8 27.3 72.7 27.3H109V165L122.3 165.1C126.2 165.1 129.6 163.7 132.2 161.1C134.9 158.4 136.3 155.1 136.3 151.5V27.4L186.4 27.3V14.6C186.3 11 185 6.8 182.3 4Z" fill="white"/>
<path d="M254.5 50.3999C250.6 50.3999 247.2 51.6999 244.6 54.3999C241.9 57.0999 240.5 60.3999 240.5 63.9999V118.9C235.7 132.4 221.1 138.9 205.4 138.9C192.4 138.9 186.1 132.8 186.1 120.4V63.9999C186.1 60.3999 184.7 57.1999 182 54.3999C179.4 51.6999 176 50.3999 172.1 50.3999H158.8V123C158.8 150.9 173 165.1 202.4 165.1C216.9 165.1 232.7 160 240.3 150.1C239.7 158.9 238.7 163.5 233.8 170.1C228.3 177.5 217.5 180.3 206.2 180.3C195.4 180.3 185 178.2 173.6 173.9C171.7 173.4 169.9 173.2 168.4 173.2C162.2 173.2 158.8 176.6 158.8 182.8V194L159.6 194.5C172.6 202.4 187.8 206.4 206.2 206.4C244.4 206.4 267.7 185.5 267.7 144.2V50.3999H254.5Z" fill="white"/>
<path d="M379.7 114.7C377.7 108.6 375.3 107.7 372.4 105C373.7 103.3 375.3 100.1 377.6 93.3L394.8 50.5H379.2C370.7 50.5 365.2 54 363 60.8L351.3 88.1C350.4 90.4 347.7 91.5 343.3 91.5H317.8L317.9 13.4C317.9 9.8 316.7 6.8 314 4C311.4 1.3 308 0 304.1 0H290.6V165H304C307.9 165 311.3 163.6 314 160.9C316.6 158.3 318 155.1 318 151.4L317.8 119.1H348C352.3 119.1 353.4 121.1 353.9 122.6L367.9 155.3C370 161.8 375.4 165 384 165H399.5L379.7 114.7Z" fill="white"/>
<path d="M72.5 79.1002C70.9 60.5002 55.6 45.9002 36.8 45.7002H7.2H6.2H0V52.0002V53.9002V83.9002C0.8 103 16 118.4 35 119.1H65.4H66.4H72.6V112.8V79.2002C72.6 79.1002 72.5 79.1002 72.5 79.1002Z" fill="#00D9BA"/>
</svg>
