<svg version="1.1" xmlns="http://www.w3.org/2000/svg" viewBox="0 0 831.4887115417473 749.4976335592141" width="1662.9774230834946" height="1498.9952671184283">
  <!-- svg-source:excalidraw -->
  
  <defs>
    <style class="style-fonts">
      @font-face {
        font-family: "Virgil";
        src: url("https://excalidraw.com/Virgil.woff2");
      }
      @font-face {
        font-family: "Cascadia";
        src: url("https://excalidraw.com/Cascadia.woff2");
      }
      @font-face {
        font-family: "Assistant";
        src: url("https://excalidraw.com/Assistant-Regular.woff2");
      }
    </style>
    
  </defs>
  <rect x="0" y="0" width="831.4887115417473" height="749.4976335592141" fill="#ffffff"></rect><g stroke-linecap="round" transform="translate(245.4887115417473 342.49763355921414) rotate(0 217.5 198.50000000000003)"><path d="M32 0 C126.2 0.49, 222.83 0.34, 403 0 M32 0 C129.15 -0.81, 225.75 0.01, 403 0 M403 0 C425.05 0.52, 433.71 10.94, 435 32 M403 0 C424.52 1.47, 434.26 10.35, 435 32 M435 32 C436.35 156.31, 435.49 281.17, 435 365 M435 32 C436.24 106.88, 436.28 181.42, 435 365 M435 365 C434.86 384.42, 425.39 397.82, 403 397 M435 365 C434.57 384.72, 426.33 396.33, 403 397 M403 397 C283.45 393.61, 163.38 394.43, 32 397 M403 397 C298.24 398.04, 194.25 398.05, 32 397 M32 397 C10.29 395.02, 0.5 387.79, 0 365 M32 397 C11.48 398.81, 1.13 384.66, 0 365 M0 365 C-1.22 280.74, 0.33 198.52, 0 32 M0 365 C-0.34 243.49, -0.31 122.27, 0 32 M0 32 C-1.1 10.04, 8.85 -1.06, 32 0 M0 32 C-1.87 8.51, 10.02 -0.48, 32 0" stroke="#1e1e1e" stroke-width="2" fill="none"></path></g><g stroke-linecap="round" transform="translate(757.4887115417473 650.4976335592141) rotate(0 32 7.5)"><path d="M29.88 0.31 C36.33 0.15, 44.91 0.65, 50.5 1.58 C56.08 2.51, 61.66 4.39, 63.39 5.87 C65.12 7.35, 63.94 9.05, 60.88 10.47 C57.83 11.89, 51.3 13.71, 45.06 14.39 C38.83 15.07, 30.09 14.94, 23.48 14.55 C16.87 14.16, 9.27 13.41, 5.39 12.05 C1.51 10.69, -0.62 8.02, 0.19 6.38 C1.01 4.74, 5.08 3.21, 10.26 2.21 C15.43 1.22, 27.62 0.74, 31.24 0.43 C34.86 0.13, 31.96 0.31, 32 0.39 M35.54 -0.67 C42.09 -0.59, 50.88 1.45, 55.59 2.64 C60.3 3.84, 63.33 4.99, 63.8 6.51 C64.27 8.03, 62.41 10.32, 58.39 11.74 C54.37 13.15, 46.57 14.51, 39.68 15 C32.78 15.49, 23.31 15.33, 17.02 14.69 C10.73 14.04, 4.59 12.71, 1.93 11.13 C-0.73 9.55, -1.04 6.8, 1.08 5.24 C3.19 3.67, 8.94 2.72, 14.62 1.75 C20.3 0.79, 31.67 -0.2, 35.17 -0.56 C38.67 -0.91, 35.6 -0.49, 35.59 -0.39" stroke="#1e1e1e" stroke-width="2" fill="none"></path></g><g stroke-linecap="round" transform="translate(758.4887115417473 650.4976335592141) rotate(0 31.5 37)"><path d="M15.75 0 C23.93 -0.22, 34.03 1.26, 47.25 0 M15.75 0 C23.48 0.05, 29.85 -0.08, 47.25 0 M47.25 0 C57.91 1.28, 62.35 4.97, 63 15.75 M47.25 0 C59.41 0.08, 61.46 7.4, 63 15.75 M63 15.75 C61.61 30.41, 64.34 43.66, 63 58.25 M63 15.75 C63.06 29.46, 63.66 45.49, 63 58.25 M63 58.25 C62.63 67.34, 59.49 73.42, 47.25 74 M63 58.25 C63.56 69.38, 55.54 75.45, 47.25 74 M47.25 74 C40.51 74.7, 35.86 72.76, 15.75 74 M47.25 74 C40.15 72.76, 33.66 74.48, 15.75 74 M15.75 74 C5.96 75.57, 0.98 67.3, 0 58.25 M15.75 74 C4.14 74.82, 2.04 68.04, 0 58.25 M0 58.25 C0.92 47.36, -1.04 36.4, 0 15.75 M0 58.25 C-0.85 47.07, -1.21 35.99, 0 15.75 M0 15.75 C-1.63 3.38, 4.69 -0.42, 15.75 0 M0 15.75 C-1.83 4.16, 4.74 -2.06, 15.75 0" stroke="#1e1e1e" stroke-width="2" fill="none"></path></g><g transform="translate(774.9187118469231 674.9976335592141) rotate(0 15.069999694824219 12.5)"><text x="15.069999694824219" y="17.52" font-family="Virgil, Segoe UI Emoji" font-size="20px" fill="#1e1e1e" text-anchor="middle" style="white-space: pre;" direction="ltr" dominant-baseline="alphabetic">DB</text></g><g stroke-linecap="round" transform="translate(276.4887115417473 364.49763355921414) rotate(0 85 115.5)"><path d="M32 0 C60.83 -0.04, 93.63 0.1, 138 0 M138 0 C159.86 -1.29, 170.27 10.83, 170 32 M170 32 C170.91 92.85, 168.12 155.44, 170 199 M170 199 C170.45 220.94, 161.05 229.48, 138 231 M138 231 C102.07 231.88, 65.11 231.11, 32 231 M32 231 C8.76 232.05, 0.82 219.96, 0 199 M0 199 C-0.97 161.18, -3.37 123.53, 0 32 M0 32 C-1.96 12.36, 10.05 -0.37, 32 0" stroke="#1e1e1e" stroke-width="2.5" fill="none" stroke-dasharray="1.5 8"></path></g><g stroke-linecap="round" transform="translate(472.4887115417473 360.99763355921414) rotate(0 85 115.5)"><path d="M32 0 C71.34 0.42, 108.52 -1.59, 138 0 M138 0 C159.6 0.16, 171.28 10.02, 170 32 M170 32 C169.87 81.68, 171.66 128.22, 170 199 M170 199 C171.71 218.81, 160.28 232.21, 138 231 M138 231 C104.43 231.19, 67.37 232.38, 32 231 M32 231 C11.49 230.63, -1.41 222.07, 0 199 M0 199 C-2.33 154.99, -2.37 110.15, 0 32 M0 32 C-0.62 10.29, 11.47 1.34, 32 0" stroke="#1e1e1e" stroke-width="2.5" fill="none" stroke-dasharray="1.5 8"></path></g><g transform="translate(348.4887115417473 368.49763355921414) rotate(0 23.1299991607666 12.5)"><text x="0" y="17.52" font-family="Virgil, Segoe UI Emoji" font-size="20px" fill="#1e1e1e" text-anchor="start" style="white-space: pre;" direction="ltr" dominant-baseline="alphabetic">OrgA</text></g><g transform="translate(539.9187118469231 365.99763355921414) rotate(0 23.84000015258789 12.5)"><text x="0" y="17.52" font-family="Virgil, Segoe UI Emoji" font-size="20px" fill="#1e1e1e" text-anchor="start" style="white-space: pre;" direction="ltr" dominant-baseline="alphabetic">OrgB</text></g><g stroke-linecap="round"><g transform="translate(681.4887115417473 684.4976335592141) rotate(0 38.5 -1)"><path d="M0.1 0.77 C12.99 0.38, 63.65 -1.71, 76.61 -2.17 M-1.31 0.12 C11.46 -0.09, 62.31 -0.59, 75.46 -0.71" stroke="#1e1e1e" stroke-width="2" fill="none"></path></g></g><mask></mask><g stroke-linecap="round" transform="translate(284.4863806967537 98.76393678817601) rotate(0 12 9)"><path d="M13.97 -0.31 C16.39 -0.12, 19.36 1.3, 20.95 2.83 C22.55 4.36, 23.51 6.96, 23.53 8.89 C23.55 10.82, 22.68 12.93, 21.06 14.41 C19.44 15.89, 16.4 17.42, 13.81 17.76 C11.22 18.09, 7.72 17.34, 5.52 16.43 C3.31 15.51, 1.42 13.95, 0.56 12.26 C-0.29 10.56, -0.52 8.11, 0.39 6.24 C1.31 4.37, 3.65 2.12, 6.05 1.04 C8.46 -0.04, 13.39 -0.13, 14.83 -0.25 C16.28 -0.38, 14.79 0.11, 14.74 0.3 M11.44 0.11 C13.92 -0.11, 17.21 1.11, 19.13 2.3 C21.05 3.49, 22.32 5.56, 22.98 7.27 C23.65 8.99, 24.14 10.83, 23.13 12.59 C22.11 14.35, 19.35 17.05, 16.88 17.82 C14.42 18.58, 10.97 17.89, 8.35 17.16 C5.73 16.44, 2.47 14.98, 1.16 13.45 C-0.15 11.92, -0.02 9.84, 0.48 7.97 C0.99 6.1, 2.47 3.56, 4.18 2.21 C5.9 0.86, 9.64 0.14, 10.76 -0.15 C11.88 -0.44, 10.88 0.19, 10.92 0.46" stroke="none" stroke-width="0" fill="#a5d8ff"></path><path d="M14.63 0.26 C17.08 0.6, 19.9 2.18, 21.39 3.69 C22.89 5.19, 23.61 7.42, 23.62 9.3 C23.63 11.17, 23.01 13.49, 21.45 14.95 C19.88 16.41, 16.79 17.73, 14.23 18.03 C11.68 18.33, 8.47 17.69, 6.13 16.73 C3.79 15.77, 1.08 14.11, 0.22 12.29 C-0.64 10.46, 0.04 7.55, 0.96 5.77 C1.87 3.99, 3.48 2.52, 5.72 1.61 C7.96 0.7, 12.85 0.6, 14.4 0.33 C15.95 0.05, 14.97 -0.08, 15 -0.03 M14.82 0.7 C17.2 0.9, 19.5 1.53, 21.04 2.87 C22.58 4.21, 24.11 6.84, 24.06 8.74 C24.01 10.65, 22.47 12.67, 20.76 14.29 C19.06 15.91, 16.31 17.98, 13.83 18.46 C11.35 18.95, 8.03 18.42, 5.89 17.21 C3.74 16.01, 1.84 13.11, 0.95 11.22 C0.05 9.33, -0.5 7.61, 0.52 5.88 C1.54 4.15, 4.75 1.66, 7.05 0.82 C9.35 -0.03, 12.96 0.82, 14.31 0.83 C15.67 0.84, 15.15 0.86, 15.18 0.86" stroke="#1e1e1e" stroke-width="2" fill="none"></path></g><g stroke-linecap="round" transform="translate(264.2406174000703 118.76393678817601) rotate(0 28.622881648341718 21)"><path d="M20.32 -0.03 C25.72 -1.34, 33.79 -0.28, 39.44 1.57 C45.08 3.42, 51.45 7.02, 54.19 11.08 C56.94 15.14, 57.52 21.57, 55.89 25.95 C54.27 30.32, 49.4 34.6, 44.45 37.34 C39.51 40.07, 32.3 42.45, 26.21 42.35 C20.13 42.25, 12.3 40, 7.96 36.74 C3.62 33.48, 0.58 27.55, 0.18 22.81 C-0.22 18.07, 1.66 12.08, 5.57 8.28 C9.48 4.47, 19.99 1.35, 23.66 -0.01 C27.32 -1.38, 27.49 -0.2, 27.59 0.09 M39.42 2.53 C44.7 3.99, 49.63 8.2, 52.65 11.88 C55.66 15.55, 58.53 20.08, 57.5 24.56 C56.47 29.04, 51.54 36, 46.47 38.76 C41.41 41.52, 33.56 41.67, 27.09 41.14 C20.63 40.62, 12.05 38.5, 7.7 35.62 C3.34 32.74, 1.39 28.27, 0.97 23.88 C0.55 19.49, 2.2 13.15, 5.17 9.28 C8.13 5.4, 13.2 1.79, 18.77 0.61 C24.35 -0.56, 35.35 1.78, 38.63 2.22 C41.9 2.65, 38.19 2.8, 38.43 3.23" stroke="none" stroke-width="0" fill="#a5d8ff"></path><path d="M19.53 2.02 C24.63 0.41, 32.26 0.35, 38.04 1.85 C43.82 3.34, 51.03 7.1, 54.22 11 C57.41 14.91, 58.37 20.89, 57.19 25.26 C56 29.62, 52.09 34.33, 47.1 37.21 C42.11 40.09, 33.38 42.61, 27.26 42.52 C21.13 42.44, 14.92 39.59, 10.32 36.7 C5.72 33.82, 0.76 29.59, -0.34 25.22 C-1.43 20.85, -0.39 14.8, 3.75 10.48 C7.9 6.16, 20.17 1.12, 24.56 -0.72 C28.95 -2.56, 29.93 -1, 30.1 -0.55 M25.11 -1.12 C30.8 -2.14, 39.9 0.04, 45.04 2.55 C50.18 5.06, 54.29 9.25, 55.95 13.97 C57.61 18.68, 57.43 26.33, 55 30.86 C52.58 35.39, 46.88 39.6, 41.4 41.16 C35.91 42.72, 28.25 41.47, 22.11 40.22 C15.97 38.98, 8 37.24, 4.55 33.68 C1.1 30.11, 0.87 23.19, 1.42 18.83 C1.98 14.46, 3.53 10.45, 7.86 7.49 C12.19 4.53, 24.28 2.3, 27.4 1.05 C30.51 -0.2, 26.57 -0.08, 26.54 -0.01" stroke="#1e1e1e" stroke-width="2" fill="none"></path></g><g transform="translate(277.82406610070893 129.9146943832585) rotate(0 14.799999237060547 10)"><text x="14.799999237060547" y="14.016" font-family="Virgil, Segoe UI Emoji" font-size="16px" fill="#1e1e1e" text-anchor="middle" style="white-space: pre;" direction="ltr" dominant-baseline="alphabetic">Dev</text></g><g stroke-linecap="round" transform="translate(332.9863806967537 99.26393678817601) rotate(0 12 9)"><path d="M9.47 -0.21 C11.87 -0.69, 15.25 0.05, 17.46 0.97 C19.66 1.89, 21.74 3.48, 22.7 5.32 C23.67 7.17, 24.04 10.09, 23.25 12.04 C22.45 13.98, 20.12 16.05, 17.95 17.01 C15.79 17.96, 12.71 18.17, 10.28 17.76 C7.84 17.34, 5.08 15.97, 3.34 14.53 C1.61 13.09, -0.04 10.99, -0.13 9.11 C-0.21 7.23, 1.2 4.78, 2.84 3.24 C4.49 1.69, 8.47 0.34, 9.75 -0.15 C11.03 -0.65, 10.47 0.08, 10.53 0.26 M14.22 -0.48 C16.83 -0.28, 19.64 2.04, 21.26 3.51 C22.89 4.98, 24.06 6.53, 23.97 8.32 C23.88 10.1, 22.24 12.6, 20.71 14.2 C19.18 15.81, 17.17 17.54, 14.81 17.97 C12.46 18.4, 9.04 17.74, 6.59 16.78 C4.14 15.81, 1.21 13.9, 0.12 12.17 C-0.98 10.45, -0.81 8.16, 0.02 6.45 C0.86 4.74, 2.72 2.89, 5.12 1.93 C7.52 0.97, 12.89 1.09, 14.42 0.69 C15.96 0.3, 14.43 -0.55, 14.31 -0.44" stroke="none" stroke-width="0" fill="#a5d8ff"></path><path d="M14.85 0.33 C17.37 0.59, 20.16 2.15, 21.72 3.65 C23.27 5.15, 24.41 7.37, 24.19 9.32 C23.97 11.26, 22.13 13.9, 20.4 15.32 C18.68 16.73, 16.35 17.54, 13.82 17.82 C11.29 18.11, 7.48 18.04, 5.24 17.05 C3.01 16.05, 1.13 13.85, 0.43 11.86 C-0.28 9.87, -0.02 7, 1.03 5.11 C2.08 3.22, 4.31 1.37, 6.73 0.54 C9.15 -0.28, 14.08 0.11, 15.55 0.16 C17.02 0.2, 15.6 0.69, 15.54 0.81 M9.46 -0.56 C11.85 -0.85, 15.58 0.49, 17.91 1.64 C20.24 2.78, 22.46 4.68, 23.43 6.29 C24.4 7.9, 24.67 9.53, 23.75 11.31 C22.83 13.08, 20.06 15.88, 17.91 16.94 C15.77 18, 13.41 17.9, 10.9 17.67 C8.38 17.45, 4.51 16.92, 2.81 15.59 C1.11 14.27, 0.71 11.79, 0.72 9.72 C0.73 7.64, 1.3 4.79, 2.87 3.14 C4.43 1.5, 8.88 0.37, 10.1 -0.15 C11.32 -0.67, 10.3 -0.16, 10.19 0" stroke="#1e1e1e" stroke-width="2" fill="none"></path></g><g stroke-linecap="round" transform="translate(326.9863806967537 119.26393678817601) rotate(0 25.41758490658799 21)"><path d="M21.38 -0.01 C26.35 -0.86, 33.32 -0.01, 37.97 2.48 C42.62 4.96, 47.57 10.39, 49.29 14.9 C51.01 19.41, 50.28 25.49, 48.3 29.54 C46.32 33.6, 42 37.39, 37.41 39.24 C32.82 41.09, 26.15 41.57, 20.77 40.64 C15.39 39.71, 8.51 37.1, 5.14 33.64 C1.77 30.19, 0.32 24.47, 0.52 19.93 C0.73 15.38, 2.49 9.68, 6.34 6.36 C10.2 3.05, 20.7 1.07, 23.64 0.04 C26.58 -0.99, 23.99 0.01, 23.99 0.21 M29.57 1.2 C34.57 1.58, 40.96 3.07, 44.26 6.12 C47.57 9.17, 49.08 14.84, 49.4 19.52 C49.73 24.21, 49.23 30.62, 46.2 34.24 C43.18 37.86, 36.96 40.41, 31.26 41.24 C25.56 42.08, 17.11 41.2, 12.02 39.23 C6.92 37.26, 2.67 33.34, 0.68 29.42 C-1.3 25.49, -2.01 19.86, 0.1 15.69 C2.21 11.52, 8.32 7.21, 13.34 4.39 C18.35 1.57, 27.54 -0.71, 30.19 -1.21 C32.84 -1.72, 29.42 0.59, 29.26 1.36" stroke="none" stroke-width="0" fill="#a5d8ff"></path><path d="M31.85 0.9 C36.92 1.59, 43.28 4.81, 46.27 8.47 C49.27 12.13, 50.17 18.38, 49.83 22.85 C49.49 27.32, 47.95 31.98, 44.23 35.3 C40.52 38.61, 33.07 42.17, 27.54 42.74 C22.01 43.31, 15.43 41.53, 11.06 38.73 C6.69 35.94, 2.69 30.49, 1.31 25.97 C-0.08 21.45, 0.48 15.62, 2.76 11.61 C5.04 7.6, 9.93 3.58, 14.97 1.88 C20 0.18, 29.55 1.48, 32.94 1.39 C36.33 1.29, 35.54 1.03, 35.31 1.31 M16.06 2.7 C20.85 1.25, 28.33 1.16, 33.59 2.15 C38.84 3.14, 44.87 4.93, 47.59 8.62 C50.31 12.31, 50.51 19.7, 49.9 24.27 C49.29 28.84, 47.89 32.86, 43.92 36.02 C39.96 39.18, 31.55 42.8, 26.12 43.24 C20.7 43.67, 15.55 41.66, 11.38 38.62 C7.21 35.59, 2.38 29.7, 1.13 25.03 C-0.12 20.37, 1.26 14.67, 3.87 10.64 C6.47 6.62, 14.89 2.41, 16.75 0.89 C18.62 -0.63, 15.3 1.21, 15.05 1.52" stroke="#1e1e1e" stroke-width="2" fill="none"></path></g><g transform="translate(341.0150185882976 130.4146943832585) rotate(0 11.416000366210938 10)"><text x="11.416000366210938" y="14.016" font-family="Virgil, Segoe UI Emoji" font-size="16px" fill="#1e1e1e" text-anchor="middle" style="white-space: pre;" direction="ltr" dominant-baseline="alphabetic">PM</text></g><g stroke-linecap="round" transform="translate(382.9863806967537 101.26393678817601) rotate(0 12 9)"><path d="M11.19 0.22 C13.64 0.12, 16.77 1.05, 18.85 2.14 C20.93 3.24, 23.01 5.06, 23.7 6.8 C24.4 8.55, 24.2 10.89, 23.01 12.61 C21.83 14.33, 18.96 16.32, 16.59 17.13 C14.21 17.93, 11.23 18.02, 8.78 17.43 C6.32 16.85, 3.25 15.21, 1.87 13.62 C0.49 12.03, 0.15 9.78, 0.49 7.89 C0.82 6.01, 1.96 3.71, 3.86 2.31 C5.77 0.91, 10.55 -0.19, 11.91 -0.49 C13.27 -0.79, 12.15 0.24, 12.04 0.51 M13.27 -0.25 C15.77 0.03, 19.67 1.81, 21.5 3.31 C23.34 4.81, 24.44 6.9, 24.28 8.77 C24.12 10.65, 22.31 13.01, 20.53 14.57 C18.75 16.13, 16.1 17.65, 13.6 18.13 C11.1 18.6, 7.54 18.32, 5.52 17.42 C3.49 16.53, 2.16 14.77, 1.45 12.75 C0.75 10.73, 0.53 7.14, 1.3 5.29 C2.08 3.43, 3.93 2.38, 6.1 1.62 C8.26 0.85, 12.92 0.97, 14.28 0.7 C15.64 0.44, 14.27 0.06, 14.25 0.04" stroke="none" stroke-width="0" fill="#a5d8ff"></path><path d="M12.45 0.29 C14.9 0.31, 18.75 1.1, 20.61 2.48 C22.47 3.86, 23.4 6.61, 23.59 8.56 C23.78 10.52, 23.12 12.78, 21.75 14.21 C20.38 15.65, 17.76 16.78, 15.35 17.19 C12.95 17.61, 9.64 17.45, 7.35 16.7 C5.06 15.96, 2.77 14.35, 1.6 12.73 C0.42 11.1, -0.34 8.84, 0.29 6.95 C0.91 5.07, 3.21 2.53, 5.36 1.39 C7.51 0.25, 11.77 0.31, 13.17 0.12 C14.57 -0.07, 13.81 0.07, 13.77 0.24 M14.55 -0.4 C16.87 -0.23, 19.21 2, 20.89 3.54 C22.58 5.08, 24.66 6.85, 24.66 8.84 C24.67 10.83, 22.59 13.88, 20.93 15.47 C19.27 17.05, 17.16 18.18, 14.71 18.36 C12.25 18.53, 8.43 17.61, 6.18 16.5 C3.93 15.39, 2.01 13.51, 1.19 11.68 C0.38 9.85, 0.54 7.29, 1.29 5.5 C2.04 3.71, 3.64 1.89, 5.67 0.93 C7.7 -0.02, 12.19 -0.03, 13.5 -0.25 C14.8 -0.47, 13.48 -0.56, 13.52 -0.38" stroke="#1e1e1e" stroke-width="2" fill="none"></path></g><g stroke-linecap="round" transform="translate(380.5478215209246 119.83936045850766) rotate(0 27.198305318673306 21)"><path d="M17.11 1.99 C22.24 0.14, 30.75 -0.31, 36.45 0.94 C42.15 2.2, 48.43 5.64, 51.32 9.53 C54.2 13.42, 54.74 19.75, 53.74 24.27 C52.73 28.8, 49.7 33.82, 45.26 36.68 C40.83 39.53, 32.9 41.33, 27.13 41.4 C21.35 41.46, 15.02 39.89, 10.59 37.07 C6.17 34.24, 1.64 29.05, 0.57 24.47 C-0.5 19.89, 1.06 13.39, 4.17 9.58 C7.28 5.78, 16.68 2.98, 19.23 1.64 C21.78 0.3, 19.28 1.32, 19.48 1.54 M20.52 1.11 C26.08 -0.24, 33.94 -0.2, 38.88 1.54 C43.83 3.28, 47.95 7.34, 50.21 11.53 C52.46 15.72, 53.78 22.07, 52.41 26.68 C51.04 31.29, 46.29 36.46, 41.99 39.2 C37.69 41.94, 32.04 43.9, 26.62 43.14 C21.2 42.39, 13.84 37.86, 9.49 34.65 C5.14 31.44, 1.21 27.93, 0.51 23.88 C-0.19 19.84, 1.97 14.31, 5.28 10.37 C8.59 6.44, 17.82 1.95, 20.39 0.27 C22.96 -1.4, 20.66 -0.17, 20.71 0.31" stroke="none" stroke-width="0" fill="#a5d8ff"></path><path d="M26.64 -0.17 C32.2 -0.54, 38.75 2.47, 43.22 5.31 C47.7 8.15, 52.13 12.77, 53.51 16.86 C54.89 20.96, 54.08 26.12, 51.5 29.89 C48.92 33.66, 43.34 37.69, 38.04 39.49 C32.73 41.28, 25.34 41.83, 19.66 40.67 C13.98 39.51, 7.08 36.4, 3.96 32.54 C0.84 28.68, 0.23 22.03, 0.93 17.52 C1.64 13.01, 3.18 8.4, 8.18 5.49 C13.18 2.59, 26.34 0.68, 30.96 0.11 C35.57 -0.46, 35.7 1.63, 35.88 2.07 M36.91 2.14 C42.26 3.64, 49.93 6.75, 52.67 10.86 C55.4 14.98, 54.59 22.19, 53.34 26.82 C52.09 31.45, 49.64 36.19, 45.16 38.63 C40.69 41.07, 32.4 41.94, 26.51 41.46 C20.62 40.99, 14 38.88, 9.8 35.8 C5.6 32.73, 2.36 27.44, 1.3 23.01 C0.24 18.58, 0.72 13.03, 3.45 9.23 C6.18 5.42, 12.19 1.67, 17.68 0.17 C23.18 -1.33, 33.19 -0.05, 36.41 0.2 C39.63 0.45, 37.17 1.24, 37 1.68" stroke="#1e1e1e" stroke-width="2" fill="none"></path></g><g transform="translate(396.6260202237006 130.99011805359015) rotate(0 10.88800048828125 10)"><text x="10.88800048828125" y="14.016" font-family="Virgil, Segoe UI Emoji" font-size="16px" fill="#1e1e1e" text-anchor="middle" style="white-space: pre;" direction="ltr" dominant-baseline="alphabetic">QA</text></g><g transform="translate(188.7738952476609 10) rotate(0 38.06999969482422 12.5)"><text x="0" y="17.52" font-family="Virgil, Segoe UI Emoji" font-size="20px" fill="#1e1e1e" text-anchor="start" style="white-space: pre;" direction="ltr" dominant-baseline="alphabetic">Team A</text></g><g stroke-linecap="round" transform="translate(293.4887115417473 405.24165211390164) rotate(0 33 21)"><path d="M27.86 -0.07 C34.43 -0.87, 44.71 0.43, 50.76 2.74 C56.8 5.04, 61.84 9.42, 64.13 13.74 C66.42 18.05, 67.04 24.39, 64.5 28.63 C61.96 32.87, 55.13 37.21, 48.88 39.21 C42.63 41.2, 33.9 41.34, 27 40.6 C20.09 39.85, 12.08 38.02, 7.45 34.72 C2.83 31.43, -1.01 25.47, -0.76 20.86 C-0.51 16.24, 3.24 10.68, 8.95 7.05 C14.66 3.42, 28.46 0.01, 33.53 -0.93 C38.6 -1.88, 39.26 0.82, 39.37 1.39 M28.57 0.65 C35.27 0.21, 44.2 2.19, 50.47 4.84 C56.73 7.48, 63.85 12.63, 66.16 16.53 C68.47 20.43, 67.38 24.21, 64.3 28.23 C61.22 32.26, 54.15 38.29, 47.67 40.67 C41.19 43.05, 32.23 43.83, 25.42 42.51 C18.61 41.18, 10.9 36.72, 6.81 32.72 C2.72 28.72, 0.43 22.86, 0.89 18.53 C1.34 14.19, 4.55 9.6, 9.55 6.71 C14.55 3.82, 27.38 2.45, 30.87 1.19 C34.36 -0.07, 30.46 -0.95, 30.47 -0.84" stroke="none" stroke-width="0" fill="#e7f5ff"></path><path d="M47.18 1 C53.6 2.35, 60.43 6.94, 63.52 11.12 C66.61 15.3, 67.69 21.52, 65.73 26.1 C63.78 30.68, 57.6 36.04, 51.78 38.59 C45.96 41.13, 37.99 41.79, 30.84 41.35 C23.69 40.91, 14.14 39.07, 8.89 35.96 C3.64 32.85, 0 27.13, -0.66 22.67 C-1.31 18.22, 0.65 12.83, 4.95 9.23 C9.25 5.63, 17.71 2.11, 25.14 1.08 C32.58 0.05, 45.5 2.71, 49.55 3.04 C53.61 3.38, 49.82 2.72, 49.48 3.1 M29.39 1.21 C36.12 -0.01, 44.65 0.46, 50.63 2.52 C56.6 4.59, 62.87 9.34, 65.24 13.57 C67.61 17.8, 67.69 23.67, 64.83 27.89 C61.97 32.12, 54.67 36.78, 48.07 38.93 C41.46 41.08, 32.22 41.83, 25.22 40.8 C18.22 39.77, 10.33 36.18, 6.05 32.75 C1.78 29.32, -0.57 24.62, -0.41 20.24 C-0.26 15.86, 2.31 10.01, 6.98 6.46 C11.66 2.9, 24.29 -0.06, 27.63 -1.1 C30.97 -2.14, 26.76 -0.17, 27 0.22" stroke="#1e1e1e" stroke-width="1" fill="none"></path></g><g transform="translate(308.7821880219906 416.39240970898413) rotate(0 17.871999740600586 10)"><text x="17.871999740600586" y="14.016" font-family="Virgil, Segoe UI Emoji" font-size="16px" fill="#1e1e1e" text-anchor="middle" style="white-space: pre;" direction="ltr" dominant-baseline="alphabetic">User</text></g><g stroke-linecap="round" transform="translate(368.4887115417473 401.24165211390164) rotate(0 33 35.5)"><path d="M23.37 1.34 C29.07 -1.23, 38.06 -1.48, 44.21 0.91 C50.35 3.3, 56.74 9.77, 60.24 15.68 C63.74 21.6, 65.25 29.55, 65.23 36.4 C65.2 43.24, 63.93 51.38, 60.09 56.73 C56.26 62.07, 48.58 66.32, 42.21 68.47 C35.84 70.61, 27.87 71.63, 21.87 69.61 C15.88 67.59, 9.92 62.27, 6.25 56.34 C2.57 50.41, -0.21 41.18, -0.19 34.03 C-0.17 26.89, 1.89 19.14, 6.37 13.46 C10.84 7.79, 22.67 1.92, 26.66 -0.02 C30.64 -1.96, 30.08 1, 30.26 1.84 M18.56 5.05 C23.87 1.41, 32.31 -0.83, 38.73 -0.1 C45.15 0.64, 52.59 4.41, 57.09 9.47 C61.59 14.53, 64.66 23.07, 65.74 30.27 C66.82 37.46, 66.4 46.74, 63.56 52.65 C60.72 58.56, 54.5 62.81, 48.69 65.75 C42.89 68.68, 35.22 70.91, 28.72 70.25 C22.23 69.59, 14.35 66.66, 9.73 61.79 C5.1 56.92, 2.02 47.94, 0.96 41.04 C-0.1 34.14, 0.38 26.61, 3.35 20.39 C6.33 14.17, 16.21 6.37, 18.81 3.7 C21.41 1.03, 18.72 3.68, 18.95 4.36" stroke="none" stroke-width="0" fill="#e7f5ff"></path><path d="M18.61 3.7 C23.72 0.45, 31.33 -0.19, 37.7 0.79 C44.06 1.78, 52.3 4.79, 56.81 9.61 C61.31 14.44, 63.92 22.81, 64.74 29.74 C65.57 36.66, 64.66 44.91, 61.74 51.16 C58.83 57.41, 52.73 63.94, 47.24 67.24 C41.76 70.54, 34.94 71.95, 28.85 70.96 C22.75 69.97, 15.51 66.32, 10.65 61.31 C5.8 56.29, 0.86 47.67, -0.28 40.87 C-1.41 34.08, 0.03 27.11, 3.83 20.54 C7.62 13.97, 18.3 4.54, 22.51 1.46 C26.73 -1.63, 28.76 1.37, 29.09 2.04 M28.42 -0.18 C34.1 -1.75, 41.32 0.11, 46.72 3.16 C52.12 6.21, 57.86 12.13, 60.82 18.12 C63.77 24.12, 65.2 32.16, 64.44 39.13 C63.68 46.1, 60.75 54.81, 56.26 59.92 C51.76 65.02, 43.81 68.75, 37.45 69.77 C31.1 70.79, 23.91 69.04, 18.12 66.02 C12.34 63, 5.63 57.74, 2.76 51.65 C-0.1 45.55, -0.32 36.23, 0.95 29.43 C2.22 22.62, 6.04 15.49, 10.36 10.83 C14.69 6.16, 24.29 3.11, 26.91 1.44 C29.54 -0.23, 26.02 0.27, 26.11 0.83" stroke="#1e1e1e" stroke-width="1" fill="none"></path></g><g transform="translate(383.7821880219906 416.6393613817792) rotate(0 17.871999740600586 20)"><text x="17.871999740600586" y="14.016" font-family="Virgil, Segoe UI Emoji" font-size="16px" fill="#1e1e1e" text-anchor="middle" style="white-space: pre;" direction="ltr" dominant-baseline="alphabetic">User</text><text x="17.871999740600586" y="34.016" font-family="Virgil, Segoe UI Emoji" font-size="16px" fill="#1e1e1e" text-anchor="middle" style="white-space: pre;" direction="ltr" dominant-baseline="alphabetic">Grp</text></g><g stroke-linecap="round" transform="translate(487.9887115417473 408.74165211390164) rotate(0 33 21)"><path d="M23.37 0.69 C29.63 -0.98, 39.82 -1.24, 46.36 0.66 C52.9 2.55, 59.62 7.82, 62.63 12.05 C65.64 16.28, 65.91 21.78, 64.41 26.06 C62.91 30.33, 59.22 35.2, 53.62 37.69 C48.03 40.19, 38.1 41.16, 30.84 41.03 C23.59 40.9, 15.15 39.75, 10.09 36.92 C5.02 34.08, 1.31 28.72, 0.47 24.01 C-0.37 19.3, 0.73 12.72, 5.06 8.65 C9.39 4.59, 22.18 1.1, 26.43 -0.38 C30.67 -1.87, 30.26 -0.89, 30.53 -0.26 M46.21 2.4 C52.45 4.24, 59.7 8.8, 62.97 12.59 C66.23 16.38, 67.33 21.12, 65.79 25.16 C64.25 29.2, 59.42 33.99, 53.7 36.86 C47.98 39.72, 38.49 42.25, 31.49 42.35 C24.48 42.46, 16.77 40.82, 11.67 37.47 C6.58 34.12, 1.84 26.94, 0.92 22.24 C-0.01 17.54, 2.39 12.64, 6.12 9.27 C9.86 5.91, 16.61 3.35, 23.31 2.07 C30.02 0.79, 42.71 1.43, 46.38 1.58 C50.06 1.73, 45.53 2.69, 45.36 2.99" stroke="none" stroke-width="0" fill="#fff9db"></path><path d="M28.6 -0.32 C35.07 -1.3, 43.46 0.73, 49.27 3.12 C55.08 5.51, 61.19 9.74, 63.45 14.03 C65.7 18.31, 65.09 24.54, 62.79 28.83 C60.49 33.11, 55.55 37.54, 49.65 39.75 C43.75 41.96, 34.58 43.1, 27.4 42.09 C20.22 41.08, 11.08 37.13, 6.57 33.69 C2.06 30.25, 0.15 25.93, 0.36 21.46 C0.57 17, 2.38 10.32, 7.85 6.91 C13.31 3.49, 28.25 1.96, 33.15 0.96 C38.06 -0.04, 37.46 0.6, 37.28 0.9 M24.92 0.04 C30.97 -1.17, 40.55 -0.36, 46.77 1.54 C52.99 3.45, 59.34 7.26, 62.22 11.49 C65.11 15.72, 66.18 22.52, 64.09 26.93 C61.99 31.34, 55.57 35.7, 49.64 37.96 C43.7 40.22, 35.47 41.01, 28.48 40.48 C21.49 39.96, 12.33 38.06, 7.69 34.81 C3.05 31.55, 0.64 25.36, 0.65 20.95 C0.67 16.54, 3.68 11.58, 7.79 8.33 C11.9 5.08, 22.51 2.73, 25.3 1.43 C28.09 0.13, 24.41 0.21, 24.53 0.53" stroke="#1e1e1e" stroke-width="1" fill="none"></path></g><g transform="translate(503.2821880219906 419.89240970898413) rotate(0 17.871999740600586 10)"><text x="17.871999740600586" y="14.016" font-family="Virgil, Segoe UI Emoji" font-size="16px" fill="#1e1e1e" text-anchor="middle" style="white-space: pre;" direction="ltr" dominant-baseline="alphabetic">User</text></g><g stroke-linecap="round" transform="translate(562.9887115417473 404.74165211390164) rotate(0 33 35.5)"><path d="M44.26 1.85 C50.26 3.29, 55.85 8.29, 59.39 14.06 C62.93 19.82, 65.46 29.28, 65.5 36.46 C65.54 43.63, 63.47 51.78, 59.66 57.1 C55.84 62.43, 48.84 66.55, 42.6 68.42 C36.36 70.3, 28.23 70.54, 22.2 68.34 C16.17 66.15, 9.99 60.63, 6.42 55.24 C2.86 49.84, 0.63 42.66, 0.79 35.97 C0.94 29.28, 3.77 20.78, 7.35 15.09 C10.93 9.4, 15.66 3.78, 22.26 1.85 C28.86 -0.09, 42.38 2.85, 46.94 3.48 C51.51 4.1, 50 5.03, 49.63 5.6 M24.5 2.63 C30.33 -0.04, 38.36 -1.45, 44.42 0.58 C50.48 2.62, 57.27 8.71, 60.87 14.83 C64.47 20.94, 66.18 30.28, 66.02 37.28 C65.85 44.27, 63.82 51.28, 59.89 56.8 C55.96 62.32, 48.55 68.39, 42.42 70.4 C36.28 72.42, 29.05 71.32, 23.09 68.87 C17.13 66.41, 10.36 61.23, 6.64 55.69 C2.92 50.14, 0.56 42.42, 0.75 35.62 C0.95 28.82, 4.15 20.54, 7.79 14.88 C11.42 9.23, 20.15 3.73, 22.56 1.69 C24.98 -0.36, 22.06 2.27, 22.28 2.61" stroke="none" stroke-width="0" fill="#fff9db"></path><path d="M22.92 1.25 C28.65 -1.04, 36.76 -0.12, 43.1 2.31 C49.44 4.74, 57.02 10.03, 60.97 15.82 C64.92 21.6, 67.2 30.19, 66.77 37 C66.35 43.82, 62.43 51.12, 58.41 56.7 C54.39 62.27, 48.79 68.45, 42.65 70.45 C36.52 72.44, 27.61 70.99, 21.6 68.66 C15.6 66.34, 10.09 62.13, 6.6 56.49 C3.11 50.85, 0.67 41.84, 0.65 34.84 C0.64 27.84, 1.56 20.16, 6.52 14.49 C11.48 8.81, 25.24 3.11, 30.41 0.79 C35.58 -1.53, 37.47 0.26, 37.53 0.58 M23.93 0.93 C29.75 -1.15, 37.47 -0.69, 43.53 1.61 C49.59 3.91, 56.72 8.85, 60.29 14.72 C63.85 20.59, 65.06 29.81, 64.9 36.8 C64.74 43.8, 63.03 51.21, 59.33 56.71 C55.63 62.21, 49.1 67.67, 42.69 69.81 C36.27 71.96, 27.27 72.15, 20.83 69.6 C14.39 67.05, 7.56 60.38, 4.02 54.54 C0.48 48.69, -0.86 41.45, -0.41 34.52 C0.04 27.6, 2.77 18.34, 6.75 13 C10.72 7.65, 20.51 4.25, 23.45 2.44 C26.4 0.63, 24.19 1.62, 24.42 2.13" stroke="#1e1e1e" stroke-width="1" fill="none"></path></g><g transform="translate(578.2821880219906 420.1393613817792) rotate(0 17.871999740600586 20)"><text x="17.871999740600586" y="14.016" font-family="Virgil, Segoe UI Emoji" font-size="16px" fill="#1e1e1e" text-anchor="middle" style="white-space: pre;" direction="ltr" dominant-baseline="alphabetic">User</text><text x="17.871999740600586" y="34.016" font-family="Virgil, Segoe UI Emoji" font-size="16px" fill="#1e1e1e" text-anchor="middle" style="white-space: pre;" direction="ltr" dominant-baseline="alphabetic">Grp</text></g><g stroke-linecap="round" transform="translate(482.4887115417473 494.24165211390164) rotate(0 23 18.5)"><path d="M9.25 0 C19.87 2.67, 31.26 1.54, 36.75 0 C39.66 2, 45.23 3.13, 46 9.25 C45.64 18.32, 48 22.74, 46 27.75 C47.64 33.52, 44.72 38.81, 36.75 37 C26.76 33.68, 17.02 35.68, 9.25 37 C0.18 38.77, -1.04 31.84, 0 27.75 C-0.46 21.45, -0.82 17.94, 0 9.25 C-0.54 4.65, 4.73 3.36, 9.25 0" stroke="none" stroke-width="0" fill="#fff9db"></path><path d="M9.25 0 C14.36 -0.4, 20.63 0.47, 36.75 0 M9.25 0 C20 -0.94, 29.28 0.14, 36.75 0 M36.75 0 C44.69 -0.61, 45.45 4.76, 46 9.25 M36.75 0 C45.11 1.47, 46.8 2.29, 46 9.25 M46 9.25 C45.05 15.01, 45.34 21.13, 46 27.75 M46 9.25 C45.59 13.63, 45.11 17.95, 46 27.75 M46 27.75 C45.56 32.12, 41.51 36.42, 36.75 37 M46 27.75 C46.95 32.33, 44.51 37.08, 36.75 37 M36.75 37 C28.79 36.15, 22.9 36.03, 9.25 37 M36.75 37 C28.9 37.36, 20.93 37.8, 9.25 37 M9.25 37 C1.12 37.56, 1.31 32.38, 0 27.75 M9.25 37 C4.02 38.53, -0.07 32.64, 0 27.75 M0 27.75 C0.48 24.64, -0.27 18.34, 0 9.25 M0 27.75 C-0.56 23.31, 1 18.15, 0 9.25 M0 9.25 C1.64 1.19, 3.58 0.99, 9.25 0 M0 9.25 C0.9 4.86, 4.04 -0.81, 9.25 0" stroke="#1e1e1e" stroke-width="1" fill="none"></path></g><g transform="translate(494.4567119537346 502.74165211390164) rotate(0 11.031999588012695 10)"><text x="11.031999588012695" y="14.016" font-family="Virgil, Segoe UI Emoji" font-size="16px" fill="#1e1e1e" text-anchor="middle" style="white-space: pre;" direction="ltr" dominant-baseline="alphabetic">api</text></g><g stroke-linecap="round" transform="translate(535.4887115417473 492.74165211390164) rotate(0 23 18.5)"><path d="M9.25 0 C16.32 1.78, 29.13 -0.17, 36.75 0 C45.66 1.3, 45.82 2.56, 46 9.25 C47.7 15.61, 47.85 24.37, 46 27.75 C48.72 35.74, 40.99 37.34, 36.75 37 C27.93 38.62, 23.87 34.78, 9.25 37 C1.78 33.68, -2.76 33.09, 0 27.75 C-0.39 24.44, 1.63 21.33, 0 9.25 C-0.99 2.92, 3.51 -0.61, 9.25 0" stroke="none" stroke-width="0" fill="#fff9db"></path><path d="M9.25 0 C18.44 0.64, 26.29 0.91, 36.75 0 M9.25 0 C16.39 -0.4, 21.48 0.74, 36.75 0 M36.75 0 C44.82 1.28, 46.7 2.4, 46 9.25 M36.75 0 C44.45 -1.02, 47.64 2, 46 9.25 M46 9.25 C44.96 12.28, 44.21 17.79, 46 27.75 M46 9.25 C45.65 13.58, 45.2 19.31, 46 27.75 M46 27.75 C46.82 32.53, 44.3 37.07, 36.75 37 M46 27.75 C45.32 35.32, 40.83 36.39, 36.75 37 M36.75 37 C28.98 35.7, 23.5 36.76, 9.25 37 M36.75 37 C27.14 37.44, 20.14 36.39, 9.25 37 M9.25 37 C3.9 38.33, -0.06 32.81, 0 27.75 M9.25 37 C0.91 35.85, 1.16 34.39, 0 27.75 M0 27.75 C-0.34 20.07, 0.72 13.86, 0 9.25 M0 27.75 C0.59 19.87, 0.06 14.2, 0 9.25 M0 9.25 C0.79 4.63, 3.91 -0.7, 9.25 0 M0 9.25 C1.22 1.72, 3.32 0.58, 9.25 0" stroke="#1e1e1e" stroke-width="1" fill="none"></path></g><g transform="translate(547.4567119537346 501.24165211390164) rotate(0 11.031999588012695 10)"><text x="11.031999588012695" y="14.016" font-family="Virgil, Segoe UI Emoji" font-size="16px" fill="#1e1e1e" text-anchor="middle" style="white-space: pre;" direction="ltr" dominant-baseline="alphabetic">api</text></g><g stroke-linecap="round" transform="translate(291.9887115417473 492.49165211390164) rotate(0 23 18.5)"><path d="M9.25 0 C21.77 1.29, 28.62 -0.53, 36.75 0 C45.2 2.03, 45.54 4.72, 46 9.25 C48.68 16.29, 44.39 20.26, 46 27.75 C42.94 34.84, 41.86 34.09, 36.75 37 C25.85 33.39, 14.78 35.89, 9.25 37 C1.55 35.79, -0.05 33.38, 0 27.75 C-1.07 21.24, 0.24 14.48, 0 9.25 C-2.13 0.07, 5.84 0.83, 9.25 0" stroke="none" stroke-width="0" fill="#e7f5ff"></path><path d="M9.25 0 C17.02 -1.1, 28.41 1.64, 36.75 0 M9.25 0 C17.61 0.41, 24.41 -0.57, 36.75 0 M36.75 0 C44.25 -0.89, 47.42 2.14, 46 9.25 M36.75 0 C41.65 -0.72, 43.91 1.86, 46 9.25 M46 9.25 C45.44 11.82, 44.95 16.93, 46 27.75 M46 9.25 C46.25 12.5, 46.51 17.06, 46 27.75 M46 27.75 C45.41 35.14, 41.1 36.47, 36.75 37 M46 27.75 C45.31 35.09, 42.09 36.61, 36.75 37 M36.75 37 C30.43 36.48, 24.71 35.02, 9.25 37 M36.75 37 C28.14 37.45, 18.68 36.24, 9.25 37 M9.25 37 C1.19 36, 1.01 34.33, 0 27.75 M9.25 37 C3.94 36.54, -2.25 33.44, 0 27.75 M0 27.75 C1.38 25.35, 1.41 21.04, 0 9.25 M0 27.75 C0.32 24.66, 0.34 19.83, 0 9.25 M0 9.25 C1.06 1.9, 3.29 0.51, 9.25 0 M0 9.25 C1.74 4.75, 4.1 -2.08, 9.25 0" stroke="#1e1e1e" stroke-width="1" fill="none"></path></g><g transform="translate(303.9567119537346 500.99165211390164) rotate(0 11.031999588012695 10)"><text x="11.031999588012695" y="14.016" font-family="Virgil, Segoe UI Emoji" font-size="16px" fill="#1e1e1e" text-anchor="middle" style="white-space: pre;" direction="ltr" dominant-baseline="alphabetic">api</text></g><g stroke-linecap="round" transform="translate(344.9887115417473 490.99165211390164) rotate(0 23 18.5)"><path d="M9.25 0 C20.78 2.1, 27.28 1.71, 36.75 0 C42.52 1.8, 47.81 5.8, 46 9.25 C43 16.6, 44.85 19.54, 46 27.75 C47.77 32.87, 40.84 35.7, 36.75 37 C29.51 35.67, 25.28 36.35, 9.25 37 C4.65 38.64, 3.36 32.93, 0 27.75 C-2.01 19.5, 2.51 17.59, 0 9.25 C-0.5 0.89, 6.54 1.75, 9.25 0" stroke="none" stroke-width="0" fill="#e7f5ff"></path><path d="M9.25 0 C15.56 -0.79, 24.78 1.66, 36.75 0 M9.25 0 C19.93 -0.35, 29.98 -0.38, 36.75 0 M36.75 0 C41.82 -0.63, 44.18 2.02, 46 9.25 M36.75 0 C41.04 -2.15, 45.35 2.6, 46 9.25 M46 9.25 C44.25 12.02, 45.37 18.17, 46 27.75 M46 9.25 C45.85 14.09, 45.29 17.55, 46 27.75 M46 27.75 C45.4 34.94, 42.2 36.66, 36.75 37 M46 27.75 C44.62 35.76, 42.76 37.32, 36.75 37 M36.75 37 C29.75 38.04, 20.09 37.55, 9.25 37 M36.75 37 C25.73 36.35, 17.11 37.06, 9.25 37 M9.25 37 C3.83 36.6, -1.95 33.51, 0 27.75 M9.25 37 C1.3 37.85, -1.75 35.72, 0 27.75 M0 27.75 C-1.9 20.95, 0.77 13.96, 0 9.25 M0 27.75 C0.41 20.22, 0.02 14.03, 0 9.25 M0 9.25 C1.51 4.53, 3.97 -1.81, 9.25 0 M0 9.25 C1.28 2.59, 3.12 1.75, 9.25 0" stroke="#1e1e1e" stroke-width="1" fill="none"></path></g><g transform="translate(356.9567119537346 499.49165211390164) rotate(0 11.031999588012695 10)"><text x="11.031999588012695" y="14.016" font-family="Virgil, Segoe UI Emoji" font-size="16px" fill="#1e1e1e" text-anchor="middle" style="white-space: pre;" direction="ltr" dominant-baseline="alphabetic">api</text></g><g transform="translate(278.4180693994904 686.7388653476914) rotate(0 74.72000122070312 12.5)"><text x="0" y="17.52" font-family="Virgil, Segoe UI Emoji" font-size="20px" fill="#1e1e1e" text-anchor="start" style="white-space: pre;" direction="ltr" dominant-baseline="alphabetic">Tyk Dashboard</text></g><g stroke-linecap="round" transform="translate(558.4977521309108 93.59014749021026) rotate(0 12 9)"><path d="M14.28 0.36 C16.66 0.64, 20.18 2.25, 21.86 3.81 C23.54 5.37, 24.58 7.78, 24.37 9.72 C24.15 11.65, 22.44 14.05, 20.57 15.43 C18.69 16.81, 15.62 17.74, 13.11 17.99 C10.61 18.23, 7.59 17.93, 5.55 16.9 C3.51 15.88, 1.71 13.68, 0.87 11.82 C0.03 9.95, -0.41 7.53, 0.52 5.73 C1.46 3.92, 3.98 1.84, 6.49 0.97 C9 0.1, 14.07 0.58, 15.58 0.51 C17.09 0.43, 15.61 0.36, 15.54 0.52 M11.99 0.38 C14.46 0.29, 18.09 1.16, 19.98 2.3 C21.87 3.44, 23.02 5.37, 23.34 7.22 C23.67 9.08, 23.13 11.85, 21.94 13.44 C20.76 15.03, 18.46 16.1, 16.25 16.75 C14.03 17.4, 11.11 17.88, 8.63 17.33 C6.15 16.79, 2.91 15.18, 1.37 13.48 C-0.16 11.78, -0.98 9.06, -0.57 7.15 C-0.16 5.23, 1.83 3.17, 3.82 1.98 C5.81 0.78, 10.08 0.24, 11.36 -0.01 C12.64 -0.25, 11.4 0.24, 11.51 0.51" stroke="none" stroke-width="0" fill="#ffec99"></path><path d="M13.75 -0.15 C16.2 -0.1, 19.31 1.26, 20.97 2.7 C22.64 4.15, 23.77 6.54, 23.73 8.52 C23.7 10.5, 22.4 13.1, 20.79 14.59 C19.18 16.08, 16.56 17.1, 14.07 17.45 C11.59 17.81, 8.14 17.66, 5.85 16.72 C3.55 15.78, 1.19 13.55, 0.31 11.79 C-0.58 10.04, -0.33 7.9, 0.55 6.2 C1.42 4.49, 3.26 2.62, 5.57 1.59 C7.88 0.56, 12.84 0.3, 14.42 0.03 C16 -0.24, 15.12 -0.18, 15.06 -0.03 M13.08 0.67 C15.55 0.83, 18.98 1.61, 20.77 3 C22.56 4.39, 23.79 7.07, 23.8 9.01 C23.81 10.95, 22.25 13.3, 20.81 14.66 C19.36 16.03, 17.46 16.73, 15.13 17.2 C12.79 17.68, 9.17 18.35, 6.8 17.49 C4.43 16.64, 2.07 13.98, 0.91 12.06 C-0.26 10.13, -1 7.7, -0.17 5.95 C0.67 4.2, 3.57 2.59, 5.9 1.58 C8.23 0.58, 12.66 0.17, 13.81 -0.08 C14.95 -0.32, 12.93 -0.12, 12.76 0.1" stroke="#1e1e1e" stroke-width="2" fill="none"></path></g><g stroke-linecap="round" transform="translate(538.2519888342274 113.59014749021026) rotate(0 28.622881648341718 21)"><path d="M40.55 2.14 C46.32 3.63, 52.43 8.01, 55.02 12.06 C57.61 16.11, 57.76 22.12, 56.1 26.44 C54.44 30.77, 49.87 35.28, 45.04 37.99 C40.21 40.7, 33.01 42.94, 27.11 42.72 C21.21 42.49, 14.27 39.8, 9.63 36.67 C4.99 33.53, 0.12 28.46, -0.72 23.92 C-1.57 19.38, 0.89 13.19, 4.55 9.41 C8.22 5.63, 14.12 1.94, 21.27 1.22 C28.43 0.5, 42.13 3.46, 47.47 5.08 C52.82 6.71, 53.66 10.64, 53.33 11 M28.19 0.79 C33.73 0.19, 40.49 1.7, 44.99 4.34 C49.5 6.98, 53.77 12.46, 55.22 16.61 C56.68 20.77, 56.15 25.4, 53.72 29.28 C51.28 33.16, 46.32 38, 40.6 39.88 C34.89 41.76, 25.68 41.98, 19.45 40.56 C13.23 39.13, 6.53 35.11, 3.27 31.33 C0 27.54, -1.02 22.13, -0.14 17.85 C0.74 13.57, 4.05 8.52, 8.55 5.65 C13.04 2.79, 23.63 1.32, 26.83 0.68 C30.04 0.05, 27.78 1.62, 27.77 1.85" stroke="none" stroke-width="0" fill="#ffec99"></path><path d="M38.28 0.41 C43.86 1.6, 50.05 5.79, 52.98 9.81 C55.9 13.82, 56.89 20.08, 55.84 24.5 C54.79 28.93, 51.31 33.5, 46.66 36.38 C42.02 39.26, 34.21 41.79, 27.96 41.78 C21.71 41.76, 13.82 39.1, 9.18 36.29 C4.54 33.48, 1.1 29.12, 0.11 24.92 C-0.88 20.72, 0.08 15.07, 3.24 11.07 C6.4 7.07, 12.57 2.54, 19.05 0.92 C25.54 -0.7, 38.04 0.93, 42.16 1.36 C46.27 1.78, 43.99 3.09, 43.75 3.5 M26.1 0.28 C31.96 -0.4, 39.94 2.07, 44.72 4.7 C49.51 7.32, 53.02 12.02, 54.82 16.04 C56.62 20.05, 57.77 24.6, 55.51 28.77 C53.25 32.94, 47 39.11, 41.26 41.05 C35.53 43, 27.35 41.91, 21.1 40.44 C14.84 38.97, 7.09 35.76, 3.72 32.25 C0.35 28.75, -0.01 23.83, 0.87 19.43 C1.75 15.02, 5.02 9.09, 8.99 5.82 C12.97 2.54, 22.05 0.56, 24.74 -0.23 C27.42 -1.03, 24.99 0.45, 25.09 1.04" stroke="#1e1e1e" stroke-width="2" fill="none"></path></g><g transform="translate(551.8354375348661 124.74090508529275) rotate(0 14.799999237060547 10)"><text x="14.799999237060547" y="14.016" font-family="Virgil, Segoe UI Emoji" font-size="16px" fill="#1e1e1e" text-anchor="middle" style="white-space: pre;" direction="ltr" dominant-baseline="alphabetic">Dev</text></g><g stroke-linecap="round" transform="translate(606.9977521309108 94.09014749021026) rotate(0 12 9)"><path d="M13 0.31 C15.33 0.35, 18.43 1.36, 20.28 2.76 C22.13 4.16, 23.79 6.74, 24.09 8.69 C24.4 10.64, 23.71 12.91, 22.12 14.46 C20.52 16.01, 17.09 17.55, 14.53 18 C11.96 18.44, 8.88 17.97, 6.7 17.12 C4.52 16.27, 2.5 14.66, 1.45 12.89 C0.4 11.12, -0.26 8.34, 0.42 6.5 C1.1 4.66, 3.32 2.88, 5.54 1.85 C7.77 0.82, 12.29 0.54, 13.77 0.33 C15.24 0.13, 14.35 0.45, 14.38 0.62 M12.88 0.27 C15.35 0.27, 18.68 0.94, 20.59 2.29 C22.51 3.64, 24.27 6.37, 24.35 8.35 C24.44 10.34, 22.85 12.7, 21.12 14.18 C19.38 15.65, 16.42 16.79, 13.95 17.2 C11.49 17.62, 8.54 17.47, 6.33 16.68 C4.12 15.89, 1.66 14.14, 0.68 12.47 C-0.3 10.8, -0.43 8.38, 0.43 6.65 C1.29 4.93, 3.71 3.23, 5.85 2.13 C8 1.03, 12.03 0.37, 13.31 0.04 C14.6 -0.3, 13.64 0.07, 13.58 0.12" stroke="none" stroke-width="0" fill="#ffec99"></path><path d="M8.83 0.09 C11.2 -0.43, 15.01 -0.3, 17.34 0.58 C19.67 1.46, 21.86 3.59, 22.81 5.37 C23.76 7.15, 23.76 9.38, 23.03 11.28 C22.29 13.17, 20.53 15.58, 18.39 16.75 C16.26 17.92, 12.72 18.57, 10.2 18.28 C7.67 17.99, 4.89 16.54, 3.25 14.99 C1.6 13.45, 0.48 10.95, 0.32 9.02 C0.16 7.1, 0.69 4.94, 2.28 3.44 C3.87 1.93, 8.6 0.57, 9.87 0 C11.14 -0.57, 9.83 -0.16, 9.9 0.01 M11.68 0.22 C14.24 0, 18.44 0.4, 20.52 1.74 C22.6 3.07, 23.92 6.31, 24.19 8.25 C24.46 10.18, 23.69 11.86, 22.15 13.35 C20.62 14.84, 17.38 16.5, 15 17.19 C12.62 17.88, 10.1 18.19, 7.88 17.5 C5.66 16.82, 3.08 14.83, 1.68 13.08 C0.29 11.32, -0.86 8.79, -0.47 6.97 C-0.08 5.16, 1.98 3.25, 4.03 2.18 C6.08 1.12, 10.34 0.83, 11.85 0.59 C13.36 0.36, 12.91 0.85, 13.1 0.78" stroke="#1e1e1e" stroke-width="2" fill="none"></path></g><g stroke-linecap="round" transform="translate(600.9977521309108 114.09014749021026) rotate(0 25.41758490658799 21)"><path d="M30.06 0.55 C35.29 1.21, 42.09 5.2, 45.67 8.79 C49.25 12.39, 51.92 17.67, 51.55 22.13 C51.17 26.6, 47.23 32.3, 43.44 35.57 C39.65 38.85, 33.91 41.2, 28.79 41.8 C23.68 42.41, 17.35 41.6, 12.75 39.19 C8.16 36.79, 2.92 31.63, 1.21 27.39 C-0.51 23.14, 0.45 17.81, 2.47 13.74 C4.48 9.66, 7.61 4.77, 13.31 2.93 C19.01 1.1, 31.85 2.16, 36.69 2.72 C41.53 3.28, 42.46 6.16, 42.37 6.3 M26.18 -1.19 C31.7 -1.39, 39.47 1.97, 43.4 5.14 C47.33 8.3, 49.43 13.45, 49.77 17.8 C50.1 22.14, 48.27 27.43, 45.42 31.2 C42.56 34.97, 37.68 38.89, 32.62 40.41 C27.57 41.94, 20.1 41.87, 15.09 40.35 C10.09 38.83, 4.9 35.04, 2.6 31.28 C0.3 27.51, 0.14 22.28, 1.31 17.78 C2.48 13.27, 5.36 7.22, 9.61 4.22 C13.86 1.22, 24.12 0.61, 26.8 -0.23 C29.49 -1.07, 25.57 -1.26, 25.71 -0.81" stroke="none" stroke-width="0" fill="#ffec99"></path><path d="M15.14 0.92 C19.84 -1.01, 27.13 -0.64, 32.23 0.66 C37.34 1.97, 42.73 4.89, 45.76 8.75 C48.78 12.62, 50.97 19.15, 50.37 23.85 C49.77 28.55, 46.08 34, 42.17 36.97 C38.26 39.94, 32.15 41.67, 26.93 41.67 C21.71 41.66, 15.27 39.63, 10.85 36.94 C6.43 34.25, 1.69 29.83, 0.42 25.54 C-0.85 21.26, 0.51 15.37, 3.21 11.22 C5.92 7.07, 13.97 2.31, 16.64 0.64 C19.31 -1.03, 19.05 0.79, 19.24 1.17 M33.65 -0.28 C39.05 0.78, 44.42 6.62, 47.25 10.43 C50.07 14.24, 51.58 18.4, 50.62 22.58 C49.66 26.76, 45.29 32.23, 41.47 35.51 C37.65 38.79, 32.79 41.93, 27.69 42.27 C22.58 42.62, 15.57 40.35, 10.83 37.56 C6.08 34.78, 0.78 29.8, -0.77 25.56 C-2.32 21.33, -0.97 15.93, 1.52 12.15 C4.01 8.38, 8.75 4.59, 14.18 2.91 C19.6 1.23, 30.8 2.58, 34.06 2.07 C37.33 1.56, 34.05 -0.4, 33.76 -0.14" stroke="#1e1e1e" stroke-width="2" fill="none"></path></g><g transform="translate(615.0263900224547 125.24090508529275) rotate(0 11.416000366210938 10)"><text x="11.416000366210938" y="14.016" font-family="Virgil, Segoe UI Emoji" font-size="16px" fill="#1e1e1e" text-anchor="middle" style="white-space: pre;" direction="ltr" dominant-baseline="alphabetic">PM</text></g><g stroke-linecap="round" transform="translate(656.9977521309108 96.09014749021026) rotate(0 12 9)"><path d="M12.67 0.22 C15.02 0.14, 17.65 1.29, 19.5 2.53 C21.34 3.78, 23.24 5.78, 23.76 7.67 C24.28 9.56, 23.94 12.25, 22.62 13.88 C21.29 15.51, 18.24 16.83, 15.79 17.46 C13.34 18.09, 10.32 18.31, 7.92 17.66 C5.52 17, 2.68 15.23, 1.39 13.53 C0.1 11.83, -0.38 9.32, 0.19 7.46 C0.75 5.59, 2.66 3.62, 4.78 2.34 C6.9 1.05, 11.54 0.17, 12.91 -0.25 C14.29 -0.68, 13.07 -0.38, 13.03 -0.21 M9.16 -0.09 C11.35 -0.63, 14.72 -0.4, 17.02 0.51 C19.33 1.42, 21.97 3.48, 22.99 5.37 C24.01 7.26, 23.93 9.9, 23.13 11.84 C22.33 13.77, 20.26 15.87, 18.17 16.99 C16.08 18.12, 13.14 18.95, 10.58 18.6 C8.02 18.26, 4.56 16.52, 2.82 14.94 C1.07 13.36, 0.2 11.15, 0.09 9.12 C-0.02 7.09, 0.48 4.24, 2.16 2.78 C3.83 1.32, 8.94 0.84, 10.17 0.36 C11.4 -0.12, 9.47 -0.28, 9.54 -0.1" stroke="none" stroke-width="0" fill="#ffec99"></path><path d="M9.18 -0.18 C11.56 -0.6, 15.33 0.26, 17.6 1.3 C19.88 2.34, 21.86 4.33, 22.83 6.06 C23.79 7.8, 24.1 10.03, 23.39 11.72 C22.68 13.42, 20.78 15.23, 18.56 16.23 C16.34 17.23, 12.62 17.99, 10.07 17.75 C7.52 17.51, 4.94 16.24, 3.25 14.77 C1.56 13.3, -0.04 10.82, -0.08 8.92 C-0.12 7.01, 1.33 4.84, 3.02 3.35 C4.72 1.86, 8.8 0.6, 10.08 0 C11.36 -0.6, 10.66 -0.45, 10.71 -0.23 M9.69 -0.25 C11.89 -0.86, 14.79 -0.28, 17.11 0.75 C19.42 1.78, 22.49 4.09, 23.58 5.93 C24.67 7.77, 24.65 10.01, 23.63 11.78 C22.6 13.55, 19.8 15.5, 17.45 16.56 C15.1 17.62, 12.05 18.34, 9.54 18.16 C7.03 17.99, 3.85 16.9, 2.37 15.49 C0.9 14.09, 0.54 11.9, 0.7 9.76 C0.85 7.61, 1.76 4.16, 3.29 2.63 C4.82 1.09, 8.77 0.82, 9.89 0.54 C11.02 0.25, 9.99 0.88, 10.05 0.92" stroke="#1e1e1e" stroke-width="2" fill="none"></path></g><g stroke-linecap="round" transform="translate(654.5591929550817 114.6655711605419) rotate(0 27.198305318673306 21)"><path d="M36.32 2.03 C41.44 3.29, 47.87 7.11, 50.92 11.04 C53.96 14.96, 55.75 21.21, 54.6 25.6 C53.45 29.98, 48.62 34.49, 44.03 37.32 C39.44 40.15, 32.9 42.58, 27.06 42.55 C21.22 42.53, 13.48 40.15, 9 37.15 C4.52 34.15, 0.92 28.96, 0.18 24.56 C-0.56 20.15, 1.38 14.75, 4.54 10.74 C7.7 6.74, 12.97 1.95, 19.13 0.54 C25.3 -0.88, 37.19 1.46, 41.52 2.25 C45.85 3.04, 45.49 4.76, 45.1 5.28 M21.89 -0.93 C27.4 -1.83, 36.04 -0.06, 41.14 2.49 C46.25 5.05, 50.66 9.9, 52.51 14.39 C54.36 18.87, 54.2 25, 52.25 29.42 C50.29 33.83, 45.94 38.88, 40.78 40.89 C35.62 42.9, 27.06 42.68, 21.27 41.5 C15.48 40.31, 9.72 37.49, 6.03 33.76 C2.34 30.03, -1.21 23.52, -0.88 19.12 C-0.54 14.73, 4.05 10.68, 8.04 7.38 C12.03 4.07, 20.27 0.31, 23.06 -0.69 C25.86 -1.7, 24.69 1.05, 24.79 1.36" stroke="none" stroke-width="0" fill="#ffec99"></path><path d="M23.92 0.54 C29.42 0.04, 36.69 1.84, 41.59 4.22 C46.5 6.6, 51.49 10.75, 53.34 14.81 C55.19 18.86, 55.11 24.41, 52.72 28.53 C50.32 32.65, 44.23 37.44, 38.99 39.53 C33.75 41.61, 26.92 42.16, 21.27 41.04 C15.62 39.93, 8.51 36.41, 5.11 32.83 C1.71 29.26, 0.43 24.01, 0.86 19.58 C1.28 15.15, 3.38 9.67, 7.67 6.24 C11.97 2.82, 23.22 -0.1, 26.64 -0.96 C30.06 -1.82, 28.38 0.5, 28.18 1.08 M34.64 0.4 C40.12 1.73, 47.94 6.57, 51.27 10.5 C54.6 14.43, 55.9 19.65, 54.62 23.99 C53.34 28.33, 48.26 33.45, 43.57 36.54 C38.89 39.64, 32.28 42.22, 26.5 42.55 C20.73 42.87, 13.04 41.22, 8.94 38.5 C4.83 35.77, 2.6 31.05, 1.89 26.2 C1.17 21.35, 1.99 13.41, 4.64 9.4 C7.3 5.39, 12.49 3.32, 17.83 2.14 C23.16 0.95, 33.53 2.49, 36.65 2.3 C39.76 2.12, 36.62 1.03, 36.5 1.02" stroke="#1e1e1e" stroke-width="2" fill="none"></path></g><g transform="translate(670.6373916578577 125.8163287556244) rotate(0 10.88800048828125 10)"><text x="10.88800048828125" y="14.016" font-family="Virgil, Segoe UI Emoji" font-size="16px" fill="#1e1e1e" text-anchor="middle" style="white-space: pre;" direction="ltr" dominant-baseline="alphabetic">QA</text></g><g mask="url(#mask-EHBfU7dsx7oq7R2vxsWu3)" stroke-linecap="round"><g transform="translate(351.73373469206535 193.17180781230758) rotate(0 -0.14896109557025738 85.80625074560561)"><path d="M-0.85 -0.35 C-0.77 28.29, -0.03 142.11, 0.2 170.78 M0.91 -1.58 C0.9 27.29, -0.38 142.79, -0.49 171.88" stroke="#1e1e1e" stroke-width="1" fill="none"></path></g><g transform="translate(351.73373469206535 193.17180781230758) rotate(0 -0.14896109557025738 85.80625074560561)"><path d="M-8.86 148.33 C-7.33 155.76, -5.8 162.87, -0.49 171.88 M-8.86 148.33 C-7.3 155.16, -4.15 163.09, -0.49 171.88" stroke="#1e1e1e" stroke-width="1" fill="none"></path></g><g transform="translate(351.73373469206535 193.17180781230758) rotate(0 -0.14896109557025738 85.80625074560561)"><path d="M8.24 148.46 C5.02 155.73, 1.79 162.81, -0.49 171.88 M8.24 148.46 C4.61 155.36, 2.57 163.25, -0.49 171.88" stroke="#1e1e1e" stroke-width="1" fill="none"></path></g></g><mask id="mask-EHBfU7dsx7oq7R2vxsWu3"><rect x="0" y="0" fill="#fff" width="452.03165688320587" height="464.7843093035188"></rect><rect x="274.72877841827244" y="238.9780585579132" fill="#000" width="153.7119903564453" height="80" opacity="1"></rect></mask><g transform="translate(274.72877841827244 238.9780585579132) rotate(0 77.03695925947522 39.346456131748866)"><text x="76.85599517822266" y="14.016" font-family="Virgil, Segoe UI Emoji" font-size="16px" fill="#1e1e1e" text-anchor="middle" style="white-space: pre;" direction="ltr" dominant-baseline="alphabetic">Tyk Organisations </text><text x="76.85599517822266" y="34.016" font-family="Virgil, Segoe UI Emoji" font-size="16px" fill="#1e1e1e" text-anchor="middle" style="white-space: pre;" direction="ltr" dominant-baseline="alphabetic">segregate what</text><text x="76.85599517822266" y="54.016" font-family="Virgil, Segoe UI Emoji" font-size="16px" fill="#1e1e1e" text-anchor="middle" style="white-space: pre;" direction="ltr" dominant-baseline="alphabetic">users can see and </text><text x="76.85599517822266" y="74.016" font-family="Virgil, Segoe UI Emoji" font-size="16px" fill="#1e1e1e" text-anchor="middle" style="white-space: pre;" direction="ltr" dominant-baseline="alphabetic">control</text></g><g mask="url(#mask-DkwjhM10eIwDSzQKy3ixq)" stroke-linecap="round"><g transform="translate(398.37236733007103 184.91224034663162) rotate(0 93.06710223118887 86.00145282505544)"><path d="M0.83 0.04 C31.71 28.97, 155.08 144.13, 185.78 172.74 M-0.19 -0.98 C30.46 27.68, 153.38 142.03, 184.64 171" stroke="#e03131" stroke-width="1" fill="none"></path></g><g transform="translate(398.37236733007103 184.91224034663162) rotate(0 93.06710223118887 86.00145282505544)"><path d="M161.61 161.28 C169.47 163.84, 178.48 165.94, 184.64 171 M161.61 161.28 C167.52 163.65, 173.59 167.28, 184.64 171" stroke="#e03131" stroke-width="1" fill="none"></path></g><g transform="translate(398.37236733007103 184.91224034663162) rotate(0 93.06710223118887 86.00145282505544)"><path d="M173.25 148.75 C177.06 155.66, 182.09 162.04, 184.64 171 M173.25 148.75 C175.94 154.61, 178.82 161.67, 184.64 171" stroke="#e03131" stroke-width="1" fill="none"></path></g></g><mask id="mask-DkwjhM10eIwDSzQKy3ixq"><rect x="0" y="0" fill="#fff" width="684.5065717924488" height="456.91514599674247"></rect><rect x="486.9434697481802" y="260.91369317168704" fill="#000" width="8.991999626159668" height="20" opacity="1"></rect></mask><g transform="translate(486.9434697481802 260.91369317168704) rotate(0 4.223134677912867 9.877060363683867)"><text x="4.495999813079834" y="14.016" font-family="Virgil, Segoe UI Emoji" font-size="16px" fill="#e03131" text-anchor="middle" style="white-space: pre;" direction="ltr" dominant-baseline="alphabetic">x</text></g><g stroke-linecap="round" transform="translate(41.09873470804223 470.65396577681713) rotate(0 21.183283501918936 17.765861524559)"><path d="M24.1 0.43 C28.46 0.73, 34.11 3.53, 37.19 6.27 C40.28 9.02, 42.49 13.23, 42.61 16.9 C42.73 20.57, 40.73 25.28, 37.91 28.3 C35.09 31.31, 30.21 34.1, 25.69 35 C21.18 35.9, 14.86 35.5, 10.81 33.69 C6.76 31.87, 3.05 27.76, 1.39 24.11 C-0.27 20.47, -0.5 15.39, 0.86 11.8 C2.23 8.2, 5.57 4.51, 9.59 2.57 C13.61 0.63, 22.23 0.45, 24.99 0.15 C27.74 -0.14, 26.12 0.43, 26.13 0.78 M26.17 0.35 C30.39 0.87, 34.95 3.43, 37.74 6.54 C40.53 9.64, 43.11 15.16, 42.9 18.98 C42.69 22.81, 39.57 26.71, 36.48 29.51 C33.39 32.31, 28.84 35.35, 24.35 35.78 C19.86 36.2, 13.36 34.11, 9.54 32.05 C5.72 29.98, 2.77 27, 1.43 23.41 C0.1 19.81, -0.25 14.08, 1.52 10.48 C3.3 6.89, 7.9 3.4, 12.09 1.85 C16.29 0.29, 24.34 1.22, 26.69 1.16 C29.05 1.09, 26.39 1.36, 26.22 1.46" stroke="none" stroke-width="0" fill="#b2f2bb"></path><path d="M19.51 -0.25 C23.82 -0.72, 30.24 1.06, 33.95 3.31 C37.66 5.56, 40.68 9.64, 41.78 13.26 C42.88 16.87, 42.52 21.48, 40.56 24.98 C38.6 28.49, 34.29 32.6, 30.04 34.29 C25.79 35.97, 19.4 36.16, 15.06 35.07 C10.73 33.98, 6.55 31.02, 4.01 27.76 C1.47 24.5, -0.53 19.27, -0.17 15.53 C0.18 11.78, 2.74 7.85, 6.14 5.3 C9.54 2.75, 17.82 1.11, 20.23 0.21 C22.63 -0.7, 20.58 -0.33, 20.56 -0.13 M23.82 0.67 C28.34 0.56, 33.74 1.89, 36.85 4.55 C39.96 7.22, 42.16 12.66, 42.48 16.67 C42.8 20.68, 41.37 25.6, 38.77 28.6 C36.17 31.6, 31.26 33.89, 26.88 34.68 C22.51 35.48, 16.68 34.94, 12.54 33.39 C8.4 31.84, 3.89 28.68, 2.02 25.39 C0.15 22.1, 0.08 17.45, 1.31 13.63 C2.55 9.82, 5.74 4.77, 9.44 2.49 C13.15 0.2, 21.27 0.16, 23.54 -0.09 C25.82 -0.33, 23.15 0.69, 23.1 1" stroke="#1e1e1e" stroke-width="2" fill="none"></path></g><g stroke-linecap="round" transform="translate(10.000000000000227 506.5040737185552) rotate(0 56.59015413145846 35.5)"><path d="M32.48 3.64 C40.89 0.64, 54.42 -0.89, 64.58 -0.19 C74.74 0.51, 85.86 3.58, 93.46 7.84 C101.06 12.11, 107.36 19.16, 110.18 25.41 C113.01 31.65, 113.18 39.16, 110.4 45.3 C107.61 51.45, 101.05 57.97, 93.46 62.27 C85.87 66.58, 74.79 70.25, 64.85 71.12 C54.91 71.98, 43.15 70.19, 33.81 67.46 C24.47 64.72, 14.48 60.14, 8.81 54.69 C3.15 49.24, -0.08 41.05, -0.17 34.76 C-0.26 28.47, 1.8 22.45, 8.27 16.95 C14.74 11.45, 32.79 4.14, 38.64 1.74 C44.49 -0.65, 43.01 2, 43.35 2.58 M35.64 1.95 C44.33 -0.92, 58.37 -0.94, 68.64 0.63 C78.91 2.2, 89.99 6.71, 97.25 11.39 C104.51 16.08, 110.06 22.87, 112.18 28.73 C114.31 34.58, 113.39 40.49, 110 46.54 C106.6 52.6, 99.85 61.25, 91.81 65.06 C83.77 68.86, 71.85 69.18, 61.77 69.4 C51.69 69.61, 40.14 69.13, 31.31 66.36 C22.48 63.58, 14.09 58.45, 8.77 52.72 C3.45 46.99, -0.92 38.52, -0.6 31.99 C-0.28 25.47, 4.47 18.75, 10.71 13.57 C16.95 8.4, 32.64 2.92, 36.86 0.94 C41.08 -1.04, 35.84 0.8, 36.03 1.68" stroke="none" stroke-width="0" fill="#b2f2bb"></path><path d="M47.26 0.5 C56.7 -1.01, 68.92 0.14, 78.31 2.43 C87.7 4.72, 97.75 8.83, 103.6 14.23 C109.46 19.63, 113.27 28.21, 113.42 34.83 C113.58 41.46, 109.66 48.58, 104.53 53.98 C99.41 59.37, 91.74 64.54, 82.66 67.19 C73.58 69.84, 60.41 70.44, 50.07 69.86 C39.74 69.27, 28.47 67.47, 20.65 63.68 C12.83 59.89, 6.32 53.45, 3.13 47.13 C-0.05 40.82, -0.9 32.19, 1.54 25.8 C3.98 19.4, 8.91 13.2, 17.76 8.78 C26.61 4.36, 47.11 0.43, 54.61 -0.73 C62.11 -1.89, 62.64 0.94, 62.75 1.8 M31.4 5.05 C39.71 1.63, 52.58 -0.64, 62.76 -0.35 C72.95 -0.07, 84.58 2.65, 92.5 6.77 C100.42 10.89, 106.92 17.99, 110.28 24.37 C113.64 30.75, 115.03 39.14, 112.68 45.06 C110.33 50.99, 103.63 55.75, 96.18 59.91 C88.73 64.08, 78.09 68.45, 67.96 70.06 C57.83 71.67, 44.92 71.91, 35.42 69.56 C25.91 67.2, 16.86 61.18, 10.94 55.93 C5.01 50.67, 0.24 44.44, -0.16 38.03 C-0.56 31.62, 3.24 23.18, 8.51 17.46 C13.79 11.75, 27.57 5.76, 31.5 3.73 C35.42 1.7, 31.57 4.6, 32.08 5.28" stroke="#1e1e1e" stroke-width="2" fill="none"></path></g><g transform="translate(32.502869985823736 521.9017829864329) rotate(0 34.07200241088867 20)"><text x="34.07200241088867" y="14.016" font-family="Virgil, Segoe UI Emoji" font-size="16px" fill="#1e1e1e" text-anchor="middle" style="white-space: pre;" direction="ltr" dominant-baseline="alphabetic">Platform</text><text x="34.07200241088867" y="34.016" font-family="Virgil, Segoe UI Emoji" font-size="16px" fill="#1e1e1e" text-anchor="middle" style="white-space: pre;" direction="ltr" dominant-baseline="alphabetic">Team</text></g><g mask="url(#mask-RJL9w_LjAKwLjbJg4-Nau)" stroke-linecap="round"><g transform="translate(117.10144223981342 516.9837690509903) rotate(0 78.38135400922783 -30.518981018535385)"><path d="M-0.72 0.96 C25.46 -9.15, 130.48 -50.65, 156.68 -60.87 M1.1 0.42 C27.16 -9.45, 129.95 -48.79, 155.69 -59.25" stroke="#1e1e1e" stroke-width="1" fill="none"></path></g><g transform="translate(117.10144223981342 516.9837690509903) rotate(0 78.38135400922783 -30.518981018535385)"><path d="M136.95 -42.7 C143.53 -47.09, 147.15 -51.82, 155.69 -59.25 M136.95 -42.7 C144.47 -49.44, 150.93 -53.93, 155.69 -59.25" stroke="#1e1e1e" stroke-width="1" fill="none"></path></g><g transform="translate(117.10144223981342 516.9837690509903) rotate(0 78.38135400922783 -30.518981018535385)"><path d="M130.7 -58.62 C138.9 -58.77, 144.17 -59.3, 155.69 -59.25 M130.7 -58.62 C140.3 -59.68, 149 -58.47, 155.69 -59.25" stroke="#1e1e1e" stroke-width="1" fill="none"></path></g></g><mask id="mask-RJL9w_LjAKwLjbJg4-Nau"><rect x="0" y="0" fill="#fff" width="373.8641502582691" height="678.0217310880611"></rect><rect x="163.28279930079907" y="476.464788032455" fill="#000" width="64.39999389648438" height="20" opacity="1"></rect></mask><g transform="translate(163.28279930079907 476.46478803245486) rotate(0 31.798276760801627 10.56483205892144)"><text x="32.19999694824219" y="14.016" font-family="Virgil, Segoe UI Emoji" font-size="16px" fill="#1e1e1e" text-anchor="middle" style="white-space: pre;" direction="ltr" dominant-baseline="alphabetic">manages</text></g><g mask="url(#mask-KYF-cAGL6eLPSSLDVJdyC)" stroke-linecap="round"><g transform="translate(126.77473438597372 543.7956944738676) rotate(0 172.659710794705 15.214258199247354)"><path d="M-0.08 0.17 C57.54 5.19, 287.65 26.02, 345.02 31.12 M-1.58 -0.79 C55.92 3.81, 285.91 23.86, 343.91 29.37" stroke="#1e1e1e" stroke-width="1" fill="none"></path></g><g transform="translate(126.77473438597372 543.7956944738676) rotate(0 172.659710794705 15.214258199247354)"><path d="M319.75 35.77 C325.77 33.75, 332.45 30.75, 343.91 29.37 M319.75 35.77 C328.04 34.52, 335.52 31.2, 343.91 29.37" stroke="#1e1e1e" stroke-width="1" fill="none"></path></g><g transform="translate(126.77473438597372 543.7956944738676) rotate(0 172.659710794705 15.214258199247354)"><path d="M321.29 18.74 C327.08 20.8, 333.39 21.89, 343.91 29.37 M321.29 18.74 C329.18 23.06, 336.16 25.33, 343.91 29.37" stroke="#1e1e1e" stroke-width="1" fill="none"></path></g></g><mask id="mask-KYF-cAGL6eLPSSLDVJdyC"><rect x="0" y="0" fill="#fff" width="572.0941559753837" height="674.2242108723623"></rect><rect x="267.23444823243653" y="549.0099526731149" fill="#000" width="64.39999389648438" height="20" opacity="1"></rect></mask><g transform="translate(267.23444823243653 549.009952673115) rotate(0 31.257105612959776 9.952354579661034)"><text x="32.19999694824219" y="14.016" font-family="Virgil, Segoe UI Emoji" font-size="16px" fill="#1e1e1e" text-anchor="middle" style="white-space: pre;" direction="ltr" dominant-baseline="alphabetic">manages</text></g><g stroke-linecap="round" transform="translate(222.11728991911468 99.12738295694015) rotate(0 12 9)"><path d="M10.1 -0.14 C12.58 -0.5, 16.52 0.29, 18.76 1.37 C21.01 2.46, 22.85 4.5, 23.56 6.38 C24.27 8.25, 24.07 10.86, 23.02 12.64 C21.97 14.41, 19.61 16.21, 17.27 17.03 C14.94 17.86, 11.42 17.98, 9.01 17.59 C6.61 17.19, 4.42 16.12, 2.84 14.67 C1.26 13.23, -0.51 10.92, -0.48 8.9 C-0.45 6.89, 1.19 4.05, 3.01 2.59 C4.83 1.13, 9.11 0.57, 10.43 0.14 C11.75 -0.29, 10.85 -0.15, 10.92 -0.01 M10.88 0.57 C13.43 0.21, 16.95 0.6, 19.03 1.61 C21.1 2.61, 22.66 4.8, 23.33 6.58 C24 8.36, 24.15 10.57, 23.04 12.28 C21.93 13.99, 19.15 15.86, 16.68 16.85 C14.21 17.84, 10.61 18.63, 8.23 18.21 C5.85 17.8, 3.74 16.06, 2.38 14.35 C1.02 12.65, -0.21 10.03, 0.07 7.99 C0.34 5.95, 2.18 3.4, 4.04 2.11 C5.89 0.83, 10.04 0.59, 11.21 0.27 C12.38 -0.04, 11 0.14, 11.06 0.24" stroke="none" stroke-width="0" fill="#a5d8ff"></path><path d="M14.25 -0.12 C16.59 0.08, 19.07 1.91, 20.75 3.38 C22.44 4.85, 24.3 6.74, 24.34 8.7 C24.38 10.67, 22.7 13.61, 20.99 15.18 C19.28 16.74, 16.6 17.84, 14.07 18.1 C11.54 18.36, 8.11 17.72, 5.82 16.74 C3.53 15.76, 1.16 14.02, 0.32 12.23 C-0.51 10.44, -0.14 7.87, 0.8 6.01 C1.75 4.16, 3.64 2.02, 5.99 1.07 C8.34 0.13, 13.39 0.4, 14.9 0.36 C16.4 0.32, 15.05 0.69, 15.03 0.82 M14.45 -0.26 C16.92 -0.04, 19.39 1.64, 21.02 3.04 C22.64 4.44, 24.19 6.21, 24.21 8.14 C24.24 10.06, 22.72 13.05, 21.15 14.58 C19.58 16.11, 17.29 16.91, 14.79 17.31 C12.28 17.71, 8.39 17.79, 6.14 16.99 C3.9 16.19, 2.17 14.45, 1.32 12.5 C0.47 10.56, 0.17 7.28, 1.02 5.34 C1.87 3.39, 4.35 1.82, 6.43 0.84 C8.51 -0.13, 12.25 -0.33, 13.51 -0.51 C14.76 -0.69, 13.87 -0.53, 13.97 -0.22" stroke="#1e1e1e" stroke-width="2" fill="none"></path></g><g stroke-linecap="round" transform="translate(201.87152662243125 119.12738295694015) rotate(0 28.622881648341718 21)"><path d="M28.04 -0.04 C33.99 -0.39, 41.56 1.71, 46.3 4.53 C51.03 7.35, 55.23 12.49, 56.43 16.87 C57.62 21.25, 56.39 26.96, 53.44 30.81 C50.5 34.67, 44.21 38.23, 38.76 40 C33.3 41.76, 26.59 42.59, 20.71 41.4 C14.83 40.21, 6.95 36.82, 3.49 32.85 C0.04 28.87, -0.84 22.1, -0.02 17.57 C0.8 13.05, 3.57 8.7, 8.42 5.71 C13.27 2.72, 25.14 0.45, 29.09 -0.38 C33.03 -1.21, 32.04 0.48, 32.1 0.75 M38.17 1.08 C43.74 2, 49.43 6.28, 52.61 9.96 C55.79 13.65, 58.23 18.82, 57.24 23.19 C56.25 27.57, 51.57 32.9, 46.67 36.2 C41.78 39.51, 33.79 42.79, 27.86 43.04 C21.92 43.3, 15.62 40.81, 11.07 37.74 C6.53 34.67, 1.65 29.26, 0.57 24.6 C-0.51 19.95, 1.55 13.6, 4.59 9.81 C7.63 6.03, 13.23 3.32, 18.81 1.88 C24.38 0.45, 34.72 1.27, 38.06 1.2 C41.39 1.12, 39.03 0.94, 38.8 1.44" stroke="none" stroke-width="0" fill="#a5d8ff"></path><path d="M32.35 0.72 C38.18 1.14, 46.84 3.33, 50.89 6.8 C54.94 10.27, 56.72 16.89, 56.68 21.54 C56.63 26.19, 54.47 31.39, 50.62 34.7 C46.76 38.01, 39.66 40.61, 33.54 41.41 C27.42 42.21, 19.12 41.64, 13.89 39.5 C8.66 37.36, 4.18 32.84, 2.16 28.56 C0.13 24.28, -0.27 18.04, 1.74 13.83 C3.75 9.61, 8.05 5.22, 14.22 3.27 C20.38 1.31, 33.51 1.93, 38.75 2.1 C43.99 2.28, 45.6 4.14, 45.65 4.31 M22.74 0.26 C28.27 -0.98, 37.32 -1.09, 42.69 1.04 C48.06 3.17, 52.6 8.79, 54.96 13.05 C57.33 17.31, 58.76 22.22, 56.87 26.58 C54.98 30.93, 48.84 36.53, 43.62 39.16 C38.39 41.8, 31.46 43.34, 25.5 42.41 C19.55 41.47, 11.96 37.16, 7.9 33.54 C3.84 29.93, 1.56 25.21, 1.14 20.73 C0.71 16.25, 1.71 10.24, 5.36 6.68 C9.01 3.13, 19.98 0.25, 23.04 -0.6 C26.11 -1.44, 23.7 1.11, 23.73 1.62" stroke="#1e1e1e" stroke-width="2" fill="none"></path></g><g transform="translate(215.4549753230699 130.27814055202265) rotate(0 14.799999237060547 10)"><text x="14.799999237060547" y="14.016" font-family="Virgil, Segoe UI Emoji" font-size="16px" fill="#1e1e1e" text-anchor="middle" style="white-space: pre;" direction="ltr" dominant-baseline="alphabetic">Dev</text></g><g stroke-linecap="round" transform="translate(497.8783661231025 93.59001194882791) rotate(0 12 9)"><path d="M11.15 -0.23 C13.54 -0.52, 16.66 0.41, 18.8 1.58 C20.95 2.74, 23.36 4.79, 24.04 6.78 C24.72 8.77, 24.13 11.69, 22.88 13.52 C21.63 15.34, 18.98 16.95, 16.52 17.71 C14.06 18.46, 10.53 18.64, 8.12 18.06 C5.7 17.48, 3.37 15.98, 2.03 14.21 C0.69 12.45, -0.19 9.47, 0.08 7.48 C0.35 5.49, 1.72 3.44, 3.65 2.27 C5.57 1.09, 10.21 0.69, 11.61 0.42 C13.01 0.14, 11.95 0.57, 12.04 0.62 M12.26 -0.5 C14.72 -0.44, 18.63 1.75, 20.62 3.24 C22.61 4.72, 24.09 6.72, 24.2 8.42 C24.3 10.13, 22.84 11.93, 21.26 13.48 C19.68 15.03, 17.01 17.17, 14.69 17.72 C12.38 18.27, 9.53 17.53, 7.38 16.77 C5.23 16, 3.02 14.72, 1.79 13.14 C0.56 11.55, -0.53 9.14, 0 7.24 C0.53 5.34, 2.78 2.9, 4.97 1.75 C7.15 0.6, 11.71 0.54, 13.11 0.35 C14.51 0.17, 13.45 0.49, 13.37 0.62" stroke="none" stroke-width="0" fill="#ffec99"></path><path d="M10.92 -0.02 C13.45 -0.23, 16.98 0.96, 19.14 2.01 C21.3 3.07, 23.16 4.46, 23.86 6.3 C24.57 8.14, 24.39 11.2, 23.37 13.05 C22.36 14.91, 20.18 16.67, 17.76 17.43 C15.34 18.18, 11.4 18.18, 8.85 17.6 C6.31 17.02, 4 15.4, 2.5 13.93 C0.99 12.46, -0.31 10.61, -0.16 8.81 C-0.02 7, 1.5 4.64, 3.37 3.1 C5.24 1.56, 9.63 -0.03, 11.05 -0.45 C12.47 -0.88, 11.85 0.3, 11.89 0.54 M13.18 0.11 C15.46 0.18, 18.16 1.84, 20 3.21 C21.84 4.58, 24.01 6.55, 24.23 8.35 C24.45 10.15, 22.88 12.46, 21.3 14.01 C19.71 15.57, 17.12 17.15, 14.73 17.68 C12.34 18.22, 9.35 18.1, 6.96 17.24 C4.57 16.38, 1.48 14.27, 0.38 12.52 C-0.71 10.77, -0.32 8.52, 0.39 6.74 C1.11 4.96, 2.42 2.92, 4.66 1.84 C6.9 0.76, 12.49 0.47, 13.84 0.26 C15.19 0.04, 12.79 0.44, 12.76 0.55" stroke="#1e1e1e" stroke-width="2" fill="none"></path></g><g stroke-linecap="round" transform="translate(477.6326028264191 113.59001194882791) rotate(0 28.622881648341718 21)"><path d="M34.59 0.1 C40.54 0.87, 48.59 4.3, 52.43 8.16 C56.26 12.01, 58.18 18.53, 57.61 23.23 C57.04 27.93, 53.44 33.12, 49 36.38 C44.57 39.65, 37.02 42.36, 31 42.82 C24.99 43.27, 17.88 41.91, 12.9 39.11 C7.91 36.32, 2.9 30.53, 1.09 26.05 C-0.72 21.57, -0.42 16.08, 2.04 12.23 C4.5 8.38, 9.81 4.65, 15.85 2.96 C21.89 1.27, 34.04 2.25, 38.29 2.09 C42.53 1.92, 41.47 1.72, 41.33 1.94 M37.93 2.45 C43.86 3.79, 50.4 7.17, 53.34 10.55 C56.28 13.93, 56.7 18.38, 55.58 22.74 C54.45 27.09, 50.83 33.63, 46.61 36.68 C42.38 39.73, 35.97 40.84, 30.24 41.05 C24.51 41.27, 17.29 40.42, 12.24 37.96 C7.19 35.49, 1.44 30.71, -0.04 26.27 C-1.52 21.82, 0.3 15.28, 3.36 11.28 C6.43 7.27, 12.51 3.81, 18.36 2.24 C24.22 0.67, 35.38 1.9, 38.48 1.84 C41.58 1.78, 37.22 1.71, 36.97 1.87" stroke="none" stroke-width="0" fill="#ffec99"></path><path d="M26.69 1.09 C32.49 0.35, 40.37 0.76, 45.42 3.26 C50.46 5.77, 55.26 11.63, 56.97 16.14 C58.67 20.65, 58.4 26.41, 55.66 30.33 C52.91 34.25, 46.11 37.93, 40.49 39.64 C34.87 41.35, 27.85 41.51, 21.93 40.59 C16.02 39.66, 8.64 37.49, 5.01 34.08 C1.38 30.66, -0.31 24.88, 0.13 20.1 C0.58 15.33, 3.01 8.63, 7.67 5.41 C12.32 2.18, 24.34 1.52, 28.07 0.73 C31.81 -0.06, 30 0.39, 30.07 0.69 M37.03 2.15 C42.75 3.31, 50.71 6.73, 53.87 10.37 C57.04 14.01, 57.2 19.57, 56.02 24 C54.84 28.43, 51.25 33.88, 46.78 36.93 C42.31 39.99, 35.48 42.33, 29.19 42.32 C22.89 42.31, 13.83 39.73, 9.01 36.88 C4.2 34.02, 1.39 29.46, 0.3 25.18 C-0.78 20.9, -0.76 15.1, 2.5 11.19 C5.76 7.28, 14.06 3.26, 19.87 1.71 C25.67 0.16, 34.12 1.91, 37.34 1.89 C40.55 1.87, 39.38 1.47, 39.15 1.58" stroke="#1e1e1e" stroke-width="2" fill="none"></path></g><g transform="translate(491.21605152705774 124.7407695439104) rotate(0 14.799999237060547 10)"><text x="14.799999237060547" y="14.016" font-family="Virgil, Segoe UI Emoji" font-size="16px" fill="#1e1e1e" text-anchor="middle" style="white-space: pre;" direction="ltr" dominant-baseline="alphabetic">Dev</text></g><g stroke-linecap="round" transform="translate(457.8021331283012 50.066557408858245) rotate(0 141.4811842827446 65.66366092699018)"><path d="M32 0 C107.87 2.53, 186.17 1.31, 250.96 0 M250.96 0 C271.69 1.46, 281.57 10.1, 282.96 32 M282.96 32 C283.92 47.27, 284.62 60.08, 282.96 99.33 M282.96 99.33 C282.71 121.87, 272.81 131.85, 250.96 131.33 M250.96 131.33 C187.68 130.75, 119.75 133.99, 32 131.33 M32 131.33 C11.94 131.77, 1 122.12, 0 99.33 M0 99.33 C0.77 82.2, -1.37 65.52, 0 32 M0 32 C0.38 11.3, 11.92 0.73, 32 0" stroke="#1e1e1e" stroke-width="2.5" fill="none" stroke-dasharray="1.5 8"></path></g><g stroke-linecap="round" transform="translate(165.42894389997718 51.17403161048061) rotate(0 141.4811842827446 65.66366092699018)"><path d="M32 0 C96.81 1, 164.79 -0.49, 250.96 0 M250.96 0 C273.63 -0.95, 284.04 9.32, 282.96 32 M282.96 32 C282.2 46.88, 282.41 60.5, 282.96 99.33 M282.96 99.33 C281.89 119.38, 273.92 132.49, 250.96 131.33 M250.96 131.33 C174.82 130.33, 99.47 130.89, 32 131.33 M32 131.33 C10.83 131.75, 1.78 122.29, 0 99.33 M0 99.33 C1.17 79.63, 0.78 59.3, 0 32 M0 32 C-1.49 12.06, 10.01 0.48, 32 0" stroke="#1e1e1e" stroke-width="2.5" fill="none" stroke-dasharray="1.5 8"></path></g><g transform="translate(469.64736554885803 13.307611046087175) rotate(0 38.779998779296875 12.5)"><text x="0" y="17.52" font-family="Virgil, Segoe UI Emoji" font-size="20px" fill="#1e1e1e" text-anchor="start" style="white-space: pre;" direction="ltr" dominant-baseline="alphabetic">Team B</text></g></svg>