<svg version="1.1" xmlns="http://www.w3.org/2000/svg" viewBox="0 0 1149.6582522217022 1535.5106944037066" width="2299.3165044434045" height="3071.021388807413">
  <!-- svg-source:excalidraw -->
  
  <defs>
    <style class="style-fonts">
      @font-face {
        font-family: "Virgil";
        src: url("https://excalidraw.com/Virgil.woff2");
      }
      @font-face {
        font-family: "Cascadia";
        src: url("https://excalidraw.com/Cascadia.woff2");
      }
      @font-face {
        font-family: "Assistant";
        src: url("https://excalidraw.com/Assistant-Regular.woff2");
      }
    </style>
    
  </defs>
  <rect x="0" y="0" width="1149.6582522217022" height="1535.5106944037066" fill="#ffffff"></rect><g stroke-linecap="round" transform="translate(328.0540721751031 10) rotate(0 306.4651200696794 279.69345440841994)"><path d="M32 0 C237.13 -1.01, 441.81 -1.13, 580.93 0 M32 0 C218.62 -0.33, 404.85 -0.31, 580.93 0 M580.93 0 C601.23 0.56, 613.14 10.32, 612.93 32 M580.93 0 C601.13 -2.3, 612.41 9.25, 612.93 32 M612.93 32 C613.86 207.16, 613.69 383.62, 612.93 527.39 M612.93 32 C611.42 184.37, 611.14 336.89, 612.93 527.39 M612.93 527.39 C613.6 550.61, 602.57 561.37, 580.93 559.39 M612.93 527.39 C614.92 546.91, 601.93 558.82, 580.93 559.39 M580.93 559.39 C409.95 557.66, 239.81 557.84, 32 559.39 M580.93 559.39 C391.28 561.46, 201.45 561.77, 32 559.39 M32 559.39 C12.45 560.75, 0.73 550.33, 0 527.39 M32 559.39 C10.6 560.46, -0.53 549.91, 0 527.39 M0 527.39 C0.77 357.71, 0.65 189.02, 0 32 M0 527.39 C-0.16 358.59, 0.01 189.84, 0 32 M0 32 C1.67 8.86, 10.49 -1.29, 32 0 M0 32 C-1.59 10.77, 10.82 -0.3, 32 0" stroke="#1e1e1e" stroke-width="2" fill="none"></path></g><g stroke-linecap="round" transform="translate(1049.4800099943022 443.98279071936076) rotate(0 45.0891211137 10.56776276102346)"><path d="M59.04 1.02 C67.21 1.33, 76.54 2.86, 81.79 4.35 C87.04 5.85, 90.53 7.92, 90.56 10 C90.58 12.08, 87.22 15.16, 81.97 16.84 C76.72 18.53, 67.65 19.52, 59.05 20.11 C50.45 20.71, 38.84 20.87, 30.35 20.41 C21.86 19.95, 13.08 19.14, 8.12 17.36 C3.16 15.58, 0.59 11.97, 0.6 9.72 C0.6 7.47, 3.18 5.32, 8.15 3.89 C13.12 2.46, 21.45 1.78, 30.42 1.12 C39.38 0.47, 56.39 -0.08, 61.94 -0.03 C67.48 0.03, 64.01 1.24, 63.69 1.45 M45.82 1.49 C54.35 0.93, 66.27 -0.02, 73.29 0.91 C80.3 1.83, 85.45 5.06, 87.9 7.04 C90.35 9.02, 90.94 10.98, 87.97 12.8 C85 14.62, 77.38 16.72, 70.11 17.96 C62.83 19.2, 52.97 19.96, 44.33 20.25 C35.69 20.55, 25.25 20.58, 18.26 19.73 C11.28 18.87, 5.14 17.21, 2.42 15.13 C-0.29 13.05, -0.54 9.23, 1.98 7.24 C4.51 5.24, 10.07 4.2, 17.56 3.16 C25.05 2.13, 42.17 1.31, 46.93 1.02 C51.68 0.73, 46.36 1.3, 46.12 1.42" stroke="#1e1e1e" stroke-width="2" fill="none"></path></g><g stroke-linecap="round" transform="translate(1050.8890450291046 443.98279071936076) rotate(0 44.38460359629835 52.13429628771564)"><path d="M22.19 0 C39.72 1.67, 56.09 0.76, 66.58 0 M22.19 0 C36.52 0.11, 51.99 -0.34, 66.58 0 M66.58 0 C80.39 -2, 88.32 6.17, 88.77 22.19 M66.58 0 C82.62 1.37, 86.71 6.62, 88.77 22.19 M88.77 22.19 C88.6 35.55, 86.99 52.46, 88.77 82.08 M88.77 22.19 C88.81 40.12, 88.63 57.14, 88.77 82.08 M88.77 82.08 C90.5 95.3, 81.08 103.77, 66.58 104.27 M88.77 82.08 C89.01 95.11, 79.71 102.39, 66.58 104.27 M66.58 104.27 C54.96 104.78, 43.4 103.79, 22.19 104.27 M66.58 104.27 C54.02 105.31, 40.03 105.43, 22.19 104.27 M22.19 104.27 C7.34 105.2, -0.46 97.9, 0 82.08 M22.19 104.27 C8.36 103.69, -1.6 97.61, 0 82.08 M0 82.08 C0.71 66.22, -0.7 49.05, 0 22.19 M0 82.08 C1.08 64.77, 0.16 48.63, 0 22.19 M0 22.19 C-1.38 7.49, 7.53 -0.26, 22.19 0 M0 22.19 C-0.27 7.3, 7.87 0.61, 22.19 0" stroke="#1e1e1e" stroke-width="2" fill="none"></path></g><g transform="translate(1074.0394910631471 478.5041490720373) rotate(0 21.23415756225586 17.6129379350391)"><text x="21.23415756225586" y="24.686293809750715" font-family="Virgil, Segoe UI Emoji" font-size="28.180700696062463px" fill="#1e1e1e" text-anchor="middle" style="white-space: pre;" direction="ltr" dominant-baseline="alphabetic">DB</text></g><g stroke-linecap="round" transform="translate(371.73415825399934 40.99877076566872) rotate(0 119.76797795826542 162.7435465197609)"><path d="M32 0 C102.43 -0.84, 172.23 -1.94, 207.54 0 M207.54 0 C229.43 0.21, 239.19 9.68, 239.54 32 M239.54 32 C239.94 85.25, 237.64 136.07, 239.54 293.49 M239.54 293.49 C238.52 313.73, 230.05 325.64, 207.54 325.49 M207.54 325.49 C168.35 324.86, 129.86 326.51, 32 325.49 M32 325.49 C12.56 325.8, 1.98 316.55, 0 293.49 M0 293.49 C0.47 234.43, -0.85 176.5, 0 32 M0 32 C-0.36 9.49, 10.77 0.91, 32 0" stroke="#1e1e1e" stroke-width="2.5" fill="none" stroke-dasharray="1.5 8"></path></g><g stroke-linecap="round" transform="translate(647.9050250754117 36.067148143857594) rotate(0 119.76797795826542 162.74354651976068)"><path d="M32 0 C94.53 -1.1, 156.11 0.15, 207.54 0 M207.54 0 C228.53 -0.98, 237.54 10.22, 239.54 32 M239.54 32 C239.24 93.85, 239.86 155.91, 239.54 293.49 M239.54 293.49 C240.72 314.97, 227.3 324.03, 207.54 325.49 M207.54 325.49 C151.42 325.3, 97.11 324.94, 32 325.49 M32 325.49 C12.65 327.21, -1.58 314.53, 0 293.49 M0 293.49 C-1.37 220.23, -0.5 148.64, 0 32 M0 32 C0.1 11.57, 11.16 1.88, 32 0" stroke="#1e1e1e" stroke-width="2.5" fill="none" stroke-dasharray="1.5 8"></path></g><g transform="translate(473.184680759824 46.63491090488105) rotate(0 32.59097917248687 17.6129379350391)"><text x="0" y="24.686293809750715" font-family="Virgil, Segoe UI Emoji" font-size="28.180700696062463px" fill="#1e1e1e" text-anchor="start" style="white-space: pre;" direction="ltr" dominant-baseline="alphabetic">OrgA</text></g><g transform="translate(742.9162579021895 43.11232331787323) rotate(0 33.59139544470804 17.6129379350391)"><text x="0" y="24.686293809750723" font-family="Virgil, Segoe UI Emoji" font-size="28.180700696062466px" fill="#1e1e1e" text-anchor="start" style="white-space: pre;" direction="ltr" dominant-baseline="alphabetic">OrgB</text></g><g stroke-linecap="round"><g transform="translate(942.3933473492643 491.88998190266693) rotate(0 54.24784883992015 -1.4090350348033098)"><path d="M-0.59 -1.2 C17.43 -1.76, 89.94 -3.4, 108.23 -3.56 M1.3 0.78 C19.13 0.38, 89.23 -1.6, 107.14 -2.4" stroke="#1e1e1e" stroke-width="2" fill="none"></path></g></g><mask></mask><g stroke-linecap="round" transform="translate(395.6877538456529 98.40852036789192) rotate(0 46.498156148503085 29.589735730865414)"><path d="M31.88 0.45 C39.99 -1.68, 52.37 -0.99, 61.02 1.13 C69.68 3.25, 78.66 8.49, 83.84 13.19 C89.01 17.89, 92 23.76, 92.1 29.34 C92.19 34.91, 89.78 42, 84.41 46.63 C79.04 51.27, 68.58 55.32, 59.86 57.14 C51.15 58.96, 40.7 59.26, 32.12 57.54 C23.55 55.81, 13.64 51.51, 8.41 46.78 C3.18 42.06, 0.65 34.83, 0.74 29.17 C0.82 23.52, 3.31 17.37, 8.92 12.85 C14.53 8.34, 29.81 3.85, 34.4 2.06 C38.99 0.27, 36.43 1.77, 36.46 2.1 M60.18 2.58 C68.45 3.62, 78.82 7.38, 84.22 11.76 C89.62 16.15, 92.58 23.02, 92.56 28.9 C92.54 34.77, 89.47 42.38, 84.09 47.01 C78.7 51.65, 68.78 55.08, 60.25 56.69 C51.73 58.31, 41.7 58.28, 32.95 56.7 C24.21 55.13, 13.11 51.85, 7.8 47.24 C2.49 42.62, 1.05 34.99, 1.07 29 C1.1 23.02, 2.91 15.71, 7.94 11.32 C12.98 6.94, 22.51 4.1, 31.28 2.69 C40.04 1.28, 55.65 2.92, 60.54 2.85 C65.42 2.78, 60.84 1.95, 60.59 2.27" stroke="none" stroke-width="0" fill="#e7f5ff"></path><path d="M42.32 -0.64 C50.81 -1.49, 62.41 1.08, 70.18 4.26 C77.95 7.45, 85.31 13.02, 88.96 18.46 C92.62 23.9, 94.03 31.31, 92.11 36.89 C90.19 42.47, 84.48 48.39, 77.45 51.94 C70.43 55.48, 59.05 57.53, 49.94 58.15 C40.83 58.77, 30.44 58.47, 22.81 55.63 C15.17 52.8, 7.57 46.66, 4.13 41.14 C0.69 35.61, 0.01 28.24, 2.15 22.51 C4.28 16.78, 9.58 10.44, 16.95 6.76 C24.32 3.08, 41.16 1.56, 46.39 0.42 C51.63 -0.72, 48.39 -0.43, 48.37 -0.07 M50.41 -0.33 C58.76 -0.42, 68.95 3.09, 75.75 6.86 C82.55 10.63, 88.73 16.81, 91.2 22.3 C93.66 27.78, 94.04 34.51, 90.56 39.79 C87.08 45.07, 78.52 50.76, 70.33 53.98 C62.14 57.21, 50.46 59.51, 41.42 59.14 C32.38 58.76, 22.84 55.56, 16.1 51.73 C9.37 47.91, 3.04 41.74, 1.02 36.19 C-1 30.64, 0.34 23.51, 4 18.43 C7.67 13.35, 15.15 8.53, 23.02 5.72 C30.88 2.91, 46.67 2.63, 51.2 1.57 C55.73 0.51, 50.41 -1.07, 50.19 -0.64" stroke="#1e1e1e" stroke-width="1" fill="none"></path></g><g transform="translate(417.1244746041325 113.98480296191337) rotate(0 25.182273864746094 14.090350348031052)"><text x="25.182273864746094" y="19.749035047800575" font-family="Virgil, Segoe UI Emoji" font-size="22.54456055684997px" fill="#1e1e1e" text-anchor="middle" style="white-space: pre;" direction="ltr" dominant-baseline="alphabetic">User</text></g><g stroke-linecap="round" transform="translate(501.36538145588656 92.77238022867914) rotate(0 46.498156148503085 50.020743735510905)"><path d="M34.66 1.62 C41.66 -1.04, 50.58 -0.47, 58.14 1.65 C65.7 3.77, 74.5 8.34, 80.02 14.36 C85.53 20.38, 89.26 29.53, 91.2 37.77 C93.15 46.02, 93.59 55.78, 91.71 63.82 C89.82 71.86, 85.52 80.25, 79.89 86.02 C74.25 91.79, 65.35 96.21, 57.9 98.43 C50.45 100.64, 42.44 101.52, 35.2 99.33 C27.97 97.15, 19.97 91.32, 14.51 85.33 C9.05 79.33, 4.62 71.43, 2.43 63.36 C0.25 55.29, -0.39 45.06, 1.42 36.93 C3.22 28.79, 6.86 20.74, 13.26 14.56 C19.65 8.38, 34.6 2.06, 39.79 -0.15 C44.98 -2.36, 44.42 0.49, 44.38 1.28 M46.09 -1.11 C53.21 -1.45, 62.74 3.35, 69.56 8 C76.38 12.64, 83.03 19.64, 87.01 26.75 C90.99 33.86, 93.5 42.46, 93.44 50.65 C93.38 58.85, 90.42 68.63, 86.65 75.9 C82.89 83.17, 77.66 89.99, 70.84 94.26 C64.02 98.54, 53.62 101.93, 45.75 101.53 C37.88 101.14, 30.39 96.48, 23.62 91.9 C16.84 87.33, 9.24 81.25, 5.1 74.07 C0.97 66.88, -1.46 57.27, -1.2 48.82 C-0.94 40.37, 2.52 30.56, 6.66 23.36 C10.8 16.16, 17.11 9.51, 23.65 5.62 C30.19 1.72, 42.21 0.53, 45.91 0.01 C49.62 -0.51, 45.94 1.89, 45.87 2.48" stroke="none" stroke-width="0" fill="#e7f5ff"></path><path d="M29.49 3.27 C36.35 -0.13, 46.58 -0.39, 54.48 0.91 C62.38 2.21, 70.98 5.99, 76.9 11.07 C82.83 16.15, 87.32 23.41, 90.03 31.41 C92.75 39.4, 94.34 50.57, 93.19 59.02 C92.04 67.46, 88.06 75.78, 83.15 82.08 C78.24 88.38, 71.01 93.95, 63.72 96.79 C56.44 99.64, 47.13 100.43, 39.44 99.15 C31.74 97.87, 23.67 94.5, 17.55 89.14 C11.43 83.78, 5.51 74.92, 2.74 66.99 C-0.03 59.06, -0.39 49.57, 0.94 41.54 C2.26 33.5, 5.44 25.31, 10.7 18.78 C15.96 12.26, 28.59 5.19, 32.48 2.38 C36.38 -0.43, 33.93 1.2, 34.06 1.94 M36.69 0.13 C43.37 -1.99, 52.41 -0.19, 59.82 2.52 C67.23 5.22, 75.82 10.18, 81.15 16.35 C86.48 22.52, 90.16 31.3, 91.81 39.55 C93.45 47.8, 93.32 57.68, 91.03 65.87 C88.75 74.06, 83.8 82.92, 78.1 88.67 C72.4 94.43, 64.54 99.14, 56.84 100.41 C49.13 101.67, 39.39 98.89, 31.87 96.26 C24.35 93.62, 16.82 90.8, 11.7 84.6 C6.57 78.39, 2.82 67.47, 1.1 59.02 C-0.62 50.58, -1.06 41.77, 1.35 33.93 C3.77 26.09, 9.89 17.49, 15.57 11.98 C21.25 6.46, 31.96 2.6, 35.43 0.83 C38.91 -0.95, 35.84 0.71, 36.43 1.34" stroke="#1e1e1e" stroke-width="1" fill="none"></path></g><g transform="translate(522.8021022143662 114.74241617275311) rotate(0 25.182273864746094 28.18070069606233)"><text x="25.182273864746094" y="19.749035047800575" font-family="Virgil, Segoe UI Emoji" font-size="22.54456055684997px" fill="#1e1e1e" text-anchor="middle" style="white-space: pre;" direction="ltr" dominant-baseline="alphabetic">User</text><text x="25.182273864746094" y="47.929735743863034" font-family="Virgil, Segoe UI Emoji" font-size="22.54456055684997px" fill="#1e1e1e" text-anchor="middle" style="white-space: pre;" direction="ltr" dominant-baseline="alphabetic">Grp</text></g><g stroke-linecap="round" transform="translate(669.7450681148603 103.3401429897026) rotate(0 46.498156148503085 29.589735730865414)"><path d="M65.34 1.87 C73.58 3.65, 81.15 8.74, 85.79 13.79 C90.42 18.84, 93.89 26.29, 93.13 32.17 C92.37 38.05, 87.14 44.73, 81.2 49.08 C75.27 53.43, 66.38 56.83, 57.51 58.26 C48.64 59.68, 36.43 59.71, 27.98 57.62 C19.53 55.53, 11.36 50.72, 6.8 45.72 C2.24 40.72, -0.05 33.54, 0.61 27.63 C1.27 21.71, 4.73 14.54, 10.76 10.21 C16.8 5.89, 27.19 2.87, 36.83 1.69 C46.47 0.51, 62.9 2.56, 68.59 3.12 C74.28 3.68, 71.49 4.64, 70.98 5.06 M39.29 -0.69 C47.9 -2.04, 61.02 -0.48, 68.99 2.44 C76.95 5.36, 83.02 11.55, 87.07 16.82 C91.13 22.08, 94.83 28.53, 93.3 34.04 C91.78 39.56, 84.75 45.56, 77.9 49.9 C71.06 54.24, 61.14 58.87, 52.24 60.07 C43.34 61.27, 32.37 60.01, 24.5 57.12 C16.63 54.23, 8.96 48.1, 5.01 42.73 C1.06 37.36, -1.01 30.51, 0.78 24.88 C2.57 19.25, 9.23 12.8, 15.75 8.95 C22.26 5.09, 35.64 3.32, 39.86 1.75 C44.07 0.19, 41.04 -0.57, 41.06 -0.45" stroke="none" stroke-width="0" fill="#fff9db"></path><path d="M48.63 -0.24 C57.22 -0.7, 67.6 1.44, 74.81 5.15 C82.02 8.87, 89.18 16.29, 91.88 22.06 C94.58 27.84, 94.06 34.5, 91.02 39.81 C87.99 45.13, 81.2 50.75, 73.66 53.94 C66.12 57.13, 54.93 59.01, 45.78 58.94 C36.62 58.87, 26.08 57.1, 18.73 53.5 C11.38 49.89, 4.29 43.01, 1.67 37.32 C-0.96 31.63, -0.13 24.62, 2.98 19.35 C6.09 14.07, 12.28 8.89, 20.31 5.67 C28.35 2.45, 45.68 0.96, 51.2 0.04 C56.72 -0.88, 53.61 -0.31, 53.43 0.13 M36.69 -0.32 C44.65 -1.62, 56.01 0.14, 64.37 2.63 C72.73 5.11, 82.16 9.6, 86.86 14.6 C91.56 19.59, 93.48 26.75, 92.57 32.61 C91.65 38.48, 87.35 45.22, 81.37 49.78 C75.38 54.35, 65.5 58.63, 56.65 60.02 C47.8 61.4, 36.7 60.91, 28.26 58.08 C19.81 55.26, 10.68 48.13, 5.97 43.05 C1.26 37.97, -1.01 33.38, 0 27.6 C1.01 21.83, 6.04 12.99, 12.02 8.39 C18 3.79, 31.71 1.35, 35.9 0.01 C40.1 -1.33, 37.13 -0.19, 37.21 0.35" stroke="#1e1e1e" stroke-width="1" fill="none"></path></g><g transform="translate(691.1817888733399 118.91642558372405) rotate(0 25.182273864746094 14.090350348031052)"><text x="25.182273864746094" y="19.749035047800575" font-family="Virgil, Segoe UI Emoji" font-size="22.54456055684997px" fill="#1e1e1e" text-anchor="middle" style="white-space: pre;" direction="ltr" dominant-baseline="alphabetic">User</text></g><g stroke-linecap="round" transform="translate(775.422695725094 97.70400285049027) rotate(0 46.498156148503085 50.02074373551068)"><path d="M42.32 1.23 C49.69 -0.27, 59.34 1.93, 66.22 5.25 C73.1 8.57, 79.07 14.3, 83.6 21.12 C88.13 27.95, 92.39 37.96, 93.39 46.21 C94.39 54.46, 92.78 63.16, 89.59 70.62 C86.41 78.09, 80.76 86.19, 74.29 91.01 C67.83 95.83, 58.69 98.8, 50.8 99.52 C42.9 100.24, 33.92 98.86, 26.93 95.33 C19.93 91.8, 13.37 85.06, 8.81 78.34 C4.25 71.63, 0.47 63.38, -0.42 55.04 C-1.31 46.71, 0.13 35.86, 3.45 28.35 C6.78 20.84, 11.94 14.78, 19.53 10 C27.12 5.21, 42.89 1, 48.97 -0.34 C55.06 -1.67, 55.85 1.07, 56.02 1.99 M68.73 6.7 C75.67 9.92, 83.52 17.44, 87.48 24.7 C91.44 31.95, 92.42 42.25, 92.5 50.24 C92.58 58.23, 91.73 65.67, 87.94 72.63 C84.15 79.58, 76.68 87.55, 69.77 91.97 C62.86 96.38, 54.02 99.01, 46.49 99.11 C38.96 99.21, 31.16 96.55, 24.58 92.56 C18 88.58, 11.25 82.06, 7.01 75.18 C2.77 68.31, -0.46 59.24, -0.83 51.31 C-1.21 43.38, 1.13 35.17, 4.76 27.6 C8.4 20.03, 14.27 10.24, 20.98 5.87 C27.69 1.51, 37.2 1.35, 45.02 1.4 C52.84 1.45, 64.18 5.32, 67.92 6.16 C71.67 7.01, 67.88 5.91, 67.49 6.48" stroke="none" stroke-width="0" fill="#fff9db"></path><path d="M41.44 1.29 C48.77 -0.2, 58.02 1.18, 65.16 4.26 C72.31 7.33, 79.66 13.18, 84.32 19.72 C88.97 26.26, 92.16 35.14, 93.09 43.48 C94.02 51.82, 93.01 62.17, 89.89 69.79 C86.78 77.4, 80.59 84.23, 74.39 89.14 C68.19 94.06, 60.3 98.02, 52.69 99.26 C45.07 100.5, 35.82 99.78, 28.69 96.61 C21.56 93.43, 14.66 87.06, 9.89 80.21 C5.12 73.36, 1.16 63.82, 0.07 55.5 C-1.02 47.18, 0.38 37.68, 3.36 30.27 C6.33 22.86, 10.35 16.08, 17.94 11.04 C25.52 6, 42.22 1.54, 48.88 0.04 C55.55 -1.46, 57.82 1.2, 57.92 2.06 M43.8 0.5 C51.21 -0.47, 60.56 2.79, 67.57 6.66 C74.58 10.53, 81.66 17.25, 85.84 23.72 C90.02 30.18, 92.28 37.18, 92.63 45.44 C92.98 53.7, 91.31 65.81, 87.94 73.27 C84.56 80.74, 78.95 85.89, 72.39 90.22 C65.83 94.56, 56.31 98.67, 48.59 99.3 C40.88 99.93, 33.13 97.62, 26.1 93.99 C19.07 90.36, 10.86 84.43, 6.43 77.52 C2 70.61, -0.42 61.03, -0.49 52.53 C-0.55 44.03, 2.61 33.75, 6.02 26.52 C9.43 19.29, 13.86 13.73, 19.97 9.17 C26.09 4.6, 38.93 0.37, 42.69 -0.89 C46.46 -2.16, 42.4 0.66, 42.56 1.6" stroke="#1e1e1e" stroke-width="1" fill="none"></path></g><g transform="translate(796.8594164835736 119.67403879456424) rotate(0 25.182273864746094 28.18070069606256)"><text x="25.182273864746094" y="19.749035047800575" font-family="Virgil, Segoe UI Emoji" font-size="22.54456055684997px" fill="#1e1e1e" text-anchor="middle" style="white-space: pre;" direction="ltr" dominant-baseline="alphabetic">User</text><text x="25.182273864746094" y="47.929735743863034" font-family="Virgil, Segoe UI Emoji" font-size="22.54456055684997px" fill="#1e1e1e" text-anchor="middle" style="white-space: pre;" direction="ltr" dominant-baseline="alphabetic">Grp</text></g><g stroke-linecap="round" transform="translate(661.995375423443 223.81263846536922) rotate(0 32.407805800471806 26.067148143857594)"><path d="M13.03 0 C19.26 -3.43, 30.89 2.39, 51.78 0 C58.36 -1.6, 62.14 3.35, 64.82 13.03 C65.91 23.7, 64.9 34.17, 64.82 39.1 C67.99 49.67, 59.31 55.72, 51.78 52.13 C36.9 48.8, 23.26 52.38, 13.03 52.13 C0.98 52.55, -2.27 45.75, 0 39.1 C-2.72 27.71, -0.42 26.75, 0 13.03 C-1.9 4.54, 2.47 -1.15, 13.03 0" stroke="none" stroke-width="0" fill="#fff9db"></path><path d="M13.03 0 C25.29 2.16, 35.69 1.09, 51.78 0 M13.03 0 C27.55 0.33, 42.94 -0.43, 51.78 0 M51.78 0 C59.08 0.65, 64.05 4.69, 64.82 13.03 M51.78 0 C61.52 0.93, 64.62 3.66, 64.82 13.03 M64.82 13.03 C63.91 20.36, 62.94 24.17, 64.82 39.1 M64.82 13.03 C64.7 19.05, 64.52 25.27, 64.82 39.1 M64.82 39.1 C65.23 48.32, 61.11 54.11, 51.78 52.13 M64.82 39.1 C65.83 50.03, 60.06 50.08, 51.78 52.13 M51.78 52.13 C38.94 50.93, 28.98 52.41, 13.03 52.13 M51.78 52.13 C42.03 51.58, 33.87 51.17, 13.03 52.13 M13.03 52.13 C3.39 53.14, -1.06 46.46, 0 39.1 M13.03 52.13 C2.82 52.89, -0.28 47.19, 0 39.1 M0 39.1 C-0.54 33, 0.32 25.54, 0 13.03 M0 39.1 C-0.07 30.81, 0.77 22.09, 0 13.03 M0 13.03 C-0.33 5.97, 4.85 -0.26, 13.03 0 M0 13.03 C-0.67 3.73, 3.89 0.42, 13.03 0" stroke="#1e1e1e" stroke-width="1" fill="none"></path></g><g transform="translate(678.8587056684951 235.78943626119553) rotate(0 15.544475555419922 14.09035034803128)"><text x="15.544475555419922" y="19.749035047800575" font-family="Virgil, Segoe UI Emoji" font-size="22.54456055684997px" fill="#1e1e1e" text-anchor="middle" style="white-space: pre;" direction="ltr" dominant-baseline="alphabetic">api</text></g><g stroke-linecap="round" transform="translate(736.6742322680084 221.69908591316516) rotate(0 32.407805800471806 26.067148143857594)"><path d="M13.03 0 C19.05 -2.1, 26.61 -1.49, 51.78 0 C63.23 0.27, 68.4 5.41, 64.82 13.03 C68 23.34, 63.66 33.48, 64.82 39.1 C66.24 44.69, 58.08 50.41, 51.78 52.13 C39.89 52.69, 32.45 50.24, 13.03 52.13 C4.37 50.01, 3.54 44.8, 0 39.1 C-1.81 34.05, -1.78 27.45, 0 13.03 C-2.24 2.17, 0.97 1.95, 13.03 0" stroke="none" stroke-width="0" fill="#fff9db"></path><path d="M13.03 0 C29.73 -0.19, 44.15 -0.6, 51.78 0 M13.03 0 C25.96 0.42, 39.9 0.27, 51.78 0 M51.78 0 C61.39 0.81, 64.64 3.75, 64.82 13.03 M51.78 0 C58.56 -0.6, 63.89 3.38, 64.82 13.03 M64.82 13.03 C63.29 21.65, 64.67 33.17, 64.82 39.1 M64.82 13.03 C64.99 20.78, 65.11 28.99, 64.82 39.1 M64.82 39.1 C65.7 49.74, 60.12 50.35, 51.78 52.13 M64.82 39.1 C64.43 49.48, 60.6 49.98, 51.78 52.13 M51.78 52.13 C41.36 50.33, 32.93 51.41, 13.03 52.13 M51.78 52.13 C41.57 52.29, 31.78 51.12, 13.03 52.13 M13.03 52.13 C3.02 52.79, -0.25 47.26, 0 39.1 M13.03 52.13 C4.31 53.82, -0.44 47.39, 0 39.1 M0 39.1 C0.76 30.56, -1.6 19.34, 0 13.03 M0 39.1 C-0.42 30.51, 0 20.16, 0 13.03 M0 13.03 C-0.58 3.81, 3.95 0.36, 13.03 0 M0 13.03 C-1.61 2.89, 4.93 -1.71, 13.03 0" stroke="#1e1e1e" stroke-width="1" fill="none"></path></g><g transform="translate(753.5375625130605 233.67588370899148) rotate(0 15.544475555419922 14.09035034803128)"><text x="15.544475555419922" y="19.749035047800575" font-family="Virgil, Segoe UI Emoji" font-size="22.54456055684997px" fill="#1e1e1e" text-anchor="middle" style="white-space: pre;" direction="ltr" dominant-baseline="alphabetic">api</text></g><g stroke-linecap="round" transform="translate(393.5742012934479 221.34682715446388) rotate(0 32.407805800471806 26.067148143857594)"><path d="M13.03 0 C25.69 0.46, 36.42 1.25, 51.78 0 C61.31 0.04, 66.31 7.52, 64.82 13.03 C66.09 19.11, 62.27 29.67, 64.82 39.1 C61.94 45.58, 61.18 48.77, 51.78 52.13 C39.73 49.61, 31.17 48.75, 13.03 52.13 C0.79 51.43, 3.32 45.89, 0 39.1 C-2 28.96, -3.13 25.12, 0 13.03 C-0.49 6.5, 6.64 2.14, 13.03 0" stroke="none" stroke-width="0" fill="#e7f5ff"></path><path d="M13.03 0 C25.59 0.93, 35.57 -1.3, 51.78 0 M13.03 0 C26.37 0.34, 38.7 -0.37, 51.78 0 M51.78 0 C58.81 -0.52, 64.01 3.51, 64.82 13.03 M51.78 0 C62.4 -2.08, 64.62 2.86, 64.82 13.03 M64.82 13.03 C64.57 18.82, 64.74 25.48, 64.82 39.1 M64.82 13.03 C65.34 22.52, 64.72 29.16, 64.82 39.1 M64.82 39.1 C64.48 49.26, 60.58 50.26, 51.78 52.13 M64.82 39.1 C63.41 46.81, 60.77 50.79, 51.78 52.13 M51.78 52.13 C42.77 53.61, 33.91 51.03, 13.03 52.13 M51.78 52.13 C37.55 52.2, 24.52 51.61, 13.03 52.13 M13.03 52.13 C4.31 53.6, -0.38 47.44, 0 39.1 M13.03 52.13 C6.27 52.73, 2.29 48.74, 0 39.1 M0 39.1 C1.42 31.28, 1.79 19.29, 0 13.03 M0 39.1 C-0.36 28.89, -0.26 19.4, 0 13.03 M0 13.03 C-1.4 3.08, 4.86 -1.49, 13.03 0 M0 13.03 C-2.08 4.37, 5.98 -1.35, 13.03 0" stroke="#1e1e1e" stroke-width="1" fill="none"></path></g><g transform="translate(410.4375315385 233.3236249502902) rotate(0 15.544475555419922 14.09035034803128)"><text x="15.544475555419922" y="19.749035047800575" font-family="Virgil, Segoe UI Emoji" font-size="22.54456055684997px" fill="#1e1e1e" text-anchor="middle" style="white-space: pre;" direction="ltr" dominant-baseline="alphabetic">api</text></g><g stroke-linecap="round" transform="translate(468.25305813801333 219.23327460225983) rotate(0 32.407805800471806 26.067148143857594)"><path d="M13.03 0 C25.79 -0.16, 38.35 2.97, 51.78 0 C62.35 -1.16, 68.4 5.77, 64.82 13.03 C61.63 16.4, 65.22 20.82, 64.82 39.1 C65.23 45.52, 58.44 52.16, 51.78 52.13 C38.9 50.85, 36.43 49.66, 13.03 52.13 C4.54 50.26, -1.15 45.55, 0 39.1 C-0.05 35.01, 2.73 28.75, 0 13.03 C3.11 2.62, 7 -1, 13.03 0" stroke="none" stroke-width="0" fill="#e7f5ff"></path><path d="M13.03 0 C26.93 -0.49, 39.88 1.18, 51.78 0 M13.03 0 C25.4 -0.15, 39.02 -0.3, 51.78 0 M51.78 0 C62.15 -1.81, 64.64 3.06, 64.82 13.03 M51.78 0 C58.88 0.11, 64.97 4.05, 64.82 13.03 M64.82 13.03 C65.33 21.19, 66.78 28.96, 64.82 39.1 M64.82 13.03 C64.6 24.13, 64.82 32.82, 64.82 39.1 M64.82 39.1 C63.59 46.94, 60.73 50.97, 51.78 52.13 M64.82 39.1 C62.69 47.38, 59.58 51.01, 51.78 52.13 M51.78 52.13 C38.02 50.89, 20.91 50.63, 13.03 52.13 M51.78 52.13 C38.87 52.77, 25.79 51.86, 13.03 52.13 M13.03 52.13 C6.02 52.65, 2 48.62, 0 39.1 M13.03 52.13 C6.04 50.37, 0.29 49.19, 0 39.1 M0 39.1 C1.42 29.28, -0.47 17.88, 0 13.03 M0 39.1 C-0.65 31.34, 0.31 24.1, 0 13.03 M0 13.03 C-1.81 4.37, 5.77 -1.17, 13.03 0 M0 13.03 C-1.02 2.64, 3.71 1.77, 13.03 0" stroke="#1e1e1e" stroke-width="1" fill="none"></path></g><g transform="translate(485.11638838306544 231.21007239808614) rotate(0 15.544475555419922 14.09035034803128)"><text x="15.544475555419922" y="19.749035047800575" font-family="Virgil, Segoe UI Emoji" font-size="22.54456055684997px" fill="#1e1e1e" text-anchor="middle" style="white-space: pre;" direction="ltr" dominant-baseline="alphabetic">api</text></g><g transform="translate(347.72929412526173 475.3974334473455) rotate(0 73.43889913388489 35.2258758700782)"><text x="0" y="24.68629380975071" font-family="Virgil, Segoe UI Emoji" font-size="28.18070069606246px" fill="#1e1e1e" text-anchor="start" style="white-space: pre;" direction="ltr" dominant-baseline="alphabetic">Tyk </text><text x="0" y="59.91216967982878" font-family="Virgil, Segoe UI Emoji" font-size="28.18070069606246px" fill="#1e1e1e" text-anchor="start" style="white-space: pre;" direction="ltr" dominant-baseline="alphabetic">Dashboard</text></g><g transform="translate(772.6634698091984 691.1106192464199) rotate(0 75.17202233177181 17.6129379350391)"><text x="0" y="24.686293809750715" font-family="Virgil, Segoe UI Emoji" font-size="28.180700696062463px" fill="#1e1e1e" text-anchor="start" style="white-space: pre;" direction="ltr" dominant-baseline="alphabetic">Kubernetes</text></g><g stroke-linecap="round" transform="translate(337.8640658995437 661.0971790792905) rotate(0 306.4651200696794 432.206757662208)"><path d="M32 0 C245.22 -0.62, 459.56 -0.91, 580.93 0 M32 0 C231.69 1.21, 430.83 0.87, 580.93 0 M580.93 0 C603.01 1.79, 611.84 10.32, 612.93 32 M580.93 0 C600.82 -1.26, 613.57 9.86, 612.93 32 M612.93 32 C610.37 204.22, 609.5 376.3, 612.93 832.41 M612.93 32 C610.73 208.04, 610.84 384.24, 612.93 832.41 M612.93 832.41 C611.81 855.31, 600.63 863.65, 580.93 864.41 M612.93 832.41 C611.92 854.05, 601.78 866.71, 580.93 864.41 M580.93 864.41 C418.64 864.49, 258.18 863.8, 32 864.41 M580.93 864.41 C393.02 864.2, 204.9 863.99, 32 864.41 M32 864.41 C11.25 864.64, 0.1 855.57, 0 832.41 M32 864.41 C12.12 864.26, -0.76 855.59, 0 832.41 M0 832.41 C0.09 538.2, 1.14 244.42, 0 32 M0 832.41 C3.09 536.97, 2.68 241.36, 0 32 M0 32 C-1.51 12.65, 9.9 1.08, 32 0 M0 32 C-1.86 8.66, 11.45 1.14, 32 0" stroke="#1e1e1e" stroke-width="2" fill="none"></path></g><g stroke-linecap="round" transform="translate(394.2721229544504 1153.2657537381033) rotate(0 119.76797795826542 162.7435465197609)"><path d="M32 0 C91.6 -0.62, 154.78 0.38, 207.54 0 M207.54 0 C227.76 1.04, 239.52 10.01, 239.54 32 M239.54 32 C239.45 87.63, 239.31 142.93, 239.54 293.49 M239.54 293.49 C240.09 314.12, 227.17 323.62, 207.54 325.49 M207.54 325.49 C156.13 326.84, 105.35 324.74, 32 325.49 M32 325.49 C9.83 324.64, 0.35 314.51, 0 293.49 M0 293.49 C-0.13 194.19, 0.47 96.33, 0 32 M0 32 C-0.42 12.67, 10.55 0.28, 32 0" stroke="#1e1e1e" stroke-width="2.5" fill="none" stroke-dasharray="1.5 8"></path></g><g stroke-linecap="round" transform="translate(659.6941427980146 1162.638341753193) rotate(0 119.76797795826542 162.7435465197609)"><path d="M32 0 C94.64 1.03, 153.64 0.82, 207.54 0 M207.54 0 C228.85 -0.66, 237.81 11.41, 239.54 32 M239.54 32 C237.4 132.99, 238.84 235.17, 239.54 293.49 M239.54 293.49 C237.83 312.95, 228.6 326.55, 207.54 325.49 M207.54 325.49 C148.02 324.95, 90.88 325.37, 32 325.49 M32 325.49 C11.02 325.17, 1.55 313.7, 0 293.49 M0 293.49 C1 194.84, 1.37 97.38, 0 32 M0 32 C-0.11 10.94, 10.7 -1.78, 32 0" stroke="#1e1e1e" stroke-width="2.5" fill="none" stroke-dasharray="1.5 8"></path></g><g transform="translate(705.347832474431 1444.477151745657) rotate(0 71.38171464812444 17.6129379350391)"><text x="0" y="24.686293809750715" font-family="Virgil, Segoe UI Emoji" font-size="28.180700696062463px" fill="#1e1e1e" text-anchor="start" style="white-space: pre;" direction="ltr" dominant-baseline="alphabetic">namespace</text></g><g transform="translate(442.30836775839543 1435.0585251483421) rotate(0 71.38171464812444 17.6129379350391)"><text x="0" y="24.686293809750715" font-family="Virgil, Segoe UI Emoji" font-size="28.180700696062463px" fill="#1e1e1e" text-anchor="start" style="white-space: pre;" direction="ltr" dominant-baseline="alphabetic">namespace</text></g><g stroke-linecap="round" transform="translate(566.8077724486111 731.0979437771034) rotate(0 75.55094750219541 52.13429628771564)"><path d="M26.07 0 C59.18 1.07, 97.53 -0.76, 125.03 0 M26.07 0 C54.33 0.19, 81.19 -0.39, 125.03 0 M125.03 0 C142.14 1.06, 151.7 7.58, 151.1 26.07 M125.03 0 C143.37 -1.84, 149.64 7.72, 151.1 26.07 M151.1 26.07 C152.74 38.37, 152.75 51.28, 151.1 78.2 M151.1 26.07 C150.66 40.71, 150.82 53.49, 151.1 78.2 M151.1 78.2 C151.14 93.8, 142.51 105.3, 125.03 104.27 M151.1 78.2 C149.21 96.56, 141.91 103.74, 125.03 104.27 M125.03 104.27 C90.49 105.36, 55.38 104.87, 26.07 104.27 M125.03 104.27 C85.98 105, 48.26 104.07, 26.07 104.27 M26.07 104.27 C6.89 103.4, -1.03 97.34, 0 78.2 M26.07 104.27 C7.56 105.86, -2.07 96.13, 0 78.2 M0 78.2 C0.76 58.29, 1.73 40.64, 0 26.07 M0 78.2 C0.76 60.24, -0.22 40.86, 0 26.07 M0 26.07 C-0.98 10.34, 7.05 -0.45, 26.07 0 M0 26.07 C2.12 7.03, 7.69 -2.23, 26.07 0" stroke="#1e1e1e" stroke-width="2" fill="none"></path></g><g transform="translate(580.1920977889413 748.0063641947413) rotate(0 62.166622161865234 35.2258758700782)"><text x="62.166622161865234" y="24.686293809750715" font-family="Virgil, Segoe UI Emoji" font-size="28.180700696062463px" fill="#1e1e1e" text-anchor="middle" style="white-space: pre;" direction="ltr" dominant-baseline="alphabetic">Tyk </text><text x="62.166622161865234" y="59.91216967982879" font-family="Virgil, Segoe UI Emoji" font-size="28.180700696062463px" fill="#1e1e1e" text-anchor="middle" style="white-space: pre;" direction="ltr" dominant-baseline="alphabetic">Operator</text></g><g stroke-linecap="round" transform="translate(448.24655249919397 1254.4869403569223) rotate(0 32.407805800471806 35.2258758700782)"><path d="M16.2 0 C26.72 2.47, 29.36 -1.21, 48.61 0 C58.57 -2.91, 67.38 3.34, 64.82 16.2 C67.35 28.61, 67.62 45.58, 64.82 54.25 C67.62 65.92, 60.61 67.6, 48.61 70.45 C35.58 69.47, 29.68 71.38, 16.2 70.45 C7.27 70.72, -0.3 62.56, 0 54.25 C-2.36 39.71, 0.53 24.54, 0 16.2 C-1.92 3.07, 8.88 -0.73, 16.2 0" stroke="none" stroke-width="0" fill="#e7f5ff"></path><path d="M16.2 0 C26.79 -1.08, 36.97 0.73, 48.61 0 M16.2 0 C24.65 0.83, 33.67 -0.25, 48.61 0 M48.61 0 C60.25 -1.6, 63.55 4.56, 64.82 16.2 M48.61 0 C58.44 0.4, 64.46 7.18, 64.82 16.2 M64.82 16.2 C64.35 24.6, 65.37 34.34, 64.82 54.25 M64.82 16.2 C64.81 30.53, 64.84 47.15, 64.82 54.25 M64.82 54.25 C63.17 65.9, 58.98 69.99, 48.61 70.45 M64.82 54.25 C66.04 66.74, 60.58 70.91, 48.61 70.45 M48.61 70.45 C39.77 71.73, 27.14 69.81, 16.2 70.45 M48.61 70.45 C35.38 69.97, 23.44 71.29, 16.2 70.45 M16.2 70.45 C4.42 71.84, -1.8 65.53, 0 54.25 M16.2 70.45 C6.62 71.54, -1.15 66.21, 0 54.25 M0 54.25 C0.7 44.09, -2.12 37.85, 0 16.2 M0 54.25 C-0.24 41.78, -0.57 27.42, 0 16.2 M0 16.2 C1.84 3.96, 4.53 -1.94, 16.2 0 M0 16.2 C-1.57 5.18, 5.06 -1.37, 16.2 0" stroke="#1e1e1e" stroke-width="1" fill="none"></path></g><g transform="translate(456.96002426951463 1261.532115530938) rotate(0 23.694334030151367 28.18070069606256)"><text x="23.694334030151367" y="19.749035047800575" font-family="Virgil, Segoe UI Emoji" font-size="22.54456055684997px" fill="#1e1e1e" text-anchor="middle" style="white-space: pre;" direction="ltr" dominant-baseline="alphabetic">api</text><text x="23.694334030151367" y="47.929735743863034" font-family="Virgil, Segoe UI Emoji" font-size="22.54456055684997px" fill="#1e1e1e" text-anchor="middle" style="white-space: pre;" direction="ltr" dominant-baseline="alphabetic">CRD</text></g><g stroke-linecap="round" transform="translate(527.3786932150206 1253.8226303269662) rotate(0 32.407805800471806 35.2258758700782)"><path d="M16.2 0 C27.75 -2.8, 43.54 -1.95, 48.61 0 C62.57 -3.37, 62.71 8.57, 64.82 16.2 C68.27 26.01, 66.66 31.23, 64.82 54.25 C65.49 62.9, 61.6 67.76, 48.61 70.45 C41.97 70.81, 31.28 68.05, 16.2 70.45 C8.04 70.27, -0.15 62.65, 0 54.25 C-2.01 40.85, 3.39 31.39, 0 16.2 C-0.38 7.84, 2.62 0.22, 16.2 0" stroke="none" stroke-width="0" fill="#e7f5ff"></path><path d="M16.2 0 C23.18 -1.79, 29.7 -0.36, 48.61 0 M16.2 0 C28.06 -0.62, 38.45 -0.24, 48.61 0 M48.61 0 C58.56 0.35, 64.5 6.95, 64.82 16.2 M48.61 0 C58.12 1.79, 62.94 4.52, 64.82 16.2 M64.82 16.2 C66.86 25.83, 65.14 35.72, 64.82 54.25 M64.82 16.2 C64.01 24.65, 64.61 32.01, 64.82 54.25 M64.82 54.25 C65.88 66.52, 60.43 70.85, 48.61 70.45 M64.82 54.25 C65.49 65.31, 59.53 72.55, 48.61 70.45 M48.61 70.45 C38.45 71.69, 24.8 68.54, 16.2 70.45 M48.61 70.45 C39.8 71.43, 31.08 70.97, 16.2 70.45 M16.2 70.45 C6.46 71.4, -1 66.06, 0 54.25 M16.2 70.45 C3.66 72.73, -0.88 66.29, 0 54.25 M0 54.25 C1.32 44.63, -0.54 36.6, 0 16.2 M0 54.25 C1.23 38.97, -0.12 24.16, 0 16.2 M0 16.2 C-1.37 5.21, 5.11 -1.19, 16.2 0 M0 16.2 C-1.38 5.5, 7.35 1.75, 16.2 0" stroke="#1e1e1e" stroke-width="1" fill="none"></path></g><g transform="translate(536.0921649853412 1260.8678055009818) rotate(0 23.694334030151367 28.18070069606256)"><text x="23.694334030151367" y="19.749035047800575" font-family="Virgil, Segoe UI Emoji" font-size="22.54456055684997px" fill="#1e1e1e" text-anchor="middle" style="white-space: pre;" direction="ltr" dominant-baseline="alphabetic">api</text><text x="23.694334030151367" y="47.929735743863034" font-family="Virgil, Segoe UI Emoji" font-size="22.54456055684997px" fill="#1e1e1e" text-anchor="middle" style="white-space: pre;" direction="ltr" dominant-baseline="alphabetic">CRD</text></g><g stroke-linecap="round" transform="translate(394.12861369043094 942.0678664929733) rotate(0 72.07579106115168 35.2258758700782)"><path d="M17.61 0 C44.63 -2.24, 63.24 4.3, 126.54 0 C135.94 3.44, 144.05 8.67, 144.15 17.61 C145.04 26.88, 146.55 37.76, 144.15 52.84 C142.81 66.31, 138.85 72.33, 126.54 70.45 C95.71 68.91, 59.44 66.7, 17.61 70.45 C5.54 70.94, -1.3 62.66, 0 52.84 C-0.99 46.99, -3.4 36.49, 0 17.61 C2.7 8.7, 2.83 -0.49, 17.61 0" stroke="none" stroke-width="0" fill="#e7f5ff"></path><path d="M17.61 0 C42.08 0.75, 63.31 0.98, 126.54 0 M17.61 0 C41.13 0.63, 65.35 1.23, 126.54 0 M126.54 0 C137.16 1.56, 142.52 5.1, 144.15 17.61 M126.54 0 C137.27 0.3, 143.67 8.17, 144.15 17.61 M144.15 17.61 C142.42 28.08, 145.23 36.71, 144.15 52.84 M144.15 17.61 C144.6 30.42, 144.58 41.96, 144.15 52.84 M144.15 52.84 C144.74 64.81, 138.38 72.28, 126.54 70.45 M144.15 52.84 C145.6 64.42, 137.52 72.3, 126.54 70.45 M126.54 70.45 C85.69 68.44, 48.33 68.49, 17.61 70.45 M126.54 70.45 C86.84 71.18, 45.58 71.22, 17.61 70.45 M17.61 70.45 C4.36 72.43, -0.76 65.66, 0 52.84 M17.61 70.45 C4.01 68.44, 0.79 65.72, 0 52.84 M0 52.84 C1.81 42.91, -0.3 38.09, 0 17.61 M0 52.84 C-0.53 44.71, 0.01 36.17, 0 17.61 M0 17.61 C-1.2 5.96, 7.56 1.52, 17.61 0 M0 17.61 C1.89 4.33, 5.42 -0.54, 17.61 0" stroke="#1e1e1e" stroke-width="1" fill="none"></path></g><g transform="translate(410.83496658019567 949.1130416669889) rotate(0 55.36943817138672 28.18070069606256)"><text x="55.36943817138672" y="19.749035047800575" font-family="Virgil, Segoe UI Emoji" font-size="22.54456055684997px" fill="#1e1e1e" text-anchor="middle" style="white-space: pre;" direction="ltr" dominant-baseline="alphabetic">Operator </text><text x="55.36943817138672" y="47.929735743863034" font-family="Virgil, Segoe UI Emoji" font-size="22.54456055684997px" fill="#1e1e1e" text-anchor="middle" style="white-space: pre;" direction="ltr" dominant-baseline="alphabetic">Context 1</text></g><g stroke-linecap="round" transform="translate(726.8058370017989 1243.4596101101547) rotate(0 32.407805800471806 35.2258758700782)"><path d="M16.2 0 C20.55 2.93, 29.48 2.29, 48.61 0 C60.28 1.19, 61.96 6.08, 64.82 16.2 C63.89 27.07, 65.8 36.36, 64.82 54.25 C65.08 64.75, 56.92 73.1, 48.61 70.45 C38.72 70.55, 28.2 68.15, 16.2 70.45 C3.07 73.93, -0.73 64.67, 0 54.25 C3.23 43.09, -2.51 25.78, 0 16.2 C-3.14 8.58, 3.4 -2.06, 16.2 0" stroke="none" stroke-width="0" fill="#fff9db"></path><path d="M16.2 0 C25.29 -1.4, 36.75 -0.99, 48.61 0 M16.2 0 C25.93 0.53, 35.97 -0.63, 48.61 0 M48.61 0 C58.53 0.26, 64.4 7.4, 64.82 16.2 M48.61 0 C59.28 0.32, 64.86 3.35, 64.82 16.2 M64.82 16.2 C65.87 27.36, 64.55 40.45, 64.82 54.25 M64.82 16.2 C65.3 30.53, 65.06 45.54, 64.82 54.25 M64.82 54.25 C66.08 64.91, 58.76 72.06, 48.61 70.45 M64.82 54.25 C66.36 64.74, 57.34 69.45, 48.61 70.45 M48.61 70.45 C41.95 68.49, 32.99 71.35, 16.2 70.45 M48.61 70.45 C36.6 71.61, 25.72 71.15, 16.2 70.45 M16.2 70.45 C3.78 68.71, 0.68 66.04, 0 54.25 M16.2 70.45 C3.92 69.45, -1.12 66.95, 0 54.25 M0 54.25 C-1.35 45.08, -1.85 36.28, 0 16.2 M0 54.25 C-0.54 43.24, 0.9 32.91, 0 16.2 M0 16.2 C1.65 4.07, 5.01 -0.47, 16.2 0 M0 16.2 C-1.86 7.04, 4.08 2.01, 16.2 0" stroke="#1e1e1e" stroke-width="1" fill="none"></path></g><g transform="translate(735.5193087721195 1250.5047852841703) rotate(0 23.694334030151367 28.18070069606256)"><text x="23.694334030151367" y="19.749035047800575" font-family="Virgil, Segoe UI Emoji" font-size="22.54456055684997px" fill="#1e1e1e" text-anchor="middle" style="white-space: pre;" direction="ltr" dominant-baseline="alphabetic">api</text><text x="23.694334030151367" y="47.929735743863034" font-family="Virgil, Segoe UI Emoji" font-size="22.54456055684997px" fill="#1e1e1e" text-anchor="middle" style="white-space: pre;" direction="ltr" dominant-baseline="alphabetic">CRD</text></g><g stroke-linecap="round" transform="translate(800.7219966777793 1231.059342740546) rotate(0 32.407805800471806 35.2258758700782)"><path d="M16.2 0 C29.9 0.74, 39 0.22, 48.61 0 C57.26 2.19, 62.12 4.06, 64.82 16.2 C65.19 29.15, 62.43 45.32, 64.82 54.25 C64.63 64.9, 57.02 70.12, 48.61 70.45 C36.12 73.62, 27.55 69.76, 16.2 70.45 C7.84 67.67, 0.22 67.75, 0 54.25 C-2.56 43.02, -1.42 23.38, 0 16.2 C0.24 3.49, 6.26 2.8, 16.2 0" stroke="none" stroke-width="0" fill="#fff9db"></path><path d="M16.2 0 C24.22 -0.17, 33.08 -0.98, 48.61 0 M16.2 0 C28.02 0.25, 40.5 1.12, 48.61 0 M48.61 0 C59.3 0.28, 64.85 3.62, 64.82 16.2 M48.61 0 C59.52 1.19, 62.93 6.38, 64.82 16.2 M64.82 16.2 C66.2 27.8, 65.13 37.94, 64.82 54.25 M64.82 16.2 C65.47 27.98, 64.51 40.69, 64.82 54.25 M64.82 54.25 C66.16 64.78, 57.61 69.58, 48.61 70.45 M64.82 54.25 C63.63 67.07, 58.28 72.05, 48.61 70.45 M48.61 70.45 C42.75 69.62, 36.01 69.11, 16.2 70.45 M48.61 70.45 C34.87 69.75, 23.09 71.12, 16.2 70.45 M16.2 70.45 C4.11 69.58, -0.98 66.7, 0 54.25 M16.2 70.45 C3.52 69.93, 2.12 63.4, 0 54.25 M0 54.25 C0.18 44.2, -0.82 33.54, 0 16.2 M0 54.25 C0.5 42.01, -0.52 30.87, 0 16.2 M0 16.2 C-1.62 6.82, 4.25 1.75, 16.2 0 M0 16.2 C-2.15 4.05, 7.43 -1.5, 16.2 0" stroke="#1e1e1e" stroke-width="1" fill="none"></path></g><g transform="translate(809.4354684481 1238.1045179145617) rotate(0 23.694334030151367 28.18070069606256)"><text x="23.694334030151367" y="19.749035047800575" font-family="Virgil, Segoe UI Emoji" font-size="22.54456055684997px" fill="#1e1e1e" text-anchor="middle" style="white-space: pre;" direction="ltr" dominant-baseline="alphabetic">api</text><text x="23.694334030151367" y="47.929735743863034" font-family="Virgil, Segoe UI Emoji" font-size="22.54456055684997px" fill="#1e1e1e" text-anchor="middle" style="white-space: pre;" direction="ltr" dominant-baseline="alphabetic">CRD</text></g><g stroke-linecap="round" transform="translate(719.5431079436812 908.2308672602007) rotate(0 81.61619257954294 35.2258758700782)"><path d="M17.61 0 C58.1 1.76, 100.2 -1.77, 145.62 0 C159.09 0.57, 165.11 6.13, 163.23 17.61 C162.61 27.74, 160.39 37.84, 163.23 52.84 C163.72 63.28, 155.45 68.12, 145.62 70.45 C97.28 67.42, 44.29 72.91, 17.61 70.45 C8.7 67.41, -0.49 61.44, 0 52.84 C0.6 37.24, 1.21 28.28, 0 17.61 C-1.55 3.48, 6.37 2.64, 17.61 0" stroke="none" stroke-width="0" fill="#fff9db"></path><path d="M17.61 0 C55.57 -0.91, 89.65 -0.16, 145.62 0 M17.61 0 C57.63 -1.14, 97.78 -2.17, 145.62 0 M145.62 0 C157.45 1.03, 161.59 6.72, 163.23 17.61 M145.62 0 C156.86 -0.53, 164.45 7.56, 163.23 17.61 M163.23 17.61 C163.53 30.07, 165.13 43.6, 163.23 52.84 M163.23 17.61 C163.79 27.81, 162.22 37.84, 163.23 52.84 M163.23 52.84 C162.2 66.34, 156.38 71.84, 145.62 70.45 M163.23 52.84 C161.16 65.13, 158.58 71.54, 145.62 70.45 M145.62 70.45 C115.6 68.72, 82.69 67.87, 17.61 70.45 M145.62 70.45 C117.75 70.65, 90.68 71.91, 17.61 70.45 M17.61 70.45 C4.23 70, 1.84 63.14, 0 52.84 M17.61 70.45 C4.87 68.22, -1.57 64.36, 0 52.84 M0 52.84 C0.29 44.49, 1.73 34.39, 0 17.61 M0 52.84 C-0.74 45.34, -0.5 37.28, 0 17.61 M0 17.61 C-1.87 4.7, 7.63 -1.3, 17.61 0 M0 17.61 C2.2 5.8, 7.66 0.56, 17.61 0" stroke="#1e1e1e" stroke-width="1" fill="none"></path></g><g transform="translate(743.4903132490545 915.2760424342164) rotate(0 57.66898727416992 28.18070069606256)"><text x="57.66898727416992" y="19.749035047800575" font-family="Virgil, Segoe UI Emoji" font-size="22.54456055684997px" fill="#1e1e1e" text-anchor="middle" style="white-space: pre;" direction="ltr" dominant-baseline="alphabetic">Operator </text><text x="57.66898727416992" y="47.929735743863034" font-family="Virgil, Segoe UI Emoji" font-size="22.54456055684997px" fill="#1e1e1e" text-anchor="middle" style="white-space: pre;" direction="ltr" dominant-baseline="alphabetic">Context 2</text></g><g stroke-linecap="round" transform="translate(38.52698979135812 1140.1657203294585) rotate(0 28.536195356603002 21.402146517452366)"><path d="M18.39 0.64 C23.76 -0.92, 32.59 0.36, 38.54 2.19 C44.5 4.03, 51.22 7.85, 54.12 11.67 C57.02 15.48, 57.21 20.84, 55.93 25.08 C54.66 29.32, 50.96 34.24, 46.48 37.09 C41.99 39.95, 34.96 42.29, 29.03 42.23 C23.1 42.17, 15.77 39.49, 10.9 36.76 C6.03 34.02, 1.08 30.04, -0.19 25.84 C-1.46 21.63, -0.08 15.53, 3.28 11.52 C6.64 7.5, 16.94 3.43, 19.96 1.76 C22.98 0.09, 21.39 1.26, 21.41 1.5 M19.58 1.67 C24.91 0.44, 34.13 0.82, 39.87 2.46 C45.61 4.11, 51.47 7.39, 54.05 11.52 C56.62 15.66, 56.71 22.8, 55.32 27.28 C53.92 31.76, 50.55 35.84, 45.68 38.41 C40.81 40.97, 32.16 42.95, 26.1 42.64 C20.04 42.33, 13.77 39.8, 9.32 36.54 C4.87 33.28, -0.03 27.59, -0.58 23.08 C-1.13 18.57, 2.6 13, 6.02 9.48 C9.45 5.96, 17.79 3.3, 19.98 1.96 C22.17 0.62, 18.79 1.08, 19.15 1.45" stroke="none" stroke-width="0" fill="#a5d8ff"></path><path d="M25.7 0.14 C31.12 -0.57, 38.47 1.28, 43.61 3.71 C48.74 6.13, 54.58 10.32, 56.48 14.68 C58.39 19.05, 57.64 25.48, 55.03 29.89 C52.42 34.31, 46.25 39.04, 40.81 41.17 C35.37 43.3, 28.22 43.83, 22.36 42.68 C16.5 41.53, 9.34 38.06, 5.65 34.27 C1.95 30.48, -0.36 24.47, 0.18 19.95 C0.73 15.44, 4.1 10.54, 8.93 7.16 C13.75 3.78, 25.02 0.65, 29.12 -0.32 C33.22 -1.29, 33.54 1.07, 33.52 1.33 M21.66 1.54 C27.16 0.18, 34.72 0.72, 40.4 2.79 C46.07 4.86, 53.28 9.64, 55.71 13.95 C58.14 18.25, 57.16 24.12, 54.99 28.62 C52.82 33.12, 47.84 38.49, 42.7 40.95 C37.57 43.42, 30.28 44.5, 24.2 43.43 C18.13 42.36, 10.2 37.93, 6.26 34.53 C2.31 31.13, 0.76 27.52, 0.54 23.05 C0.32 18.58, 1.43 11.25, 4.95 7.69 C8.47 4.14, 18.94 2.93, 21.66 1.74 C24.39 0.55, 20.84 0.62, 21.29 0.58" stroke="#1e1e1e" stroke-width="2" fill="none"></path></g><g stroke-linecap="round" transform="translate(10 1179.9741959644875) rotate(0 53.70258421934716 87)"><path d="M73.3 6.7 C80.29 10.08, 87.83 20.16, 93.03 29.42 C98.23 38.69, 102.15 50.27, 104.51 62.27 C106.86 74.27, 108.22 88.97, 107.16 101.45 C106.09 113.94, 102.69 127.04, 98.12 137.19 C93.55 147.33, 86.5 156.21, 79.75 162.31 C73 168.42, 65.37 173.05, 57.62 173.8 C49.88 174.55, 40.6 171.57, 33.27 166.82 C25.95 162.07, 18.93 154.65, 13.68 145.32 C8.44 135.99, 4.05 122.77, 1.79 110.83 C-0.48 98.88, -1.22 86.01, 0.08 73.67 C1.38 61.33, 4.91 47.36, 9.6 36.78 C14.29 26.21, 21.42 16.2, 28.25 10.22 C35.08 4.24, 41.85 0.91, 50.58 0.9 C59.31 0.89, 74.99 7.46, 80.63 10.16 C86.28 12.86, 84.88 15.79, 84.46 17.11 M38.9 4.7 C45.63 0.04, 54.11 -1.87, 61.75 0.15 C69.39 2.18, 78.38 9.33, 84.74 16.86 C91.1 24.4, 96.37 34.59, 99.93 45.36 C103.49 56.13, 105.76 69.19, 106.09 81.5 C106.43 93.81, 104.7 107.62, 101.94 119.22 C99.19 130.83, 94.91 142.57, 89.57 151.13 C84.24 159.68, 77.28 167.08, 69.92 170.54 C62.55 174.01, 53.09 173.98, 45.37 171.92 C37.65 169.86, 29.86 165.01, 23.59 158.16 C17.33 151.32, 11.64 141.67, 7.75 130.84 C3.86 120.02, 0.66 105.99, 0.25 93.22 C-0.17 80.45, 2.28 66.16, 5.26 54.24 C8.24 42.31, 12.72 30.26, 18.1 21.67 C23.48 13.09, 34.15 5.6, 37.53 2.75 C40.91 -0.11, 38 3.13, 38.36 4.54" stroke="none" stroke-width="0" fill="#a5d8ff"></path><path d="M51.29 0.08 C58.71 -1.7, 68.83 1.67, 76.14 6.76 C83.45 11.85, 90.27 20.8, 95.15 30.64 C100.04 40.48, 103.48 53.48, 105.47 65.78 C107.46 78.09, 108.55 92.16, 107.11 104.47 C105.67 116.77, 101.59 129.62, 96.82 139.59 C92.04 149.57, 85.25 158.5, 78.47 164.34 C71.69 170.17, 63.93 174.3, 56.13 174.6 C48.34 174.89, 38.82 171.22, 31.71 166.09 C24.6 160.96, 18.5 153.52, 13.48 143.81 C8.46 134.11, 3.72 120.23, 1.57 107.84 C-0.58 95.46, -1.09 81.8, 0.6 69.53 C2.28 57.25, 6.81 44.33, 11.67 34.21 C16.52 24.09, 21.67 14.33, 29.74 8.81 C37.81 3.3, 53.78 1.89, 60.09 1.1 C66.4 0.31, 67.65 2.83, 67.59 4.06 M78 9.14 C85.06 13.65, 93.11 26.41, 97.71 36.7 C102.3 47, 104.42 58.46, 105.59 70.93 C106.76 83.4, 106.84 99.32, 104.72 111.5 C102.6 123.68, 97.63 134.91, 92.87 143.99 C88.1 153.07, 83.17 161.22, 76.12 165.97 C69.07 170.71, 58.72 172.88, 50.56 172.45 C42.41 172.03, 33.93 169.3, 27.16 163.41 C20.4 157.53, 14.53 147.3, 9.99 137.14 C5.45 126.99, 1.08 114.52, -0.05 102.48 C-1.18 90.43, 0.79 77.18, 3.22 64.88 C5.66 52.58, 9.69 38.38, 14.54 28.67 C19.4 18.95, 25.63 11.18, 32.37 6.6 C39.11 2.02, 47.31 0.3, 54.97 1.16 C62.64 2.02, 74.63 10.1, 78.36 11.76 C82.08 13.41, 77.37 10.2, 77.3 11.1" stroke="#1e1e1e" stroke-width="2" fill="none"></path></g><g transform="translate(33.7448564694771 1224.6848549571637) rotate(0 29.98426628112793 42.27105104409384)"><text x="29.98426628112793" y="19.749035047800575" font-family="Virgil, Segoe UI Emoji" font-size="22.54456055684997px" fill="#1e1e1e" text-anchor="middle" style="white-space: pre;" direction="ltr" dominant-baseline="alphabetic">API </text><text x="29.98426628112793" y="47.929735743863034" font-family="Virgil, Segoe UI Emoji" font-size="22.54456055684997px" fill="#1e1e1e" text-anchor="middle" style="white-space: pre;" direction="ltr" dominant-baseline="alphabetic">Devel</text><text x="29.98426628112793" y="76.11043643992551" font-family="Virgil, Segoe UI Emoji" font-size="22.54456055684997px" fill="#1e1e1e" text-anchor="middle" style="white-space: pre;" direction="ltr" dominant-baseline="alphabetic">oper</text></g><g mask="url(#mask-_ZFRZvJxG-1AABfZBZE6y)" stroke-linecap="round"><g transform="translate(122.20327107313983 1273.4310307856172) rotate(0 159.79672152187925 -0.3466653540149309)"><path d="M0.61 0.24 C53.83 0, 266.77 -0.58, 319.94 -0.56 M-0.53 -0.68 C52.51 -0.78, 265.94 1.17, 319.18 1.05" stroke="#1e1e1e" stroke-width="1" fill="none"></path></g><g transform="translate(122.20327107313983 1273.4310307856172) rotate(0 159.79672152187925 -0.3466653540149309)"><path d="M295.65 9.5 C304.3 6.98, 312.43 3.51, 319.18 1.05 M295.65 9.5 C304.48 7.02, 314.68 2.77, 319.18 1.05" stroke="#1e1e1e" stroke-width="1" fill="none"></path></g><g transform="translate(122.20327107313983 1273.4310307856172) rotate(0 159.79672152187925 -0.3466653540149309)"><path d="M295.72 -7.6 C304.47 -4.08, 312.58 -1.51, 319.18 1.05 M295.72 -7.6 C304.63 -3.39, 314.81 -0.95, 319.18 1.05" stroke="#1e1e1e" stroke-width="1" fill="none"></path></g></g><mask id="mask-_ZFRZvJxG-1AABfZBZE6y"><rect x="0" y="0" fill="#fff" width="541.7967141168983" height="1374.124361493647"></rect><rect x="236.62905906230412" y="1258.9940150835719" fill="#000" width="90.74186706542969" height="28.180700696062463" opacity="1"></rect></mask><g transform="translate(236.62905906230435 1258.9940150835719) rotate(0 45.28237660458308 14.6237363410346)"><text x="45.370933532714844" y="19.749035047800575" font-family="Virgil, Segoe UI Emoji" font-size="22.54456055684997px" fill="#1e1e1e" text-anchor="middle" style="white-space: pre;" direction="ltr" dominant-baseline="alphabetic">manages</text></g><g stroke-linecap="round" transform="translate(67.61860688254933 789.3917266118838) rotate(0 29.847988606370677 25.032721311564273)"><path d="M43.83 3.14 C49.27 5.1, 54.29 10.6, 56.61 15.6 C58.93 20.6, 59.64 28.1, 57.73 33.13 C55.83 38.15, 50.39 42.94, 45.18 45.75 C39.97 48.57, 32.61 50.63, 26.48 50.02 C20.35 49.4, 12.82 46.14, 8.4 42.05 C3.97 37.96, 0.2 30.85, -0.05 25.47 C-0.31 20.1, 2.98 14.03, 6.87 9.78 C10.76 5.52, 16.81 0.89, 23.3 -0.06 C29.78 -1.02, 41.76 3.19, 45.76 4.04 C49.76 4.89, 47.63 4.53, 47.27 5.02 M25.65 0.22 C31.87 -0.59, 42.46 2.54, 47.73 5.5 C53.01 8.46, 55.96 12.81, 57.29 17.99 C58.63 23.18, 58.32 31.82, 55.77 36.6 C53.23 41.39, 47.54 44.72, 42.02 46.7 C36.5 48.69, 28.65 49.48, 22.65 48.51 C16.65 47.53, 9.88 45.24, 6.01 40.86 C2.14 36.48, -1.01 27.58, -0.57 22.22 C-0.13 16.86, 4.18 12.23, 8.64 8.69 C13.1 5.16, 23.35 2.37, 26.18 1 C29.02 -0.37, 25.75 0.33, 25.66 0.49" stroke="none" stroke-width="0" fill="#b2f2bb"></path><path d="M39.92 1.91 C45.8 3.09, 51.88 6.55, 55.05 10.9 C58.23 15.26, 59.7 22.66, 58.96 28.04 C58.23 33.42, 55.23 39.65, 50.66 43.17 C46.09 46.69, 38.03 48.8, 31.53 49.15 C25.03 49.5, 16.74 48.5, 11.67 45.26 C6.6 42.02, 2.39 35.16, 1.11 29.7 C-0.16 24.23, 0.92 17.2, 4.02 12.49 C7.12 7.78, 12.68 3.01, 19.7 1.43 C26.72 -0.16, 41.11 1.83, 46.14 2.96 C51.17 4.09, 50.15 7.83, 49.88 8.21 M22.14 0.26 C28.34 -1.55, 39.23 -0.55, 45 1.74 C50.77 4.03, 54.71 8.87, 56.76 13.98 C58.81 19.09, 59.14 27.19, 57.3 32.4 C55.45 37.61, 51.05 42.32, 45.68 45.24 C40.31 48.16, 31.16 50.27, 25.07 49.92 C18.98 49.56, 13.09 47.23, 9.12 43.1 C5.16 38.97, 1.81 30.74, 1.26 25.14 C0.72 19.53, 2.38 13.36, 5.86 9.45 C9.34 5.54, 19.36 2.84, 22.16 1.66 C24.95 0.49, 22.56 2.32, 22.64 2.4" stroke="#1e1e1e" stroke-width="2" fill="none"></path></g><g stroke-linecap="round" transform="translate(23.799400140870375 842.6001783944089) rotate(0 79.73750979613362 47.5)"><path d="M77.63 0.15 C89.28 -0.7, 103.65 0.97, 114.63 4.36 C125.62 7.76, 136.25 14.48, 143.55 20.5 C150.84 26.52, 156.4 33.49, 158.42 40.48 C160.44 47.47, 159.7 55.36, 155.66 62.44 C151.62 69.53, 143.18 77.99, 134.17 83 C125.15 88, 113.51 90.8, 101.56 92.47 C89.61 94.14, 74.53 94.55, 62.48 93.02 C50.43 91.49, 38.79 87.87, 29.27 83.28 C19.75 78.7, 10.26 72.21, 5.35 65.53 C0.44 58.85, -1.57 50.62, -0.17 43.21 C1.24 35.8, 7.03 27.26, 13.77 21.08 C20.5 14.91, 28.05 9.71, 40.24 6.15 C52.44 2.59, 77.82 0.6, 86.93 -0.26 C96.03 -1.13, 95.12 0.26, 94.88 0.96 M64.54 1.08 C75.87 -1.12, 90.16 -1.1, 101.98 0.89 C113.81 2.89, 126.44 7.59, 135.47 13.04 C144.5 18.5, 152.32 26.49, 156.18 33.61 C160.04 40.74, 160.51 48.73, 158.64 55.79 C156.77 62.85, 152.29 70.34, 144.96 75.96 C137.62 81.59, 126.13 86.52, 114.61 89.55 C103.09 92.59, 88.32 94.43, 75.82 94.18 C63.33 93.93, 50.26 91.7, 39.65 88.06 C29.04 84.43, 18.75 78.47, 12.17 72.37 C5.59 66.27, 1.05 58.82, 0.17 51.47 C-0.71 44.12, 1.92 35.24, 6.89 28.26 C11.85 21.29, 20.29 14.11, 29.96 9.63 C39.63 5.14, 59.21 2.64, 64.91 1.36 C70.6 0.08, 64.23 1.31, 64.14 1.93" stroke="none" stroke-width="0" fill="#b2f2bb"></path><path d="M66.55 -0.26 C77.73 -2.29, 92.41 -0.5, 104.31 1.88 C116.2 4.25, 129.17 8.77, 137.94 13.99 C146.71 19.22, 153.58 26, 156.95 33.23 C160.32 40.47, 160.62 50.1, 158.15 57.38 C155.69 64.66, 149.88 71.42, 142.14 76.92 C134.41 82.42, 123 87.46, 111.74 90.38 C100.48 93.31, 86.88 95.05, 74.57 94.48 C62.26 93.9, 48.65 90.71, 37.88 86.92 C27.11 83.13, 16.16 78.06, 9.94 71.73 C3.72 65.39, 1.04 56.41, 0.57 48.92 C0.11 41.43, 1.84 33.48, 7.15 26.79 C12.46 20.1, 21.07 13.1, 32.45 8.8 C43.83 4.5, 66.86 2.35, 75.42 0.98 C83.99 -0.38, 83.9 0.08, 83.84 0.6 M75.05 0.12 C86.96 -0.58, 103.11 2.65, 114.67 5.58 C126.22 8.51, 137.14 12.09, 144.37 17.69 C151.6 23.29, 156.39 31.59, 158.05 39.19 C159.71 46.79, 158.26 56.01, 154.34 63.28 C150.42 70.56, 143.41 78.02, 134.53 82.83 C125.65 87.64, 112.55 90.43, 101.07 92.15 C89.6 93.87, 77.32 94.41, 65.68 93.13 C54.03 91.85, 40.84 88.86, 31.19 84.47 C21.54 80.08, 12.86 73.74, 7.78 66.8 C2.7 59.86, -0.05 50.38, 0.71 42.83 C1.47 35.29, 5.72 27.74, 12.32 21.51 C18.91 15.27, 29.77 8.87, 40.28 5.41 C50.79 1.96, 69.39 1.38, 75.39 0.77 C81.39 0.17, 76.09 1.13, 76.26 1.78" stroke="#1e1e1e" stroke-width="2" fill="none"></path></g><g transform="translate(55.64533194122532 861.8319055919851) rotate(0 48.008644104003906 28.18070069606256)"><text x="48.008644104003906" y="19.749035047800575" font-family="Virgil, Segoe UI Emoji" font-size="22.54456055684997px" fill="#1e1e1e" text-anchor="middle" style="white-space: pre;" direction="ltr" dominant-baseline="alphabetic">Platform</text><text x="48.008644104003906" y="47.929735743863034" font-family="Virgil, Segoe UI Emoji" font-size="22.54456055684997px" fill="#1e1e1e" text-anchor="middle" style="white-space: pre;" direction="ltr" dominant-baseline="alphabetic">Team</text></g><g mask="url(#mask-ijBHNSiwmaJYut2njAPVM)" stroke-linecap="round"><g transform="translate(187.8690721315811 910.7749229458218) rotate(0 95.3576983433552 28.88511949564827)"><path d="M0.8 -0.16 C32.48 9.22, 158.09 47.42, 189.63 57.25 M-0.23 -1.29 C31.83 8.16, 160.24 48.79, 191.78 58.51" stroke="#1e1e1e" stroke-width="1" fill="none"></path></g><g transform="translate(187.8690721315811 910.7749229458218) rotate(0 95.3576983433552 28.88511949564827)"><path d="M166.8 59.67 C173.2 57.39, 179.27 57.85, 191.78 58.51 M166.8 59.67 C175.6 59.28, 186.71 59.07, 191.78 58.51" stroke="#1e1e1e" stroke-width="1" fill="none"></path></g><g transform="translate(187.8690721315811 910.7749229458218) rotate(0 95.3576983433552 28.88511949564827)"><path d="M171.91 43.34 C177.07 45.46, 181.78 50.28, 191.78 58.51 M171.91 43.34 C178.64 49.33, 187.77 55.44, 191.78 58.51" stroke="#1e1e1e" stroke-width="1" fill="none"></path></g></g><mask id="mask-ijBHNSiwmaJYut2njAPVM"><rect x="0" y="0" fill="#fff" width="478.5844688182915" height="1068.5451619371183"></rect><rect x="237.85583694222123" y="925.5696920934388" fill="#000" width="90.74186706542969" height="28.180700696062463" opacity="1"></rect></mask><g transform="translate(237.85583694222146 925.5696920934379) rotate(0 45.78635614801192 13.815413356213412)"><text x="45.370933532714844" y="19.749035047800575" font-family="Virgil, Segoe UI Emoji" font-size="22.54456055684997px" fill="#1e1e1e" text-anchor="middle" style="white-space: pre;" direction="ltr" dominant-baseline="alphabetic">manages</text></g><g mask="url(#mask-A7OIGJ8zlHL42VTdXHU4i)" stroke-linecap="round"><g transform="translate(466.6762078802576 1246.2119835059525) rotate(0 -3.4546780294524524 -116.14166511901067)"><path d="M0.45 -0.63 C-0.83 -39.13, -6.12 -192.84, -7.27 -231.39" stroke="#1e1e1e" stroke-width="1.5" fill="none" stroke-dasharray="8 9"></path></g><g transform="translate(466.6762078802576 1246.2119835059525) rotate(0 -3.4546780294524524 -116.14166511901067)"><path d="M2.04 -208.19 C-2.04 -216.49, -2.6 -222.9, -7.27 -231.39" stroke="#1e1e1e" stroke-width="1.5" fill="none"></path></g><g transform="translate(466.6762078802576 1246.2119835059525) rotate(0 -3.4546780294524524 -116.14166511901067)"><path d="M-15.05 -207.63 C-13.44 -216.18, -8.3 -222.78, -7.27 -231.39" stroke="#1e1e1e" stroke-width="1.5" fill="none"></path></g></g><mask id="mask-A7OIGJ8zlHL42VTdXHU4i"><rect x="0" y="0" fill="#fff" width="573.5855639391625" height="1578.4953137439738"></rect><rect x="446.73018349155245" y="1115.9799680389115" fill="#000" width="32.98269271850586" height="28.180700696062463" opacity="1"></rect></mask><g transform="translate(446.73018349155245 1115.9799680389115) rotate(0 16.535972109064232 14.21991950040092)"><text x="16.49134635925293" y="19.749035047800575" font-family="Virgil, Segoe UI Emoji" font-size="22.54456055684997px" fill="#1e1e1e" text-anchor="middle" style="white-space: pre;" direction="ltr" dominant-baseline="alphabetic">ref</text></g><g mask="url(#mask-bNmmCjioXuS-D6m0a9WdV)" stroke-linecap="round"><g transform="translate(568.8771691955417 1242.1949723403154) rotate(0 -38.94351290751911 -111.48539968368505)"><path d="M0 0.21 C-13.3 -36.72, -65.89 -184.96, -78.82 -222.2" stroke="#1e1e1e" stroke-width="1.5" fill="none" stroke-dasharray="8 9"></path></g><g transform="translate(568.8771691955417 1242.1949723403154) rotate(0 -38.94351290751911 -111.48539968368505)"><path d="M-62.96 -202.88 C-68.57 -211.82, -73.71 -217.14, -78.82 -222.2" stroke="#1e1e1e" stroke-width="1.5" fill="none"></path></g><g transform="translate(568.8771691955417 1242.1949723403154) rotate(0 -38.94351290751911 -111.48539968368505)"><path d="M-79.09 -197.2 C-78.51 -208.31, -77.47 -215.81, -78.82 -222.2" stroke="#1e1e1e" stroke-width="1.5" fill="none"></path></g></g><mask id="mask-bNmmCjioXuS-D6m0a9WdV"><rect x="0" y="0" fill="#fff" width="746.7641950105799" height="1565.1657717076855"></rect><rect x="513.4423099287696" y="1116.6192223086" fill="#000" width="32.98269271850586" height="28.180700696062463" opacity="1"></rect></mask><g transform="translate(513.4423099287696 1116.6192223086) rotate(0 16.028146686777518 14.578960285236917)"><text x="16.49134635925293" y="19.749035047800575" font-family="Virgil, Segoe UI Emoji" font-size="22.54456055684997px" fill="#1e1e1e" text-anchor="middle" style="white-space: pre;" direction="ltr" dominant-baseline="alphabetic">ref</text></g><g mask="url(#mask-BgV_ez9jigh7Zt4XQkYG1)" stroke-linecap="round"><g transform="translate(772.4817365321351 1231.1481916348089) rotate(0 10.76069170024357 -125.52826879982513)"><path d="M0.91 0.62 C4.76 -41.31, 19.16 -209.58, 22.68 -251.35" stroke="#1e1e1e" stroke-width="1.5" fill="none" stroke-dasharray="8 9"></path></g><g transform="translate(772.4817365321351 1231.1481916348089) rotate(0 10.76069170024357 -125.52826879982513)"><path d="M29.21 -227.22 C28.47 -231.62, 25.22 -239.06, 22.68 -251.35" stroke="#1e1e1e" stroke-width="1.5" fill="none"></path></g><g transform="translate(772.4817365321351 1231.1481916348089) rotate(0 10.76069170024357 -125.52826879982513)"><path d="M12.17 -228.67 C15.94 -232.82, 17.2 -239.87, 22.68 -251.35" stroke="#1e1e1e" stroke-width="1.5" fill="none"></path></g></g><mask id="mask-BgV_ez9jigh7Zt4XQkYG1"><rect x="0" y="0" fill="#fff" width="894.0031199326222" height="1582.2047292344591"></rect><rect x="766.7510818731257" y="1091.529572486952" fill="#000" width="32.98269271850586" height="28.180700696062463" opacity="1"></rect></mask><g transform="translate(766.7510818731257 1091.529572486953) rotate(0 17.52496408484876 14.251582584431617)"><text x="16.49134635925293" y="19.749035047800575" font-family="Virgil, Segoe UI Emoji" font-size="22.54456055684997px" fill="#1e1e1e" text-anchor="middle" style="white-space: pre;" direction="ltr" dominant-baseline="alphabetic">ref</text></g><g mask="url(#mask-PU7waC92SlYUXfS7dG9S1)" stroke-linecap="round"><g transform="translate(851.9834111665114 1225.1226748863514) rotate(0 -15.267355043938778 -122.51551042559595)"><path d="M0.24 -0.3 C-4.97 -41.18, -26.13 -205.38, -31.16 -246.03" stroke="#1e1e1e" stroke-width="1.5" fill="none" stroke-dasharray="8 9"></path></g><g transform="translate(851.9834111665114 1225.1226748863514) rotate(0 -15.267355043938778 -122.51551042559595)"><path d="M-19.72 -223.79 C-23.58 -231.61, -28.23 -236.39, -31.16 -246.03" stroke="#1e1e1e" stroke-width="1.5" fill="none"></path></g><g transform="translate(851.9834111665114 1225.1226748863514) rotate(0 -15.267355043938778 -122.51551042559595)"><path d="M-36.69 -221.65 C-35.34 -230.15, -34.8 -235.59, -31.16 -246.03" stroke="#1e1e1e" stroke-width="1.5" fill="none"></path></g></g><mask id="mask-PU7waC92SlYUXfS7dG9S1"><rect x="0" y="0" fill="#fff" width="982.5181212543889" height="1570.1536957375433"></rect><rect x="820.2247097633199" y="1088.5168141127251" fill="#000" width="32.98269271850586" height="28.180700696062463" opacity="1"></rect></mask><g transform="translate(820.2247097633199 1088.5168141127251) rotate(0 16.299515857919914 13.440220508625316)"><text x="16.49134635925293" y="19.749035047800575" font-family="Virgil, Segoe UI Emoji" font-size="22.54456055684997px" fill="#1e1e1e" text-anchor="middle" style="white-space: pre;" direction="ltr" dominant-baseline="alphabetic">ref</text></g><g mask="url(#mask-GP1IPsA3jlW73s_ZGgXrM)" stroke-linecap="round"><g transform="translate(590.2346561373297 725.5880017909944) rotate(0 -24.912141386219673 -172.9490259870804)"><path d="M1.16 1.17 C-6.96 -18.3, -40.82 -58.54, -49.1 -116.45 C-57.37 -174.36, -48.27 -308.17, -48.47 -346.28" stroke="#1e1e1e" stroke-width="1.5" fill="none" stroke-dasharray="1.5 7"></path></g><g transform="translate(590.2346561373297 725.5880017909944) rotate(0 -24.912141386219673 -172.9490259870804)"><path d="M-40.6 -322.55 C-40.85 -327.69, -44.6 -333.55, -48.47 -346.28" stroke="#1e1e1e" stroke-width="1.5" fill="none" stroke-dasharray="1.5 5"></path></g><g transform="translate(590.2346561373297 725.5880017909944) rotate(0 -24.912141386219673 -172.9490259870804)"><path d="M-57.7 -323.05 C-53.31 -328.22, -52.43 -333.94, -48.47 -346.28" stroke="#1e1e1e" stroke-width="1.5" fill="none" stroke-dasharray="1.5 5"></path></g></g><mask id="mask-GP1IPsA3jlW73s_ZGgXrM"><rect x="0" y="0" fill="#fff" width="740.058938909769" height="1171.486053765155"></rect><rect x="455.620372449363" y="583.9366820007035" fill="#000" width="169.5800018310547" height="50" opacity="1"></rect></mask><g transform="translate(455.620372449363 583.9366820007035) rotate(0 108.90909685480733 -30.903556919802213)"><text x="84.79000091552734" y="17.52" font-family="Virgil, Segoe UI Emoji" font-size="20px" fill="#1e1e1e" text-anchor="middle" style="white-space: pre;" direction="ltr" dominant-baseline="alphabetic">using Operator </text><text x="84.79000091552734" y="42.519999999999996" font-family="Virgil, Segoe UI Emoji" font-size="20px" fill="#1e1e1e" text-anchor="middle" style="white-space: pre;" direction="ltr" dominant-baseline="alphabetic">Context 1 access</text></g><g mask="url(#mask-ci4i6_P6LoKU570Cva9zA)" stroke-linecap="round"><g transform="translate(701.935518771731 720.1558962374515) rotate(0 38.60071317036363 -172.9490259870804)"><path d="M0.07 0.71 C9.48 -16.96, 44.47 -48.98, 57.3 -106.78 C70.14 -164.59, 73.91 -306.44, 77.06 -346.14" stroke="#1e1e1e" stroke-width="1.5" fill="none" stroke-dasharray="1.5 7"></path></g><g transform="translate(701.935518771731 720.1558962374515) rotate(0 38.60071317036363 -172.9490259870804)"><path d="M84.3 -322.21 C82.96 -331.19, 79.54 -340.12, 77.06 -346.14" stroke="#1e1e1e" stroke-width="1.5" fill="none" stroke-dasharray="1.5 5"></path></g><g transform="translate(701.935518771731 720.1558962374515) rotate(0 38.60071317036363 -172.9490259870804)"><path d="M67.22 -323.16 C72.18 -331.8, 75.08 -340.38, 77.06 -346.14" stroke="#1e1e1e" stroke-width="1.5" fill="none" stroke-dasharray="1.5 5"></path></g></g><mask id="mask-ci4i6_P6LoKU570Cva9zA"><rect x="0" y="0" fill="#fff" width="879.1369451124583" height="1166.0539482116128"></rect><rect x="670.1251682317757" y="588.1064875590864" fill="#000" width="178.39999389648438" height="50" opacity="1"></rect></mask><g transform="translate(670.1251682317757 588.1064875590855) rotate(0 70.37566841849866 -40.665748760068254)"><text x="89.19999694824219" y="17.52" font-family="Virgil, Segoe UI Emoji" font-size="20px" fill="#1e1e1e" text-anchor="middle" style="white-space: pre;" direction="ltr" dominant-baseline="alphabetic">using Operator </text><text x="89.19999694824219" y="42.519999999999996" font-family="Virgil, Segoe UI Emoji" font-size="20px" fill="#1e1e1e" text-anchor="middle" style="white-space: pre;" direction="ltr" dominant-baseline="alphabetic">Context 2 access</text></g><g mask="url(#mask-KFB4TSM93HZAyoj7MtZI6)" stroke-linecap="round"><g transform="translate(630.5316398516388 852.6140536628432) rotate(0 -4.815881149610959 142.39321239953415)"><path d="M-1.19 1.02 C-2.82 48.39, -8.02 237.25, -9.56 284.36 M0.38 0.51 C-1.42 48.03, -9.08 238.36, -10.48 285.68" stroke="#1e1e1e" stroke-width="1" fill="none"></path></g><g transform="translate(630.5316398516388 852.6140536628432) rotate(0 -4.815881149610959 142.39321239953415)"><path d="M-18.19 261.89 C-14.02 269.6, -13.99 275.64, -10.48 285.68 M-18.19 261.89 C-16.71 267.69, -15.98 272.28, -10.48 285.68" stroke="#1e1e1e" stroke-width="1" fill="none"></path></g><g transform="translate(630.5316398516388 852.6140536628432) rotate(0 -4.815881149610959 142.39321239953415)"><path d="M-1.1 262.5 C-2.33 269.84, -7.7 275.7, -10.48 285.68 M-1.1 262.5 C-3.16 268.22, -5.97 272.68, -10.48 285.68" stroke="#1e1e1e" stroke-width="1" fill="none"></path></g></g><mask id="mask-KFB4TSM93HZAyoj7MtZI6"><rect x="0" y="0" fill="#fff" width="740.163402150861" height="1237.4004784619115"></rect><rect x="581.4495119063736" y="980.9169157143451" fill="#000" width="88.5324935913086" height="28.180700696062463" opacity="1"></rect></mask><g transform="translate(581.4495119063736 980.916915714346) rotate(0 44.0332225818745 14.78852698727951)"><text x="44.2662467956543" y="19.749035047800575" font-family="Virgil, Segoe UI Emoji" font-size="22.54456055684997px" fill="#1e1e1e" text-anchor="middle" style="white-space: pre;" direction="ltr" dominant-baseline="alphabetic">watches</text></g><g stroke-linecap="round"><g transform="translate(623.6572270397755 1066.571598908154) rotate(0 37.79668363435235 41.84632830946157)"><path d="M-0.28 -0.58 C12.36 13.43, 63.47 68.83, 76.07 83.06 M1.77 1.72 C14.28 15.97, 63.27 70.72, 75.38 84.27" stroke="#1e1e1e" stroke-width="1" fill="none"></path></g><g transform="translate(623.6572270397755 1066.571598908154) rotate(0 37.79668363435235 41.84632830946157)"><path d="M53.35 72.46 C59.3 77.07, 66.24 79.59, 75.38 84.27 M53.35 72.46 C61.15 77.33, 69.9 82.07, 75.38 84.27" stroke="#1e1e1e" stroke-width="1" fill="none"></path></g><g transform="translate(623.6572270397755 1066.571598908154) rotate(0 37.79668363435235 41.84632830946157)"><path d="M66.1 61.06 C67.89 69.28, 70.77 75.43, 75.38 84.27 M66.1 61.06 C68.93 70.36, 72.68 79.58, 75.38 84.27" stroke="#1e1e1e" stroke-width="1" fill="none"></path></g></g><mask></mask><g mask="url(#mask-bb0rC99QyKtyPcP8HJART)" stroke-linecap="round"><g transform="translate(195.25160556051947 886.28235204367) rotate(0 259.32369877168037 23.347471272049006)"><path d="M0.6 0.36 C86.92 8.11, 431.97 38.09, 518.43 45.79 M-0.54 -0.5 C85.55 7.45, 430.78 38.81, 517.36 46.86" stroke="#1e1e1e" stroke-width="1" fill="none"></path></g><g transform="translate(195.25160556051947 886.28235204367) rotate(0 259.32369877168037 23.347471272049006)"><path d="M493.18 53.23 C502.13 50.55, 508.33 49.86, 517.36 46.86 M493.18 53.23 C500.6 51.71, 507.53 49.07, 517.36 46.86" stroke="#1e1e1e" stroke-width="1" fill="none"></path></g><g transform="translate(195.25160556051947 886.28235204367) rotate(0 259.32369877168037 23.347471272049006)"><path d="M494.75 36.2 C503.05 39.37, 508.72 44.54, 517.36 46.86 M494.75 36.2 C501.66 39.62, 508.14 41.91, 517.36 46.86" stroke="#1e1e1e" stroke-width="1" fill="none"></path></g></g><mask id="mask-bb0rC99QyKtyPcP8HJART"><rect x="0" y="0" fill="#fff" width="813.8990031038802" height="1032.977294587768"></rect><rect x="414.32530433219995" y="897.1298233157195" fill="#000" width="80.5" height="25" opacity="1"></rect></mask><g transform="translate(414.3253043321997 897.1298233157195) rotate(0 39.86920222396964 12.332688371408949)"><text x="40.25" y="17.52" font-family="Virgil, Segoe UI Emoji" font-size="20px" fill="#1e1e1e" text-anchor="middle" style="white-space: pre;" direction="ltr" dominant-baseline="alphabetic">manages</text></g></svg>