<svg version="1.1" xmlns="http://www.w3.org/2000/svg" viewBox="0 0 1116.9785057152922 1538.0430461098094" width="2233.9570114305843" height="3076.086092219619">
  <!-- svg-source:excalidraw -->
  
  <defs>
    <style class="style-fonts">
      @font-face {
        font-family: "Virgil";
        src: url("https://excalidraw.com/Virgil.woff2");
      }
      @font-face {
        font-family: "Cascadia";
        src: url("https://excalidraw.com/Cascadia.woff2");
      }
      @font-face {
        font-family: "Assistant";
        src: url("https://excalidraw.com/Assistant-Regular.woff2");
      }
    </style>
    
  </defs>
  <rect x="0" y="0" width="1116.9785057152922" height="1538.0430461098094" fill="#ffffff"></rect><g stroke-linecap="round" transform="translate(294.01817078466 10) rotate(0 306.97720980453573 280.1608098675879)"><path d="M32 0 C192.67 2.57, 354.38 1.77, 581.95 0 M32 0 C193.44 -0.7, 354.95 -1.03, 581.95 0 M581.95 0 C602.86 0.62, 614.21 11.55, 613.95 32 M581.95 0 C601.64 -1.09, 615.75 11.29, 613.95 32 M613.95 32 C612.69 189.38, 611.81 346.18, 613.95 528.32 M613.95 32 C615.87 162.7, 615.64 292.51, 613.95 528.32 M613.95 528.32 C614.56 551.1, 604.86 559.54, 581.95 560.32 M613.95 528.32 C613.84 550.92, 603 559.4, 581.95 560.32 M581.95 560.32 C465.27 558.18, 348.78 557.83, 32 560.32 M581.95 560.32 C384.49 558.4, 186.75 558.51, 32 560.32 M32 560.32 C11.04 560.38, 1.67 549.3, 0 528.32 M32 560.32 C12.59 558.65, 2.25 549.89, 0 528.32 M0 528.32 C-1.94 380.61, -1.14 231.2, 0 32 M0 528.32 C-1.42 337.02, -1.24 144.86, 0 32 M0 32 C-0.28 9.86, 9 -0.5, 32 0 M0 32 C0.07 11.63, 8.58 0.84, 32 0" stroke="#1e1e1e" stroke-width="2" fill="none"></path></g><g stroke-linecap="round" transform="translate(1016.6495796118879 444.70795687262944) rotate(0 45.16446305170166 10.585421027742541)"><path d="M42.58 0.1 C51.08 0.03, 62.58 0.91, 70 1.96 C77.41 3.01, 83.86 4.54, 87.07 6.43 C90.28 8.32, 91.36 11.37, 89.27 13.3 C87.19 15.23, 81.48 16.55, 74.56 17.99 C67.64 19.43, 56.6 21.64, 47.74 21.93 C38.88 22.21, 28.99 20.88, 21.41 19.72 C13.83 18.55, 5.46 16.84, 2.27 14.94 C-0.92 13.04, -0.04 10.41, 2.25 8.32 C4.53 6.23, 8.8 3.63, 16 2.4 C23.2 1.17, 39.83 1.29, 45.45 0.94 C51.07 0.59, 49.54 0.39, 49.73 0.32 M34 -0.18 C41.83 -0.9, 52.56 0.76, 60.64 1.47 C68.72 2.19, 77.76 2.63, 82.48 4.08 C87.2 5.54, 89.49 8.1, 88.97 10.19 C88.46 12.28, 84.71 14.98, 79.39 16.65 C74.07 18.31, 65.53 19.39, 57.05 20.18 C48.57 20.98, 36.63 22.27, 28.49 21.41 C20.35 20.55, 12.93 16.78, 8.23 15.04 C3.53 13.29, 0.15 12.57, 0.3 10.94 C0.45 9.3, 3.67 6.97, 9.14 5.22 C14.61 3.47, 28.91 1.26, 33.1 0.45 C37.3 -0.36, 33.95 0.36, 34.32 0.34" stroke="#1e1e1e" stroke-width="2" fill="none"></path></g><g stroke-linecap="round" transform="translate(1018.0609690822539 444.70795687262944) rotate(0 44.45876831651913 52.22141040353017)"><path d="M22.23 0 C39.29 -1.76, 57.54 0.22, 66.69 0 M22.23 0 C38.95 0.31, 56.23 0.45, 66.69 0 M66.69 0 C80.07 -0.95, 90.48 7.95, 88.92 22.23 M66.69 0 C81.89 -2.25, 89.86 9.43, 88.92 22.23 M88.92 22.23 C88.04 44.03, 89.38 62.21, 88.92 82.21 M88.92 22.23 C88.92 45.87, 89.4 67.67, 88.92 82.21 M88.92 82.21 C88.82 98.14, 81.26 103.64, 66.69 104.44 M88.92 82.21 C86.89 95.82, 79.53 103.72, 66.69 104.44 M66.69 104.44 C55.89 104.87, 40.79 104.47, 22.23 104.44 M66.69 104.44 C51.33 104.82, 36.43 104.61, 22.23 104.44 M22.23 104.44 C9.08 102.99, 1.95 97.24, 0 82.21 M22.23 104.44 C7.38 106.19, -0.06 95.89, 0 82.21 M0 82.21 C1.43 60.86, 1.48 36.74, 0 22.23 M0 82.21 C-0.43 57.94, -1.13 34.23, 0 22.23 M0 22.23 C0.06 8.25, 5.6 0.73, 22.23 0 M0 22.23 C-1.33 7.63, 9.5 -0.1, 22.23 0" stroke="#1e1e1e" stroke-width="2" fill="none"></path></g><g transform="translate(1041.2500993372496 479.28699889658856) rotate(0 21.269638061523438 17.642368379571053)"><text x="21.269638061523438" y="24.727543520806726" font-family="Virgil, Segoe UI Emoji" font-size="28.227789407313615px" fill="#1e1e1e" text-anchor="middle" style="white-space: pre;" direction="ltr" dominant-baseline="alphabetic">DB</text></g><g stroke-linecap="round" transform="translate(341.00662126465886 31.58082578608355) rotate(0 272.36907720921545 190.39799339885667)"><path d="M32 0 C133.27 0.13, 233.14 -0.35, 512.74 0 M512.74 0 C534.69 0.26, 545.62 9.23, 544.74 32 M544.74 32 C546.71 110.68, 547.06 193.37, 544.74 348.8 M544.74 348.8 C545.38 369.71, 533.94 380.05, 512.74 380.8 M512.74 380.8 C324.1 380.5, 133.57 381.19, 32 380.8 M32 380.8 C12.11 382.37, -0.78 370.03, 0 348.8 M0 348.8 C-0.96 235.54, -0.93 123.32, 0 32 M0 32 C-0.61 9.88, 9.17 1.18, 32 0" stroke="#1e1e1e" stroke-width="2.5" fill="none" stroke-dasharray="1.5 8"></path></g><g transform="translate(587.7550387268375 39.278046912863374) rotate(0 23.38672309323738 17.642368379571053)"><text x="0" y="24.727543520806726" font-family="Virgil, Segoe UI Emoji" font-size="28.227789407313615px" fill="#1e1e1e" text-anchor="start" style="white-space: pre;" direction="ltr" dominant-baseline="alphabetic">Org</text></g><g stroke-linecap="round"><g transform="translate(909.3839798640965 492.6951988650626) rotate(0 54.33849460907868 -1.4113894703655205)"><path d="M-0.86 -0.57 C17.38 -1.07, 91.32 -1.93, 109.61 -2.5 M0.89 1.75 C19.04 0.82, 91.27 -3.61, 109.16 -4.45" stroke="#1e1e1e" stroke-width="2" fill="none"></path></g></g><mask></mask><g stroke-linecap="round" transform="translate(485.51368248531935 104.27599010547237) rotate(0 46.57585252206741 29.639178877679115)"><path d="M28.18 1.62 C35.96 -1.07, 47.89 -1.44, 56.76 0.09 C65.63 1.61, 75.36 6.41, 81.38 10.78 C87.39 15.15, 92.08 20.6, 92.87 26.32 C93.65 32.04, 90.61 39.96, 86.07 45.08 C81.53 50.2, 73.95 54.76, 65.63 57.05 C57.31 59.35, 45.21 60.21, 36.15 58.85 C27.08 57.5, 17.2 53.36, 11.23 48.92 C5.26 44.47, 0.99 37.97, 0.32 32.17 C-0.34 26.37, 2.11 19.17, 7.25 14.11 C12.39 9.06, 26.64 3.82, 31.17 1.84 C35.69 -0.14, 33.97 1.88, 34.41 2.22 M29.42 1.4 C36.94 -1.11, 47.29 0.24, 56.15 1.96 C65.01 3.68, 76.61 7.73, 82.57 11.72 C88.54 15.71, 91.26 20.37, 91.94 25.89 C92.62 31.41, 91.14 39.62, 86.63 44.86 C82.13 50.09, 73.42 55.11, 64.91 57.28 C56.4 59.44, 44.58 59.44, 35.57 57.84 C26.57 56.23, 16.81 52.02, 10.88 47.65 C4.95 43.27, 0.56 36.93, -0.01 31.59 C-0.57 26.25, 2.6 20.65, 7.49 15.61 C12.38 10.57, 25.97 3.56, 29.32 1.35 C32.67 -0.85, 27.41 1.65, 27.57 2.38" stroke="none" stroke-width="0" fill="#e7f5ff"></path><path d="M51.31 0.42 C60.13 0.4, 70.06 3.23, 76.76 7.12 C83.47 11.01, 89.36 18.11, 91.54 23.78 C93.71 29.45, 93.15 36.05, 89.83 41.16 C86.5 46.28, 79.51 51.42, 71.56 54.48 C63.62 57.53, 51.28 59.74, 42.17 59.48 C33.06 59.21, 23.79 56.73, 16.9 52.88 C10.01 49.03, 2.97 42.19, 0.85 36.39 C-1.27 30.58, 0.65 23.55, 4.17 18.05 C7.7 12.56, 12.88 6.38, 22.01 3.42 C31.13 0.46, 51.4 0.28, 58.94 0.3 C66.48 0.32, 67.46 3.05, 67.26 3.55 M60.43 2.03 C68.72 3.7, 77.75 8.44, 83.25 12.95 C88.75 17.47, 92.97 23.58, 93.42 29.14 C93.88 34.71, 91.07 41.79, 86 46.36 C80.94 50.93, 71.62 54.6, 63.03 56.56 C54.44 58.53, 43.4 59.47, 34.46 58.14 C25.52 56.82, 15.13 53.42, 9.38 48.64 C3.64 43.85, -0.07 35.31, -0.03 29.43 C0 23.56, 4.49 17.8, 9.6 13.38 C14.71 8.96, 22.03 4.71, 30.63 2.92 C39.24 1.12, 56.34 2.55, 61.23 2.61 C66.12 2.68, 60.23 3.11, 59.95 3.32" stroke="#1e1e1e" stroke-width="1" fill="none"></path></g><g transform="translate(506.93108005920476 119.84320990628657) rotate(0 25.224353790283203 14.113894703657024)"><text x="25.224353790283203" y="19.78203481664538" font-family="Virgil, Segoe UI Emoji" font-size="22.582231525850894px" fill="#1e1e1e" text-anchor="middle" style="white-space: pre;" direction="ltr" dominant-baseline="alphabetic">User</text></g><g stroke-linecap="round" transform="translate(394.5078783765898 115.75339443319808) rotate(0 46.57585252206741 50.10432619798166)"><path d="M58.52 2.1 C65.66 3.41, 73.69 8.73, 79.23 14.58 C84.77 20.43, 89.59 29.13, 91.78 37.2 C93.97 45.27, 94.51 54.82, 92.36 62.98 C90.22 71.14, 84.78 80.08, 78.92 86.15 C73.05 92.21, 64.51 97.43, 57.17 99.38 C49.84 101.32, 42.35 100.15, 34.9 97.82 C27.45 95.48, 17.92 91.16, 12.48 85.39 C7.03 79.62, 4.13 71.43, 2.24 63.19 C0.34 54.96, -1 44.02, 1.1 35.96 C3.19 27.9, 8.98 20.67, 14.8 14.82 C20.62 8.97, 28.46 2.92, 36.02 0.87 C43.58 -1.17, 55.78 2.01, 60.18 2.57 C64.59 3.13, 62.51 3.49, 62.44 4.21 M36.07 0.66 C43.33 -1.36, 53.55 1.1, 61.14 3.5 C68.74 5.91, 76.69 9.24, 81.63 15.07 C86.57 20.9, 89.19 30.07, 90.77 38.49 C92.35 46.91, 92.99 57.64, 91.11 65.59 C89.23 73.55, 85.25 80.62, 79.47 86.2 C73.69 91.78, 64.08 97.25, 56.42 99.1 C48.77 100.94, 41.04 99.8, 33.54 97.27 C26.05 94.74, 16.84 89.8, 11.44 83.92 C6.04 78.04, 2.67 69.93, 1.15 62.01 C-0.38 54.1, -0.25 44.45, 2.28 36.45 C4.82 28.46, 10.83 19.82, 16.35 14.04 C21.86 8.27, 32.08 3.98, 35.38 1.8 C38.67 -0.37, 35.83 0.37, 36.12 0.99" stroke="none" stroke-width="0" fill="#e7f5ff"></path><path d="M53.66 1.59 C61.14 2.16, 70.11 6.31, 76.32 11.35 C82.53 16.39, 88.33 23.98, 90.94 31.83 C93.56 39.67, 93.26 49.97, 92 58.43 C90.74 66.89, 88.26 76.16, 83.38 82.57 C78.5 88.98, 70 94.09, 62.71 96.9 C55.42 99.71, 47.33 100.91, 39.67 99.44 C32 97.96, 22.92 93.44, 16.72 88.04 C10.53 82.64, 5.24 74.73, 2.5 67.02 C-0.24 59.31, -0.98 50, 0.29 41.77 C1.55 33.55, 5.04 24.03, 10.1 17.67 C15.16 11.32, 21.95 6.01, 30.64 3.64 C39.33 1.27, 55.4 2.69, 62.24 3.48 C69.08 4.28, 71.66 7.63, 71.67 8.41 M48.52 -1.09 C55.94 -1.62, 65.47 2.59, 71.93 7.24 C78.38 11.9, 83.71 19.7, 87.24 26.84 C90.77 33.98, 93.02 41.82, 93.11 50.1 C93.19 58.38, 91.86 69.01, 87.76 76.52 C83.66 84.03, 75.32 90.99, 68.52 95.16 C61.72 99.32, 54.58 101.62, 46.95 101.53 C39.33 101.43, 29.47 99.13, 22.75 94.59 C16.03 90.05, 10.46 81.93, 6.63 74.29 C2.81 66.65, 0.01 57.13, -0.2 48.76 C-0.42 40.38, 1.32 31, 5.34 24.03 C9.37 17.07, 17.18 10.89, 23.94 6.97 C30.7 3.06, 42.17 1.52, 45.91 0.55 C49.65 -0.42, 45.94 0.42, 46.39 1.15" stroke="#1e1e1e" stroke-width="1" fill="none"></path></g><g transform="translate(415.9252759504757 137.7008224024903) rotate(0 25.224353790283203 28.227789407313594)"><text x="25.224353790283203" y="19.78203481664538" font-family="Virgil, Segoe UI Emoji" font-size="22.582231525850894px" fill="#1e1e1e" text-anchor="middle" style="white-space: pre;" direction="ltr" dominant-baseline="alphabetic">User</text><text x="25.224353790283203" y="48.009824223958994" font-family="Virgil, Segoe UI Emoji" font-size="22.582231525850894px" fill="#1e1e1e" text-anchor="middle" style="white-space: pre;" direction="ltr" dominant-baseline="alphabetic">Grp</text></g><g stroke-linecap="round" transform="translate(650.3935487777726 107.60511739459753) rotate(0 46.575852522067635 29.639178877679342)"><path d="M66.24 3.55 C74.35 5.71, 83.63 10.96, 87.94 16.04 C92.25 21.11, 93.51 28.4, 92.09 34.02 C90.67 39.63, 85.65 45.69, 79.42 49.75 C73.2 53.8, 63.45 57.37, 54.73 58.35 C46.01 59.34, 35.33 58.08, 27.08 55.65 C18.83 53.21, 9.81 48.67, 5.22 43.77 C0.62 38.87, -1.96 32.12, -0.5 26.24 C0.96 20.36, 7.6 12.76, 13.97 8.5 C20.33 4.25, 28.02 1.25, 37.7 0.7 C47.39 0.14, 65.99 4.27, 72.05 5.17 C78.11 6.07, 74.47 5.72, 74.07 6.12 M69.01 3.52 C77.13 6.07, 85.01 12.1, 88.83 17.25 C92.64 22.39, 93.68 28.98, 91.9 34.4 C90.11 39.82, 84.67 45.75, 78.09 49.75 C71.52 53.76, 61.26 57.24, 52.43 58.44 C43.6 59.63, 32.95 59.78, 25.11 56.94 C17.28 54.1, 9.66 46.92, 5.4 41.38 C1.15 35.85, -1.97 29.13, -0.44 23.7 C1.09 18.27, 7.55 12.82, 14.59 8.8 C21.62 4.78, 32.82 0.43, 41.78 -0.41 C50.74 -1.26, 63.8 3.1, 68.36 3.74 C72.92 4.38, 69.58 3.05, 69.13 3.43" stroke="none" stroke-width="0" fill="#fff9db"></path><path d="M68.46 2.7 C76.34 4.88, 83.34 11.05, 87.48 16.43 C91.62 21.82, 94.7 29.33, 93.32 35.01 C91.93 40.68, 85.65 46.55, 79.18 50.51 C72.71 54.47, 63.51 58, 54.5 58.78 C45.49 59.56, 33.43 57.94, 25.11 55.19 C16.79 52.44, 8.73 47.36, 4.59 42.28 C0.45 37.21, -1.19 30.47, 0.24 24.75 C1.68 19.04, 6.6 11.97, 13.19 7.97 C19.78 3.97, 30.28 1.3, 39.79 0.75 C49.31 0.2, 64.47 3.78, 70.27 4.67 C76.07 5.57, 74.69 5.7, 74.57 6.12 M48.52 -1.09 C57.24 -1.34, 68.88 2.22, 75.97 6.08 C83.06 9.93, 88.63 16.64, 91.06 22.04 C93.5 27.44, 93.36 33.04, 90.61 38.47 C87.87 43.89, 82.16 50.92, 74.59 54.6 C67.01 58.28, 54.28 60.56, 45.14 60.57 C35.99 60.58, 26.88 58.14, 19.71 54.68 C12.55 51.23, 4.88 45.65, 2.13 39.85 C-0.61 34.04, 0.33 25.69, 3.23 19.85 C6.14 14.01, 12.42 8.17, 19.55 4.8 C26.69 1.43, 41.4 0.22, 46.02 -0.37 C50.65 -0.97, 47.33 0.58, 47.3 1.22" stroke="#1e1e1e" stroke-width="1" fill="none"></path></g><g transform="translate(671.8109463516585 123.17233719541127) rotate(0 25.224353790283203 14.113894703657024)"><text x="25.224353790283203" y="19.78203481664538" font-family="Virgil, Segoe UI Emoji" font-size="22.582231525850894px" fill="#1e1e1e" text-anchor="middle" style="white-space: pre;" direction="ltr" dominant-baseline="alphabetic">User</text></g><g stroke-linecap="round" transform="translate(751.7306754946876 99.96346804023733) rotate(0 46.575852522067635 50.10432619798189)"><path d="M35.37 1.63 C42.07 -0.71, 51.11 0.54, 58.75 2.77 C66.38 4.99, 75.79 9.03, 81.17 14.99 C86.55 20.96, 89.23 30.23, 91.04 38.55 C92.85 46.86, 94.2 57.02, 92.04 64.88 C89.89 72.75, 83.71 79.99, 78.09 85.73 C72.47 91.47, 65.62 97.38, 58.35 99.34 C51.07 101.3, 42.16 99.91, 34.45 97.49 C26.73 95.06, 17.59 90.7, 12.06 84.79 C6.53 78.88, 2.92 70.23, 1.26 62.04 C-0.4 53.86, -0.01 43.76, 2.11 35.67 C4.24 27.58, 7.88 19.38, 13.99 13.5 C20.1 7.63, 33.86 2.4, 38.79 0.42 C43.72 -1.56, 43.17 0.67, 43.58 1.62 M31.57 3.37 C38.74 0.1, 49.29 -1.24, 56.82 0.28 C64.35 1.81, 70.99 7.02, 76.75 12.51 C82.51 18, 88.96 25.38, 91.39 33.22 C93.81 41.06, 92.93 51.12, 91.3 59.56 C89.68 68, 86.54 77.36, 81.63 83.88 C76.72 90.4, 68.93 96, 61.83 98.68 C54.72 101.36, 46.79 101.67, 38.99 99.96 C31.2 98.24, 21.19 94.2, 15.06 88.39 C8.92 82.57, 4.55 73.15, 2.16 65.06 C-0.23 56.97, -1.01 47.94, 0.71 39.82 C2.44 31.71, 7.26 22.59, 12.53 16.37 C17.8 10.15, 28.94 4.6, 32.33 2.52 C35.71 0.43, 32.82 3.04, 32.84 3.87" stroke="none" stroke-width="0" fill="#fff9db"></path><path d="M35.77 2.34 C42.78 -0.38, 51.32 -0.29, 58.76 1.81 C66.21 3.92, 75.02 9.13, 80.44 14.97 C85.87 20.8, 89.56 28.85, 91.3 36.82 C93.04 44.79, 92.98 54.64, 90.89 62.78 C88.81 70.91, 84.34 79.79, 78.81 85.64 C73.28 91.5, 65.08 95.72, 57.71 97.9 C50.34 100.08, 42.16 100.83, 34.59 98.73 C27.02 96.63, 17.73 91.39, 12.29 85.29 C6.85 79.2, 3.58 70.26, 1.95 62.17 C0.32 54.08, 0.49 44.6, 2.51 36.76 C4.53 28.91, 7.34 21.06, 14.06 15.1 C20.78 9.14, 36.81 3.13, 42.85 0.98 C48.88 -1.16, 50.18 1.52, 50.28 2.21 M65.06 4.3 C72.04 6.92, 77.65 13.74, 82.43 20.4 C87.21 27.07, 92.5 35.98, 93.75 44.27 C94.99 52.57, 92.82 62.67, 89.89 70.17 C86.95 77.67, 82.26 84.44, 76.12 89.26 C69.98 94.08, 61.03 97.93, 53.02 99.09 C45.01 100.26, 35.21 99.15, 28.04 96.25 C20.88 93.36, 14.85 88.13, 10.03 81.73 C5.21 75.32, 0.38 66.15, -0.88 57.81 C-2.14 49.46, -0.88 39.51, 2.46 31.65 C5.79 23.79, 12.96 16.05, 19.13 10.67 C25.29 5.29, 31.87 0.49, 39.46 -0.64 C47.05 -1.76, 60.6 3.22, 64.68 3.93 C68.77 4.63, 64.33 3.04, 63.97 3.6" stroke="#1e1e1e" stroke-width="1" fill="none"></path></g><g transform="translate(773.1480730685735 121.9108960095291) rotate(0 25.224353790283203 28.227789407313594)"><text x="25.224353790283203" y="19.78203481664538" font-family="Virgil, Segoe UI Emoji" font-size="22.582231525850894px" fill="#1e1e1e" text-anchor="middle" style="white-space: pre;" direction="ltr" dominant-baseline="alphabetic">User</text><text x="25.224353790283203" y="48.009824223958994" font-family="Virgil, Segoe UI Emoji" font-size="22.582231525850894px" fill="#1e1e1e" text-anchor="middle" style="white-space: pre;" direction="ltr" dominant-baseline="alphabetic">Grp</text></g><g stroke-linecap="round" transform="translate(645.6074859989103 286.09074716704527) rotate(0 32.46195781841061 26.110705201765086)"><path d="M13.06 0 C25.94 -1.21, 35.59 -1.31, 51.87 0 C57.2 -0.43, 63.5 6.28, 64.92 13.06 C62.26 21.87, 65.29 34.77, 64.92 39.17 C67.9 46.28, 59.42 52.54, 51.87 52.22 C37.77 51.74, 26.71 52.26, 13.06 52.22 C7.12 55.64, 1.67 45.78, 0 39.17 C-0.29 28.95, 2.56 19.73, 0 13.06 C1.91 3.94, 6.79 0.57, 13.06 0" stroke="none" stroke-width="0" fill="#fff9db"></path><path d="M13.06 0 C24.21 1.45, 31.68 -0.21, 51.87 0 M13.06 0 C25.96 -0.37, 39.76 -0.16, 51.87 0 M51.87 0 C59.96 -0.78, 63.43 5.54, 64.92 13.06 M51.87 0 C61.45 -2.22, 65.33 5.5, 64.92 13.06 M64.92 13.06 C65.19 21.68, 64.78 28.64, 64.92 39.17 M64.92 13.06 C65.17 19.75, 65.15 24.42, 64.92 39.17 M64.92 39.17 C66.52 48.84, 59.58 53.95, 51.87 52.22 M64.92 39.17 C66.57 49.9, 60.67 54.47, 51.87 52.22 M51.87 52.22 C37.52 50.5, 24.28 52.23, 13.06 52.22 M51.87 52.22 C38.02 52.46, 26.24 52.32, 13.06 52.22 M13.06 52.22 C3.73 50.69, 1.09 48.34, 0 39.17 M13.06 52.22 C5.05 50.82, 0.55 46.39, 0 39.17 M0 39.17 C1.85 31.35, -0.47 26.5, 0 13.06 M0 39.17 C-0.73 33.03, 0.06 29.27, 0 13.06 M0 13.06 C1.32 3.1, 3.07 1.59, 13.06 0 M0 13.06 C1.24 6.64, 2.76 -1.85, 13.06 0" stroke="#1e1e1e" stroke-width="1" fill="none"></path></g><g transform="translate(662.4989949418941 298.0875576651533) rotate(0 15.570448875427246 14.113894703657024)"><text x="15.570448875427246" y="19.78203481664538" font-family="Virgil, Segoe UI Emoji" font-size="22.582231525850894px" fill="#1e1e1e" text-anchor="middle" style="white-space: pre;" direction="ltr" dominant-baseline="alphabetic">api</text></g><g stroke-linecap="round" transform="translate(720.4111279282906 283.9736629614963) rotate(0 32.46195781841061 26.110705201765086)"><path d="M13.06 0 C20.11 -0.19, 32.5 2.17, 51.87 0 C63.61 2.13, 62.56 1.41, 64.92 13.06 C67.91 18.42, 63.79 27.28, 64.92 39.17 C66.68 46.19, 58.24 51.66, 51.87 52.22 C43.03 55.73, 30.32 50.23, 13.06 52.22 C5.69 51.42, -2.95 47.47, 0 39.17 C1.59 31.95, 2.11 26.13, 0 13.06 C-1.35 4.62, 6.37 3.24, 13.06 0" stroke="none" stroke-width="0" fill="#fff9db"></path><path d="M13.06 0 C28.85 -0.23, 41.64 -1.75, 51.87 0 M13.06 0 C22.35 -0.27, 31.5 0.71, 51.87 0 M51.87 0 C61.33 -1.93, 65.28 5.35, 64.92 13.06 M51.87 0 C59.8 1.79, 65.35 4.42, 64.92 13.06 M64.92 13.06 C63.42 25.02, 65.08 33.06, 64.92 39.17 M64.92 13.06 C65.71 23.36, 64.42 33.56, 64.92 39.17 M64.92 39.17 C66.35 49.64, 60.65 54.18, 51.87 52.22 M64.92 39.17 C66.05 47.54, 60.25 51.3, 51.87 52.22 M51.87 52.22 C44.29 50.42, 35.77 51.08, 13.06 52.22 M51.87 52.22 C39.55 51.44, 28.39 52.44, 13.06 52.22 M13.06 52.22 C4.95 51, 0.48 46.58, 0 39.17 M13.06 52.22 C3.23 52.41, -1.09 50.02, 0 39.17 M0 39.17 C-1.85 34.45, 1.82 25.7, 0 13.06 M0 39.17 C0.6 32.8, -0.7 28.47, 0 13.06 M0 13.06 C1.08 6.35, 2.97 -1.61, 13.06 0 M0 13.06 C0.25 4.23, 4.65 0.52, 13.06 0" stroke="#1e1e1e" stroke-width="1" fill="none"></path></g><g transform="translate(737.3026368712744 295.97047345960436) rotate(0 15.570448875427246 14.113894703657024)"><text x="15.570448875427246" y="19.78203481664538" font-family="Virgil, Segoe UI Emoji" font-size="22.582231525850894px" fill="#1e1e1e" text-anchor="middle" style="white-space: pre;" direction="ltr" dominant-baseline="alphabetic">api</text></g><g stroke-linecap="round" transform="translate(378.0334037404509 316.0111117489678) rotate(0 32.46195781841061 26.110705201765086)"><path d="M13.06 0 C27.27 1.76, 33.04 -3.32, 51.87 0 C59.35 0.09, 66.56 7.32, 64.92 13.06 C66.53 18.06, 62.44 25.86, 64.92 39.17 C64.89 49.79, 61.06 54.99, 51.87 52.22 C37.88 51.01, 18.26 51.42, 13.06 52.22 C2.93 54.68, -1.84 49.78, 0 39.17 C-1.67 31.9, 1.7 27.33, 0 13.06 C-0.91 2.51, 4.12 -2.22, 13.06 0" stroke="none" stroke-width="0" fill="#e7f5ff"></path><path d="M13.06 0 C23.16 -1.38, 34.73 -0.27, 51.87 0 M13.06 0 C23.56 -1.19, 33.49 0.27, 51.87 0 M51.87 0 C59.9 1.56, 65.3 4.41, 64.92 13.06 M51.87 0 C62.49 -0.4, 66.85 2.68, 64.92 13.06 M64.92 13.06 C66.47 23.39, 63.95 35.42, 64.92 39.17 M64.92 13.06 C65.51 23.04, 64.84 32.23, 64.92 39.17 M64.92 39.17 C65.9 47.58, 60.29 51.42, 51.87 52.22 M64.92 39.17 C63.01 47.29, 60.65 53.18, 51.87 52.22 M51.87 52.22 C43.93 53.81, 35.52 51.38, 13.06 52.22 M51.87 52.22 C43.5 51.7, 34.78 51.67, 13.06 52.22 M13.06 52.22 C3.37 52.39, -0.95 49.74, 0 39.17 M13.06 52.22 C2.91 51.7, 0.51 45.67, 0 39.17 M0 39.17 C-1.83 29.91, 1.33 20.98, 0 13.06 M0 39.17 C0.71 33.96, -0.53 25.96, 0 13.06 M0 13.06 C0.22 4.24, 4.61 0.45, 13.06 0 M0 13.06 C-0.72 3.32, 3.57 -2.16, 13.06 0" stroke="#1e1e1e" stroke-width="1" fill="none"></path></g><g transform="translate(394.9249126834343 328.00792224707584) rotate(0 15.570448875427246 14.113894703657024)"><text x="15.570448875427246" y="19.78203481664538" font-family="Virgil, Segoe UI Emoji" font-size="22.582231525850894px" fill="#1e1e1e" text-anchor="middle" style="white-space: pre;" direction="ltr" dominant-baseline="alphabetic">api</text></g><g stroke-linecap="round" transform="translate(459.31510490084474 319.0764749282298) rotate(0 32.46195781841061 26.110705201765086)"><path d="M13.06 0 C25.78 0.66, 42.57 3.54, 51.87 0 C58.98 -1.15, 65.25 6.11, 64.92 13.06 C64.59 21.59, 65.11 29.05, 64.92 39.17 C68.34 49.54, 58.48 53.56, 51.87 52.22 C39.67 54.6, 28.48 54.06, 13.06 52.22 C3.94 54.66, 0.57 46.52, 0 39.17 C-1.18 29.3, -0.5 20.89, 0 13.06 C2.78 7.59, 5.07 0.83, 13.06 0" stroke="none" stroke-width="0" fill="#e7f5ff"></path><path d="M13.06 0 C20.57 -1.38, 30.84 0.88, 51.87 0 M13.06 0 C20.62 0.59, 29.04 -0.16, 51.87 0 M51.87 0 C62.24 -0.35, 66.6 2.9, 64.92 13.06 M51.87 0 C62.82 0.24, 64.9 6.1, 64.92 13.06 M64.92 13.06 C65.76 19.82, 66.52 30.01, 64.92 39.17 M64.92 13.06 C65.42 23.05, 64.8 32.94, 64.92 39.17 M64.92 39.17 C63.26 47.37, 60.64 53.06, 51.87 52.22 M64.92 39.17 C62.84 48.71, 59.24 52.44, 51.87 52.22 M51.87 52.22 C35.16 53.19, 22 52.7, 13.06 52.22 M51.87 52.22 C42.1 52.05, 32.83 52.91, 13.06 52.22 M13.06 52.22 C3.09 51.77, 0.45 45.96, 0 39.17 M13.06 52.22 C6.04 54.25, -1.24 46.03, 0 39.17 M0 39.17 C-1.45 29.4, 1.38 23.27, 0 13.06 M0 39.17 C0.29 28.68, 0.31 18.52, 0 13.06 M0 13.06 C-0.62 3.46, 3.68 -1.88, 13.06 0 M0 13.06 C-0.28 3.44, 5.59 1.94, 13.06 0" stroke="#1e1e1e" stroke-width="1" fill="none"></path></g><g transform="translate(476.2066138438281 331.07328542633786) rotate(0 15.570448875427473 14.113894703657024)"><text x="15.570448875427246" y="19.78203481664538" font-family="Virgil, Segoe UI Emoji" font-size="22.582231525850894px" fill="#1e1e1e" text-anchor="middle" style="white-space: pre;" direction="ltr" dominant-baseline="alphabetic">api</text></g><g transform="translate(322.3293939723894 484.15807132791724) rotate(0 73.56161499023438 35.284736759142106)"><text x="0" y="24.727543520806726" font-family="Virgil, Segoe UI Emoji" font-size="28.227789407313615px" fill="#1e1e1e" text-anchor="start" style="white-space: pre;" direction="ltr" dominant-baseline="alphabetic">Tyk </text><text x="0" y="60.01228027994875" font-family="Virgil, Segoe UI Emoji" font-size="28.227789407313615px" fill="#1e1e1e" text-anchor="start" style="white-space: pre;" direction="ltr" dominant-baseline="alphabetic">Dashboard</text></g><g transform="translate(743.4551001949458 677.9525935247666) rotate(0 75.29763147442327 17.642368379571053)"><text x="0" y="24.727543520806723" font-family="Virgil, Segoe UI Emoji" font-size="28.22778940731361px" fill="#1e1e1e" text-anchor="start" style="white-space: pre;" direction="ltr" dominant-baseline="alphabetic">Kubernetes</text></g><g stroke-linecap="round" transform="translate(303.8445565770926 662.1851338250863) rotate(0 306.9772098045355 432.9289561423616)"><path d="M32 0 C207.43 0.89, 381.64 1.41, 581.95 0 M32 0 C187.73 1.64, 342.67 1.91, 581.95 0 M581.95 0 C603.23 -1, 615.55 11.63, 613.95 32 M581.95 0 C602.14 1.98, 615.6 12.7, 613.95 32 M613.95 32 C616.98 275.76, 616.77 519.07, 613.95 833.86 M613.95 32 C613.7 252.61, 613.83 472.96, 613.95 833.86 M613.95 833.86 C615.77 855.1, 602.67 864.32, 581.95 865.86 M613.95 833.86 C615.21 855.73, 603.98 864.46, 581.95 865.86 M581.95 865.86 C403.78 864.4, 226.23 864.28, 32 865.86 M581.95 865.86 C429.69 864.11, 276.61 863.44, 32 865.86 M32 865.86 C11.17 867.42, 1.32 853.94, 0 833.86 M32 865.86 C9.2 867.68, 1.24 857.48, 0 833.86 M0 833.86 C2.53 648.92, 2.75 463.54, 0 32 M0 833.86 C1.04 629, 1.3 424.8, 0 32 M0 32 C1.18 9.35, 9.03 -0.68, 32 0 M0 32 C0.06 11.71, 12.57 -1.01, 32 0" stroke="#1e1e1e" stroke-width="2" fill="none"></path></g><g mask="url(#mask-ciGhqoUI3m70OecAjq6ML)" stroke-linecap="round"><g transform="translate(573.7958948798869 724.6953313046961) rotate(0 -39.19991763507187 -151.9758412950796)"><path d="M0.64 1.01 C-10.02 -16.95, -50.76 -57.36, -64.1 -108.25 C-77.44 -159.15, -77 -271.83, -79.38 -304.36" stroke="#1e1e1e" stroke-width="1.5" fill="none" stroke-dasharray="1.5 7"></path></g><g transform="translate(573.7958948798869 724.6953313046961) rotate(0 -39.19991763507187 -151.9758412950796)"><path d="M-69.93 -281.21 C-70.87 -286.65, -76.6 -296.13, -79.38 -304.36" stroke="#1e1e1e" stroke-width="1.5" fill="none" stroke-dasharray="1.5 5"></path></g><g transform="translate(573.7958948798869 724.6953313046961) rotate(0 -39.19991763507187 -151.9758412950796)"><path d="M-87.01 -280.55 C-83.03 -286.27, -83.84 -295.94, -79.38 -304.36" stroke="#1e1e1e" stroke-width="1.5" fill="none" stroke-dasharray="1.5 5"></path></g></g><mask id="mask-ciGhqoUI3m70OecAjq6ML"><rect x="0" y="0" fill="#fff" width="752.1957301500306" height="1128.647013894855"></rect><rect x="424.19450430706365" y="592.233946507079" fill="#000" width="169.5800018310547" height="50" opacity="1"></rect></mask><g transform="translate(424.19450430706365 592.233946507079) rotate(0 110.23270708030805 -19.211161138819534)"><text x="84.79000091552734" y="17.52" font-family="Virgil, Segoe UI Emoji" font-size="20px" fill="#1e1e1e" text-anchor="middle" style="white-space: pre;" direction="ltr" dominant-baseline="alphabetic">using Operator </text><text x="84.79000091552734" y="42.519999999999996" font-family="Virgil, Segoe UI Emoji" font-size="20px" fill="#1e1e1e" text-anchor="middle" style="white-space: pre;" direction="ltr" dominant-baseline="alphabetic">Context 1 access</text></g><g mask="url(#mask-FGQNymsnzJWHMOzRoI8iF)" stroke-linecap="round"><g transform="translate(668.5243568322621 721.3425355017434) rotate(0 33.02763776406482 -146.6608745587837)"><path d="M0.71 -0.79 C9.87 -17.93, 44.69 -53.18, 55.58 -101.85 C66.48 -150.51, 64.18 -260.78, 66.09 -292.78" stroke="#1e1e1e" stroke-width="1.5" fill="none" stroke-dasharray="1.5 7"></path></g><g transform="translate(668.5243568322621 721.3425355017434) rotate(0 33.02763776406482 -146.6608745587837)"><path d="M74.1 -269.09 C69.75 -279.06, 67.55 -285.75, 66.09 -292.78" stroke="#1e1e1e" stroke-width="1.5" fill="none" stroke-dasharray="1.5 5"></path></g><g transform="translate(668.5243568322621 721.3425355017434) rotate(0 33.02763776406482 -146.6608745587837)"><path d="M57 -269.48 C58.7 -279.41, 62.55 -285.96, 66.09 -292.78" stroke="#1e1e1e" stroke-width="1.5" fill="none" stroke-dasharray="1.5 5"></path></g></g><mask id="mask-FGQNymsnzJWHMOzRoI8iF"><rect x="0" y="0" fill="#fff" width="834.5796323603914" height="1114.6642846193108"></rect><rect x="635.8880925181911" y="594.9018919915707" fill="#000" width="178.39999389648438" height="50" opacity="1"></rect></mask><g transform="translate(635.8880925181911 594.9018919915707) rotate(0 66.03415913128765 -20.34201836161037)"><text x="89.19999694824219" y="17.52" font-family="Virgil, Segoe UI Emoji" font-size="20px" fill="#1e1e1e" text-anchor="middle" style="white-space: pre;" direction="ltr" dominant-baseline="alphabetic">using Operator </text><text x="89.19999694824219" y="42.519999999999996" font-family="Virgil, Segoe UI Emoji" font-size="20px" fill="#1e1e1e" text-anchor="middle" style="white-space: pre;" direction="ltr" dominant-baseline="alphabetic">Context 2 access</text></g><g mask="url(#mask-u-Fi46koIJQ81T3JcLypU)" stroke-linecap="round"><g stroke-opacity="0.8" fill-opacity="0.8" transform="translate(419.6558919307204 218.77238562635648) rotate(0 -7.720093811252809 47.913668326123116)"><path d="M0.03 0.03 C-2.47 15.76, -12.2 78.73, -14.63 94.71 M-1.41 -0.99 C-4.03 14.81, -12.92 79.28, -15.15 95.66" stroke="#1e1e1e" stroke-width="1" fill="none"></path></g><g stroke-opacity="0.8" fill-opacity="0.8" transform="translate(419.6558919307204 218.77238562635648) rotate(0 -7.720093811252809 47.913668326123116)"><path d="M-20.42 71.22 C-18.56 80.6, -18.75 88.79, -15.15 95.66 M-20.42 71.22 C-18.27 78.32, -16.46 86.65, -15.15 95.66" stroke="#1e1e1e" stroke-width="1" fill="none"></path></g><g stroke-opacity="0.8" fill-opacity="0.8" transform="translate(419.6558919307204 218.77238562635648) rotate(0 -7.720093811252809 47.913668326123116)"><path d="M-3.48 73.56 C-7.19 82.17, -12.95 89.6, -15.15 95.66 M-3.48 73.56 C-6.57 80.04, -10 87.65, -15.15 95.66" stroke="#1e1e1e" stroke-width="1" fill="none"></path></g></g><mask id="mask-u-Fi46koIJQ81T3JcLypU"><rect x="0" y="0" fill="#fff" width="535.096079553226" height="414.59972227860317"></rect><rect x="387.400203179282" y="252.57215924882257" fill="#000" width="49.071189880371094" height="28.227789407313615" opacity="1"></rect></mask><g stroke-opacity="0.8" fill-opacity="0.8" transform="translate(387.400203179282 252.5721592488228) rotate(0 24.693864999767356 13.534018103860944)"><text x="24.535594940185547" y="19.78203481664538" font-family="Virgil, Segoe UI Emoji" font-size="22.582231525850894px" fill="#1e1e1e" text-anchor="middle" style="white-space: pre;" direction="ltr" dominant-baseline="alphabetic">owns</text></g><g stroke-linecap="round"><g stroke-opacity="0.8" fill-opacity="0.8" transform="translate(424.8171651812281 223.19065756434338) rotate(0 20.182987556688204 44.921740407684865)"><path d="M-0.01 0.03 C6.78 15.03, 33.16 74.15, 39.92 89.09 M-1.48 -1.01 C5.19 14.22, 31.84 74.91, 38.74 90.23" stroke="#1e1e1e" stroke-width="1" fill="none"></path></g><g stroke-opacity="0.8" fill-opacity="0.8" transform="translate(424.8171651812281 223.19065756434338) rotate(0 20.182987556688204 44.921740407684865)"><path d="M21.39 72.23 C25.3 75.64, 28 80.89, 38.74 90.23 M21.39 72.23 C27.16 78.35, 30.64 82.75, 38.74 90.23" stroke="#1e1e1e" stroke-width="1" fill="none"></path></g><g stroke-opacity="0.8" fill-opacity="0.8" transform="translate(424.8171651812281 223.19065756434338) rotate(0 20.182987556688204 44.921740407684865)"><path d="M37.02 65.29 C37.27 70.31, 36.36 77.16, 38.74 90.23 M37.02 65.29 C38.27 73.38, 37.26 79.77, 38.74 90.23" stroke="#1e1e1e" stroke-width="1" fill="none"></path></g></g><mask></mask><g stroke-linecap="round"><g stroke-opacity="0.8" fill-opacity="0.8" transform="translate(755.1973186669211 190.21230889326307) rotate(0 -39.47236765961861 45.86357258879525)"><path d="M1.11 -1.11 C-12.05 14.42, -66.32 77.23, -79.51 92.6 M0.23 0.93 C-13.08 16.18, -67.67 75.74, -80.76 90.94" stroke="#1e1e1e" stroke-width="1" fill="none"></path></g><g stroke-opacity="0.8" fill-opacity="0.8" transform="translate(755.1973186669211 190.21230889326307) rotate(0 -39.47236765961861 45.86357258879525)"><path d="M-71.5 67.72 C-75.79 72.7, -74.82 81, -80.76 90.94 M-71.5 67.72 C-74.31 72.58, -76.96 79.02, -80.76 90.94" stroke="#1e1e1e" stroke-width="1" fill="none"></path></g><g stroke-opacity="0.8" fill-opacity="0.8" transform="translate(755.1973186669211 190.21230889326307) rotate(0 -39.47236765961861 45.86357258879525)"><path d="M-58.74 79.1 C-66.19 81.34, -68.43 86.77, -80.76 90.94 M-58.74 79.1 C-64.68 81.02, -70.54 84.59, -80.76 90.94" stroke="#1e1e1e" stroke-width="1" fill="none"></path></g></g><mask></mask><g mask="url(#mask-RxNFVRKWe_wmdfICiRjO3)" stroke-linecap="round"><g stroke-opacity="0.8" fill-opacity="0.8" transform="translate(759.7943848873156 189.47424933219736) rotate(0 -2.961768156512335 46.232602369328106)"><path d="M-1.16 -0.08 C-2.42 15.28, -6.32 76.84, -7.02 92.07 M0.44 -1.16 C-0.51 14.37, -3.84 77.87, -4.88 93.4" stroke="#1e1e1e" stroke-width="1" fill="none"></path></g><g stroke-opacity="0.8" fill-opacity="0.8" transform="translate(759.7943848873156 189.47424933219736) rotate(0 -2.961768156512335 46.232602369328106)"><path d="M-12.04 69.45 C-9.73 75.92, -7.79 86.9, -4.88 93.4 M-12.04 69.45 C-11.33 74.16, -9.97 79.29, -4.88 93.4" stroke="#1e1e1e" stroke-width="1" fill="none"></path></g><g stroke-opacity="0.8" fill-opacity="0.8" transform="translate(759.7943848873156 189.47424933219736) rotate(0 -2.961768156512335 46.232602369328106)"><path d="M5.03 70.45 C1.48 76.42, -2.46 87.04, -4.88 93.4 M5.03 70.45 C2.28 74.93, 0.19 79.86, -4.88 93.4" stroke="#1e1e1e" stroke-width="1" fill="none"></path></g></g><mask id="mask-RxNFVRKWe_wmdfICiRjO3"><rect x="0" y="0" fill="#fff" width="865.7179212003402" height="381.93945407085334"></rect><rect x="732.2970217906177" y="221.592956997868" fill="#000" width="49.071189880371094" height="28.227789407313615" opacity="1"></rect></mask><g stroke-opacity="0.8" fill-opacity="0.8" transform="translate(732.2970217906177 221.59295699786776) rotate(0 24.20495233188376 13.999794136722358)"><text x="24.535594940185547" y="19.78203481664538" font-family="Virgil, Segoe UI Emoji" font-size="22.582231525850894px" fill="#1e1e1e" text-anchor="middle" style="white-space: pre;" direction="ltr" dominant-baseline="alphabetic">owns</text></g><g mask="url(#mask-ctCyAf7nhzVBYaC0oK9RG)" stroke-linecap="round"><g stroke-opacity="0.8" fill-opacity="0.8" transform="translate(543.603842784848 165.4733487630092) rotate(0 49.12744364320179 55.57038707181846)"><path d="M1 -0.58 C17.19 17.95, 81.48 92.66, 97.6 111.48" stroke="#e03131" stroke-width="1.5" fill="none" stroke-dasharray="1.5 7"></path></g><g stroke-opacity="0.8" fill-opacity="0.8" transform="translate(543.603842784848 165.4733487630092) rotate(0 49.12744364320179 55.57038707181846)"><path d="M75.81 99.23 C82.21 102.08, 91.07 106.38, 97.6 111.48" stroke="#e03131" stroke-width="1.5" fill="none" stroke-dasharray="1.5 5"></path></g><g stroke-opacity="0.8" fill-opacity="0.8" transform="translate(543.603842784848 165.4733487630092) rotate(0 49.12744364320179 55.57038707181846)"><path d="M88.78 88.09 C90.84 94.8, 95.34 102.85, 97.6 111.48" stroke="#e03131" stroke-width="1.5" fill="none" stroke-dasharray="1.5 5"></path></g></g><mask id="mask-ctCyAf7nhzVBYaC0oK9RG"><rect x="0" y="0" fill="#fff" width="741.8587300712516" height="376.6141229066461"></rect><rect x="516.8324064231665" y="206.9298411311711" fill="#000" width="151.79776000976562" height="28.227789407313615" opacity="1"></rect></mask><g stroke-opacity="0.8" fill-opacity="0.8" transform="translate(516.8324064231665 206.9298411311711) rotate(0 76.07090624831653 13.992691475197716)"><text x="75.89888000488281" y="19.78203481664538" font-family="Virgil, Segoe UI Emoji" font-size="22.582231525850894px" fill="#e03131" text-anchor="middle" style="white-space: pre;" direction="ltr" dominant-baseline="alphabetic">access denied</text></g><g stroke-linecap="round" transform="translate(394.2721229544495 1135.4915486341597) rotate(0 119.76797795826542 162.7435465197609)"><path d="M32 0 C96.27 -2.11, 156.86 0.28, 207.54 0 M207.54 0 C229.89 1.56, 238.68 11.26, 239.54 32 M239.54 32 C242.15 118.69, 242.02 203.12, 239.54 293.49 M239.54 293.49 C238.85 313.22, 228.05 324.47, 207.54 325.49 M207.54 325.49 C160.29 324.59, 114.2 324.28, 32 325.49 M32 325.49 C9.61 327.23, 1.16 313.15, 0 293.49 M0 293.49 C0.82 209.27, 3.08 127.49, 0 32 M0 32 C0.28 10.23, 11.07 -0.79, 32 0" stroke="#1e1e1e" stroke-width="2.5" fill="none" stroke-dasharray="1.5 8"></path></g><g stroke-linecap="round" transform="translate(659.6941427980146 1144.8641366492484) rotate(0 119.76797795826542 162.7435465197609)"><path d="M32 0 C92.38 2.24, 157.21 2.58, 207.54 0 M207.54 0 C228.02 0.59, 240.08 11.94, 239.54 32 M239.54 32 C242.38 126.14, 240.67 219.01, 239.54 293.49 M239.54 293.49 C238.72 313.8, 228.2 326.64, 207.54 325.49 M207.54 325.49 C162.75 324.93, 116.42 327.12, 32 325.49 M32 325.49 C11.82 323.81, 0.38 313.18, 0 293.49 M0 293.49 C2.53 238.26, 1.39 181.25, 0 32 M0 32 C0.41 9.87, 9.82 -0.78, 32 0" stroke="#1e1e1e" stroke-width="2.5" fill="none" stroke-dasharray="1.5 8"></path></g><g transform="translate(705.3478324744301 1426.7029466417116) rotate(0 71.38171464812467 17.6129379350391)"><text x="0" y="24.686293809750715" font-family="Virgil, Segoe UI Emoji" font-size="28.180700696062463px" fill="#1e1e1e" text-anchor="start" style="white-space: pre;" direction="ltr" dominant-baseline="alphabetic">namespace</text></g><g transform="translate(442.3083677583945 1417.2843200443967) rotate(0 71.38171464812467 17.6129379350391)"><text x="0" y="24.686293809750715" font-family="Virgil, Segoe UI Emoji" font-size="28.180700696062463px" fill="#1e1e1e" text-anchor="start" style="white-space: pre;" direction="ltr" dominant-baseline="alphabetic">namespace</text></g><g stroke-linecap="round" transform="translate(448.24655249919306 1236.7127352529787) rotate(0 32.40780580047203 35.2258758700782)"><path d="M16.2 0 C20.08 2.23, 27.75 0.14, 48.61 0 C59.29 -2.14, 64.49 7.63, 64.82 16.2 C66.02 28.52, 66.52 39.36, 64.82 54.25 C63.65 65.94, 56.57 70.14, 48.61 70.45 C37.95 69.95, 25.5 69.58, 16.2 70.45 C4.09 71.64, 1.92 64.11, 0 54.25 C-3.19 42.33, 1.11 32.87, 0 16.2 C2.02 7.47, 6.76 -2.15, 16.2 0" stroke="none" stroke-width="0" fill="#e7f5ff"></path><path d="M16.2 0 C29 1.18, 41.91 1.52, 48.61 0 M16.2 0 C27.88 -0.8, 39.84 -0.51, 48.61 0 M48.61 0 C58.75 1.15, 63.95 4.94, 64.82 16.2 M48.61 0 C59.26 0.28, 64.31 4.19, 64.82 16.2 M64.82 16.2 C65.41 29.3, 63.31 44.56, 64.82 54.25 M64.82 16.2 C65.28 25.34, 65.35 34.51, 64.82 54.25 M64.82 54.25 C63.97 64.27, 61.03 68.76, 48.61 70.45 M64.82 54.25 C64.51 65.84, 60.7 70.71, 48.61 70.45 M48.61 70.45 C40.99 71.58, 31.47 71.77, 16.2 70.45 M48.61 70.45 C36.28 69.46, 26.62 69.98, 16.2 70.45 M16.2 70.45 C3.89 70.27, -0.03 63.9, 0 54.25 M16.2 70.45 C4.2 72.31, 1.09 66.05, 0 54.25 M0 54.25 C1.47 41.34, -1.01 27.87, 0 16.2 M0 54.25 C0.33 43.89, -0.45 34.38, 0 16.2 M0 16.2 C0.28 4.74, 4.02 -0.37, 16.2 0 M0 16.2 C0.96 6.71, 6.17 -2.08, 16.2 0" stroke="#1e1e1e" stroke-width="1" fill="none"></path></g><g transform="translate(456.96002426951327 1243.7579104269944) rotate(0 23.694334030151367 28.18070069606256)"><text x="23.694334030151367" y="19.749035047800575" font-family="Virgil, Segoe UI Emoji" font-size="22.54456055684997px" fill="#1e1e1e" text-anchor="middle" style="white-space: pre;" direction="ltr" dominant-baseline="alphabetic">api</text><text x="23.694334030151367" y="47.929735743863034" font-family="Virgil, Segoe UI Emoji" font-size="22.54456055684997px" fill="#1e1e1e" text-anchor="middle" style="white-space: pre;" direction="ltr" dominant-baseline="alphabetic">CRD</text></g><g stroke-linecap="round" transform="translate(527.3786932150197 1236.0484252230217) rotate(0 32.40780580047203 35.2258758700782)"><path d="M16.2 0 C28 -2.2, 39.71 2.17, 48.61 0 C58.67 1.29, 67.43 6.36, 64.82 16.2 C63.93 30.29, 62.25 42.29, 64.82 54.25 C67.64 68.05, 60.24 72.05, 48.61 70.45 C38.14 71.47, 32.22 69.35, 16.2 70.45 C5.22 70.9, -2.42 61.94, 0 54.25 C1.79 45.65, 1.13 30.76, 0 16.2 C-1.97 3.91, 8.92 0.31, 16.2 0" stroke="none" stroke-width="0" fill="#e7f5ff"></path><path d="M16.2 0 C29.41 1.19, 39.77 -0.94, 48.61 0 M16.2 0 C22.99 0.74, 30.02 -0.06, 48.61 0 M48.61 0 C59.28 0.24, 64.37 4.35, 64.82 16.2 M48.61 0 C61.42 1.33, 62.89 5.83, 64.82 16.2 M64.82 16.2 C63.41 26.22, 65.38 33.08, 64.82 54.25 M64.82 16.2 C64.47 26.4, 65.7 36.53, 64.82 54.25 M64.82 54.25 C64.55 65.74, 60.53 70.67, 48.61 70.45 M64.82 54.25 C64.64 63.53, 60.9 72.58, 48.61 70.45 M48.61 70.45 C38.43 72.59, 24.81 68.75, 16.2 70.45 M48.61 70.45 C40.61 70.28, 34.1 69.8, 16.2 70.45 M16.2 70.45 C4.36 72.07, 0.95 65.92, 0 54.25 M16.2 70.45 C6.4 71.95, 2.17 67.03, 0 54.25 M0 54.25 C-0.4 43.89, 0.82 31.95, 0 16.2 M0 54.25 C0.21 42.43, -0.62 31.08, 0 16.2 M0 16.2 C0.84 6.54, 6.07 -1.81, 16.2 0 M0 16.2 C-2.06 4.37, 6.2 -1.88, 16.2 0" stroke="#1e1e1e" stroke-width="1" fill="none"></path></g><g transform="translate(536.0921649853399 1243.0936003970373) rotate(0 23.694334030151367 28.18070069606256)"><text x="23.694334030151367" y="19.749035047800575" font-family="Virgil, Segoe UI Emoji" font-size="22.54456055684997px" fill="#1e1e1e" text-anchor="middle" style="white-space: pre;" direction="ltr" dominant-baseline="alphabetic">api</text><text x="23.694334030151367" y="47.929735743863034" font-family="Virgil, Segoe UI Emoji" font-size="22.54456055684997px" fill="#1e1e1e" text-anchor="middle" style="white-space: pre;" direction="ltr" dominant-baseline="alphabetic">CRD</text></g><g stroke-linecap="round" transform="translate(394.12861369043094 924.2936613890288) rotate(0 72.07579106115145 35.2258758700782)"><path d="M17.61 0 C43.07 0.08, 72.63 -0.25, 126.54 0 C139.97 1.46, 146.05 4.7, 144.15 17.61 C146.47 32.05, 144.47 42.09, 144.15 52.84 C143.52 65.99, 137.27 69.14, 126.54 70.45 C90.09 70.38, 51.6 66.83, 17.61 70.45 C5.17 71.65, 1.05 66.6, 0 52.84 C-2.21 38.75, 3.28 27.96, 0 17.61 C-3.39 2.68, 2.79 0.79, 17.61 0" stroke="none" stroke-width="0" fill="#e7f5ff"></path><path d="M17.61 0 C56.61 -0.44, 97.8 -0.3, 126.54 0 M17.61 0 C56.48 0.37, 95.26 -0.28, 126.54 0 M126.54 0 C140.03 1.16, 142.48 6.25, 144.15 17.61 M126.54 0 C136.4 -1.98, 142.87 4.63, 144.15 17.61 M144.15 17.61 C143.87 31.61, 143.52 43.95, 144.15 52.84 M144.15 17.61 C144.3 27.15, 144.99 36.11, 144.15 52.84 M144.15 52.84 C144 63.26, 139.57 72.31, 126.54 70.45 M144.15 52.84 C145.21 66.66, 139.55 71.63, 126.54 70.45 M126.54 70.45 C81.67 71, 39.37 67.91, 17.61 70.45 M126.54 70.45 C94.31 70.64, 63.59 70.26, 17.61 70.45 M17.61 70.45 C6.74 71.76, 1.88 66.3, 0 52.84 M17.61 70.45 C6.07 69.57, -0.27 63.96, 0 52.84 M0 52.84 C-0.08 39.46, 1.66 27.13, 0 17.61 M0 52.84 C0.66 44, 0.58 33.12, 0 17.61 M0 17.61 C-1.79 4.98, 6.57 -1.64, 17.61 0 M0 17.61 C1.56 4.53, 6.09 -0.08, 17.61 0" stroke="#1e1e1e" stroke-width="1" fill="none"></path></g><g transform="translate(410.8349665801961 931.3388365630444) rotate(0 55.36943817138672 28.18070069606256)"><text x="55.36943817138672" y="19.749035047800575" font-family="Virgil, Segoe UI Emoji" font-size="22.54456055684997px" fill="#1e1e1e" text-anchor="middle" style="white-space: pre;" direction="ltr" dominant-baseline="alphabetic">Operator </text><text x="55.36943817138672" y="47.929735743863034" font-family="Virgil, Segoe UI Emoji" font-size="22.54456055684997px" fill="#1e1e1e" text-anchor="middle" style="white-space: pre;" direction="ltr" dominant-baseline="alphabetic">Context 1</text></g><g stroke-linecap="round" transform="translate(726.8058370017989 1225.6854050062102) rotate(0 32.40780580047203 35.2258758700782)"><path d="M16.2 0 C28.78 1.31, 39.88 -1.32, 48.61 0 C60.3 -2.85, 64.5 8.22, 64.82 16.2 C64.34 32.2, 63.96 44.06, 64.82 54.25 C66 66.97, 58.48 70.27, 48.61 70.45 C37.79 71.14, 29.42 71.96, 16.2 70.45 C7.47 71.81, -2.15 63.08, 0 54.25 C-4.06 41.22, -3.75 35.36, 0 16.2 C-2.11 3.21, 2.49 -3.1, 16.2 0" stroke="none" stroke-width="0" fill="#fff9db"></path><path d="M16.2 0 C25.75 -0.76, 32.55 -0.02, 48.61 0 M16.2 0 C27.19 0.75, 35.6 0.36, 48.61 0 M48.61 0 C57.78 -1.72, 63.7 4.32, 64.82 16.2 M48.61 0 C61.39 1.03, 65.14 4.9, 64.82 16.2 M64.82 16.2 C63.88 30, 62.98 40.31, 64.82 54.25 M64.82 16.2 C64.95 28.26, 65.67 42.57, 64.82 54.25 M64.82 54.25 C65.73 66.86, 60.52 71.48, 48.61 70.45 M64.82 54.25 C67.07 63.46, 57.25 68.7, 48.61 70.45 M48.61 70.45 C36.16 70.18, 22.91 69.16, 16.2 70.45 M48.61 70.45 C36.71 71.24, 24.87 71.45, 16.2 70.45 M16.2 70.45 C5.57 69.69, -0.23 64.51, 0 54.25 M16.2 70.45 C6.99 71.22, 1.35 65.1, 0 54.25 M0 54.25 C-1 42.17, -0.71 33.7, 0 16.2 M0 54.25 C-1.02 40.22, 0.22 26.28, 0 16.2 M0 16.2 C1.35 4.23, 5.59 -0.07, 16.2 0 M0 16.2 C-1.37 5.19, 6.83 -0.47, 16.2 0" stroke="#1e1e1e" stroke-width="1" fill="none"></path></g><g transform="translate(735.5193087721191 1232.7305801802258) rotate(0 23.694334030151367 28.18070069606256)"><text x="23.694334030151367" y="19.749035047800575" font-family="Virgil, Segoe UI Emoji" font-size="22.54456055684997px" fill="#1e1e1e" text-anchor="middle" style="white-space: pre;" direction="ltr" dominant-baseline="alphabetic">api</text><text x="23.694334030151367" y="47.929735743863034" font-family="Virgil, Segoe UI Emoji" font-size="22.54456055684997px" fill="#1e1e1e" text-anchor="middle" style="white-space: pre;" direction="ltr" dominant-baseline="alphabetic">CRD</text></g><g stroke-linecap="round" transform="translate(800.7219966777793 1213.2851376366016) rotate(0 32.40780580047203 35.2258758700782)"><path d="M16.2 0 C28.13 -2.66, 37.97 3.01, 48.61 0 C62.42 0.82, 66.42 4.77, 64.82 16.2 C65.81 31.03, 63.69 41.83, 64.82 54.25 C65.26 62.63, 56.31 69.75, 48.61 70.45 C39.89 72.14, 24.87 68.81, 16.2 70.45 C3.91 73.97, 0.31 61.66, 0 54.25 C-1.52 44.01, -2.32 35.06, 0 16.2 C1.27 3.96, 4.43 2.26, 16.2 0" stroke="none" stroke-width="0" fill="#fff9db"></path><path d="M16.2 0 C24.76 -0.42, 31.78 1.77, 48.61 0 M16.2 0 C26.98 -0.92, 38.84 -0.6, 48.61 0 M48.61 0 C61.13 0.9, 65.1 4.97, 64.82 16.2 M48.61 0 C59.88 -0.91, 63.84 4.5, 64.82 16.2 M64.82 16.2 C65.18 31.8, 64.72 45.01, 64.82 54.25 M64.82 16.2 C65.52 26, 65.61 34.51, 64.82 54.25 M64.82 54.25 C66.77 63.66, 57.53 68.92, 48.61 70.45 M64.82 54.25 C66.63 64.49, 57.67 70.25, 48.61 70.45 M48.61 70.45 C40.55 71.23, 30.12 71.16, 16.2 70.45 M48.61 70.45 C36.86 70.35, 24.83 70.46, 16.2 70.45 M16.2 70.45 C6.78 71.12, 1.17 65.09, 0 54.25 M16.2 70.45 C4.96 72.5, 0.32 64.29, 0 54.25 M0 54.25 C1.21 46.14, -1.74 34.9, 0 16.2 M0 54.25 C0.54 43.95, -0.04 34.79, 0 16.2 M0 16.2 C-1.19 5.22, 6.64 -0.41, 16.2 0 M0 16.2 C0.83 7.07, 6.01 1.08, 16.2 0" stroke="#1e1e1e" stroke-width="1" fill="none"></path></g><g transform="translate(809.4354684480995 1220.3303128106172) rotate(0 23.694334030151367 28.18070069606256)"><text x="23.694334030151367" y="19.749035047800575" font-family="Virgil, Segoe UI Emoji" font-size="22.54456055684997px" fill="#1e1e1e" text-anchor="middle" style="white-space: pre;" direction="ltr" dominant-baseline="alphabetic">api</text><text x="23.694334030151367" y="47.929735743863034" font-family="Virgil, Segoe UI Emoji" font-size="22.54456055684997px" fill="#1e1e1e" text-anchor="middle" style="white-space: pre;" direction="ltr" dominant-baseline="alphabetic">CRD</text></g><g stroke-linecap="round" transform="translate(719.5431079436803 890.4566621562553) rotate(0 81.61619257954317 35.2258758700782)"><path d="M17.61 0 C48.9 -0.99, 75.77 -2.44, 145.62 0 C158.77 -1.01, 161.92 7.05, 163.23 17.61 C163.51 27.64, 159.96 41.81, 163.23 52.84 C164.43 65.64, 159.38 72.53, 145.62 70.45 C100.9 72.71, 59.47 65.8, 17.61 70.45 C2.68 67.37, 0.79 62.47, 0 52.84 C1.79 42.98, -0.46 38.25, 0 17.61 C1.84 9.04, 8.25 -0.27, 17.61 0" stroke="none" stroke-width="0" fill="#fff9db"></path><path d="M17.61 0 C54.35 -2.79, 89.15 -2.76, 145.62 0 M17.61 0 C45.86 1.14, 72.53 0.48, 145.62 0 M145.62 0 C157.77 -0.79, 162.38 5.09, 163.23 17.61 M145.62 0 C159.22 -1.94, 162.92 6.66, 163.23 17.61 M163.23 17.61 C161.95 31.44, 165.13 43.6, 163.23 52.84 M163.23 17.61 C164.41 30.68, 162.49 44.36, 163.23 52.84 M163.23 52.84 C164.81 64.1, 155.85 70.27, 145.62 70.45 M163.23 52.84 C163.2 63.26, 156.16 72.31, 145.62 70.45 M145.62 70.45 C102.46 72.89, 58.41 71.18, 17.61 70.45 M145.62 70.45 C112.8 70.44, 79.19 70.12, 17.61 70.45 M17.61 70.45 C5.49 72.23, 0.28 63.92, 0 52.84 M17.61 70.45 C4.28 70.02, 0.96 65.89, 0 52.84 M0 52.84 C-0.58 41.78, -1.32 30.69, 0 17.61 M0 52.84 C-0.63 44.23, 0.59 35.61, 0 17.61 M0 17.61 C0.72 7.33, 6.4 0.94, 17.61 0 M0 17.61 C0.93 7.08, 5.13 0.57, 17.61 0" stroke="#1e1e1e" stroke-width="1" fill="none"></path></g><g transform="translate(743.4903132490535 897.501837330271) rotate(0 57.66898727416992 28.18070069606256)"><text x="57.66898727416992" y="19.749035047800575" font-family="Virgil, Segoe UI Emoji" font-size="22.54456055684997px" fill="#1e1e1e" text-anchor="middle" style="white-space: pre;" direction="ltr" dominant-baseline="alphabetic">Operator </text><text x="57.66898727416992" y="47.929735743863034" font-family="Virgil, Segoe UI Emoji" font-size="22.54456055684997px" fill="#1e1e1e" text-anchor="middle" style="white-space: pre;" direction="ltr" dominant-baseline="alphabetic">Context 2</text></g><g stroke-linecap="round" transform="translate(38.526989791357664 1122.391515225514) rotate(0 28.536195356603002 21.40214651745191)"><path d="M33.55 -0.43 C39.14 0.21, 46.78 4.69, 50.57 8.56 C54.35 12.44, 56.47 18.27, 56.24 22.81 C56.01 27.35, 53.13 32.61, 49.17 35.81 C45.21 39.01, 38.46 41.27, 32.49 42 C26.52 42.73, 18.55 42.45, 13.34 40.18 C8.12 37.91, 2.95 32.81, 1.2 28.39 C-0.56 23.97, 0.4 17.91, 2.8 13.66 C5.2 9.42, 9.81 5.09, 15.59 2.92 C21.37 0.74, 33.51 0.91, 37.48 0.63 C41.45 0.34, 39.66 0.69, 39.41 1.21 M39.84 2.42 C45.17 3.74, 50.93 7.28, 53.74 11.44 C56.56 15.59, 58.19 22.81, 56.73 27.34 C55.27 31.87, 49.95 36.22, 44.96 38.62 C39.97 41.02, 33.03 42.09, 26.78 41.75 C20.53 41.4, 11.81 39.47, 7.45 36.53 C3.1 33.59, 0.95 28.48, 0.66 24.12 C0.37 19.75, 2.27 14.36, 5.69 10.33 C9.11 6.3, 15.59 1.46, 21.19 -0.06 C26.79 -1.57, 35.92 0.81, 39.28 1.21 C42.63 1.62, 41.62 2.15, 41.33 2.36" stroke="none" stroke-width="0" fill="#a5d8ff"></path><path d="M21.14 0.97 C26.67 -0.6, 34.5 0.29, 39.94 2.06 C45.38 3.83, 51.15 7.38, 53.8 11.61 C56.44 15.83, 57.39 22.9, 55.83 27.4 C54.27 31.9, 49.28 35.94, 44.45 38.59 C39.62 41.24, 32.81 43.62, 26.87 43.31 C20.93 43, 13.38 39.88, 8.81 36.71 C4.25 33.54, -0.01 28.74, -0.51 24.27 C-1.01 19.8, 1.93 13.74, 5.82 9.88 C9.7 6.03, 19.81 2.49, 22.79 1.14 C25.78 -0.21, 23.88 1.69, 23.73 1.79 M16.77 1.41 C21.83 -0.55, 31.53 -1.45, 37.4 0.2 C43.27 1.85, 48.64 7.17, 51.99 11.31 C55.34 15.46, 58.12 20.58, 57.5 25.08 C56.87 29.58, 52.67 35.15, 48.24 38.32 C43.8 41.48, 37.08 44.19, 30.88 44.08 C24.68 43.97, 16.12 40.78, 11.04 37.66 C5.97 34.55, 1.54 29.7, 0.44 25.4 C-0.67 21.09, 1.35 15.79, 4.4 11.82 C7.46 7.84, 16.55 2.99, 18.79 1.57 C21.03 0.15, 17.77 3.03, 17.83 3.27" stroke="#1e1e1e" stroke-width="2" fill="none"></path></g><g stroke-linecap="round" transform="translate(10 1162.199990860543) rotate(0 53.70258421934727 87)"><path d="M44.95 1.92 C52.2 -1.12, 62.19 0.38, 69.72 3.78 C77.26 7.18, 84.49 13.96, 90.18 22.32 C95.87 30.67, 101.04 42.19, 103.84 53.93 C106.63 65.67, 107.4 80.19, 106.94 92.75 C106.48 105.31, 104.82 118.36, 101.08 129.3 C97.33 140.24, 91.02 151.27, 84.45 158.39 C77.89 165.51, 69.39 169.93, 61.7 172 C54.01 174.06, 45.61 174.1, 38.32 170.78 C31.03 167.46, 23.59 160.5, 17.96 152.07 C12.33 143.63, 7.61 132.01, 4.54 120.17 C1.46 108.33, -0.81 93.49, -0.49 81.04 C-0.17 68.58, 2.54 56.46, 6.45 45.42 C10.36 34.38, 15.4 22.5, 22.99 14.79 C30.57 7.08, 45.66 1.31, 51.96 -0.84 C58.25 -3, 60.69 0.42, 60.75 1.87 M30.87 8.89 C37.28 3.03, 47.44 1.28, 55.43 1.33 C63.43 1.38, 71.97 3.92, 78.86 9.19 C85.75 14.46, 92.14 22.79, 96.76 32.97 C101.37 43.14, 104.79 57.52, 106.55 70.25 C108.31 82.98, 109.28 97.25, 107.32 109.33 C105.37 121.4, 100.12 133.05, 94.81 142.71 C89.5 152.36, 82.65 162.09, 75.48 167.27 C68.3 172.45, 59.44 174.25, 51.74 173.77 C44.05 173.29, 36.12 169.83, 29.31 164.41 C22.5 159, 15.71 151.24, 10.88 141.28 C6.05 131.32, 1.71 117, 0.34 104.63 C-1.03 92.26, 0.44 79.04, 2.65 67.07 C4.85 55.09, 8.63 42.6, 13.56 32.79 C18.5 22.98, 29.2 12.21, 32.26 8.21 C35.33 4.22, 31.56 7.3, 31.93 8.8" stroke="none" stroke-width="0" fill="#a5d8ff"></path><path d="M75.85 8.11 C82.75 11.8, 89.71 21.25, 94.64 31.03 C99.57 40.82, 103.63 54.56, 105.43 66.82 C107.23 79.08, 106.9 92.31, 105.44 104.59 C103.98 116.87, 101.23 130.49, 96.67 140.48 C92.1 150.48, 85.14 158.87, 78.04 164.57 C70.94 170.26, 61.7 174.3, 54.08 174.63 C46.45 174.96, 39.07 171.81, 32.27 166.56 C25.47 161.3, 18.3 152.69, 13.27 143.1 C8.25 133.5, 4.24 121.43, 2.1 108.97 C-0.04 96.51, -0.94 80.69, 0.43 68.34 C1.8 55.99, 5.52 44.82, 10.32 34.86 C15.12 24.91, 22.19 14.41, 29.23 8.6 C36.28 2.79, 44.51 -0.08, 52.58 0 C60.65 0.08, 72.98 6.84, 77.65 9.08 C82.33 11.32, 80.85 11.99, 80.61 13.44 M71.03 4.01 C78.01 6.31, 85.39 15.44, 91.1 24.42 C96.8 33.4, 102.41 45.99, 105.23 57.9 C108.05 69.8, 109.02 83.2, 108.01 95.85 C107 108.51, 103.36 123.2, 99.19 133.83 C95.02 144.47, 89.62 153.14, 82.96 159.68 C76.31 166.21, 66.88 171.3, 59.24 173.06 C51.61 174.83, 44.23 174.48, 37.13 170.27 C30.03 166.06, 22.52 156.87, 16.64 147.81 C10.76 138.76, 4.5 127.75, 1.86 115.93 C-0.78 104.12, -0.38 89.5, 0.8 76.95 C1.98 64.4, 4.95 51.15, 8.95 40.62 C12.94 30.1, 18.58 20.46, 24.79 13.78 C31 7.1, 38.39 2.1, 46.23 0.52 C54.07 -1.07, 67.68 3.14, 71.83 4.27 C75.97 5.41, 71.47 5.78, 71.09 7.32" stroke="#1e1e1e" stroke-width="2" fill="none"></path></g><g transform="translate(33.74485646947733 1206.9106498532192) rotate(0 29.98426628112793 42.27105104409384)"><text x="29.98426628112793" y="19.749035047800575" font-family="Virgil, Segoe UI Emoji" font-size="22.54456055684997px" fill="#1e1e1e" text-anchor="middle" style="white-space: pre;" direction="ltr" dominant-baseline="alphabetic">API </text><text x="29.98426628112793" y="47.929735743863034" font-family="Virgil, Segoe UI Emoji" font-size="22.54456055684997px" fill="#1e1e1e" text-anchor="middle" style="white-space: pre;" direction="ltr" dominant-baseline="alphabetic">Devel</text><text x="29.98426628112793" y="76.11043643992551" font-family="Virgil, Segoe UI Emoji" font-size="22.54456055684997px" fill="#1e1e1e" text-anchor="middle" style="white-space: pre;" direction="ltr" dominant-baseline="alphabetic">oper</text></g><g mask="url(#mask-rrdecjUBOlV_Ynt5tg8AQ)" stroke-linecap="round"><g transform="translate(122.20327107313915 1255.6568256816718) rotate(0 159.79672152187914 -0.3466653540149309)"><path d="M0.17 -0.26 C53.3 -0.55, 266.68 -1.02, 319.84 -1.17 M-1.2 -1.44 C51.71 -1.61, 265.81 -0.11, 319.02 0.12" stroke="#1e1e1e" stroke-width="1" fill="none"></path></g><g transform="translate(122.20327107313915 1255.6568256816718) rotate(0 159.79672152187914 -0.3466653540149309)"><path d="M295.48 8.53 C304.09 5.66, 312.81 1.16, 319.02 0.12 M295.48 8.53 C301.42 6.88, 308.25 4.45, 319.02 0.12" stroke="#1e1e1e" stroke-width="1" fill="none"></path></g><g transform="translate(122.20327107313915 1255.6568256816718) rotate(0 159.79672152187914 -0.3466653540149309)"><path d="M295.57 -8.57 C304.22 -4.84, 312.91 -2.74, 319.02 0.12 M295.57 -8.57 C301.63 -5.76, 308.44 -3.72, 319.02 0.12" stroke="#1e1e1e" stroke-width="1" fill="none"></path></g></g><mask id="mask-rrdecjUBOlV_Ynt5tg8AQ"><rect x="0" y="0" fill="#fff" width="541.7967141168976" height="1356.3501563897016"></rect><rect x="236.62905906230344" y="1241.219809979626" fill="#000" width="90.74186706542969" height="28.180700696062463" opacity="1"></rect></mask><g transform="translate(236.62905906230299 1241.219809979626) rotate(0 44.891722207022895 13.767514784225568)"><text x="45.370933532714844" y="19.749035047800575" font-family="Virgil, Segoe UI Emoji" font-size="22.54456055684997px" fill="#1e1e1e" text-anchor="middle" style="white-space: pre;" direction="ltr" dominant-baseline="alphabetic">manages</text></g><g stroke-linecap="round" transform="translate(67.6186068825491 771.6175215079384) rotate(0 29.84798860637079 25.032721311564273)"><path d="M31.17 0.65 C37.22 0.73, 45.05 3.42, 49.89 7 C54.72 10.58, 59.26 16.79, 60.18 22.12 C61.11 27.45, 58.92 34.55, 55.43 38.96 C51.94 43.38, 45.39 47.21, 39.25 48.61 C33.11 50, 24.58 49.22, 18.57 47.33 C12.57 45.45, 6.07 41.89, 3.24 37.3 C0.4 32.7, 0.07 25.15, 1.57 19.76 C3.06 14.36, 6.73 8.24, 12.21 4.94 C17.68 1.65, 30.41 0.54, 34.42 -0.03 C38.43 -0.61, 36.31 1.08, 36.26 1.5 M27.78 -0.28 C33.9 -0.49, 43.58 2.35, 48.94 5.89 C54.3 9.42, 58.66 15.88, 59.94 20.92 C61.22 25.95, 59.97 31.63, 56.64 36.09 C53.31 40.56, 45.76 45.57, 39.96 47.71 C34.15 49.84, 27.99 50.72, 21.83 48.9 C15.67 47.08, 6.78 41.32, 2.98 36.77 C-0.82 32.23, -1.99 26.89, -0.95 21.65 C0.08 16.42, 4.4 9.19, 9.2 5.36 C14 1.54, 24.46 -0.38, 27.87 -1.28 C31.27 -2.19, 29.48 -0.88, 29.63 -0.09" stroke="none" stroke-width="0" fill="#b2f2bb"></path><path d="M41.9 2.56 C47.8 4.28, 53.85 8.83, 56.58 13.63 C59.3 18.43, 59.57 26.04, 58.26 31.35 C56.94 36.66, 53.55 42.3, 48.7 45.51 C43.85 48.71, 35.6 50.78, 29.14 50.58 C22.69 50.38, 14.91 48.2, 9.97 44.29 C5.03 40.38, 0.5 32.46, -0.48 27.1 C-1.46 21.74, 0.51 16.62, 4.08 12.15 C7.65 7.69, 14.31 1.86, 20.93 0.32 C27.54 -1.22, 39.73 2.32, 43.76 2.91 C47.8 3.51, 45.23 3.45, 45.15 3.9 M37.71 1.88 C43.64 2.41, 50.02 5.24, 53.65 9.22 C57.28 13.19, 59.62 20.17, 59.49 25.71 C59.37 31.25, 57.04 38.42, 52.89 42.44 C48.75 46.47, 41.19 49.04, 34.63 49.88 C28.07 50.72, 19.04 50.45, 13.53 47.48 C8.03 44.51, 3.64 37.46, 1.59 32.07 C-0.46 26.69, -1.29 19.91, 1.23 15.18 C3.75 10.45, 10.76 6.34, 16.69 3.68 C22.61 1.03, 33.78 -0.22, 36.8 -0.76 C39.83 -1.31, 34.93 -0.02, 34.83 0.41" stroke="#1e1e1e" stroke-width="2" fill="none"></path></g><g stroke-linecap="round" transform="translate(23.799400140869693 824.8259732904644) rotate(0 79.73750979613374 47.5)"><path d="M89.21 0.03 C100.86 0.21, 113.99 4.41, 124.22 8.56 C134.46 12.7, 144.76 18.42, 150.62 24.88 C156.49 31.34, 159.54 40.04, 159.42 47.3 C159.3 54.56, 155.61 61.85, 149.92 68.43 C144.23 75, 135.24 82.28, 125.28 86.74 C115.32 91.2, 102.3 94.23, 90.18 95.17 C78.05 96.12, 64.27 95.15, 52.54 92.4 C40.82 89.66, 28.23 84.07, 19.82 78.69 C11.4 73.32, 4.96 67.35, 2.03 60.16 C-0.89 52.96, -0.52 42.96, 2.28 35.5 C5.07 28.04, 10.66 20.87, 18.81 15.39 C26.96 9.91, 36.9 4.9, 51.18 2.62 C65.45 0.33, 93.23 0.8, 104.46 1.65 C115.69 2.51, 118.94 6.91, 118.56 7.75 M105.3 2.2 C116.78 3.29, 128.7 7.81, 137.22 13.27 C145.74 18.73, 152.7 27.5, 156.41 34.96 C160.12 42.42, 161.95 50.95, 159.49 58.03 C157.04 65.11, 149.76 71.76, 141.68 77.46 C133.6 83.16, 122.44 89.38, 111 92.25 C99.56 95.12, 85.29 95.44, 73.04 94.66 C60.79 93.89, 47.87 91.22, 37.5 87.59 C27.13 83.96, 17.17 79.21, 10.8 72.88 C4.44 66.56, -0.32 57.04, -0.71 49.64 C-1.09 42.23, 2.94 34.9, 8.47 28.47 C14.01 22.03, 22.71 15.61, 32.5 11.03 C42.3 6.44, 55.23 2.52, 67.23 0.95 C79.23 -0.63, 98.26 0.98, 104.52 1.58 C110.78 2.18, 105.13 3.51, 104.79 4.55" stroke="none" stroke-width="0" fill="#b2f2bb"></path><path d="M74.5 0.03 C85.97 -1.12, 99.88 1.64, 111.32 4.7 C122.75 7.77, 135.16 12.67, 143.1 18.42 C151.05 24.16, 156.74 31.86, 158.98 39.18 C161.22 46.49, 160.4 55.52, 156.54 62.31 C152.67 69.1, 144.69 74.72, 135.8 79.92 C126.91 85.13, 114.9 91.28, 103.2 93.54 C91.51 95.81, 77.7 94.93, 65.64 93.52 C53.59 92.11, 40.72 89.53, 30.89 85.07 C21.06 80.61, 11.67 73.37, 6.67 66.76 C1.68 60.15, 0.09 52.61, 0.92 45.42 C1.76 38.23, 5.37 29.88, 11.66 23.63 C17.96 17.39, 27.55 11.88, 38.68 7.96 C49.81 4.03, 71.49 1.29, 78.44 0.1 C85.39 -1.08, 80.52 -0.05, 80.37 0.84 M92.78 2 C104.44 2.39, 118.58 5.04, 128.28 9.23 C137.98 13.42, 145.68 20.26, 150.97 27.15 C156.26 34.04, 160.34 43.42, 160.01 50.59 C159.69 57.76, 155.6 64.08, 149.02 70.18 C142.44 76.27, 131.03 83.24, 120.55 87.15 C110.07 91.06, 98.06 93.14, 86.13 93.64 C74.21 94.15, 60.39 92.93, 49 90.2 C37.6 87.46, 25.83 82.84, 17.77 77.24 C9.71 71.63, 2.87 63.81, 0.61 56.55 C-1.64 49.28, 0.47 40.51, 4.23 33.66 C7.99 26.81, 14.62 20.56, 23.15 15.45 C31.68 10.35, 43.65 5.38, 55.41 3.05 C67.16 0.71, 87.52 1.64, 93.68 1.46 C99.83 1.28, 92.84 1.35, 92.31 1.98" stroke="#1e1e1e" stroke-width="2" fill="none"></path></g><g transform="translate(55.64533194122441 844.0577004880406) rotate(0 48.008644104003906 28.18070069606256)"><text x="48.008644104003906" y="19.749035047800575" font-family="Virgil, Segoe UI Emoji" font-size="22.54456055684997px" fill="#1e1e1e" text-anchor="middle" style="white-space: pre;" direction="ltr" dominant-baseline="alphabetic">Platform</text><text x="48.008644104003906" y="47.929735743863034" font-family="Virgil, Segoe UI Emoji" font-size="22.54456055684997px" fill="#1e1e1e" text-anchor="middle" style="white-space: pre;" direction="ltr" dominant-baseline="alphabetic">Team</text></g><g mask="url(#mask-reY7id5mh4m9iOotwipuS)" stroke-linecap="round"><g transform="translate(187.86907213158065 893.0007178418782) rotate(0 95.3576983433552 28.88511949564827)"><path d="M0.67 0.13 C32.47 9.56, 158.82 47.18, 190.62 56.98 M-0.44 -0.84 C31.21 8.68, 157.7 48.44, 189.63 58.1" stroke="#1e1e1e" stroke-width="1" fill="none"></path></g><g transform="translate(187.86907213158065 893.0007178418782) rotate(0 95.3576983433552 28.88511949564827)"><path d="M164.66 59.33 C172.03 58.68, 177.64 59.77, 189.63 58.1 M164.66 59.33 C175.01 59.13, 185.24 57.44, 189.63 58.1" stroke="#1e1e1e" stroke-width="1" fill="none"></path></g><g transform="translate(187.86907213158065 893.0007178418782) rotate(0 95.3576983433552 28.88511949564827)"><path d="M169.71 42.99 C175.69 47.06, 179.85 52.83, 189.63 58.1 M169.71 42.99 C178.15 49.26, 186.4 53.98, 189.63 58.1" stroke="#1e1e1e" stroke-width="1" fill="none"></path></g></g><mask id="mask-reY7id5mh4m9iOotwipuS"><rect x="0" y="0" fill="#fff" width="478.58446881829104" height="1050.7709568331748"></rect><rect x="237.85583694222078" y="907.7954869894947" fill="#000" width="90.74186706542969" height="28.180700696062463" opacity="1"></rect></mask><g transform="translate(237.85583694222078 907.7954869894947) rotate(0 45.106053211493645 13.832586759174774)"><text x="45.370933532714844" y="19.749035047800575" font-family="Virgil, Segoe UI Emoji" font-size="22.54456055684997px" fill="#1e1e1e" text-anchor="middle" style="white-space: pre;" direction="ltr" dominant-baseline="alphabetic">manages</text></g><g mask="url(#mask-DbY5oxyZkpnnJtrUvfp9h)" stroke-linecap="round"><g transform="translate(466.6762078802567 1228.437778402007) rotate(0 -3.4546780294524524 -116.14166511901067)"><path d="M0.77 1.11 C-0.27 -37.29, -5.19 -192.4, -6.36 -231.2" stroke="#1e1e1e" stroke-width="1.5" fill="none" stroke-dasharray="8 9"></path></g><g transform="translate(466.6762078802567 1228.437778402007) rotate(0 -3.4546780294524524 -116.14166511901067)"><path d="M2.91 -207.98 C2.21 -213.79, -0.54 -220.39, -6.36 -231.2" stroke="#1e1e1e" stroke-width="1.5" fill="none"></path></g><g transform="translate(466.6762078802567 1228.437778402007) rotate(0 -3.4546780294524524 -116.14166511901067)"><path d="M-14.18 -207.45 C-9.88 -213.53, -7.64 -220.28, -6.36 -231.2" stroke="#1e1e1e" stroke-width="1.5" fill="none"></path></g></g><mask id="mask-DbY5oxyZkpnnJtrUvfp9h"><rect x="0" y="0" fill="#fff" width="573.5855639391616" height="1560.7211086400284"></rect><rect x="446.73018349155154" y="1098.2057629349656" fill="#000" width="32.98269271850586" height="28.180700696062463" opacity="1"></rect></mask><g transform="translate(446.73018349155154 1098.2057629349656) rotate(0 17.154003015532908 15.189805647631601)"><text x="16.49134635925293" y="19.749035047800575" font-family="Virgil, Segoe UI Emoji" font-size="22.54456055684997px" fill="#1e1e1e" text-anchor="middle" style="white-space: pre;" direction="ltr" dominant-baseline="alphabetic">ref</text></g><g mask="url(#mask-8XWsL9h4BwVYBrWe-jG5S)" stroke-linecap="round"><g transform="translate(568.8771691955408 1224.42076723637) rotate(0 -38.94351290751911 -111.48539968368505)"><path d="M0.66 0.62 C-12.21 -36.86, -63.43 -186.39, -76.71 -223.8" stroke="#1e1e1e" stroke-width="1.5" fill="none" stroke-dasharray="8 9"></path></g><g transform="translate(568.8771691955408 1224.42076723637) rotate(0 -38.94351290751911 -111.48539968368505)"><path d="M-60.92 -204.42 C-65.53 -209.08, -73.41 -219.62, -76.71 -223.8" stroke="#1e1e1e" stroke-width="1.5" fill="none"></path></g><g transform="translate(568.8771691955408 1224.42076723637) rotate(0 -38.94351290751911 -111.48539968368505)"><path d="M-77.07 -198.81 C-76.14 -205.5, -78.44 -217.98, -76.71 -223.8" stroke="#1e1e1e" stroke-width="1.5" fill="none"></path></g></g><mask id="mask-8XWsL9h4BwVYBrWe-jG5S"><rect x="0" y="0" fill="#fff" width="746.764195010579" height="1547.39156660374"></rect><rect x="513.4423099287687" y="1098.8450172046541" fill="#000" width="32.98269271850586" height="28.180700696062463" opacity="1"></rect></mask><g transform="translate(513.4423099287687 1098.8450172046541) rotate(0 17.410305825248088 13.982733413477945)"><text x="16.49134635925293" y="19.749035047800575" font-family="Virgil, Segoe UI Emoji" font-size="22.54456055684997px" fill="#1e1e1e" text-anchor="middle" style="white-space: pre;" direction="ltr" dominant-baseline="alphabetic">ref</text></g><g mask="url(#mask-M3x8yFeTQCqY12tenjzIL)" stroke-linecap="round"><g transform="translate(772.4817365321342 1213.3739865308635) rotate(0 10.76069170024357 -125.52826879982513)"><path d="M-1.13 -0.92 C2.42 -42.67, 18.84 -209.64, 22.47 -251.35" stroke="#1e1e1e" stroke-width="1.5" fill="none" stroke-dasharray="8 9"></path></g><g transform="translate(772.4817365321342 1213.3739865308635) rotate(0 10.76069170024357 -125.52826879982513)"><path d="M28.8 -227.16 C24.92 -235.27, 23.44 -247.98, 22.47 -251.35" stroke="#1e1e1e" stroke-width="1.5" fill="none"></path></g><g transform="translate(772.4817365321342 1213.3739865308635) rotate(0 10.76069170024357 -125.52826879982513)"><path d="M11.77 -228.75 C14.66 -236.07, 19.95 -248.15, 22.47 -251.35" stroke="#1e1e1e" stroke-width="1.5" fill="none"></path></g></g><mask id="mask-M3x8yFeTQCqY12tenjzIL"><rect x="0" y="0" fill="#fff" width="894.0031199326213" height="1564.4305241305137"></rect><rect x="766.7510818731253" y="1073.755367383007" fill="#000" width="32.98269271850586" height="28.180700696062463" opacity="1"></rect></mask><g transform="translate(766.7510818731253 1073.755367383007) rotate(0 16.399825492873333 13.486609360476905)"><text x="16.49134635925293" y="19.749035047800575" font-family="Virgil, Segoe UI Emoji" font-size="22.54456055684997px" fill="#1e1e1e" text-anchor="middle" style="white-space: pre;" direction="ltr" dominant-baseline="alphabetic">ref</text></g><g mask="url(#mask--qY2-Mqmf4zzvYUkyN7E3)" stroke-linecap="round"><g transform="translate(851.9834111665114 1207.348469782406) rotate(0 -15.267355043939006 -122.51551042559595)"><path d="M-0.91 -0.11 C-6.16 -41.01, -25.51 -205.06, -30.55 -245.72" stroke="#1e1e1e" stroke-width="1.5" fill="none" stroke-dasharray="8 9"></path></g><g transform="translate(851.9834111665114 1207.348469782406) rotate(0 -15.267355043939006 -122.51551042559595)"><path d="M-19.25 -223.42 C-23.65 -231.98, -28.9 -241.44, -30.55 -245.72" stroke="#1e1e1e" stroke-width="1.5" fill="none"></path></g><g transform="translate(851.9834111665114 1207.348469782406) rotate(0 -15.267355043939006 -122.51551042559595)"><path d="M-36.22 -221.37 C-34.19 -230.58, -33.01 -240.82, -30.55 -245.72" stroke="#1e1e1e" stroke-width="1.5" fill="none"></path></g></g><mask id="mask--qY2-Mqmf4zzvYUkyN7E3"><rect x="0" y="0" fill="#fff" width="982.5181212543889" height="1552.379490633598"></rect><rect x="820.2247097633199" y="1070.7426090087793" fill="#000" width="32.98269271850586" height="28.180700696062463" opacity="1"></rect></mask><g transform="translate(820.2247097633199 1070.7426090087793) rotate(0 16.029495612158826 13.69293739487739)"><text x="16.49134635925293" y="19.749035047800575" font-family="Virgil, Segoe UI Emoji" font-size="22.54456055684997px" fill="#1e1e1e" text-anchor="middle" style="white-space: pre;" direction="ltr" dominant-baseline="alphabetic">ref</text></g><g mask="url(#mask-uGsMTqdIaJJSnlOQeuZd3)" stroke-linecap="round"><g transform="translate(630.5316398516388 834.8398485588987) rotate(0 -4.815881149610959 142.39321239953415)"><path d="M-0.63 0.97 C-2.13 48.64, -7.65 237.88, -9.06 285.31 M1.25 0.43 C-0.37 47.8, -7.91 236.26, -9.71 283.46" stroke="#1e1e1e" stroke-width="1" fill="none"></path></g><g transform="translate(630.5316398516388 834.8398485588987) rotate(0 -4.815881149610959 142.39321239953415)"><path d="M-17.34 259.65 C-13.58 267.75, -12.05 274.79, -9.71 283.46 M-17.34 259.65 C-14.24 267.9, -11.66 276.7, -9.71 283.46" stroke="#1e1e1e" stroke-width="1" fill="none"></path></g><g transform="translate(630.5316398516388 834.8398485588987) rotate(0 -4.815881149610959 142.39321239953415)"><path d="M-0.25 260.32 C-1.59 268.13, -5.16 274.97, -9.71 283.46 M-0.25 260.32 C-3.4 268.47, -7.06 277.03, -9.71 283.46" stroke="#1e1e1e" stroke-width="1" fill="none"></path></g></g><mask id="mask-uGsMTqdIaJJSnlOQeuZd3"><rect x="0" y="0" fill="#fff" width="740.163402150861" height="1219.626273357967"></rect><rect x="581.4495119063731" y="963.142710610402" fill="#000" width="88.5324935913086" height="28.180700696062463" opacity="1"></rect></mask><g transform="translate(581.4495119063731 963.142710610402) rotate(0 44.8486636610146 14.568868942282734)"><text x="44.2662467956543" y="19.749035047800575" font-family="Virgil, Segoe UI Emoji" font-size="22.54456055684997px" fill="#1e1e1e" text-anchor="middle" style="white-space: pre;" direction="ltr" dominant-baseline="alphabetic">watches</text></g><g stroke-linecap="round"><g transform="translate(623.6572270397755 1048.7973938042087) rotate(0 37.79668363435212 41.84632830946157)"><path d="M0.52 0.78 C13.22 14.82, 64.2 70.98, 76.72 84.73 M-0.66 0.15 C11.92 13.82, 63.76 69.12, 76.37 83.14" stroke="#1e1e1e" stroke-width="1" fill="none"></path></g><g transform="translate(623.6572270397755 1048.7973938042087) rotate(0 37.79668363435212 41.84632830946157)"><path d="M54.17 71.65 C63.23 77.43, 71.36 79.71, 76.37 83.14 M54.17 71.65 C60.65 75.06, 66.37 77.75, 76.37 83.14" stroke="#1e1e1e" stroke-width="1" fill="none"></path></g><g transform="translate(623.6572270397755 1048.7973938042087) rotate(0 37.79668363435212 41.84632830946157)"><path d="M66.75 60.07 C71.49 69.93, 75.25 76.23, 76.37 83.14 M66.75 60.07 C69.93 66.47, 72.35 72.2, 76.37 83.14" stroke="#1e1e1e" stroke-width="1" fill="none"></path></g></g><mask></mask><g mask="url(#mask-FAE1Cqo0gl1kY7dg23GU-)" stroke-linecap="round"><g transform="translate(195.25160556051924 868.5081469397264) rotate(0 259.3236987716805 23.347471272049006)"><path d="M1.13 1.03 C87.5 8.61, 432.52 38.68, 518.75 46.24 M0.26 0.53 C86.44 8.2, 431.62 39.7, 517.85 47.53" stroke="#1e1e1e" stroke-width="1" fill="none"></path></g><g transform="translate(195.25160556051924 868.5081469397264) rotate(0 259.3236987716805 23.347471272049006)"><path d="M493.68 53.92 C503.67 51.67, 509.49 49.07, 517.85 47.53 M493.68 53.92 C500.82 52.12, 506.64 51.24, 517.85 47.53" stroke="#1e1e1e" stroke-width="1" fill="none"></path></g><g transform="translate(195.25160556051924 868.5081469397264) rotate(0 259.3236987716805 23.347471272049006)"><path d="M495.23 36.89 C504.8 40.5, 510.09 43.76, 517.85 47.53 M495.23 36.89 C502.07 39.74, 507.46 43.51, 517.85 47.53" stroke="#1e1e1e" stroke-width="1" fill="none"></path></g></g><mask id="mask-FAE1Cqo0gl1kY7dg23GU-"><rect x="0" y="0" fill="#fff" width="813.89900310388" height="1015.2030894838244"></rect><rect x="414.32530433219927" y="879.3556182117754" fill="#000" width="80.5" height="25" opacity="1"></rect></mask><g transform="translate(414.3253043322002 879.3556182117754) rotate(0 40.43319767798289 13.183440458644327)"><text x="40.25" y="17.52" font-family="Virgil, Segoe UI Emoji" font-size="20px" fill="#1e1e1e" text-anchor="middle" style="white-space: pre;" direction="ltr" dominant-baseline="alphabetic">manages</text></g><g stroke-linecap="round" transform="translate(555.3998632114835 729.742845932934) rotate(0 75.55094750219541 52.13429628771564)"><path d="M26.07 0 C61.95 1.17, 94.57 -1.49, 125.03 0 M26.07 0 C49.47 -0.24, 74 -1.1, 125.03 0 M125.03 0 C142.6 0.37, 149.3 8.06, 151.1 26.07 M125.03 0 C143.19 -1.29, 153.34 9.83, 151.1 26.07 M151.1 26.07 C152.61 40.12, 149.55 55.41, 151.1 78.2 M151.1 26.07 C150.41 45.69, 151.69 66.2, 151.1 78.2 M151.1 78.2 C149.56 96.15, 141.8 105.82, 125.03 104.27 M151.1 78.2 C149.21 93.34, 142.38 105.06, 125.03 104.27 M125.03 104.27 C99.4 104.5, 70.43 103.7, 26.07 104.27 M125.03 104.27 C91.98 104.42, 58.6 103.34, 26.07 104.27 M26.07 104.27 C10.15 104.06, 0.87 97.33, 0 78.2 M26.07 104.27 C9.36 105.63, 2.05 95.44, 0 78.2 M0 78.2 C1.13 60.91, -0.04 39.11, 0 26.07 M0 78.2 C-0.35 59.85, -0.58 38.7, 0 26.07 M0 26.07 C-0.7 7.63, 10.1 -1.22, 26.07 0 M0 26.07 C-2.09 9.27, 8.37 2.06, 26.07 0" stroke="#1e1e1e" stroke-width="2" fill="none"></path></g><g transform="translate(568.7841885518137 746.6512663505719) rotate(0 62.166622161865234 35.2258758700782)"><text x="62.166622161865234" y="24.686293809750715" font-family="Virgil, Segoe UI Emoji" font-size="28.180700696062463px" fill="#1e1e1e" text-anchor="middle" style="white-space: pre;" direction="ltr" dominant-baseline="alphabetic">Tyk </text><text x="62.166622161865234" y="59.91216967982879" font-family="Virgil, Segoe UI Emoji" font-size="28.180700696062463px" fill="#1e1e1e" text-anchor="middle" style="white-space: pre;" direction="ltr" dominant-baseline="alphabetic">Operator</text></g></svg>