<svg width="401" height="310" viewBox="0 0 401 310" fill="none" xmlns="http://www.w3.org/2000/svg">
<g clip-path="url(#clip0_2044_7897)">
<path d="M182.064 3.88036C179.477 1.29345 176.243 0 172.039 0H58.8621V13.5812C58.8621 17.1382 60.1556 20.3719 62.7425 22.9588C65.3294 25.5457 68.8864 27.1625 72.7667 27.1625H108.984V162.652H122.241C126.122 162.652 129.355 161.358 131.942 158.771C134.529 156.184 136.146 152.951 136.146 149.394V26.8391H185.944V14.228C185.944 10.671 184.651 6.79062 182.064 3.88036Z" fill="#03031C"/>
<path d="M253.85 49.4746C249.97 49.4746 246.736 50.7681 244.149 53.355C241.562 55.9419 239.946 59.1755 239.946 62.7325V116.734C235.095 129.992 220.544 136.459 205.022 136.459C192.088 136.459 185.944 130.639 185.944 118.351V63.0559C185.944 59.4989 184.651 56.2652 181.74 53.6783C179.153 51.0914 175.92 49.798 172.039 49.798H158.781V121.261C158.781 148.747 173.009 162.652 202.112 162.652C216.34 162.652 232.185 157.801 239.946 147.777C239.299 156.508 238.329 161.035 233.478 167.502C227.981 174.616 217.31 177.526 205.992 177.526C195.321 177.526 184.974 175.263 173.656 171.059C171.716 170.736 170.099 170.412 168.482 170.412C162.338 170.412 158.781 173.646 158.781 179.79V190.784L159.752 191.431C172.686 199.192 187.884 203.072 205.992 203.072C243.826 203.072 267.108 182.377 267.108 141.956V49.4746H253.85Z" fill="#03031C"/>
<path d="M378.345 112.854C376.405 107.033 373.818 106.063 371.231 103.476C372.524 101.859 374.141 98.6257 376.405 91.8351L393.543 49.7979H378.022C369.614 49.7979 364.117 53.3549 361.853 59.8222L350.212 86.6613C349.242 88.9248 346.655 89.8949 342.128 89.8949H316.583V12.9345C316.583 9.37753 315.289 6.46726 312.702 3.88036C310.115 1.29345 306.882 0 303.001 0H289.42V162.328H303.001C306.882 162.328 310.115 161.035 313.026 158.448C315.613 155.861 316.906 152.627 316.906 149.07L316.583 117.381H346.655C350.859 117.381 352.153 119.321 352.476 120.938L366.381 152.951C368.644 159.418 373.818 162.652 382.225 162.652H397.747L378.345 112.854Z" fill="#03031C"/>
<path d="M72.7666 77.6071C71.1498 59.1754 55.9518 44.9474 37.1967 44.624H7.77073H6.80064H0.656738V50.7679V52.7081V82.1342C1.30346 101.213 16.5015 116.411 35.5799 117.057H65.6527H66.6227H72.7666V110.914V77.6071C72.7666 77.9304 72.7666 77.9304 72.7666 77.6071Z" fill="#20EDBA"/>
<path d="M13.9146 238.319C13.9146 225.384 18.1183 215.036 26.2024 207.922C33.9631 200.808 44.634 197.251 57.8919 197.251C69.5329 197.251 81.8207 199.515 94.4319 204.042V207.922C94.4319 209.539 93.7852 211.156 92.4917 212.126C91.1983 213.42 89.9049 214.066 88.2881 214.066C76.9704 210.509 66.946 208.893 57.8919 208.893C48.5143 208.893 41.077 211.479 35.2565 216.653C29.4359 222.15 26.5258 229.264 26.5258 238.319V267.745C26.5258 277.122 29.4359 284.236 35.2565 289.41C41.077 294.584 48.5143 297.171 57.8919 297.171C66.946 297.171 76.9704 295.554 88.2881 291.997C89.9049 291.997 91.1983 292.644 92.4917 293.937C93.7852 295.23 94.4319 296.524 94.4319 298.141V302.021C81.8207 306.548 69.8563 308.812 57.8919 308.812C44.634 308.812 34.2865 305.255 26.2024 298.141C18.1183 290.703 13.9146 280.679 13.9146 267.745V238.319Z" fill="#8438FA"/>
<path d="M109.307 198.868H115.128C116.744 198.868 118.038 199.515 119.331 200.485C120.625 201.779 120.948 203.072 120.948 204.689V281.973C120.948 291.027 122.565 296.201 125.475 296.847C126.769 297.171 128.709 297.494 130.326 297.494C131.619 297.494 132.912 297.494 134.206 297.171C137.763 297.171 139.703 298.464 139.703 301.374V307.195C136.469 307.842 132.589 308.488 128.709 308.488C127.415 308.488 126.122 308.488 125.152 308.488C119.978 308.165 116.098 306.225 113.511 302.668C110.924 299.111 109.307 292.32 109.307 281.973V198.868Z" fill="#8438FA"/>
<path d="M221.837 268.391C221.837 295.554 209.226 309.135 184.327 309.135C159.105 309.135 146.817 295.554 146.817 268.391C146.817 241.229 159.105 227.648 184.327 227.648C209.226 227.648 221.837 241.229 221.837 268.391ZM184.327 238.642C174.626 238.642 167.512 241.552 163.309 247.373C160.075 252.223 158.135 259.014 158.135 268.391C158.135 277.769 159.752 284.559 163.309 289.41C167.512 295.23 174.303 298.141 184.327 298.141C194.351 298.141 201.142 295.23 205.346 289.41C208.579 284.559 210.196 277.769 210.196 268.391C210.196 259.014 208.579 252.223 205.346 247.373C201.142 241.552 194.028 238.642 184.327 238.642Z" fill="#8438FA"/>
<path d="M296.211 290.057C290.067 302.668 280.689 309.135 267.755 309.135C249 309.135 239.946 300.404 239.946 282.943V228.618H245.766C247.383 228.618 248.676 229.264 249.97 230.234C251.263 231.528 251.587 232.821 251.587 234.438V281.002C251.587 292.643 257.731 298.141 270.018 298.141C283.923 298.141 292.654 292.643 296.534 281.972V234.438C296.534 232.821 297.181 231.528 298.151 230.234C299.444 228.941 300.738 228.618 302.355 228.618H308.175V308.165H302.355C300.738 308.165 299.444 307.518 298.151 306.548C296.858 305.255 296.534 303.961 296.534 302.344V290.057H296.211Z" fill="#8438FA"/>
<path d="M389.016 290.057C382.872 302.668 373.495 309.135 360.56 309.135C337.278 309.135 325.637 295.554 325.637 268.391C325.637 241.229 338.248 227.648 363.147 227.648C371.878 227.648 380.609 229.264 389.016 232.498V204.689C389.016 203.072 389.663 201.779 390.633 200.485C391.926 199.192 393.22 198.868 394.836 198.868H400.657V308.488H394.836C393.22 308.488 391.926 307.842 390.633 306.872C389.339 305.901 389.016 304.285 389.016 302.668V290.057ZM389.016 243.492C379.962 240.259 371.231 238.642 363.147 238.642C353.769 238.642 346.655 241.552 342.452 247.049C338.895 251.9 336.955 259.014 336.955 268.391C336.955 278.092 338.571 285.206 342.128 289.733C346.332 295.23 352.799 298.141 362.5 298.141C376.081 298.141 384.812 292.32 389.016 280.356V243.492Z" fill="#8438FA"/>
</g>
<defs>
<clipPath id="clip0_2044_7897">
<rect width="400" height="310" fill="white" transform="translate(0.656738)"/>
</clipPath>
</defs>
</svg>
