<svg width="401" height="297" viewBox="0 0 401 297" fill="none" xmlns="http://www.w3.org/2000/svg">
<g clip-path="url(#clip0_2044_7924)">
<path d="M183.421 3.90244C180.82 1.30081 177.568 0 173.665 0H59.8438V13.6585C59.8438 17.2358 61.1446 20.4878 63.7462 23.0894C66.3479 25.6911 69.925 27.3171 73.8274 27.3171H110.251V163.577H123.584C127.486 163.577 130.738 162.276 133.34 159.675C135.942 157.073 137.568 153.821 137.568 150.244V26.9919H187.649V14.3089C187.649 10.7317 186.348 6.82927 183.421 3.90244Z" fill="#03031C"/>
<path d="M255.942 49.7563C252.039 49.7563 248.787 51.0571 246.185 53.6588C243.584 56.2604 241.958 59.5124 241.958 63.0897V117.398C237.08 130.732 222.446 137.236 206.836 137.236C193.828 137.236 187.649 131.382 187.649 119.025V63.4149C187.649 59.8376 186.348 56.5856 183.421 53.984C180.82 51.3823 177.568 50.0816 173.665 50.0816H160.007V121.951C160.007 149.594 174.316 163.577 203.584 163.577C217.893 163.577 233.828 158.699 241.633 148.618C240.982 157.399 240.007 161.951 235.129 168.455C229.6 175.61 218.868 178.537 207.486 178.537C196.755 178.537 186.348 176.26 174.966 172.033C173.015 171.707 171.389 171.382 169.763 171.382C163.584 171.382 160.007 174.634 160.007 180.813V191.87L160.982 192.52C173.99 200.325 189.275 204.228 207.486 204.228C245.535 204.228 268.95 183.415 268.95 142.764V49.7563H255.942Z" fill="#03031C"/>
<path d="M381.145 113.496C379.194 107.642 376.592 106.667 373.99 104.065C375.291 102.439 376.917 99.187 379.194 92.3577L396.429 50.0813H380.82C372.364 50.0813 366.836 53.6585 364.559 60.1626L352.852 87.1545C351.877 89.4309 349.275 90.4065 344.722 90.4065H319.031V13.0081C319.031 9.43089 317.73 6.50407 315.129 3.90244C312.527 1.30081 309.275 0 305.372 0H291.714V163.252H305.372C309.275 163.252 312.527 161.951 315.454 159.35C318.055 156.748 319.356 153.496 319.356 149.919L319.031 118.049H349.275C353.503 118.049 354.803 120 355.129 121.626L369.112 153.821C371.389 160.325 376.592 163.577 385.047 163.577H400.657L381.145 113.496Z" fill="#03031C"/>
<path d="M73.8275 78.0491C72.2015 59.5125 56.9169 45.2036 38.0551 44.8784H8.4616H7.48599H1.30713V51.0572V53.0085V82.6019C1.95754 101.789 17.2421 117.073 36.1039 117.724H66.3478H67.3234H73.5023V111.545L73.8275 78.0491C73.8275 78.3743 73.8275 78.3743 73.8275 78.0491Z" fill="#20EDBA"/>
<path d="M54.3152 225.041V230.894C54.3152 232.846 53.3396 233.821 51.7136 233.821C51.0632 233.821 50.0876 233.821 49.4372 233.496C40.9819 230.569 33.5022 228.943 26.9982 228.943C22.4453 228.943 18.5429 230.244 15.9413 232.52C13.3396 234.797 12.364 237.398 12.364 240.65C12.364 244.878 14.9656 247.805 20.1689 249.431C20.1689 249.431 25.3721 250.407 35.7787 252.358C42.6079 253.659 47.486 255.61 50.738 258.211C54.9656 261.789 56.9169 266.667 56.9169 273.496V274.146C56.9169 280.325 54.6404 285.203 50.0876 289.431C45.2095 293.984 38.3803 296.26 29.925 296.26C19.1933 296.26 10.0876 293.984 2.28276 289.431V283.577C2.28276 281.626 3.25837 280.65 4.88438 280.65C5.53479 280.65 6.1852 280.65 7.16081 280.976C15.6161 283.902 23.0957 285.529 29.925 285.529C34.4778 285.529 38.3803 284.228 41.3071 281.951C44.2339 279.675 45.5348 277.073 45.5348 273.821C45.5348 269.268 42.9331 266.016 37.7299 264.065C36.4291 263.415 31.2258 262.439 22.4453 260.813C15.2908 259.512 10.4128 257.886 7.16081 255.61C2.93316 252.358 0.656738 247.155 0.656738 240.65C0.656738 234.472 2.93316 229.268 7.16081 225.366C11.7136 220.488 18.5429 217.886 26.9982 217.886C37.7299 217.886 46.8356 220.163 54.3152 225.041Z" fill="#8438FA"/>
<path d="M132.039 261.789C132.039 284.878 121.307 296.586 100.169 296.586C78.7053 296.586 68.2988 284.878 68.2988 261.789C68.2988 238.699 79.0305 226.992 100.169 226.992C121.307 226.992 132.039 238.374 132.039 261.789ZM100.169 236.423C92.0387 236.423 85.8598 239.025 82.2826 243.903C79.3557 247.805 78.0549 253.984 78.0549 261.789C78.0549 269.594 79.3557 275.447 82.2826 279.675C85.8598 284.553 91.7135 287.155 100.169 287.155C108.624 287.155 114.478 284.553 118.055 279.675C120.982 275.447 122.283 269.594 122.283 261.789C122.283 253.984 120.982 248.13 118.055 243.903C114.478 238.699 108.299 236.423 100.169 236.423Z" fill="#8438FA"/>
<path d="M195.454 280.325C190.25 291.057 182.12 296.585 171.063 296.585C155.129 296.585 147.324 289.106 147.324 274.146V227.642H152.202C153.502 227.642 154.803 228.293 155.779 229.268C156.755 230.244 157.405 231.545 157.405 232.846V272.52C157.405 282.276 162.608 287.155 173.015 287.155C184.722 287.155 192.202 282.602 195.454 273.171V232.846C195.454 231.545 196.104 230.244 197.08 229.268C198.055 228.293 199.356 227.642 200.657 227.642H205.535V295.285H200.657C199.356 295.285 198.055 294.959 197.08 293.984C196.104 293.008 195.454 291.707 195.454 290.407V280.325Z" fill="#8438FA"/>
<path d="M223.096 227.642H227.974C229.275 227.642 230.576 228.293 231.551 229.268C232.527 230.244 233.177 231.545 233.177 232.846V243.252C238.381 232.521 245.21 226.992 253.99 226.992C258.218 226.992 262.446 227.317 266.348 228.293V233.171C266.348 235.447 264.722 236.748 261.795 236.748C259.194 236.423 255.942 236.098 252.364 236.098C243.259 236.098 237.08 240.976 233.503 251.057V290.407C233.503 291.708 232.852 293.008 231.877 293.984C230.901 294.96 229.6 295.285 228.299 295.285H223.421V227.642H223.096Z" fill="#8438FA"/>
<path d="M333.665 290.407C326.836 294.309 318.381 296.586 307.649 296.586C286.185 296.586 275.779 284.878 275.779 261.789C275.779 238.699 286.511 226.992 307.649 226.992C318.381 226.992 326.836 228.943 333.665 233.171V238.374C333.665 240 333.015 240.976 331.389 240.976C330.738 240.976 330.088 240.976 329.112 240.651C321.958 238.049 314.478 236.748 307.324 236.748C299.194 236.748 293.015 239.35 289.437 244.228C286.511 248.13 285.21 254.309 285.21 262.114C285.21 269.919 286.511 275.773 289.437 280C293.015 285.203 298.868 287.48 307.324 287.48C314.478 287.48 321.633 286.179 329.112 283.577C329.763 283.252 330.738 283.252 331.389 283.252C333.015 283.252 333.665 284.228 333.665 285.854V290.407Z" fill="#8438FA"/>
<path d="M342.12 261.789C342.12 238.699 352.202 226.992 372.039 226.992C382.771 226.992 390.576 230.244 395.129 237.073C398.706 242.602 400.657 250.732 400.657 261.789C400.657 264.716 399.031 266.342 395.779 266.342H352.527C352.852 280.325 360.007 287.155 374.316 287.155C381.47 287.155 388.624 285.854 396.104 283.252C396.755 282.927 397.73 282.927 398.381 282.927C400.007 282.927 400.657 283.903 400.657 285.529V290.732C393.828 294.634 385.372 296.911 374.641 296.911C352.852 296.26 342.12 284.878 342.12 261.789ZM390.576 256.586C389.925 249.756 388.624 244.878 386.673 241.951C383.746 238.049 378.868 236.098 372.039 236.098C364.885 236.098 360.007 238.049 356.755 241.951C354.153 244.878 352.852 249.756 352.202 256.586H390.576Z" fill="#8438FA"/>
<path d="M58.5431 193.821C58.5431 197.723 57.2423 200.976 54.9659 202.927C52.6895 205.203 49.4375 206.179 45.2098 206.179C41.3074 206.179 38.0553 205.203 35.4537 202.927C32.8521 200.65 31.8765 197.723 31.8765 193.821V185.366C31.8765 181.463 33.1773 178.211 35.4537 176.26C37.7301 173.984 40.9822 173.008 45.2098 173.008C49.1123 173.008 52.3643 173.984 54.9659 176.26C57.5675 178.537 58.5431 181.463 58.5431 185.366V193.821ZM39.3562 179.512C37.7301 180.813 37.0797 182.764 37.0797 185.366V193.821C37.0797 196.423 37.7301 198.049 39.3562 199.675C40.657 200.976 42.6082 201.626 45.2098 201.626C47.4862 201.626 49.4375 200.976 51.0635 199.675C52.6895 198.374 53.3399 196.423 53.3399 193.821V185.366C53.3399 183.089 52.6895 181.138 51.0635 179.512C49.7627 178.211 47.8114 177.561 45.2098 177.561C42.6082 177.561 40.657 178.211 39.3562 179.512Z" fill="#8438FA"/>
<path d="M76.429 181.463C83.5835 181.463 87.1607 185.691 87.1607 193.821C87.1607 202.276 83.2583 206.179 75.4534 206.179C72.8517 206.179 70.5753 205.853 68.9493 205.203V212.032C68.9493 212.683 68.6241 213.333 68.2989 213.658C67.9737 213.984 67.3233 214.309 66.3477 214.309H63.7461V181.788H66.3477C66.9981 181.788 67.6485 182.114 68.2989 182.439C68.9493 183.089 68.9493 183.414 68.9493 184.065C70.5753 182.114 72.8517 181.463 76.429 181.463ZM68.9493 200.325C71.2257 200.975 73.177 201.626 75.4534 201.626C77.7298 201.626 79.681 200.975 80.6566 199.675C81.6322 198.374 81.9574 196.423 81.9574 193.821C81.9574 191.219 81.6322 189.268 80.6566 187.967C79.681 186.667 78.055 186.016 75.4534 186.016C71.8761 186.016 69.5997 187.317 68.6241 189.919V200.325H68.9493Z" fill="#8438FA"/>
<path d="M90.7378 193.821C90.7378 185.366 94.3151 181.463 101.795 181.463C105.698 181.463 108.624 182.764 110.25 185.366C111.551 187.317 112.202 190.244 112.202 194.146C112.202 195.772 111.226 196.423 109.6 196.423H95.9411C95.9411 200 98.2175 201.951 102.446 201.951C104.722 201.951 106.998 201.626 109.275 200.65C109.6 200.65 109.925 200.65 110.25 200.65C111.226 200.65 111.876 201.301 111.876 202.276V204.553C109.275 206.179 106.023 206.829 102.12 206.829C94.6403 206.179 90.7378 201.951 90.7378 193.821ZM106.673 191.219C106.673 189.593 106.023 188.293 105.698 187.642C105.047 186.667 103.421 186.016 101.47 186.016C99.5183 186.016 97.8923 186.667 96.9167 187.642C96.2663 188.618 95.6159 189.919 95.6159 191.219H106.673Z" fill="#8438FA"/>
<path d="M137.568 205.854H134.966C134.316 205.854 133.665 205.528 133.015 205.203C132.69 204.878 132.364 204.228 132.364 203.577V190.244C132.364 187.317 131.064 186.016 128.137 186.016C124.559 186.016 122.608 187.642 121.307 190.569V203.577C121.307 204.228 120.982 204.878 120.657 205.203C120.007 205.854 119.681 205.854 118.706 205.854H116.104V181.463H118.706C119.356 181.463 120.007 181.789 120.657 182.114C120.982 182.439 121.307 183.089 121.307 183.74C122.933 181.789 125.21 181.138 128.462 181.138C134.316 181.138 137.242 184.065 137.242 189.593V205.854H137.568Z" fill="#8438FA"/>
</g>
<defs>
<clipPath id="clip0_2044_7924">
<rect width="400" height="297" fill="white" transform="translate(0.656738)"/>
</clipPath>
</defs>
</svg>
