<svg id="Layer_1" data-name="Layer 1" xmlns="http://www.w3.org/2000/svg" viewBox="0 0 126 98"><defs><style>.cls-1{fill:#e1e1e1;}</style></defs><title>2018-01-19 - Footer Update - Logos</title><g id="SA82R2"><path class="cls-1" d="M51.43,19.2c.4.06.8.12,1.19.2a14.14,14.14,0,0,1,4.3,1.89A86,86,0,0,0,71.45,28c1,.35,2.06.57,3.09.86.21.06.42.14.63.22v.13a3.07,3.07,0,0,1-.61.14q-2.62,0-5.24.06a1.24,1.24,0,0,1-.49-.15l-13-5.92a1.09,1.09,0,0,0-.49-.13l2.29,1.16C61.4,26.22,65.13,28.1,68.84,30a4.62,4.62,0,0,1,1.06.84c.27.26.2.47-.17.53a17.76,17.76,0,0,1-2.27.25c-1,0-2,0-3-.08a2.12,2.12,0,0,1-.74-.2l-7.8-3.53a.42.42,0,0,0-.28,0c.63.35,1.25.72,1.89,1,1.9,1,3.81,1.9,5.7,2.88a10.07,10.07,0,0,1,1.52,1,.71.71,0,0,1,.25.59.76.76,0,0,1-.54.36A13.4,13.4,0,0,1,61,33.59a9.62,9.62,0,0,1-4.16-1.86c-.7-.43-1.39-.87-2.14-1.25.09.08.17.16.27.23,1.19.86,2.4,1.69,3.56,2.58a3.34,3.34,0,0,1,.86,1.16c.23.47,0,.86-.57.9a4.19,4.19,0,0,1-1.17-.08A10.74,10.74,0,0,1,54.27,34a14.6,14.6,0,0,1-1.78-1.49l-.32-.28-.07.07c.51.54,1,1.09,1.54,1.61a4.16,4.16,0,0,1,1.11,1.92c.15.57-.1.91-.69.89a6.79,6.79,0,0,1-1.51-.26,4.29,4.29,0,0,1-2.6-2,1.26,1.26,0,0,0-.39-.42,3,3,0,0,0,.14.34c.24.44.48.89.75,1.31a1,1,0,0,1-.73,1.57,1.92,1.92,0,0,1-1.42-.41,12.56,12.56,0,0,1-1.23-1.2,5.3,5.3,0,0,0-.43-.52c.15.34.3.67.44,1a1.7,1.7,0,0,1,.13.56c0,.42-.24.67-.65.6a3.71,3.71,0,0,1-1.11-.37,4.81,4.81,0,0,1-1.94-2,.79.79,0,0,1-.1-.38c0-2,.1-4.09.13-6.13,0-.33.11-.42.43-.42s.79,0,1.18-.08a1.66,1.66,0,0,0,1.52-1.36,20.5,20.5,0,0,0,.41-2.5,5,5,0,0,1,1-2.73,3.57,3.57,0,0,1,2.74-1.16,9.25,9.25,0,0,1,4.59,1.08l3.24,1.61a.42.42,0,0,0,.3,0l-.57-.3c-1.39-.69-2.76-1.42-4.16-2.07A7.1,7.1,0,0,0,50,20a3.4,3.4,0,0,0-2.89,2.52,20.81,20.81,0,0,0-.39,2.13,17.15,17.15,0,0,1-.45,2,1.37,1.37,0,0,1-1.28,1l-1.35.11c-.2-.58-.14-.68.42-.71.23,0,.47,0,.7-.06a1.29,1.29,0,0,0,1.16-.89,7.35,7.35,0,0,0,.47-2.49,6.22,6.22,0,0,1,.62-2.3,3.69,3.69,0,0,1,3.09-2c.14,0,.28-.05.43-.08Z"/><path class="cls-1" d="M34.13,19.2c.29.06.57.12.86.19a3.52,3.52,0,0,1,2.59,2.55c.25.89.29,1.84.47,2.75a9.9,9.9,0,0,0,.47,1.58,1.1,1.1,0,0,0,1,.7l1.13.1v.69a14.79,14.79,0,0,1-1.82-.26,1.38,1.38,0,0,1-.66-.6,4.51,4.51,0,0,1-.59-2.07,13.64,13.64,0,0,0-.27-1.93,3.69,3.69,0,0,0-3.87-3,7.54,7.54,0,0,0-3.48.71c-1.32.63-2.62,1.31-3.93,2a.17.17,0,0,0-.09.14,2.62,2.62,0,0,0,.28-.1L29,21.23a9.34,9.34,0,0,1,4.77-1.06A3.32,3.32,0,0,1,37,22.76c.21.8.23,1.65.37,2.48a9.18,9.18,0,0,0,.36,1.46,1.72,1.72,0,0,0,1.67,1.23c.42,0,.83.06,1.29.1,0,.39.05.79.06,1.19q0,2.75.07,5.5a.5.5,0,0,1,0,.25,4.35,4.35,0,0,1-2.86,2.26.77.77,0,0,1-.65-.18,1,1,0,0,1-.1-.75c.11-.42.33-.8.44-1.23-.16.24-.31.5-.49.73a3.43,3.43,0,0,1-2,1.37,1.67,1.67,0,0,1-.69,0,1,1,0,0,1-.62-1.53c.34-.55.65-1.12,1-1.68l-.1-.06c-.2.28-.42.54-.61.83a4.69,4.69,0,0,1-3.26,1.88,2.21,2.21,0,0,1-.62,0c-.59,0-.87-.38-.66-.92a7.8,7.8,0,0,1,1-1.75,19.63,19.63,0,0,1,1.48-1.59.48.48,0,0,0,.13-.26c-.36.33-.74.64-1.08,1a6,6,0,0,1-2.34,1.44c-.86.29-1.73.54-2.61.75A1,1,0,0,1,25,35c-.25-.41,0-.79.26-1.11a3.7,3.7,0,0,1,.75-.75c1.21-.9,2.43-1.77,3.65-2.65a.42.42,0,0,0,.16-.21l-.33.19c-1.32.82-2.61,1.68-4,2.44a6.15,6.15,0,0,1-1.85.57,10.18,10.18,0,0,1-3.56.19,1.15,1.15,0,0,1-.77-.38c-.17-.33.18-.59.43-.77a12.51,12.51,0,0,1,1.43-.9c2.42-1.26,4.85-2.51,7.27-3.76a.26.26,0,0,0,.14-.17l-1.08.51c-2.36,1.06-4.7,2.14-7.08,3.16a4,4,0,0,1-1.55.23c-1.24,0-2.48-.08-3.72-.13a2.33,2.33,0,0,1-.58-.12c-.34-.1-.41-.29-.15-.53a5.07,5.07,0,0,1,1.1-.86c3.35-1.72,6.71-3.41,10.07-5.11,1.1-.55,2.19-1.11,3.26-1.73l-.31.13c-4.31,2-8.61,3.94-12.93,5.89a3.43,3.43,0,0,1-1.39.24c-1.55,0-3.1-.07-4.65-.12a1.78,1.78,0,0,1-.45-.14s0,0,0-.07c.21-.08.41-.17.62-.23.85-.23,1.73-.4,2.56-.69a85,85,0,0,0,15.31-7,13.89,13.89,0,0,1,4-1.74l1-.19Z"/><path class="cls-1" d="M41.21,76.14a3.08,3.08,0,0,1-.54-2.31A6.54,6.54,0,0,1,42,70.67c.38-.53.8-1,1.2-1.55l.07-.09a2.45,2.45,0,0,0-.15-3.76c-.95-1-2-1.89-3-2.81a10.65,10.65,0,0,1-2-2.46,2.71,2.71,0,0,1,.11-3.09,8.78,8.78,0,0,1,2.21-2.21c1.54-1.11,3.08-2.21,4.62-3.32a1.11,1.11,0,0,0,.16-1.93,5.76,5.76,0,0,0-2.06-1.34c-1.82-.71-3.66-1.38-5.48-2.08a7.42,7.42,0,0,1-3-2c-1.44-1.63-.72-3.34.42-4.45a3.64,3.64,0,0,0,.32-.43A3.08,3.08,0,0,1,36,38.4a4,4,0,0,1,2.85-.63,1.4,1.4,0,0,1,1.11.82c.06.13,0,.31,0,.46.15.84-.59,1-1.06,1.31a2.7,2.7,0,0,1-1.74.61A.74.74,0,0,0,36.55,42a2.36,2.36,0,0,0,.66.77,24.87,24.87,0,0,0,4.66,2.69c1.42.66,2.8,1.37,4.17,2.12a5.35,5.35,0,0,1,1.33,1.09,2.21,2.21,0,0,1,.26,2.64,5,5,0,0,1-1.8,1.76c-1.24.81-2.5,1.58-3.73,2.4a17.43,17.43,0,0,0-1.73,1.32,4,4,0,0,0-.77.94,1.57,1.57,0,0,0,0,1.84,21.84,21.84,0,0,0,1.64,2c.89,1,1.84,1.86,2.75,2.79a7.21,7.21,0,0,1,.57.68,2.87,2.87,0,0,1-.1,4,26.61,26.61,0,0,1-1.85,2A5.47,5.47,0,0,0,41,74,6.7,6.7,0,0,0,41,75.46,3.84,3.84,0,0,0,41.21,76.14ZM38,38.56a.48.48,0,0,0,.68.11.22.22,0,0,0,0-.2.48.48,0,0,0-.66,0A.47.47,0,0,0,38,38.56Z"/><path class="cls-1" d="M40.41,23.73a2.35,2.35,0,0,0,3.48,0c.27.39.16.68-.29.73-.24,0-.23.17-.24.33l-.08,3.51q-.12,5.46-.24,10.93c0,1.82-.09,3.64-.13,5.46,0,.12,0,.24,0,.4a1.94,1.94,0,0,0,.25-.07,20,20,0,0,0,3.67-2.19,2.91,2.91,0,0,0,.66-.68.7.7,0,0,0,0-.83.65.65,0,0,0-.72-.33.53.53,0,0,1-.25,0,5.39,5.39,0,0,1-2.26-1.27c-.18-.17-.12-.42-.17-.61a.85.85,0,0,1,.46-1,2.36,2.36,0,0,1,1.13-.37,4.1,4.1,0,0,1,2.17.5,1.7,1.7,0,0,1,.86,1,1,1,0,0,0,.28.37,4,4,0,0,1,1.17,2,2.35,2.35,0,0,1-.32,1.87A6.55,6.55,0,0,1,46.61,46c-.44.19-.89.37-1.34.51a.83.83,0,0,1-.55,0c-1.06-.49-2.11-1-3.17-1.5a.45.45,0,0,1-.31-.47c0-2.17-.06-4.33-.09-6.5Q41.07,32.59,41,27.2c0-.78,0-1.55,0-2.33,0-.24,0-.42-.34-.42S40.17,24.09,40.41,23.73ZM46,38.55c-.24-.22-.55-.27-.69-.1s0,.19,0,.21C45.58,38.79,45.82,38.84,46,38.55Z"/><path class="cls-1" d="M79.13,64.86H77.77V60l-.08,0L75.4,63.86,73.21,60h-.08v4.85h-1.4V57.38c.5,0,1,0,1.47,0,.1,0,.22.14.27.25.57,1,1.13,2,1.7,3l.25.42.19-.29c.6-1,1.21-2.06,1.8-3.09a.55.55,0,0,1,.59-.33c.37,0,.73,0,1.14,0Z"/><path class="cls-1" d="M103.94,64.85V57.38c.51,0,1,0,1.51,0,.1,0,.21.15.28.25l2.74,4.21.26.37c0-.23,0-.35,0-.48,0-1.33,0-2.66,0-4,0-.28.07-.38.37-.38,1.06,0,1.06,0,1.06,1.05v6.46c-.46,0-.88,0-1.29,0-.11,0-.24-.15-.31-.25q-1.49-2.29-3-4.59l-.25-.36v5.2Z"/><path class="cls-1" d="M66.63,57.27a3.87,3.87,0,0,1,3.95,3.91,4,4,0,1,1-3.95-3.91Zm0,6.38a2.52,2.52,0,0,0,2.54-2.53,2.56,2.56,0,0,0-2.53-2.52,2.59,2.59,0,0,0-2.53,2.53A2.55,2.55,0,0,0,66.59,63.65Z"/><path class="cls-1" d="M40.24,54.41c-1-.66-2-1.28-2.89-2a3.88,3.88,0,0,1-1-1.24A2,2,0,0,1,36.54,49,6.2,6.2,0,0,1,39,47a.44.44,0,0,1,.32,0l3.18,1.17a.4.4,0,0,1,.3.46c0,1.18-.06,2.36-.08,3.54a.76.76,0,0,1-.38.69C41.66,53.37,41,53.87,40.24,54.41Zm1.1-6.4a5.34,5.34,0,0,0-2.74,1.83.93.93,0,0,0,.22,1.34c.8.61,1.63,1.18,2.45,1.77a.1.1,0,0,0,.07,0Z"/><path class="cls-1" d="M57,50.25v3.29H55.53V46.13H57V49h3V46.14h1.44v7.41H60c0-.11,0-.24,0-.37,0-.86,0-1.72,0-2.59,0-.26-.08-.34-.34-.34C58.74,50.26,57.88,50.25,57,50.25Z"/><path class="cls-1" d="M86.64,53.57c-.5,0-.94,0-1.38,0a.38.38,0,0,1-.26-.18c-.18-.34-.34-.68-.49-1a.38.38,0,0,0-.41-.27c-1,0-2,0-3.06,0a.41.41,0,0,0-.44.29c-.12.29-.29.57-.4.87a.46.46,0,0,1-.55.34c-.37,0-.75,0-1.2,0l1.06-2.25c.77-1.62,1.54-3.24,2.29-4.87a.61.61,0,0,1,.6-.4.91.91,0,0,1,1,.65c1,2.18,2,4.34,3.06,6.5C86.54,53.31,86.57,53.41,86.64,53.57Zm-4.09-5.41-1.26,2.7h2.5Z"/><path class="cls-1" d="M94.94,64.88l1-2.22c.77-1.63,1.55-3.26,2.31-4.9a.61.61,0,0,1,.6-.4.9.9,0,0,1,1,.65c1,2.17,2,4.32,3,6.47l.17.39h-1.46a.28.28,0,0,1-.17-.12,1.06,1.06,0,0,1-.1-.2c-.19-.38-.29-.9-.6-1.11s-.81-.06-1.23-.06H97.52a.37.37,0,0,0-.42.26c-.06.18-.2.35-.24.54a.86.86,0,0,1-1.13.71A5.31,5.31,0,0,0,94.94,64.88Zm5.35-2.72L99,59.48l-1.26,2.69Z"/><path class="cls-1" d="M78.27,53.55l-.17,0c-.45,0-1,.14-1.34-.06s-.43-.74-.6-1.15a.43.43,0,0,0-.48-.3q-1.5,0-3,0a.44.44,0,0,0-.47.31c-.18.4-.29,1-.61,1.14a3.78,3.78,0,0,1-1.51,0c.08-.18.14-.33.21-.48,1-2.22,2.1-4.44,3.14-6.67a.57.57,0,0,1,.55-.36.92.92,0,0,1,1.07.66c1,2.17,2,4.32,3,6.47C78.18,53.3,78.22,53.41,78.27,53.55Zm-5.33-2.7h2.5L74.2,48.16Z"/><path class="cls-1" d="M62.36,58.75l-1.08.85c-1.38-1.26-2.77-1.35-3.89-.19a2.43,2.43,0,0,0,0,3.45c1.13,1.14,2.53,1,3.92-.27l1,.92A4,4,0,0,1,58,64.84a3.86,3.86,0,0,1-.08-7.38A4.07,4.07,0,0,1,62.36,58.75Z"/><path class="cls-1" d="M67.16,51.13v2.42H65.73V46.13l.35,0h2.36A2.47,2.47,0,0,1,71,48.59a2.51,2.51,0,0,1-2.48,2.54Zm0-4V50c.38,0,.74,0,1.09,0a1.43,1.43,0,0,0,1.23-1.28,1.35,1.35,0,0,0-.94-1.46A8.68,8.68,0,0,0,67.19,47.13Z"/><path class="cls-1" d="M80.66,57.46a24.88,24.88,0,0,1,3.27,0,2.4,2.4,0,0,1,1.94,2.79,2.51,2.51,0,0,1-2.44,2.16c-.43,0-.86,0-1.33,0v2.42H80.66Zm1.45,3.87c.36,0,.67,0,1,0a1.42,1.42,0,0,0,1.33-1.18,1.38,1.38,0,0,0-.77-1.53,3.25,3.25,0,0,0-1.56-.13c0,.86,0,1.67,0,2.48C82.1,61.08,82.11,61.18,82.12,61.33Z"/><path class="cls-1" d="M43.78,54.77a8.28,8.28,0,0,1,2.3,2.46,2.59,2.59,0,0,1,0,2.7,10.92,10.92,0,0,1-2.89,3.2c-.51-.55-1-1.11-1.54-1.67a.44.44,0,0,1-.08-.27c0-1.51-.06-3-.07-4.54a.62.62,0,0,1,.22-.45C42.35,55.72,43.05,55.26,43.78,54.77Zm-1.26,7.05a8.57,8.57,0,0,0,2.12-2.58,1.51,1.51,0,0,0,0-1.08,3.87,3.87,0,0,0-1.35-1.71c-.19-.16-.39-.3-.66-.49Z"/><path class="cls-1" d="M116.76,58.68h-2v6.19h-1.48v-.4c0-1.79,0-3.57,0-5.36,0-.35-.11-.44-.44-.42-.53,0-1.06,0-1.61,0V57.44h5.56Z"/><path class="cls-1" d="M86.8,57.43h1.44v.45c0,1.75,0,3.5,0,5.25,0,.29.09.38.38.37.94,0,1.87,0,2.81,0h.42v1.37h-5Z"/><path class="cls-1" d="M41.4,71c-.63-.67-1.29-1.27-1.83-2a2.85,2.85,0,0,1-.15-3.79c.44-.57.94-1.1,1.44-1.69.53.51,1,1,1.5,1.44a.45.45,0,0,1,.09.3c0,1.22-.08,2.44-.09,3.65a1.7,1.7,0,0,1-.42,1.32A5.63,5.63,0,0,0,41.4,71Zm.2-6.21-.14,0a10.51,10.51,0,0,0-1,1.27,2,2,0,0,0-.15,2.17c.4.63.88,1.21,1.32,1.81h0Z"/><path class="cls-1" d="M44.1,22.28a2,2,0,1,1-2-2A1.92,1.92,0,0,1,44.1,22.28Z"/><path class="cls-1" d="M64.26,53.55H62.84V46.13h1.41Z"/><path class="cls-1" d="M94.21,57.44v7.42H92.79V57.44Z"/><path class="cls-1" d="M42.66,75c.38-1.55.32-2.08-.37-2.93,0,.29,0,.51,0,.73,0,1.48-.05,3-.09,4.43a4,4,0,0,1-.14.7h-.11a3.94,3.94,0,0,1-.14-.69c0-1.38-.07-2.76-.07-4.13A1.52,1.52,0,0,1,42,72.4c.18-.3.41-.57.62-.87A2.81,2.81,0,0,1,42.66,75Z"/></g></svg>