<svg width="1000" height="1000" viewBox="0 0 1000 1000" fill="none" xmlns="http://www.w3.org/2000/svg">
<path d="M654.976 742.708C652.708 745.631 650.412 748.513 648.102 751.338C645.918 754.024 643.706 756.667 641.509 759.255C626.277 777.117 611.199 792.266 601.484 801.61C594.848 807.988 590.718 811.667 590.718 811.667C583.718 817.276 577.278 824.018 572.238 831.292C570.138 834.481 566.218 838.3 564.818 841.741C570.278 845.951 576.298 853.728 571.258 860.736C570.138 862.261 568.458 863.408 566.498 864.051C564.398 864.806 561.738 865.45 559.359 865.576H555.579C555.019 865.576 554.459 865.45 553.899 865.45C536.259 864.303 518.9 854.232 514.98 836.509C512.502 824.858 511.648 812.59 511.55 800.365C511.494 793.889 511.662 787.426 511.9 781.076C508.26 779.286 504.76 778.656 501.68 778.516H499.44C493.28 778.908 489.36 781.328 489.36 781.328C489.36 781.328 489.962 789.287 489.808 800.169C489.57 819.542 486.98 848.203 474.521 857.673C464.721 863.534 456.881 865.702 450.581 865.827H448.481C448.061 865.827 447.501 865.702 447.081 865.702C446.521 865.576 445.961 865.576 445.401 865.45C436.022 864.051 431.822 858.05 431.822 858.05C427.062 846.203 439.521 841.867 440.221 841.237C440.795 840.79 427.034 825.767 405.418 802.925C395.717 792.672 384.447 780.852 372.183 768.067C369.327 765.396 366.317 762.388 363.321 759.255C360.115 755.884 356.924 752.359 353.942 748.904C351.324 745.883 348.888 742.918 346.76 740.162L353.942 740.218L648.102 742.652L654.976 742.708Z" fill="#23E2C2"/>
<path d="M675.766 589.151H311.579V712.368H675.766V589.151Z" fill="#23E2C2"/>
<path d="M664.062 438.419H332.018V564.015H664.062V438.419Z" fill="white"/>
<path opacity="0.2" d="M654.976 742.708C652.708 745.631 650.412 748.513 648.102 751.338C645.918 754.024 643.706 756.667 641.509 759.255H363.321C360.115 755.884 356.924 752.359 353.942 748.904C351.324 745.883 348.888 742.918 346.76 740.162L353.942 740.218L648.102 742.652L654.976 742.708Z" fill="#03031C"/>
<path d="M498.04 651.83C473.261 662.027 456.461 643.031 456.461 643.031" stroke="#00CDB0" stroke-width="3.5" stroke-linecap="round" stroke-linejoin="round"/>
<path d="M741.214 573.708L736.16 526.346C732.8 488.999 722.441 452.169 699.901 420.305C674.646 384.496 647.836 359.095 623.645 341.191C587.638 314.558 542.377 300.5 495.996 300.99H495.982C452.037 301.465 409.408 315.006 374.927 339.82C349.896 357.836 321.84 383.881 295.465 421.256C272.926 453.12 262.566 489.964 259.206 527.311L256.266 601.418C256.266 602.565 256.126 603.712 256.126 604.859V604.985L743.734 602.887C742.894 594.228 742.054 584.661 741.214 573.708ZM436.372 552.867L380.247 551.901C377.783 551.859 375.347 551.314 373.093 550.293C367.647 547.845 362.789 545.355 358.603 540.361C353.228 534.011 349.182 525.66 346.074 517.114C346.06 517.1 346.06 517.086 346.06 517.072C343.89 511.155 342.196 505.154 340.824 499.657C337.884 488.187 331.024 472.381 344.184 464.688C355.524 458.114 373.723 458.394 386.183 458.394C398.642 458.394 407.742 460.072 416.142 462.73C430.072 466.968 439.045 477.501 444.855 490.258C450.945 503.672 453.563 519.478 454.781 532.948C454.795 532.99 454.795 533.046 454.795 533.088C455.747 543.844 447.165 553.048 436.372 552.867ZM639.017 540.361C635.069 545.355 630.253 547.845 624.723 550.307C622.441 551.314 619.991 551.859 617.499 551.901L562.844 552.853C551.981 553.034 543.301 543.928 543.959 533.088V532.948C545.191 519.338 547.767 503.322 553.899 489.838C559.597 477.277 568.402 466.912 582.038 462.73C590.438 460.072 599.118 458.394 611.717 458.394C624.317 458.394 642.237 458.114 653.156 464.688C666.036 472.381 659.456 488.187 656.516 499.657C655.102 505.308 653.338 511.519 651.098 517.604C648.06 525.968 644.126 534.123 639.017 540.361Z" fill="#23E2C2"/>
<path opacity="0.2" d="M444.855 490.257C439.045 477.501 430.072 466.968 416.142 462.73C407.742 460.072 398.922 458.394 386.183 458.394C373.443 458.394 355.523 458.114 344.184 464.688C331.024 472.381 337.884 488.187 340.824 499.657C342.196 505.154 343.89 511.155 346.06 517.072C342.504 509.029 339.942 500.343 338.024 492.663C335.084 481.193 328.224 465.387 341.384 457.694C352.724 451.12 370.923 451.4 383.383 451.4C395.842 451.4 404.942 453.078 413.342 455.736C429.75 460.715 439.269 474.465 444.855 490.257Z" fill="#03031C"/>
<path opacity="0.2" d="M659.316 492.663C657.356 500.511 654.724 509.421 651.098 517.604C653.338 511.519 655.102 505.308 656.516 499.657C659.456 488.187 666.036 472.381 653.156 464.688C642.236 458.114 624.177 458.394 611.717 458.394C599.257 458.394 590.438 460.072 582.038 462.73C568.402 466.912 559.596 477.277 553.898 489.838C559.4 474.228 568.738 460.674 584.838 455.736C593.237 453.078 601.917 451.4 614.517 451.4C627.117 451.4 645.036 451.12 655.956 457.694C668.836 465.387 662.256 481.193 659.316 492.663Z" fill="#03031C"/>
<path d="M433.222 504.273C431.962 502.595 425.242 494.202 410.962 491.544C396.542 488.887 382.683 491.544 374.563 493.223C366.443 494.901 368.823 503.714 368.823 503.714C368.823 503.714 370.783 512.386 376.243 526.933C381.563 541.48 396.682 546.376 413.342 545.117C430.142 543.858 442.181 545.355 442.601 537.004C442.741 521.058 434.341 505.952 433.222 504.273ZM421.322 537.284C421.322 537.284 408.582 538.543 405.782 533.508C402.842 528.472 401.162 523.436 401.162 523.436C401.162 523.436 398.166 515.645 406.902 516.023C417.962 516.443 423.142 514.065 428.742 528.052C432.62 537.508 421.322 537.284 421.322 537.284Z" fill="#EA26A9"/>
<path d="M621.797 493.083C613.677 491.405 599.958 488.747 585.818 491.405C571.678 494.062 564.958 502.595 563.698 504.133C562.438 505.812 554.459 520.919 554.319 536.725C554.249 545.887 566.498 543.719 583.298 544.838C599.818 546.096 614.657 541.061 619.977 526.654C625.297 512.106 627.117 503.434 627.117 503.434C627.117 503.434 629.917 494.901 621.797 493.083ZM595.058 523.157C595.058 523.157 593.378 528.192 590.438 533.228C587.498 538.263 575.038 537.004 575.038 537.004C575.038 537.004 564.02 537.046 567.618 527.633C573.078 513.785 578.398 516.163 589.178 515.603C598.138 515.324 595.058 523.157 595.058 523.157Z" fill="#EA26A9"/>
<g opacity="0.2">
<path d="M639.661 607.461L648.103 751.338C630.757 772.613 612.599 790.909 601.484 801.61L560.367 811.499L511.55 800.365C511.494 793.889 511.662 787.426 511.9 781.076C508.26 779.286 504.76 778.656 501.68 778.516H499.44C493.28 778.908 489.36 781.328 489.36 781.328C489.36 781.328 489.962 789.287 489.808 800.169L439.326 810.562L405.419 802.925C395.717 792.672 384.447 780.852 372.183 768.067C366.276 762.542 363.182 756.108 357.428 749.436L371.861 606.663L439.326 586.493L500.784 599.152L560.367 585.556L639.661 607.461Z" fill="#03031C"/>
</g>
<path d="M648.354 581.108L560.618 560.014L501.05 573.61L439.591 560.951L354.193 580.171V765.801L439.591 785.021L501.05 772.362L560.618 785.958L648.354 764.864V581.108Z" fill="white"/>
<path d="M626.767 596.914V749.044L552.218 766.431L551.91 766.501L501.582 755.367L501.54 755.353L501.064 755.241L485.706 758.318L460.633 763.34L448.635 765.717L448.537 765.703L375.781 749.813V596.158L448.537 580.254L448.635 580.24L501.064 590.703L501.54 590.605L501.582 590.591L551.91 579.471L552.218 579.541L619.459 595.207L626.767 596.914Z" fill="#FFC743"/>
<path d="M626.766 596.914V604.439L554.276 681.288L552.218 683.484L551.322 684.421L529.987 689.918L501.582 697.248V590.591L551.91 579.471L552.218 579.541L619.459 595.207L626.766 596.914Z" fill="#FFF500"/>
<path d="M501.582 590.591V695.359L501.54 695.303L501.064 694.758L485.706 695.359L460.633 702.871L448.635 703.794L448.537 703.822L375.781 711.305V596.158L448.537 580.254L448.635 580.24L501.064 590.703L501.54 590.605L501.582 590.591Z" fill="#335FFD"/>
<path d="M626.767 673.385V688.254L552.218 696.38L543.287 697.36L520.649 699.821L520.621 699.835L501.582 701.906H501.54L448.537 707.682L375.781 715.6V700.745L448.537 692.814L501.54 687.037H501.582L536.273 683.246L552.218 681.497L554.276 681.288L558.952 680.77L626.767 673.385Z" fill="white"/>
<path d="M626.767 596.914V608.999L558.952 680.77L543.287 697.36L501.582 741.505L485.706 758.318L460.633 763.34L501.582 719.992L520.621 699.835L520.649 699.821L536.273 683.246L619.459 595.207L626.767 596.914Z" fill="white"/>
<path opacity="0.12" d="M448.537 580.254V765.704L375.781 749.813V596.159L448.537 580.254Z" fill="#03031C"/>
<path opacity="0.12" d="M552.218 579.541V766.431L551.91 766.501L501.582 755.367L501.54 755.353V590.605L501.582 590.591L551.91 579.471L552.218 579.541Z" fill="#03031C"/>
<path opacity="0.2" d="M267.577 604.985C266.877 631.491 268.837 673.301 284.377 702.619L285.945 705.277C292.945 718.537 301.317 726.706 314.896 732.315C328.336 737.798 341.356 740.47 353.115 741.239L356.335 741.365C386.855 742.512 409.394 730.524 414.014 719.824C417.094 712.69 412.474 704.661 404.214 703.123C385.693 699.682 371.651 694.744 353.269 677.959C347.082 672.308 340.824 665.314 338.248 647.549" fill="#03031C"/>
<path opacity="0.2" d="M734.242 604.985C734.942 631.491 732.982 673.301 717.443 702.619L715.875 705.277C708.875 718.537 700.503 726.706 686.924 732.315C673.484 737.798 660.464 740.47 648.705 741.239L645.485 741.365C614.965 742.512 592.426 730.524 587.806 719.824C584.726 712.69 589.346 704.661 597.606 703.123C616.127 699.682 630.169 694.744 648.551 677.959C654.738 672.308 660.996 665.314 663.572 647.549" fill="#03031C"/>
<path d="M743.734 602.887C743.734 604.034 743.874 605.181 743.874 606.328V606.453C744.574 632.96 742.614 674.769 727.075 704.088V704.214C720.075 717.474 710.135 728.174 696.555 733.784C683.116 739.267 670.096 741.938 658.336 742.708C657.356 742.834 656.376 742.834 655.396 742.834H655.116C624.597 743.981 602.058 731.993 597.438 721.293C594.358 714.159 598.978 706.13 607.238 704.591C619.291 702.353 632.129 697.891 643.231 690.492C658.784 680.127 666.526 661.383 663.516 642.961L654.15 585.472" fill="#23E2C2"/>
<path d="M256.126 604.985C255.426 631.491 257.386 673.301 272.925 702.619L274.493 705.277C281.493 718.537 289.865 726.706 303.445 732.315C316.884 737.798 329.904 740.47 341.664 741.239L344.884 741.365C375.403 742.512 397.942 730.524 402.562 719.824C405.642 712.69 401.022 704.661 392.762 703.122C376.467 700.101 358.715 692.995 345.752 680.057C337.1 671.412 334.188 658.544 337.758 646.85L353.731 594.424" fill="#23E2C2"/>
<path d="M699.523 96C701.525 131.948 703.513 168.61 705.459 206.153C708.385 267.769 669.676 300.486 614.699 290.219C575.766 282.722 537.071 279.798 500.056 276.847C500.966 252.117 501.904 227.568 502.856 203.174C506.118 166.064 548.439 143.586 599.58 132.914C633.613 127.165 667.226 116.058 699.565 96H699.537L699.523 96Z" fill="#EA26A9"/>
<g opacity="0.12">
<path d="M699.523 96C701.525 131.948 703.513 168.61 705.459 206.153C708.385 267.769 669.676 300.486 614.699 290.219C575.766 282.722 537.071 279.798 500.056 276.847C499.174 275.812 548.845 275.183 599.356 257.39C649.866 242.955 699.747 193.229 699.523 96Z" fill="#03031C"/>
</g>
</svg>
