<svg width="69" height="54" viewBox="0 0 69 54" fill="none" xmlns="http://www.w3.org/2000/svg">
<path d="M31.2926 0.677824C30.8464 0.225941 30.2886 0 29.5634 0H10.0404V2.37238C10.0404 2.99372 10.2635 3.55858 10.7098 4.01046C11.156 4.46234 11.7696 4.74477 12.439 4.74477H18.6863V28.4121H20.9733C21.6427 28.4121 22.2005 28.1862 22.6467 27.7343C23.093 27.2824 23.3719 26.7176 23.3719 26.0962V4.68828H31.962V2.48536C31.962 1.86402 31.7389 1.18619 31.2926 0.677824Z" fill="#505071"/>
<path d="M43.6758 8.64221C43.0065 8.64221 42.4487 8.86815 42.0024 9.32004C41.5562 9.77192 41.2773 10.3368 41.2773 10.9581V20.3912C40.4406 22.7071 37.9305 23.8368 35.253 23.8368C33.0218 23.8368 31.962 22.82 31.962 20.6736V11.0146C31.962 10.3933 31.7389 9.8284 31.2369 9.37652C30.7906 8.92464 30.2328 8.6987 29.5635 8.6987H27.2765V21.182C27.2765 25.9832 29.7308 28.4121 34.751 28.4121C37.2053 28.4121 39.9386 27.5648 41.2773 25.8138C41.1657 27.3389 40.9984 28.1297 40.1617 29.2594C39.2134 30.502 37.3727 31.0104 35.4204 31.0104C33.5796 31.0104 31.7947 30.615 29.8424 29.8807C29.5077 29.8242 29.2288 29.7677 28.9499 29.7677C27.8901 29.7677 27.2765 30.3326 27.2765 31.4058V33.3263L27.4438 33.4393C29.675 34.7949 32.2967 35.4728 35.4204 35.4728C41.9467 35.4728 45.9628 31.8577 45.9628 24.797V8.64221H43.6758Z" fill="#505071"/>
<path d="M65.1512 19.7134C64.8165 18.6967 64.3703 18.5272 63.924 18.0753C64.1471 17.7929 64.426 17.228 64.8165 16.0418L67.7728 8.69874H65.0954C63.6451 8.69874 62.6969 9.32008 62.3064 10.4498L60.2983 15.1381C60.131 15.5335 59.6847 15.7029 58.9038 15.7029H54.4972V2.25941C54.4972 1.63808 54.2741 1.12971 53.8278 0.677824C53.3816 0.225941 52.8238 0 52.1544 0H49.8116V28.3556H52.1544C52.8238 28.3556 53.3816 28.1297 53.8836 27.6778C54.3298 27.2259 54.553 26.6611 54.553 26.0397L54.4972 20.5042H59.6847C60.4099 20.5042 60.633 20.8431 60.6888 21.1255L63.0873 26.7176C63.4778 27.8473 64.3703 28.4121 65.8205 28.4121H68.498L65.1512 19.7134Z" fill="#505071"/>
<path d="M12.439 13.5564C12.1601 10.3368 9.5384 7.85141 6.30315 7.79492H1.22716H1.05982H0V8.86814V9.20706V14.3472C0.11156 17.6799 2.73323 20.3347 6.02425 20.4476H11.2118H11.3791H12.439V19.3744V13.5564C12.439 13.6129 12.439 13.6129 12.439 13.5564Z" fill="#00D9BA"/>
<path d="M2.28699 41.6297C2.28699 39.3703 3.01213 37.5628 4.40663 36.3201C5.74535 35.0774 7.5861 34.4561 9.87308 34.4561C11.8812 34.4561 14.0008 34.8515 16.1762 35.6422V36.3201C16.1762 36.6025 16.0647 36.8849 15.8416 37.0544C15.6184 37.2803 15.3953 37.3933 15.1164 37.3933C13.1641 36.772 11.4349 36.4895 9.87308 36.4895C8.25546 36.4895 6.97252 36.9414 5.96847 37.8452C4.96443 38.8054 4.46241 40.0481 4.46241 41.6297V46.7699C4.46241 48.4079 4.96443 49.6506 5.96847 50.5544C6.97252 51.4582 8.25546 51.91 9.87308 51.91C11.4349 51.91 13.1641 51.6276 15.1164 51.0063C15.3953 51.0063 15.6184 51.1192 15.8416 51.3452C16.0647 51.5711 16.1762 51.7971 16.1762 52.0795V52.7573C14.0008 53.5481 11.9369 53.9435 9.87308 53.9435C7.5861 53.9435 5.80113 53.3222 4.40663 52.0795C3.01213 50.7803 2.28699 49.0293 2.28699 46.7699V41.6297Z" fill="#00D9BA"/>
<path d="M18.7421 34.7385H19.7461C20.025 34.7385 20.2481 34.8515 20.4713 35.021C20.6944 35.2469 20.7502 35.4728 20.7502 35.7553V49.2553C20.7502 50.8368 21.0291 51.7406 21.5311 51.8536C21.7542 51.9101 22.0889 51.9666 22.3678 51.9666C22.5909 51.9666 22.814 51.9666 23.0371 51.9101C23.6507 51.9101 23.9854 52.136 23.9854 52.6444V53.6611C23.4276 53.7741 22.7582 53.8871 22.0889 53.8871C21.8658 53.8871 21.6426 53.8871 21.4753 53.8871C20.5828 53.8306 19.9134 53.4917 19.4672 52.8703C19.021 52.249 18.7421 51.0628 18.7421 49.2553V34.7385Z" fill="#00D9BA"/>
<path d="M38.1536 46.8828C38.1536 51.6276 35.9782 53.9999 31.6831 53.9999C27.3323 53.9999 25.2126 51.6276 25.2126 46.8828C25.2126 42.138 27.3323 39.7656 31.6831 39.7656C35.9782 39.7656 38.1536 42.138 38.1536 46.8828ZM31.6831 41.6861C30.0097 41.6861 28.7826 42.1945 28.0574 43.2112C27.4996 44.0585 27.165 45.2447 27.165 46.8828C27.165 48.5209 27.4439 49.707 28.0574 50.5543C28.7826 51.5711 29.954 52.0794 31.6831 52.0794C33.4123 52.0794 34.5837 51.5711 35.3089 50.5543C35.8667 49.707 36.1456 48.5209 36.1456 46.8828C36.1456 45.2447 35.8667 44.0585 35.3089 43.2112C34.5837 42.1945 33.3565 41.6861 31.6831 41.6861Z" fill="#00D9BA"/>
<path d="M50.9831 50.6674C49.9233 52.8703 48.3056 54 46.0744 54C42.8392 54 41.2773 52.4749 41.2773 49.4247V39.9352H42.2814C42.5603 39.9352 42.7834 40.0482 43.0065 40.2176C43.2296 40.4435 43.2854 40.6695 43.2854 40.9519V49.0858C43.2854 51.1193 44.3453 52.0795 46.4649 52.0795C48.8634 52.0795 50.3695 51.1193 51.0389 49.2553V40.9519C51.0389 40.6695 51.1504 40.4435 51.3178 40.2176C51.5409 39.9917 51.764 39.9352 52.0429 39.9352H53.0469V53.8306H52.0429C51.764 53.8306 51.5409 53.7176 51.3178 53.5482C51.0946 53.3222 51.0389 53.0963 51.0389 52.8138V50.6674H50.9831Z" fill="#00D9BA"/>
<path d="M66.992 50.6674C65.9322 52.8703 64.3145 54 62.0833 54C58.0672 54 56.0591 51.6276 56.0591 46.8829C56.0591 42.1381 58.2345 39.7657 62.5296 39.7657C64.0356 39.7657 65.5417 40.0481 66.992 40.613V35.7553C66.992 35.4728 67.1035 35.2469 67.2709 35.021C67.494 34.795 67.7171 34.7385 67.996 34.7385H69.0001V53.8871H67.996C67.7171 53.8871 67.494 53.7741 67.2709 53.6046C67.0478 53.4352 66.992 53.1528 66.992 52.8703V50.6674ZM66.992 42.5335C65.4301 41.9687 63.9241 41.6862 62.5296 41.6862C60.912 41.6862 59.6848 42.1946 58.9596 43.1548C58.3461 44.0021 58.0114 45.2448 58.0114 46.8829C58.0114 48.5774 58.2903 49.8201 58.9039 50.6109C59.629 51.5712 60.7446 52.0795 62.418 52.0795C64.7608 52.0795 66.2668 51.0628 66.992 48.9728V42.5335Z" fill="#00D9BA"/>
</svg>
