<svg width="179" height="183" viewBox="0 0 179 183" fill="none" xmlns="http://www.w3.org/2000/svg">
<g clip-path="url(#clip0_119:769)">
<path d="M8.05603 135.742H1.228C0.906982 135.73 0.593394 135.84 0.349366 136.05C0.239687 136.14 0.151415 136.253 0.0909813 136.382C0.0305473 136.51 -0.000544443 136.651 7.21454e-06 136.793V161.14C7.21454e-06 161.303 0.0443231 161.464 0.12823 161.604C0.212138 161.744 0.332494 161.859 0.476394 161.936C0.798251 162.122 1.16335 162.221 1.535 162.221C1.90665 162.221 2.27175 162.122 2.59361 161.936C2.73393 161.858 2.84977 161.742 2.92827 161.601C3.00677 161.46 3.04483 161.301 3.03821 161.14V151.785H7.91841C9.9698 151.88 11.9825 151.203 13.5608 149.885C14.9723 148.611 15.678 146.625 15.678 143.928V143.599C15.678 140.895 14.9723 138.913 13.5608 137.653C12.0273 136.35 10.0642 135.669 8.05603 135.742ZM12.7033 144.077C12.8144 145.475 12.3691 146.861 11.4648 147.931C10.9964 148.377 10.442 148.722 9.83571 148.944C9.22947 149.167 8.58418 149.263 7.93957 149.226H3.08056V138.502H7.96073C8.60413 138.46 9.24941 138.551 9.85603 138.77C10.4627 138.989 11.0176 139.332 11.4859 139.776C12.3903 140.847 12.8355 142.232 12.7245 143.631L12.7033 144.077Z" fill="#FF6C37"/>
<path d="M28.4871 137.643C27.0791 138.906 26.3699 140.913 26.3699 143.631V154.546C26.3699 157.286 27.0686 159.271 28.4871 160.535C30.1182 161.78 32.1114 162.454 34.1612 162.454C36.211 162.454 38.2042 161.78 39.8353 160.535C41.2468 159.275 41.9526 157.279 41.9526 154.546V143.631C41.9526 140.913 41.2433 138.906 39.8353 137.643C38.2 136.407 36.2084 135.739 34.1612 135.739C32.114 135.739 30.1224 136.407 28.4871 137.643ZM38.9038 154.546C39.0085 155.947 38.5641 157.334 37.6652 158.411C37.1974 158.857 36.6428 159.201 36.0363 159.422C35.4297 159.644 34.7842 159.737 34.1401 159.696C30.9854 159.696 29.4081 157.979 29.4081 154.546V143.631C29.4081 140.212 30.9854 138.492 34.1401 138.492C34.784 138.453 35.429 138.547 36.0353 138.768C36.6416 138.989 37.1963 139.332 37.6652 139.777C38.5696 140.847 39.0149 142.233 38.9038 143.631V154.546Z" fill="#FF6C37"/>
<path d="M64.0562 147.952C62.8706 147.421 61.7062 146.943 60.5311 146.529C59.4431 146.171 58.4308 145.613 57.5458 144.884C57.1524 144.553 56.8406 144.136 56.6349 143.664C56.4292 143.192 56.3352 142.679 56.3602 142.165C56.3166 141.61 56.4188 141.054 56.6565 140.551C56.8943 140.048 57.2593 139.616 57.7152 139.299C58.7813 138.671 60.0053 138.365 61.2404 138.417C62.3957 138.4 63.5409 138.635 64.5961 139.107C65.124 139.361 65.6688 139.577 66.2264 139.755C66.4219 139.754 66.6134 139.7 66.7797 139.597C66.946 139.493 67.0806 139.346 67.1686 139.171C67.3812 138.856 67.5056 138.489 67.5285 138.109C67.5285 137.387 66.8404 136.793 65.4854 136.347C64.0984 135.909 62.652 135.691 61.1981 135.699C60.2634 135.692 59.3317 135.803 58.4245 136.028C57.5382 136.259 56.6896 136.616 55.905 137.09C55.0712 137.596 54.4019 138.333 53.9783 139.214C53.4773 140.244 53.2304 141.38 53.2585 142.526C53.1961 143.951 53.6261 145.354 54.4759 146.497C55.2653 147.496 56.2916 148.281 57.4611 148.78C58.668 149.29 59.8219 149.747 60.9863 150.182C62.1028 150.587 63.1154 151.236 63.9504 152.082C64.3602 152.513 64.6799 153.021 64.8908 153.577C65.1017 154.133 65.1994 154.726 65.1784 155.321C65.2195 155.946 65.1201 156.571 64.8874 157.152C64.6546 157.733 64.2946 158.254 63.834 158.676C62.7831 159.489 61.4745 159.892 60.15 159.812C59.2475 159.834 58.3492 159.683 57.5035 159.366C56.8652 159.141 56.2836 158.779 55.7991 158.305C55.4286 157.933 55.0793 157.593 54.7405 157.296C54.5263 157.052 54.2345 156.891 53.9148 156.839C53.7365 156.855 53.5643 156.912 53.4118 157.006C53.2593 157.1 53.1307 157.228 53.0362 157.381C52.7797 157.701 52.6347 158.096 52.6233 158.506C52.6233 159.388 53.3643 160.28 54.8887 161.182C56.5394 162.128 58.4196 162.594 60.3194 162.531C62.4011 162.635 64.447 161.958 66.057 160.63C66.8009 159.904 67.3763 159.022 67.7422 158.048C68.1081 157.073 68.2556 156.03 68.1742 154.992C68.2356 153.407 67.8067 151.842 66.9463 150.511C66.2215 149.42 65.2253 148.538 64.0562 147.952Z" fill="#FF6C37"/>
<path d="M93.0621 135.742H78.3475C78.1913 135.732 78.0354 135.764 77.8958 135.835C77.7562 135.906 77.638 136.013 77.5535 136.145C77.3585 136.418 77.2548 136.745 77.2571 137.08C77.2555 137.444 77.3747 137.799 77.5959 138.089C77.6787 138.222 77.7966 138.331 77.9366 138.402C78.0766 138.473 78.2334 138.504 78.3898 138.492H84.2439V161.14C84.2373 161.301 84.2754 161.461 84.3539 161.601C84.4324 161.742 84.5482 161.858 84.6886 161.936C85.0104 162.123 85.3755 162.221 85.7472 162.221C86.1188 162.221 86.4839 162.123 86.8058 161.936C86.9461 161.858 87.0619 161.742 87.1404 161.601C87.2189 161.461 87.257 161.301 87.2504 161.14V138.492H93.0621C93.2191 138.5 93.3753 138.465 93.5148 138.392C93.6543 138.32 93.772 138.211 93.8561 138.078C94.0491 137.782 94.1487 137.434 94.1419 137.08C94.1432 136.746 94.0435 136.421 93.8561 136.145C93.7715 136.013 93.6534 135.906 93.5138 135.835C93.3742 135.764 93.2183 135.732 93.0621 135.742Z" fill="#FF6C37"/>
<path d="M122.206 135.742C121.295 135.742 120.491 136.379 119.792 137.664L114.086 148.6L108.412 137.664C107.756 136.379 106.951 135.742 105.988 135.742C105.83 135.721 105.67 135.721 105.511 135.742C105.172 135.809 104.871 136.006 104.674 136.291C104.476 136.577 104.397 136.928 104.453 137.271V161.14C104.443 161.312 104.484 161.484 104.571 161.633C104.657 161.782 104.786 161.902 104.94 161.979C105.257 162.178 105.624 162.281 105.998 162.276C106.377 162.272 106.746 162.154 107.057 161.936C107.197 161.858 107.313 161.742 107.392 161.601C107.47 161.461 107.508 161.301 107.502 161.14V141.932L112.964 152.401C113.04 152.646 113.188 152.862 113.388 153.021C113.588 153.18 113.831 153.275 114.086 153.293C114.35 153.28 114.604 153.188 114.815 153.029C115.026 152.871 115.185 152.652 115.272 152.401L120.724 142.113V161.108C120.723 161.269 120.764 161.428 120.844 161.568C120.924 161.708 121.04 161.824 121.179 161.904C121.501 162.091 121.866 162.189 122.237 162.189C122.609 162.189 122.974 162.091 123.296 161.904C123.437 161.826 123.553 161.71 123.634 161.57C123.714 161.429 123.754 161.27 123.751 161.108V137.228C123.773 137.105 123.773 136.98 123.751 136.857C123.727 136.68 123.667 136.51 123.575 136.357C123.484 136.203 123.362 136.071 123.217 135.966C123.073 135.862 122.908 135.788 122.734 135.75C122.561 135.711 122.381 135.709 122.206 135.742Z" fill="#FF6C37"/>
<path d="M143.399 135.752C142.34 135.752 141.769 136.113 141.557 136.814L134.147 160.694C134.106 160.785 134.081 160.882 134.073 160.981C134.073 161.181 134.13 161.377 134.237 161.546C134.344 161.715 134.496 161.85 134.676 161.936C135.039 162.172 135.462 162.297 135.894 162.297C136.124 162.322 136.355 162.266 136.549 162.138C136.742 162.01 136.885 161.819 136.952 161.597L138.54 156.288H148.068L149.645 161.597C149.724 161.81 149.87 161.993 150.06 162.117C150.251 162.242 150.477 162.301 150.704 162.287C151.17 162.295 151.629 162.17 152.027 161.926C152.194 161.844 152.337 161.72 152.441 161.565C152.545 161.41 152.607 161.231 152.62 161.044C152.63 161.01 152.63 160.973 152.62 160.938C152.609 160.896 152.609 160.853 152.62 160.811L145.209 136.814C145.029 136.113 144.426 135.752 143.399 135.752ZM139.334 153.718L143.378 140.17L147.422 153.718H139.334Z" fill="#FF6C37"/>
<path d="M178.545 135.997C178.219 135.821 177.856 135.729 177.486 135.729C177.117 135.729 176.753 135.821 176.428 135.997C176.289 136.073 176.174 136.185 176.094 136.322C176.014 136.458 175.972 136.613 175.972 136.772V155.342L166.974 137.653C166.714 137.104 166.355 136.607 165.916 136.188C165.552 135.89 165.094 135.732 164.624 135.742C163.566 135.742 163.11 136.092 163.11 136.804V161.15C163.104 161.311 163.142 161.471 163.22 161.612C163.299 161.752 163.415 161.868 163.555 161.947C163.877 162.133 164.242 162.231 164.614 162.231C164.985 162.231 165.35 162.133 165.672 161.947C165.813 161.868 165.928 161.752 166.007 161.612C166.085 161.471 166.123 161.311 166.117 161.15V142.622L175.517 160.853C175.672 161.243 175.935 161.579 176.274 161.824C176.614 162.069 177.016 162.211 177.433 162.234C177.808 162.242 178.176 162.139 178.492 161.936C178.633 161.858 178.751 161.743 178.831 161.602C178.911 161.462 178.952 161.302 178.947 161.14V136.772C178.953 136.619 178.919 136.467 178.849 136.331C178.778 136.195 178.673 136.08 178.545 135.997Z" fill="#FF6C37"/>
<path d="M96.3651 3.06881C85.7854 1.69802 75.0381 3.50532 65.4827 8.26208C55.9273 13.0188 47.9931 20.5113 42.684 29.7917C37.3748 39.0721 34.9291 49.7234 35.6564 60.3981C36.3836 71.0729 40.2511 81.2915 46.7695 89.7613C53.288 98.231 62.1645 104.571 72.2762 107.98C82.3879 111.389 93.2804 111.713 103.576 108.912C113.871 106.11 123.107 100.309 130.115 92.2416C137.122 84.1744 141.587 74.2038 142.944 63.591C144.759 49.3716 140.873 35.0109 132.14 23.6631C123.406 12.3152 110.539 4.90819 96.3651 3.06881Z" fill="white"/>
<path d="M121.846 28.456C121.769 28.4943 121.7 28.5476 121.644 28.6129C121.587 28.6782 121.544 28.7542 121.518 28.8363C121.491 28.9184 121.481 29.005 121.488 29.0911C121.496 29.1771 121.52 29.2608 121.56 29.3373C121.726 29.6777 121.791 30.0585 121.747 30.4348C121.704 30.811 121.555 31.1671 121.316 31.4609C121.242 31.5568 121.196 31.6714 121.182 31.7921C121.169 31.9128 121.189 32.0348 121.241 32.1447C121.292 32.2546 121.373 32.3481 121.474 32.4148C121.575 32.4815 121.693 32.5188 121.814 32.5227C121.911 32.5216 122.007 32.4992 122.095 32.457C122.183 32.4149 122.26 32.3539 122.322 32.2785C122.727 31.789 122.98 31.1918 123.052 30.5601C123.123 29.9283 123.009 29.2894 122.724 28.7215C122.684 28.6459 122.63 28.579 122.564 28.5247C122.498 28.4703 122.422 28.4296 122.34 28.405C122.259 28.3803 122.173 28.3721 122.088 28.3808C122.003 28.3896 121.921 28.4152 121.846 28.456Z" fill="#F36C3D"/>
<path d="M96.6933 0.467364C85.6015 -0.959848 74.3368 0.94401 64.3238 5.93818C54.3108 10.9324 45.9992 18.7925 40.44 28.5247C34.8808 38.2569 32.3238 49.424 33.0923 60.6138C33.8608 71.8037 37.9202 82.5136 44.7573 91.3894C51.5944 100.265 60.902 106.908 71.5032 110.478C82.1043 114.048 93.5228 114.385 104.315 111.445C115.107 108.506 124.787 102.423 132.132 93.9658C139.478 85.5082 144.157 75.0559 145.58 63.9307C147.487 49.0127 143.408 33.9457 134.24 22.0441C125.073 10.1425 111.566 2.38113 96.6933 0.467364ZM108.338 35.8463C107.29 35.8652 106.29 36.2871 105.543 37.0249L84.5934 58.0802L80.1155 53.5889C100.758 32.9264 104.485 32.6928 108.338 35.8463ZM85.4192 58.8235L106.348 37.8319C106.895 37.2866 107.635 36.9805 108.407 36.9805C109.178 36.9805 109.918 37.2866 110.466 37.8319C110.747 38.1073 110.969 38.4382 111.116 38.8036C111.264 39.1691 111.334 39.5613 111.323 39.9554C111.313 40.3592 111.219 40.7564 111.048 41.1219C110.876 41.4874 110.631 41.8133 110.328 42.079L88.1927 61.5948L85.4192 58.8235ZM86.9753 62.0938L81.7881 63.2193C81.7264 63.2351 81.6613 63.2299 81.603 63.2043C81.5447 63.1788 81.4966 63.1345 81.4662 63.0785C81.4358 63.0224 81.4249 62.9578 81.4353 62.8948C81.4457 62.8319 81.4767 62.7742 81.5234 62.7309L84.5616 59.6729L86.9753 62.0938ZM73.7639 59.9702L79.2898 54.4277L83.429 58.5793L74.1026 60.5967C74.0239 60.6167 73.9406 60.6086 73.8672 60.5737C73.7938 60.5388 73.7348 60.4794 73.7004 60.4056C73.6731 60.3701 73.6531 60.3295 73.6416 60.2862C73.63 60.243 73.6271 60.1978 73.633 60.1534C73.6389 60.109 73.6535 60.0662 73.6759 60.0275C73.6984 59.9887 73.7283 59.9549 73.7639 59.9277V59.9702ZM56.5826 88.6386C56.5157 88.6335 56.4518 88.6086 56.3991 88.567C56.3463 88.5254 56.307 88.469 56.2863 88.405C56.2647 88.3396 56.2612 88.2695 56.2761 88.2022C56.291 88.1349 56.3238 88.0729 56.371 88.0228L60.8277 83.5526L66.5865 89.3288L56.5826 88.6386ZM68.0156 82.7032C67.8023 82.8115 67.6317 82.989 67.5318 83.2068C67.4318 83.4247 67.4083 83.6701 67.4651 83.903L68.4179 88.0016C68.4456 88.1268 68.4322 88.2578 68.3796 88.3748C68.327 88.4918 68.2381 88.5886 68.1261 88.6507C68.0142 88.7129 67.8851 88.737 67.7584 88.7195C67.6316 88.702 67.5139 88.6438 67.4228 88.5537L61.6428 82.7563L79.3639 64.9819L87.9386 63.1344L92.0566 67.2647C86.1284 72.3826 78.0513 77.5748 68.0156 82.6289V82.7032ZM92.8929 66.5003L88.9337 62.5292L111.059 42.9497C111.264 42.7701 111.452 42.5709 111.62 42.3551C110.932 48.7152 102.071 57.698 92.8929 66.4259V66.5003ZM110.127 35.9525C108.92 34.7508 108.096 33.216 107.76 31.5434C107.425 29.8707 107.593 28.1358 108.243 26.5592C108.893 24.9826 109.996 23.6357 111.412 22.6897C112.828 21.7437 114.492 21.2414 116.193 21.2466C118.207 21.2449 120.159 21.9512 121.708 23.2428L114.107 30.8028C114.001 30.9102 113.94 31.0548 113.938 31.2063C113.938 31.2799 113.953 31.3526 113.982 31.4202C114.012 31.4877 114.054 31.5486 114.107 31.5991L119.983 37.5027C118.377 38.3016 116.562 38.5746 114.794 38.2831C113.026 37.9916 111.393 37.1504 110.127 35.8782V35.9525ZM122.269 35.9525C121.883 36.349 121.457 36.7047 120.999 37.0143L115.293 31.2169L122.523 23.9648C124.019 25.6018 124.827 27.7549 124.777 29.9748C124.728 32.1947 123.826 34.3097 122.259 35.8782L122.269 35.9525Z" fill="#FF6C37"/>
</g>
<defs>
<clipPath id="clip0_119:769">
<rect width="179" height="183" fill="white"/>
</clipPath>
</defs>
</svg>
