<svg width="1128" height="792" viewBox="0 0 1128 792" fill="none" xmlns="http://www.w3.org/2000/svg">
<g filter="url(#filter0_bd_15_838)">
<rect x="69" y="71" width="233" height="233" rx="20" fill="white" fill-opacity="0.85" shape-rendering="crispEdges"/>
<rect x="69.5" y="71.5" width="232" height="232" rx="19.5" stroke="#E3CEFF" shape-rendering="crispEdges"/>
</g>
<path d="M221.611 199.954L230.34 170.568C231.31 167.367 228.885 164.118 225.539 164.118H185.049H144.509C141.163 164.118 138.739 167.367 139.709 170.568L148.437 199.954H185.194" stroke="#03031C" stroke-width="2.868" stroke-miterlimit="10" stroke-linecap="round" stroke-linejoin="round"/>
<path d="M142.23 193.795L137.575 202.572C136.217 205.142 138.06 208.197 140.969 208.197H185H229.031C231.94 208.197 233.783 205.142 232.425 202.572L227.77 193.795" stroke="#03031C" stroke-width="2.868" stroke-miterlimit="10" stroke-linecap="round" stroke-linejoin="round"/>
<path d="M185 145.012C193.704 145.012 200.76 136.263 200.76 125.47C200.76 114.677 193.704 105.928 185 105.928C176.296 105.928 169.24 114.677 169.24 125.47C169.24 136.263 176.296 145.012 185 145.012Z" stroke="#03031C" stroke-width="2.868" stroke-miterlimit="10" stroke-linecap="round" stroke-linejoin="round"/>
<path d="M196.25 139.145C196.25 139.145 207.403 145.207 211.767 148.698C212.786 149.522 213.659 150.541 214.386 151.656C215.695 153.741 216.277 156.214 216.277 158.639V164.118" stroke="#03031C" stroke-width="2.868" stroke-miterlimit="10" stroke-linecap="round" stroke-linejoin="round"/>
<path d="M173.75 139.145C173.75 139.145 162.597 145.207 158.232 148.698C157.214 149.522 156.341 150.541 155.614 151.656C154.305 153.741 153.674 156.214 153.674 158.639V164.118" stroke="#03031C" stroke-width="2.868" stroke-miterlimit="10" stroke-linecap="round" stroke-linejoin="round"/>
<path d="M166.807 241.184H162.918C162.847 240.681 162.702 240.234 162.483 239.843C162.264 239.446 161.983 239.109 161.64 238.831C161.296 238.553 160.9 238.34 160.45 238.192C160.006 238.044 159.524 237.97 159.003 237.97C158.062 237.97 157.242 238.204 156.544 238.671C155.845 239.133 155.304 239.808 154.919 240.695C154.534 241.577 154.342 242.648 154.342 243.909C154.342 245.205 154.534 246.294 154.919 247.176C155.31 248.058 155.854 248.724 156.553 249.174C157.251 249.623 158.059 249.848 158.976 249.848C159.491 249.848 159.968 249.78 160.406 249.644C160.85 249.508 161.243 249.31 161.586 249.049C161.93 248.783 162.214 248.46 162.439 248.082C162.67 247.703 162.829 247.271 162.918 246.786L166.807 246.803C166.706 247.638 166.454 248.443 166.052 249.218C165.655 249.987 165.12 250.677 164.445 251.287C163.776 251.89 162.977 252.37 162.048 252.725C161.125 253.074 160.08 253.249 158.914 253.249C157.293 253.249 155.842 252.882 154.564 252.148C153.292 251.414 152.285 250.351 151.546 248.961C150.812 247.57 150.445 245.886 150.445 243.909C150.445 241.926 150.818 240.24 151.563 238.849C152.309 237.458 153.321 236.398 154.6 235.67C155.878 234.937 157.316 234.57 158.914 234.57C159.968 234.57 160.944 234.718 161.844 235.013C162.749 235.309 163.551 235.741 164.25 236.31C164.948 236.872 165.516 237.561 165.954 238.378C166.398 239.195 166.682 240.13 166.807 241.184ZM173.274 234.818V253H169.492V234.818H173.274ZM176.304 253V239.364H180.086V253H176.304ZM178.204 237.606C177.641 237.606 177.159 237.419 176.756 237.047C176.36 236.668 176.162 236.215 176.162 235.688C176.162 235.167 176.36 234.721 176.756 234.348C177.159 233.969 177.641 233.779 178.204 233.779C178.766 233.779 179.245 233.969 179.642 234.348C180.044 234.721 180.245 235.167 180.245 235.688C180.245 236.215 180.044 236.668 179.642 237.047C179.245 237.419 178.766 237.606 178.204 237.606ZM189.33 253.266C187.927 253.266 186.72 252.982 185.708 252.414C184.701 251.84 183.926 251.029 183.382 249.982C182.837 248.928 182.565 247.682 182.565 246.244C182.565 244.841 182.837 243.61 183.382 242.551C183.926 241.491 184.692 240.666 185.681 240.074C186.675 239.482 187.841 239.186 189.179 239.186C190.078 239.186 190.916 239.331 191.691 239.621C192.472 239.905 193.153 240.334 193.733 240.908C194.319 241.482 194.775 242.205 195.1 243.075C195.426 243.939 195.589 244.951 195.589 246.111V247.15H184.074V244.806H192.029C192.029 244.261 191.91 243.779 191.673 243.359C191.437 242.938 191.108 242.61 190.688 242.373C190.274 242.131 189.791 242.009 189.241 242.009C188.667 242.009 188.158 242.142 187.714 242.409C187.276 242.669 186.933 243.021 186.684 243.465C186.436 243.903 186.308 244.391 186.302 244.93V247.158C186.302 247.833 186.427 248.416 186.675 248.907C186.93 249.399 187.288 249.777 187.749 250.044C188.211 250.31 188.759 250.443 189.392 250.443C189.812 250.443 190.197 250.384 190.546 250.266C190.895 250.147 191.194 249.97 191.443 249.733C191.691 249.496 191.881 249.206 192.011 248.863L195.509 249.094C195.331 249.934 194.967 250.668 194.417 251.295C193.872 251.917 193.168 252.402 192.304 252.751C191.446 253.095 190.454 253.266 189.33 253.266ZM201.839 245.116V253H198.057V239.364H201.661V241.77H201.821C202.123 240.976 202.629 240.349 203.339 239.887C204.049 239.42 204.91 239.186 205.922 239.186C206.869 239.186 207.695 239.393 208.399 239.808C209.104 240.222 209.651 240.814 210.042 241.583C210.432 242.347 210.628 243.258 210.628 244.317V253H206.846V244.992C206.852 244.158 206.639 243.507 206.206 243.039C205.774 242.566 205.18 242.329 204.422 242.329C203.913 242.329 203.463 242.438 203.073 242.657C202.688 242.876 202.386 243.196 202.167 243.616C201.954 244.03 201.844 244.531 201.839 245.116ZM220.862 239.364V242.205H212.65V239.364H220.862ZM214.514 236.097H218.296V248.81C218.296 249.159 218.349 249.431 218.456 249.626C218.562 249.816 218.71 249.949 218.9 250.026C219.095 250.103 219.32 250.141 219.574 250.141C219.752 250.141 219.929 250.127 220.107 250.097C220.284 250.061 220.421 250.035 220.515 250.017L221.11 252.831C220.921 252.891 220.654 252.959 220.311 253.036C219.968 253.118 219.551 253.169 219.059 253.186C218.148 253.222 217.349 253.101 216.662 252.822C215.982 252.544 215.452 252.112 215.073 251.526C214.694 250.94 214.508 250.201 214.514 249.307V236.097Z" fill="#03031C"/>
<g filter="url(#filter1_bd_15_838)">
<rect x="827" y="71" width="233" height="233" rx="20" fill="white" fill-opacity="0.85" shape-rendering="crispEdges"/>
<rect x="827.5" y="71.5" width="232" height="232" rx="19.5" stroke="#E3CEFF" shape-rendering="crispEdges"/>
</g>
<path d="M909.752 201.256L909.752 117.744" stroke="#03031C" stroke-width="2.86" stroke-linecap="round" stroke-linejoin="round"/>
<path d="M978.392 201.256L978.392 117.744" stroke="#03031C" stroke-width="2.86" stroke-linecap="round" stroke-linejoin="round"/>
<path d="M897.74 129.184L909.752 117.744L921.192 129.184" stroke="#03031C" stroke-width="2.86" stroke-linecap="round" stroke-linejoin="round"/>
<path d="M966.38 129.184L978.392 117.744L989.832 129.184" stroke="#03031C" stroke-width="2.86" stroke-linecap="round" stroke-linejoin="round"/>
<rect x="929.772" y="122.32" width="28.6" height="48.048" rx="1.144" fill="#EA26A9"/>
<path d="M929.772 175.516C929.772 174.884 930.284 174.372 930.916 174.372H957.228C957.86 174.372 958.372 174.884 958.372 175.516V181.236C958.372 181.868 957.86 182.38 957.228 182.38H930.916C930.284 182.38 929.772 181.868 929.772 181.236V175.516Z" fill="#EA26A9"/>
<rect x="929.772" y="186.384" width="28.6" height="6.864" rx="1.144" fill="#EA26A9"/>
<rect x="929.772" y="197.252" width="28.6" height="4.004" rx="1.144" fill="#EA26A9"/>
<path d="M896.484 234.818H900.328V246.626C900.328 247.951 900.012 249.112 899.378 250.106C898.751 251.1 897.872 251.875 896.742 252.432C895.611 252.982 894.294 253.257 892.791 253.257C891.282 253.257 889.962 252.982 888.831 252.432C887.701 251.875 886.822 251.1 886.195 250.106C885.567 249.112 885.254 247.951 885.254 246.626V234.818H889.098V246.297C889.098 246.99 889.249 247.605 889.55 248.144C889.858 248.682 890.29 249.106 890.847 249.413C891.403 249.721 892.051 249.875 892.791 249.875C893.537 249.875 894.185 249.721 894.735 249.413C895.291 249.106 895.721 248.682 896.022 248.144C896.33 247.605 896.484 246.99 896.484 246.297V234.818ZM903.42 258.114V239.364H907.149V241.654H907.317C907.483 241.287 907.723 240.914 908.036 240.536C908.356 240.151 908.77 239.831 909.279 239.577C909.794 239.316 910.433 239.186 911.197 239.186C912.191 239.186 913.109 239.446 913.949 239.967C914.789 240.482 915.461 241.261 915.964 242.302C916.467 243.338 916.719 244.637 916.719 246.2C916.719 247.721 916.473 249.005 915.982 250.053C915.497 251.094 914.834 251.884 913.993 252.423C913.159 252.956 912.224 253.222 911.188 253.222C910.454 253.222 909.83 253.101 909.315 252.858C908.806 252.615 908.389 252.31 908.063 251.944C907.737 251.571 907.489 251.195 907.317 250.816H907.202V258.114H903.42ZM907.122 246.182C907.122 246.993 907.234 247.7 907.459 248.304C907.684 248.907 908.01 249.378 908.436 249.715C908.862 250.047 909.38 250.212 909.989 250.212C910.605 250.212 911.126 250.044 911.552 249.706C911.978 249.363 912.301 248.89 912.52 248.286C912.745 247.676 912.857 246.975 912.857 246.182C912.857 245.395 912.748 244.702 912.529 244.104C912.31 243.507 911.987 243.039 911.561 242.702C911.135 242.364 910.611 242.196 909.989 242.196C909.374 242.196 908.853 242.358 908.427 242.684C908.007 243.009 907.684 243.471 907.459 244.069C907.234 244.667 907.122 245.371 907.122 246.182ZM930.586 243.252L927.124 243.465C927.065 243.169 926.937 242.903 926.742 242.666C926.547 242.424 926.289 242.231 925.97 242.089C925.656 241.941 925.28 241.867 924.842 241.867C924.256 241.867 923.762 241.991 923.36 242.24C922.957 242.483 922.756 242.808 922.756 243.217C922.756 243.542 922.886 243.817 923.146 244.042C923.407 244.267 923.854 244.448 924.487 244.584L926.955 245.081C928.281 245.353 929.269 245.791 929.92 246.395C930.571 246.999 930.897 247.792 930.897 248.774C930.897 249.668 930.633 250.452 930.107 251.127C929.586 251.801 928.87 252.328 927.958 252.707C927.053 253.08 926.008 253.266 924.824 253.266C923.019 253.266 921.581 252.891 920.51 252.139C919.444 251.381 918.82 250.351 918.636 249.049L922.356 248.854C922.469 249.404 922.741 249.825 923.173 250.115C923.605 250.399 924.159 250.541 924.833 250.541C925.496 250.541 926.029 250.414 926.431 250.159C926.84 249.899 927.047 249.564 927.053 249.156C927.047 248.813 926.902 248.531 926.618 248.312C926.334 248.088 925.896 247.916 925.304 247.798L922.942 247.327C921.611 247.061 920.619 246.599 919.968 245.942C919.323 245.285 919 244.448 919 243.43C919 242.554 919.237 241.799 919.711 241.166C920.19 240.533 920.862 240.044 921.726 239.701C922.596 239.358 923.614 239.186 924.78 239.186C926.502 239.186 927.858 239.55 928.846 240.278C929.84 241.006 930.42 241.997 930.586 243.252ZM940.531 239.364V242.205H932.319V239.364H940.531ZM934.184 236.097H937.966V248.81C937.966 249.159 938.019 249.431 938.126 249.626C938.232 249.816 938.38 249.949 938.569 250.026C938.765 250.103 938.99 250.141 939.244 250.141C939.422 250.141 939.599 250.127 939.777 250.097C939.954 250.061 940.091 250.035 940.185 250.017L940.78 252.831C940.591 252.891 940.324 252.959 939.981 253.036C939.638 253.118 939.221 253.169 938.729 253.186C937.818 253.222 937.019 253.101 936.332 252.822C935.652 252.544 935.122 252.112 934.743 251.526C934.364 250.94 934.178 250.201 934.184 249.307V236.097ZM942.995 253V239.364H946.662V241.743H946.804C947.052 240.897 947.47 240.257 948.055 239.825C948.641 239.387 949.316 239.168 950.08 239.168C950.269 239.168 950.473 239.18 950.692 239.204C950.911 239.228 951.104 239.26 951.269 239.301V242.657C951.092 242.604 950.846 242.557 950.532 242.515C950.219 242.474 949.932 242.453 949.671 242.453C949.115 242.453 948.618 242.574 948.18 242.817C947.748 243.054 947.404 243.385 947.15 243.811C946.901 244.238 946.777 244.729 946.777 245.285V253H942.995ZM958.804 253.266C957.402 253.266 956.194 252.982 955.182 252.414C954.176 251.84 953.401 251.029 952.856 249.982C952.312 248.928 952.039 247.682 952.039 246.244C952.039 244.841 952.312 243.61 952.856 242.551C953.401 241.491 954.167 240.666 955.155 240.074C956.15 239.482 957.316 239.186 958.653 239.186C959.553 239.186 960.39 239.331 961.166 239.621C961.947 239.905 962.628 240.334 963.208 240.908C963.794 241.482 964.249 242.205 964.575 243.075C964.9 243.939 965.063 244.951 965.063 246.111V247.15H953.549V244.806H961.503C961.503 244.261 961.385 243.779 961.148 243.359C960.911 242.938 960.583 242.61 960.163 242.373C959.748 242.131 959.266 242.009 958.716 242.009C958.141 242.009 957.632 242.142 957.189 242.409C956.751 242.669 956.407 243.021 956.159 243.465C955.91 243.903 955.783 244.391 955.777 244.93V247.158C955.777 247.833 955.901 248.416 956.15 248.907C956.404 249.399 956.762 249.777 957.224 250.044C957.686 250.31 958.233 250.443 958.866 250.443C959.287 250.443 959.671 250.384 960.021 250.266C960.37 250.147 960.669 249.97 960.917 249.733C961.166 249.496 961.355 249.206 961.485 248.863L964.983 249.094C964.806 249.934 964.442 250.668 963.891 251.295C963.347 251.917 962.642 252.402 961.778 252.751C960.92 253.095 959.929 253.266 958.804 253.266ZM971.42 253.257C970.55 253.257 969.774 253.107 969.094 252.805C968.413 252.497 967.874 252.044 967.478 251.446C967.087 250.843 966.892 250.091 966.892 249.191C966.892 248.434 967.031 247.798 967.309 247.283C967.587 246.768 967.966 246.353 968.446 246.04C968.925 245.726 969.47 245.489 970.079 245.33C970.695 245.17 971.34 245.057 972.015 244.992C972.808 244.909 973.447 244.832 973.932 244.761C974.417 244.684 974.77 244.572 974.989 244.424C975.208 244.276 975.317 244.057 975.317 243.767V243.714C975.317 243.152 975.14 242.717 974.784 242.409C974.435 242.101 973.938 241.947 973.293 241.947C972.612 241.947 972.071 242.098 971.668 242.4C971.266 242.696 970.999 243.069 970.869 243.518L967.371 243.234C967.549 242.406 967.898 241.69 968.419 241.086C968.94 240.476 969.612 240.009 970.434 239.683C971.263 239.352 972.222 239.186 973.311 239.186C974.068 239.186 974.793 239.275 975.486 239.452C976.184 239.63 976.803 239.905 977.341 240.278C977.886 240.651 978.315 241.13 978.629 241.716C978.942 242.296 979.099 242.992 979.099 243.803V253H975.512V251.109H975.406C975.187 251.535 974.894 251.911 974.527 252.237C974.16 252.556 973.719 252.808 973.204 252.991C972.689 253.169 972.094 253.257 971.42 253.257ZM972.503 250.647C973.059 250.647 973.55 250.538 973.977 250.319C974.403 250.094 974.737 249.792 974.98 249.413C975.222 249.035 975.344 248.605 975.344 248.126V246.679C975.225 246.756 975.063 246.827 974.855 246.892C974.654 246.951 974.426 247.007 974.172 247.061C973.917 247.108 973.663 247.152 973.408 247.194C973.154 247.229 972.923 247.262 972.716 247.292C972.272 247.357 971.884 247.46 971.553 247.602C971.221 247.744 970.964 247.937 970.78 248.179C970.597 248.416 970.505 248.712 970.505 249.067C970.505 249.582 970.692 249.976 971.065 250.248C971.443 250.514 971.923 250.647 972.503 250.647ZM982.033 253V239.364H985.638V241.77H985.797C986.081 240.971 986.555 240.34 987.218 239.879C987.881 239.417 988.674 239.186 989.597 239.186C990.532 239.186 991.328 239.42 991.985 239.887C992.642 240.349 993.08 240.976 993.299 241.77H993.441C993.719 240.988 994.222 240.364 994.95 239.896C995.684 239.423 996.551 239.186 997.552 239.186C998.824 239.186 999.857 239.592 1000.65 240.402C1001.45 241.207 1001.85 242.35 1001.85 243.829V253H998.075V244.575C998.075 243.817 997.874 243.249 997.472 242.87C997.069 242.492 996.566 242.302 995.962 242.302C995.276 242.302 994.74 242.521 994.356 242.959C993.971 243.391 993.779 243.962 993.779 244.673V253H990.112V244.495C990.112 243.826 989.92 243.294 989.535 242.897C989.156 242.5 988.656 242.302 988.035 242.302C987.614 242.302 987.236 242.409 986.898 242.622C986.567 242.829 986.303 243.122 986.108 243.501C985.913 243.874 985.815 244.312 985.815 244.815V253H982.033Z" fill="#03031C"/>
<g filter="url(#filter2_bd_15_838)">
<rect x="448" y="71" width="233" height="233" rx="20" fill="white" fill-opacity="0.85" shape-rendering="crispEdges"/>
<rect x="448.5" y="71.5" width="232" height="232" rx="19.5" stroke="#E3CEFF" shape-rendering="crispEdges"/>
</g>
<path d="M519.2 143.4H582.4M593.6 133.539L608.4 143.4H593.6" stroke="#8438FA" stroke-width="2.86" stroke-linecap="round" stroke-linejoin="round"/>
<path d="M608.4 154.2L593.4 154.2M539.612 161.004V167.8L519.2 154.2H582.4" stroke="#BB11FF" stroke-width="2.86" stroke-linecap="round" stroke-linejoin="round"/>
<path d="M539.6 138.6V115.4C539.6 110.982 543.182 107.4 547.6 107.4H580C584.418 107.4 588 110.982 588 115.4V182.2C588 186.618 584.418 190.2 580 190.2H547.6C543.182 190.2 539.6 186.618 539.6 182.2V173.2" stroke="#03031C" stroke-width="2.86" stroke-linecap="round"/>
<path d="M516.486 220.988V217.818H531.419V220.988H525.853V236H522.053V220.988H516.486ZM534.579 241.114C534.1 241.114 533.65 241.075 533.23 240.998C532.816 240.927 532.472 240.835 532.2 240.723L533.052 237.9C533.496 238.036 533.896 238.11 534.251 238.122C534.612 238.134 534.923 238.051 535.183 237.873C535.449 237.696 535.666 237.394 535.831 236.968L536.053 236.391L531.161 222.364H535.139L537.962 232.378H538.104L540.954 222.364H544.958L539.658 237.474C539.403 238.208 539.057 238.847 538.619 239.391C538.187 239.942 537.639 240.365 536.976 240.661C536.314 240.963 535.515 241.114 534.579 241.114ZM550.32 232.076L550.329 227.539H550.879L555.247 222.364H559.588L553.72 229.217H552.823L550.32 232.076ZM546.893 236V217.818H550.675V236H546.893ZM555.416 236L551.403 230.061L553.924 227.388L559.846 236H555.416ZM570.435 236H566.316L572.592 217.818H577.546L583.814 236H579.694L575.14 221.973H574.998L570.435 236ZM570.177 228.853H579.907V231.854H570.177V228.853ZM586.002 236V217.818H593.175C594.554 217.818 595.729 218.082 596.7 218.608C597.671 219.129 598.41 219.854 598.919 220.783C599.434 221.707 599.692 222.772 599.692 223.979C599.692 225.187 599.431 226.252 598.911 227.175C598.39 228.099 597.635 228.818 596.647 229.333C595.664 229.848 594.475 230.105 593.078 230.105H588.506V227.025H592.456C593.196 227.025 593.806 226.897 594.285 226.643C594.77 226.382 595.132 226.024 595.368 225.569C595.611 225.107 595.732 224.577 595.732 223.979C595.732 223.376 595.611 222.849 595.368 222.399C595.132 221.943 594.77 221.591 594.285 221.343C593.8 221.088 593.184 220.961 592.439 220.961H589.846V236H586.002ZM606.033 217.818V236H602.189V217.818H606.033ZM524.206 258.695C524.081 258.263 523.907 257.882 523.682 257.55C523.457 257.213 523.182 256.929 522.856 256.698C522.537 256.461 522.17 256.281 521.755 256.156C521.347 256.032 520.894 255.97 520.397 255.97C519.468 255.97 518.651 256.201 517.947 256.662C517.248 257.124 516.704 257.796 516.313 258.678C515.923 259.554 515.727 260.625 515.727 261.891C515.727 263.158 515.92 264.235 516.304 265.123C516.689 266.011 517.234 266.688 517.938 267.156C518.642 267.618 519.474 267.848 520.433 267.848C521.303 267.848 522.045 267.694 522.661 267.387C523.282 267.073 523.756 266.632 524.081 266.064C524.413 265.496 524.579 264.824 524.579 264.049L525.36 264.164H520.672V261.27H528.281V263.56C528.281 265.158 527.943 266.531 527.269 267.68C526.594 268.822 525.665 269.704 524.481 270.325C523.297 270.941 521.942 271.249 520.415 271.249C518.71 271.249 517.213 270.873 515.923 270.121C514.632 269.364 513.626 268.289 512.904 266.898C512.188 265.502 511.83 263.844 511.83 261.927C511.83 260.453 512.043 259.139 512.469 257.985C512.901 256.825 513.505 255.843 514.28 255.038C515.056 254.233 515.958 253.62 516.988 253.2C518.018 252.78 519.133 252.57 520.335 252.57C521.365 252.57 522.324 252.721 523.211 253.022C524.099 253.318 524.886 253.739 525.573 254.283C526.265 254.828 526.831 255.476 527.269 256.227C527.707 256.973 527.988 257.796 528.112 258.695H524.206ZM534.986 271.257C534.116 271.257 533.34 271.107 532.66 270.805C531.979 270.497 531.44 270.044 531.044 269.446C530.653 268.843 530.458 268.091 530.458 267.191C530.458 266.434 530.597 265.798 530.875 265.283C531.153 264.768 531.532 264.353 532.012 264.04C532.491 263.726 533.035 263.489 533.645 263.33C534.261 263.17 534.906 263.057 535.58 262.992C536.374 262.909 537.013 262.832 537.498 262.761C537.983 262.684 538.336 262.572 538.555 262.424C538.773 262.276 538.883 262.057 538.883 261.767V261.714C538.883 261.152 538.705 260.717 538.35 260.409C538.001 260.101 537.504 259.947 536.859 259.947C536.178 259.947 535.637 260.098 535.234 260.4C534.832 260.696 534.565 261.069 534.435 261.518L530.937 261.234C531.115 260.406 531.464 259.69 531.985 259.086C532.506 258.476 533.177 258.009 534 257.683C534.829 257.352 535.788 257.186 536.877 257.186C537.634 257.186 538.359 257.275 539.052 257.452C539.75 257.63 540.369 257.905 540.907 258.278C541.452 258.651 541.881 259.13 542.194 259.716C542.508 260.296 542.665 260.992 542.665 261.803V271H539.078V269.109H538.972C538.753 269.535 538.46 269.911 538.093 270.237C537.726 270.556 537.285 270.808 536.77 270.991C536.255 271.169 535.66 271.257 534.986 271.257ZM536.069 268.647C536.625 268.647 537.116 268.538 537.542 268.319C537.969 268.094 538.303 267.792 538.546 267.413C538.788 267.035 538.91 266.605 538.91 266.126V264.679C538.791 264.756 538.628 264.827 538.421 264.892C538.22 264.951 537.992 265.007 537.738 265.061C537.483 265.108 537.229 265.152 536.974 265.194C536.72 265.229 536.489 265.262 536.282 265.292C535.838 265.357 535.45 265.46 535.119 265.602C534.787 265.744 534.53 265.937 534.346 266.179C534.163 266.416 534.071 266.712 534.071 267.067C534.071 267.582 534.258 267.976 534.631 268.248C535.009 268.514 535.489 268.647 536.069 268.647ZM552.852 257.364V260.205H544.64V257.364H552.852ZM546.505 254.097H550.287V266.81C550.287 267.159 550.34 267.431 550.446 267.626C550.553 267.816 550.701 267.949 550.89 268.026C551.086 268.103 551.31 268.141 551.565 268.141C551.743 268.141 551.92 268.127 552.098 268.097C552.275 268.061 552.411 268.035 552.506 268.017L553.101 270.831C552.911 270.891 552.645 270.959 552.302 271.036C551.959 271.118 551.541 271.169 551.05 271.186C550.139 271.222 549.34 271.101 548.653 270.822C547.972 270.544 547.443 270.112 547.064 269.526C546.685 268.94 546.499 268.201 546.505 267.307V254.097ZM561.384 271.266C559.981 271.266 558.774 270.982 557.762 270.414C556.756 269.84 555.98 269.029 555.436 267.982C554.891 266.928 554.619 265.682 554.619 264.244C554.619 262.841 554.891 261.61 555.436 260.551C555.98 259.491 556.747 258.666 557.735 258.074C558.729 257.482 559.895 257.186 561.233 257.186C562.133 257.186 562.97 257.331 563.745 257.621C564.527 257.905 565.207 258.334 565.787 258.908C566.373 259.482 566.829 260.205 567.154 261.075C567.48 261.939 567.643 262.951 567.643 264.111V265.15H556.128V262.806H564.083C564.083 262.261 563.964 261.779 563.728 261.359C563.491 260.938 563.162 260.61 562.742 260.373C562.328 260.131 561.846 260.009 561.295 260.009C560.721 260.009 560.212 260.142 559.768 260.409C559.33 260.669 558.987 261.021 558.738 261.465C558.49 261.903 558.362 262.391 558.357 262.93V265.158C558.357 265.833 558.481 266.416 558.729 266.907C558.984 267.399 559.342 267.777 559.804 268.044C560.265 268.31 560.813 268.443 561.446 268.443C561.866 268.443 562.251 268.384 562.6 268.266C562.949 268.147 563.248 267.97 563.497 267.733C563.745 267.496 563.935 267.206 564.065 266.863L567.563 267.094C567.385 267.934 567.021 268.668 566.471 269.295C565.926 269.917 565.222 270.402 564.358 270.751C563.5 271.095 562.508 271.266 561.384 271.266ZM572.703 271L568.992 257.364H572.819L574.931 266.526H575.056L577.257 257.364H581.013L583.25 266.472H583.365L585.443 257.364H589.26L585.558 271H581.554L579.211 262.424H579.042L576.698 271H572.703ZM595.166 271.257C594.296 271.257 593.521 271.107 592.84 270.805C592.16 270.497 591.621 270.044 591.225 269.446C590.834 268.843 590.639 268.091 590.639 267.191C590.639 266.434 590.778 265.798 591.056 265.283C591.334 264.768 591.713 264.353 592.192 264.04C592.672 263.726 593.216 263.489 593.826 263.33C594.441 263.17 595.086 263.057 595.761 262.992C596.554 262.909 597.193 262.832 597.679 262.761C598.164 262.684 598.516 262.572 598.735 262.424C598.954 262.276 599.064 262.057 599.064 261.767V261.714C599.064 261.152 598.886 260.717 598.531 260.409C598.182 260.101 597.685 259.947 597.04 259.947C596.359 259.947 595.817 260.098 595.415 260.4C595.012 260.696 594.746 261.069 594.616 261.518L591.118 261.234C591.296 260.406 591.645 259.69 592.166 259.086C592.686 258.476 593.358 258.009 594.181 257.683C595.009 257.352 595.968 257.186 597.057 257.186C597.815 257.186 598.54 257.275 599.232 257.452C599.931 257.63 600.549 257.905 601.088 258.278C601.632 258.651 602.061 259.13 602.375 259.716C602.689 260.296 602.846 260.992 602.846 261.803V271H599.259V269.109H599.152C598.933 269.535 598.64 269.911 598.274 270.237C597.907 270.556 597.466 270.808 596.951 270.991C596.436 271.169 595.841 271.257 595.166 271.257ZM596.249 268.647C596.806 268.647 597.297 268.538 597.723 268.319C598.149 268.094 598.484 267.792 598.726 267.413C598.969 267.035 599.09 266.605 599.09 266.126V264.679C598.972 264.756 598.809 264.827 598.602 264.892C598.401 264.951 598.173 265.007 597.918 265.061C597.664 265.108 597.409 265.152 597.155 265.194C596.9 265.229 596.67 265.262 596.462 265.292C596.019 265.357 595.631 265.46 595.299 265.602C594.968 265.744 594.711 265.937 594.527 266.179C594.344 266.416 594.252 266.712 594.252 267.067C594.252 267.582 594.438 267.976 594.811 268.248C595.19 268.514 595.669 268.647 596.249 268.647ZM607.626 276.114C607.147 276.114 606.697 276.075 606.277 275.998C605.863 275.927 605.519 275.835 605.247 275.723L606.099 272.9C606.543 273.036 606.943 273.11 607.298 273.122C607.659 273.134 607.97 273.051 608.23 272.873C608.496 272.696 608.712 272.394 608.878 271.968L609.1 271.391L604.208 257.364H608.186L611.009 267.378H611.151L614.001 257.364H618.005L612.704 272.474C612.45 273.208 612.104 273.847 611.666 274.391C611.234 274.942 610.686 275.365 610.023 275.661C609.36 275.963 608.561 276.114 607.626 276.114Z" fill="#03031C"/>
<g filter="url(#filter3_bd_15_838)">
<rect x="397" y="450" width="334" height="271" rx="20" fill="white" fill-opacity="0.85" shape-rendering="crispEdges"/>
<rect x="397.5" y="450.5" width="333" height="270" rx="19.5" stroke="#E3CEFF" shape-rendering="crispEdges"/>
</g>
<path d="M588.142 503.029H539.75C536.583 503.035 533.547 504.292 531.305 506.525C529.063 508.758 527.799 511.786 527.787 514.947V548.178H600.213V515.076C600.201 511.885 598.926 508.827 596.665 506.57C594.403 504.313 591.34 503.041 588.142 503.029V503.029Z" stroke="#03031C" stroke-width="2.86" stroke-linecap="round" stroke-linejoin="round"/>
<path d="M600.213 548.135L579.094 569.255V579.88C579.088 580.296 579.001 580.707 578.836 581.089C578.671 581.471 578.433 581.817 578.134 582.107C577.835 582.397 577.482 582.626 577.095 582.78C576.707 582.934 576.293 583.01 575.876 583.005H552.123C551.289 582.999 550.49 582.666 549.9 582.077C549.31 581.488 548.976 580.691 548.971 579.858V569.234L527.852 548.157L600.213 548.135Z" stroke="#03031C" stroke-width="2.86" stroke-linecap="round" stroke-linejoin="round"/>
<path d="M578.878 482.36V502.963" stroke="#03031C" stroke-width="2.86" stroke-linecap="round" stroke-linejoin="round"/>
<path d="M549.122 482.36V502.963" stroke="#03031C" stroke-width="2.86" stroke-linecap="round" stroke-linejoin="round"/>
<path d="M510.465 632V613.818H517.638C519.017 613.818 520.192 614.082 521.163 614.608C522.133 615.129 522.873 615.854 523.382 616.783C523.897 617.707 524.155 618.772 524.155 619.979C524.155 621.187 523.894 622.252 523.373 623.175C522.853 624.099 522.098 624.818 521.11 625.333C520.127 625.848 518.937 626.105 517.541 626.105H512.969V623.025H516.919C517.659 623.025 518.269 622.897 518.748 622.643C519.233 622.382 519.594 622.024 519.831 621.569C520.074 621.107 520.195 620.577 520.195 619.979C520.195 619.376 520.074 618.849 519.831 618.399C519.594 617.943 519.233 617.591 518.748 617.343C518.263 617.088 517.647 616.961 516.901 616.961H514.309V632H510.465ZM530.362 613.818V632H526.581V613.818H530.362ZM542.137 626.194V618.364H545.919V632H542.288V629.523H542.146C541.838 630.322 541.326 630.964 540.61 631.45C539.9 631.935 539.032 632.178 538.009 632.178C537.097 632.178 536.295 631.97 535.603 631.556C534.91 631.142 534.369 630.553 533.978 629.789C533.593 629.026 533.398 628.112 533.392 627.046V618.364H537.174V626.371C537.18 627.176 537.396 627.813 537.822 628.28C538.248 628.748 538.819 628.982 539.536 628.982C539.991 628.982 540.417 628.878 540.814 628.671C541.21 628.458 541.53 628.144 541.773 627.73C542.021 627.315 542.143 626.804 542.137 626.194ZM555.087 637.398C553.862 637.398 552.812 637.229 551.936 636.892C551.066 636.56 550.373 636.107 549.858 635.533C549.343 634.959 549.009 634.314 548.855 633.598L552.353 633.127C552.459 633.4 552.628 633.654 552.859 633.891C553.09 634.128 553.395 634.317 553.773 634.459C554.158 634.607 554.626 634.681 555.176 634.681C555.999 634.681 556.676 634.48 557.209 634.077C557.748 633.681 558.017 633.015 558.017 632.08V629.585H557.857C557.691 629.964 557.443 630.322 557.111 630.659C556.78 630.997 556.354 631.272 555.833 631.485C555.312 631.698 554.691 631.805 553.969 631.805C552.945 631.805 552.013 631.568 551.172 631.094C550.338 630.615 549.672 629.884 549.175 628.902C548.683 627.913 548.438 626.664 548.438 625.155C548.438 623.61 548.689 622.32 549.192 621.284C549.695 620.249 550.364 619.473 551.199 618.958C552.039 618.444 552.96 618.186 553.96 618.186C554.723 618.186 555.362 618.316 555.877 618.577C556.392 618.831 556.807 619.151 557.12 619.536C557.44 619.914 557.686 620.287 557.857 620.654H557.999V618.364H561.755V632.133C561.755 633.293 561.47 634.264 560.902 635.045C560.334 635.826 559.547 636.412 558.541 636.803C557.541 637.199 556.389 637.398 555.087 637.398ZM555.167 628.964C555.777 628.964 556.292 628.813 556.712 628.511C557.138 628.203 557.464 627.765 557.688 627.197C557.919 626.623 558.035 625.936 558.035 625.137C558.035 624.338 557.922 623.646 557.697 623.06C557.472 622.468 557.147 622.009 556.721 621.684C556.295 621.358 555.777 621.196 555.167 621.196C554.546 621.196 554.022 621.364 553.596 621.702C553.17 622.033 552.847 622.495 552.628 623.087C552.409 623.679 552.3 624.362 552.3 625.137C552.3 625.925 552.409 626.605 552.628 627.179C552.853 627.748 553.176 628.188 553.596 628.502C554.022 628.81 554.546 628.964 555.167 628.964ZM564.764 632V618.364H568.546V632H564.764ZM566.664 616.606C566.102 616.606 565.619 616.419 565.217 616.047C564.82 615.668 564.622 615.215 564.622 614.688C564.622 614.167 564.82 613.721 565.217 613.348C565.619 612.969 566.102 612.779 566.664 612.779C567.226 612.779 567.706 612.969 568.102 613.348C568.505 613.721 568.706 614.167 568.706 614.688C568.706 615.215 568.505 615.668 568.102 616.047C567.706 616.419 567.226 616.606 566.664 616.606ZM575.358 624.116V632H571.576V618.364H575.18V620.77H575.34C575.642 619.976 576.148 619.349 576.858 618.887C577.568 618.42 578.429 618.186 579.441 618.186C580.388 618.186 581.214 618.393 581.918 618.808C582.623 619.222 583.17 619.814 583.561 620.583C583.951 621.347 584.147 622.258 584.147 623.317V632H580.365V623.992C580.371 623.158 580.158 622.507 579.725 622.039C579.293 621.566 578.699 621.329 577.941 621.329C577.432 621.329 576.982 621.438 576.592 621.657C576.207 621.876 575.905 622.196 575.686 622.616C575.473 623.03 575.364 623.531 575.358 624.116ZM587.962 624.711C587.962 622.51 588.255 620.482 588.841 618.63C589.433 616.777 590.335 615.061 591.549 613.481H595.162C594.7 614.067 594.271 614.783 593.875 615.629C593.478 616.47 593.132 617.393 592.836 618.399C592.54 619.405 592.309 620.447 592.143 621.524C591.978 622.595 591.895 623.658 591.895 624.711C591.895 626.114 592.037 627.531 592.321 628.964C592.611 630.39 593.002 631.716 593.493 632.941C593.99 634.166 594.546 635.169 595.162 635.951H591.549C590.335 634.37 589.433 632.654 588.841 630.801C588.255 628.949 587.962 626.919 587.962 624.711ZM608.703 622.252L605.24 622.465C605.181 622.169 605.054 621.903 604.859 621.666C604.663 621.424 604.406 621.231 604.086 621.089C603.773 620.941 603.397 620.867 602.959 620.867C602.373 620.867 601.879 620.991 601.476 621.24C601.074 621.483 600.873 621.808 600.873 622.217C600.873 622.542 601.003 622.817 601.263 623.042C601.524 623.267 601.97 623.448 602.604 623.584L605.072 624.081C606.397 624.353 607.386 624.791 608.037 625.395C608.688 625.999 609.013 626.792 609.013 627.774C609.013 628.668 608.75 629.452 608.223 630.127C607.703 630.801 606.986 631.328 606.075 631.707C605.169 632.08 604.125 632.266 602.941 632.266C601.136 632.266 599.698 631.891 598.626 631.139C597.561 630.381 596.937 629.351 596.753 628.049L600.473 627.854C600.585 628.404 600.858 628.825 601.29 629.115C601.722 629.399 602.275 629.541 602.95 629.541C603.613 629.541 604.145 629.414 604.548 629.159C604.956 628.899 605.163 628.564 605.169 628.156C605.163 627.813 605.018 627.531 604.734 627.312C604.45 627.088 604.012 626.916 603.42 626.798L601.059 626.327C599.727 626.061 598.736 625.599 598.085 624.942C597.44 624.285 597.117 623.448 597.117 622.43C597.117 621.554 597.354 620.799 597.827 620.166C598.307 619.533 598.979 619.044 599.843 618.701C600.713 618.358 601.731 618.186 602.897 618.186C604.619 618.186 605.974 618.55 606.963 619.278C607.957 620.006 608.537 620.997 608.703 622.252ZM617.769 624.711C617.769 626.919 617.473 628.949 616.881 630.801C616.296 632.654 615.396 634.37 614.183 635.951H610.569C611.031 635.365 611.46 634.649 611.857 633.802C612.253 632.956 612.599 632.033 612.895 631.032C613.191 630.026 613.422 628.984 613.588 627.907C613.754 626.83 613.836 625.765 613.836 624.711C613.836 623.309 613.691 621.894 613.401 620.468C613.117 619.035 612.727 617.71 612.229 616.49C611.738 615.265 611.185 614.262 610.569 613.481H614.183C615.396 615.061 616.296 616.777 616.881 618.63C617.473 620.482 617.769 622.51 617.769 624.711Z" fill="#03031C"/>
<path d="M439.431 664.864C439.431 663.074 439.663 661.429 440.127 659.928C440.596 658.422 441.264 657.037 442.13 655.773H443.608C443.267 656.241 442.947 656.819 442.649 657.506C442.355 658.187 442.097 658.938 441.875 659.757C441.652 660.571 441.477 661.414 441.349 662.286C441.226 663.157 441.164 664.016 441.164 664.864C441.164 665.991 441.273 667.134 441.491 668.294C441.709 669.454 442.002 670.531 442.372 671.526C442.741 672.52 443.153 673.33 443.608 673.955H442.13C441.264 672.69 440.596 671.308 440.127 669.807C439.663 668.301 439.431 666.653 439.431 664.864ZM450.42 671.227C449.369 671.227 448.463 670.995 447.7 670.531C446.943 670.062 446.358 669.409 445.946 668.571C445.539 667.728 445.335 666.748 445.335 665.631C445.335 664.513 445.539 663.528 445.946 662.676C446.358 661.819 446.931 661.152 447.665 660.673C448.403 660.19 449.265 659.949 450.25 659.949C450.818 659.949 451.379 660.044 451.933 660.233C452.487 660.422 452.991 660.73 453.446 661.156C453.901 661.578 454.263 662.136 454.533 662.832C454.803 663.528 454.938 664.385 454.938 665.403V666.114H446.528V664.665H453.233C453.233 664.049 453.11 663.5 452.864 663.017C452.622 662.534 452.277 662.153 451.827 661.874C451.382 661.594 450.856 661.455 450.25 661.455C449.582 661.455 449.005 661.62 448.517 661.952C448.034 662.278 447.662 662.705 447.402 663.23C447.142 663.756 447.011 664.319 447.011 664.92V665.886C447.011 666.71 447.153 667.409 447.438 667.982C447.726 668.55 448.126 668.983 448.638 669.281C449.149 669.575 449.743 669.722 450.42 669.722C450.861 669.722 451.259 669.66 451.614 669.537C451.973 669.409 452.284 669.22 452.544 668.969C452.804 668.713 453.006 668.396 453.148 668.017L454.767 668.472C454.597 669.021 454.31 669.504 453.908 669.92C453.505 670.332 453.008 670.654 452.416 670.886C451.824 671.114 451.159 671.227 450.42 671.227ZM458.709 671.114C458.358 671.114 458.058 670.988 457.807 670.737C457.556 670.486 457.43 670.186 457.43 669.835C457.43 669.485 457.556 669.184 457.807 668.933C458.058 668.682 458.358 668.557 458.709 668.557C459.059 668.557 459.36 668.682 459.611 668.933C459.862 669.184 459.987 669.485 459.987 669.835C459.987 670.067 459.928 670.28 459.81 670.474C459.696 670.669 459.542 670.825 459.348 670.943C459.159 671.057 458.946 671.114 458.709 671.114ZM467.398 675.318C466.589 675.318 465.893 675.214 465.31 675.006C464.728 674.802 464.243 674.532 463.854 674.196C463.471 673.865 463.165 673.509 462.938 673.131L464.273 672.193C464.425 672.392 464.617 672.619 464.849 672.875C465.081 673.135 465.398 673.36 465.8 673.55C466.208 673.744 466.74 673.841 467.398 673.841C468.279 673.841 469.006 673.628 469.579 673.202C470.152 672.776 470.438 672.108 470.438 671.199V668.983H470.296C470.173 669.182 469.998 669.428 469.771 669.722C469.548 670.01 469.226 670.268 468.805 670.496C468.388 670.718 467.825 670.83 467.114 670.83C466.234 670.83 465.443 670.621 464.742 670.205C464.046 669.788 463.495 669.182 463.087 668.386C462.685 667.591 462.484 666.625 462.484 665.489C462.484 664.371 462.68 663.398 463.073 662.57C463.466 661.736 464.013 661.092 464.714 660.638C465.415 660.179 466.224 659.949 467.143 659.949C467.853 659.949 468.416 660.067 468.833 660.304C469.254 660.536 469.576 660.801 469.799 661.099C470.026 661.393 470.201 661.634 470.325 661.824H470.495V660.091H472.114V671.312C472.114 672.25 471.901 673.012 471.475 673.599C471.054 674.191 470.486 674.625 469.771 674.899C469.06 675.179 468.27 675.318 467.398 675.318ZM467.342 669.324C468.014 669.324 468.582 669.17 469.046 668.862C469.51 668.554 469.863 668.112 470.104 667.534C470.346 666.956 470.467 666.265 470.467 665.46C470.467 664.674 470.348 663.981 470.112 663.379C469.875 662.778 469.524 662.307 469.06 661.966C468.596 661.625 468.023 661.455 467.342 661.455C466.631 661.455 466.04 661.634 465.566 661.994C465.097 662.354 464.745 662.837 464.508 663.443C464.276 664.049 464.16 664.722 464.16 665.46C464.16 666.218 464.278 666.888 464.515 667.47C464.756 668.048 465.112 668.502 465.58 668.834C466.054 669.161 466.641 669.324 467.342 669.324ZM476.404 671.114C476.054 671.114 475.753 670.988 475.502 670.737C475.251 670.486 475.126 670.186 475.126 669.835C475.126 669.485 475.251 669.184 475.502 668.933C475.753 668.682 476.054 668.557 476.404 668.557C476.754 668.557 477.055 668.682 477.306 668.933C477.557 669.184 477.683 669.485 477.683 669.835C477.683 670.067 477.623 670.28 477.505 670.474C477.391 670.669 477.237 670.825 477.043 670.943C476.854 671.057 476.641 671.114 476.404 671.114ZM487.139 671H485.293L490.634 656.455H492.452L497.793 671H495.946L491.599 658.756H491.486L487.139 671ZM487.821 665.318H495.264V666.881H487.821V665.318ZM506.706 666.54V660.091H508.382V671H506.706V669.153H506.592C506.337 669.707 505.939 670.179 505.399 670.567C504.859 670.95 504.178 671.142 503.354 671.142C502.672 671.142 502.066 670.993 501.536 670.695C501.005 670.392 500.589 669.937 500.286 669.331C499.982 668.72 499.831 667.951 499.831 667.023V660.091H501.507V666.909C501.507 667.705 501.73 668.339 502.175 668.812C502.625 669.286 503.197 669.523 503.893 669.523C504.31 669.523 504.734 669.416 505.165 669.203C505.6 668.99 505.965 668.663 506.259 668.223C506.557 667.783 506.706 667.222 506.706 666.54ZM516.196 660.091V661.511H510.543V660.091H516.196ZM512.191 657.477H513.867V667.875C513.867 668.348 513.935 668.704 514.073 668.94C514.215 669.172 514.395 669.329 514.613 669.409C514.835 669.485 515.069 669.523 515.316 669.523C515.5 669.523 515.652 669.513 515.77 669.494C515.889 669.471 515.983 669.452 516.054 669.438L516.395 670.943C516.282 670.986 516.123 671.028 515.919 671.071C515.716 671.118 515.458 671.142 515.145 671.142C514.672 671.142 514.208 671.04 513.753 670.837C513.303 670.633 512.929 670.323 512.631 669.906C512.337 669.49 512.191 668.964 512.191 668.33V657.477ZM520.628 664.438V671H518.952V656.455H520.628V661.795H520.77C521.026 661.232 521.409 660.785 521.921 660.453C522.437 660.117 523.123 659.949 523.98 659.949C524.724 659.949 525.375 660.098 525.934 660.396C526.492 660.69 526.926 661.142 527.233 661.753C527.546 662.359 527.702 663.131 527.702 664.068V671H526.026V664.182C526.026 663.315 525.801 662.645 525.351 662.172C524.906 661.694 524.288 661.455 523.498 661.455C522.948 661.455 522.456 661.571 522.02 661.803C521.589 662.035 521.248 662.373 520.998 662.818C520.751 663.263 520.628 663.803 520.628 664.438ZM533.268 669.011L533.155 669.778C533.074 670.318 532.951 670.896 532.786 671.511C532.625 672.127 532.456 672.707 532.281 673.251C532.106 673.796 531.962 674.229 531.848 674.551H530.57C530.631 674.248 530.712 673.848 530.811 673.351C530.911 672.854 531.01 672.297 531.109 671.682C531.214 671.071 531.299 670.446 531.365 669.807L531.45 669.011H533.268ZM541.431 658.017V656.455H552.34V658.017H547.766V671H546.005V658.017H541.431ZM553.698 671V660.091H555.317V661.739H555.431C555.63 661.199 555.99 660.761 556.511 660.425C557.031 660.089 557.619 659.92 558.272 659.92C558.395 659.92 558.549 659.923 558.734 659.928C558.918 659.932 559.058 659.939 559.153 659.949V661.653C559.096 661.639 558.966 661.618 558.762 661.589C558.563 661.556 558.353 661.54 558.13 661.54C557.6 661.54 557.126 661.651 556.71 661.874C556.298 662.091 555.971 662.394 555.729 662.783C555.493 663.166 555.374 663.604 555.374 664.097V671H553.698ZM564.35 671.256C563.658 671.256 563.031 671.125 562.468 670.865C561.904 670.6 561.457 670.219 561.125 669.722C560.794 669.22 560.628 668.614 560.628 667.903C560.628 667.278 560.751 666.772 560.998 666.384C561.244 665.991 561.573 665.683 561.985 665.46C562.397 665.238 562.851 665.072 563.348 664.963C563.85 664.849 564.355 664.759 564.861 664.693C565.524 664.608 566.061 664.544 566.473 664.501C566.89 664.454 567.193 664.376 567.382 664.267C567.577 664.158 567.674 663.969 567.674 663.699V663.642C567.674 662.941 567.482 662.397 567.098 662.009C566.72 661.62 566.144 661.426 565.373 661.426C564.572 661.426 563.945 661.601 563.49 661.952C563.036 662.302 562.716 662.676 562.532 663.074L560.941 662.506C561.225 661.843 561.604 661.327 562.077 660.957C562.555 660.583 563.076 660.323 563.64 660.176C564.208 660.025 564.766 659.949 565.316 659.949C565.666 659.949 566.069 659.991 566.523 660.077C566.982 660.157 567.425 660.325 567.851 660.581C568.282 660.837 568.64 661.223 568.924 661.739C569.208 662.255 569.35 662.946 569.35 663.812V671H567.674V669.523H567.588C567.475 669.759 567.285 670.013 567.02 670.283C566.755 670.553 566.402 670.782 565.962 670.972C565.522 671.161 564.984 671.256 564.35 671.256ZM564.605 669.75C565.268 669.75 565.827 669.62 566.282 669.359C566.741 669.099 567.087 668.763 567.319 668.351C567.555 667.939 567.674 667.506 567.674 667.051V665.517C567.603 665.602 567.446 665.68 567.205 665.751C566.968 665.818 566.694 665.877 566.381 665.929C566.073 665.976 565.773 666.019 565.479 666.057C565.19 666.09 564.956 666.118 564.776 666.142C564.34 666.199 563.933 666.291 563.554 666.419C563.18 666.542 562.877 666.729 562.645 666.98C562.418 667.226 562.304 667.562 562.304 667.989C562.304 668.571 562.52 669.011 562.951 669.31C563.386 669.603 563.938 669.75 564.605 669.75ZM574.085 664.438V671H572.409V660.091H574.028V661.795H574.17C574.426 661.241 574.814 660.796 575.335 660.46C575.856 660.119 576.528 659.949 577.352 659.949C578.091 659.949 578.737 660.1 579.291 660.403C579.845 660.702 580.276 661.156 580.584 661.767C580.892 662.373 581.045 663.14 581.045 664.068V671H579.369V664.182C579.369 663.325 579.147 662.657 578.702 662.179C578.257 661.696 577.646 661.455 576.869 661.455C576.334 661.455 575.856 661.571 575.435 661.803C575.018 662.035 574.689 662.373 574.447 662.818C574.206 663.263 574.085 663.803 574.085 664.438ZM591.836 662.534L590.33 662.96C590.235 662.709 590.096 662.465 589.911 662.229C589.731 661.987 589.485 661.788 589.172 661.632C588.86 661.476 588.46 661.398 587.972 661.398C587.304 661.398 586.748 661.552 586.303 661.859C585.863 662.162 585.642 662.548 585.642 663.017C585.642 663.434 585.794 663.763 586.097 664.004C586.4 664.246 586.873 664.447 587.517 664.608L589.137 665.006C590.112 665.242 590.839 665.605 591.317 666.092C591.795 666.575 592.034 667.198 592.034 667.96C592.034 668.585 591.855 669.144 591.495 669.636C591.14 670.129 590.642 670.517 590.003 670.801C589.364 671.085 588.621 671.227 587.773 671.227C586.66 671.227 585.739 670.986 585.01 670.503C584.281 670.02 583.819 669.314 583.625 668.386L585.216 667.989C585.368 668.576 585.654 669.016 586.076 669.31C586.502 669.603 587.058 669.75 587.745 669.75C588.526 669.75 589.146 669.584 589.605 669.253C590.069 668.917 590.301 668.514 590.301 668.045C590.301 667.667 590.169 667.349 589.904 667.094C589.639 666.833 589.231 666.639 588.682 666.511L586.864 666.085C585.865 665.848 585.131 665.482 584.662 664.984C584.198 664.482 583.966 663.855 583.966 663.102C583.966 662.487 584.139 661.942 584.485 661.469C584.835 660.995 585.311 660.624 585.912 660.354C586.518 660.084 587.205 659.949 587.972 659.949C589.051 659.949 589.899 660.186 590.515 660.659C591.135 661.133 591.575 661.758 591.836 662.534ZM599.415 660.091V661.511H593.535V660.091H599.415ZM595.296 671V658.585C595.296 657.96 595.443 657.439 595.737 657.023C596.03 656.606 596.411 656.294 596.88 656.085C597.349 655.877 597.844 655.773 598.364 655.773C598.776 655.773 599.112 655.806 599.373 655.872C599.633 655.938 599.827 656 599.955 656.057L599.472 657.506C599.387 657.477 599.269 657.442 599.117 657.399C598.97 657.357 598.776 657.335 598.535 657.335C597.981 657.335 597.581 657.475 597.335 657.754C597.093 658.034 596.972 658.443 596.972 658.983V671H595.296ZM605.747 671.227C604.762 671.227 603.898 670.993 603.155 670.524C602.416 670.055 601.839 669.4 601.422 668.557C601.01 667.714 600.804 666.729 600.804 665.602C600.804 664.466 601.01 663.474 601.422 662.626C601.839 661.779 602.416 661.121 603.155 660.652C603.898 660.183 604.762 659.949 605.747 659.949C606.732 659.949 607.594 660.183 608.332 660.652C609.076 661.121 609.653 661.779 610.065 662.626C610.482 663.474 610.69 664.466 610.69 665.602C610.69 666.729 610.482 667.714 610.065 668.557C609.653 669.4 609.076 670.055 608.332 670.524C607.594 670.993 606.732 671.227 605.747 671.227ZM605.747 669.722C606.495 669.722 607.111 669.53 607.594 669.146C608.077 668.763 608.434 668.259 608.666 667.634C608.898 667.009 609.014 666.331 609.014 665.602C609.014 664.873 608.898 664.194 608.666 663.564C608.434 662.934 608.077 662.425 607.594 662.037C607.111 661.649 606.495 661.455 605.747 661.455C604.999 661.455 604.384 661.649 603.901 662.037C603.418 662.425 603.06 662.934 602.828 663.564C602.596 664.194 602.48 664.873 602.48 665.602C602.48 666.331 602.596 667.009 602.828 667.634C603.06 668.259 603.418 668.763 603.901 669.146C604.384 669.53 604.999 669.722 605.747 669.722ZM613.249 671V660.091H614.868V661.739H614.982C615.181 661.199 615.541 660.761 616.061 660.425C616.582 660.089 617.169 659.92 617.823 659.92C617.946 659.92 618.1 659.923 618.284 659.928C618.469 659.932 618.609 659.939 618.703 659.949V661.653C618.647 661.639 618.516 661.618 618.313 661.589C618.114 661.556 617.903 661.54 617.681 661.54C617.15 661.54 616.677 661.651 616.26 661.874C615.848 662.091 615.522 662.394 615.28 662.783C615.043 663.166 614.925 663.604 614.925 664.097V671H613.249ZM620.69 671V660.091H622.31V661.795H622.452C622.679 661.213 623.046 660.761 623.553 660.439C624.059 660.112 624.668 659.949 625.378 659.949C626.098 659.949 626.696 660.112 627.175 660.439C627.658 660.761 628.034 661.213 628.304 661.795H628.418C628.697 661.232 629.116 660.785 629.675 660.453C630.233 660.117 630.903 659.949 631.685 659.949C632.66 659.949 633.458 660.254 634.078 660.865C634.698 661.471 635.009 662.416 635.009 663.699V671H633.332V663.699C633.332 662.894 633.112 662.319 632.672 661.973C632.232 661.627 631.713 661.455 631.116 661.455C630.349 661.455 629.755 661.687 629.334 662.151C628.912 662.61 628.702 663.192 628.702 663.898V671H626.997V663.528C626.997 662.908 626.796 662.409 626.393 662.03C625.991 661.646 625.473 661.455 624.838 661.455C624.402 661.455 623.995 661.571 623.616 661.803C623.242 662.035 622.939 662.357 622.707 662.768C622.48 663.176 622.366 663.647 622.366 664.182V671H620.69ZM641.283 671.256C640.592 671.256 639.965 671.125 639.401 670.865C638.838 670.6 638.39 670.219 638.059 669.722C637.728 669.22 637.562 668.614 637.562 667.903C637.562 667.278 637.685 666.772 637.931 666.384C638.177 665.991 638.506 665.683 638.918 665.46C639.33 665.238 639.785 665.072 640.282 664.963C640.784 664.849 641.288 664.759 641.795 664.693C642.458 664.608 642.995 664.544 643.407 664.501C643.824 664.454 644.127 664.376 644.316 664.267C644.51 664.158 644.607 663.969 644.607 663.699V663.642C644.607 662.941 644.415 662.397 644.032 662.009C643.653 661.62 643.078 661.426 642.306 661.426C641.506 661.426 640.879 661.601 640.424 661.952C639.969 662.302 639.65 662.676 639.465 663.074L637.874 662.506C638.158 661.843 638.537 661.327 639.011 660.957C639.489 660.583 640.01 660.323 640.573 660.176C641.141 660.025 641.7 659.949 642.249 659.949C642.6 659.949 643.002 659.991 643.457 660.077C643.916 660.157 644.359 660.325 644.785 660.581C645.216 660.837 645.573 661.223 645.857 661.739C646.141 662.255 646.283 662.946 646.283 663.812V671H644.607V669.523H644.522C644.408 669.759 644.219 670.013 643.954 670.283C643.689 670.553 643.336 670.782 642.896 670.972C642.455 671.161 641.918 671.256 641.283 671.256ZM641.539 669.75C642.202 669.75 642.761 669.62 643.215 669.359C643.674 669.099 644.02 668.763 644.252 668.351C644.489 667.939 644.607 667.506 644.607 667.051V665.517C644.536 665.602 644.38 665.68 644.138 665.751C643.902 665.818 643.627 665.877 643.315 665.929C643.007 665.976 642.706 666.019 642.413 666.057C642.124 666.09 641.889 666.118 641.71 666.142C641.274 666.199 640.867 666.291 640.488 666.419C640.114 666.542 639.811 666.729 639.579 666.98C639.352 667.226 639.238 667.562 639.238 667.989C639.238 668.571 639.453 669.011 639.884 669.31C640.32 669.603 640.871 669.75 641.539 669.75ZM654.087 660.091V661.511H648.434V660.091H654.087ZM650.081 657.477H651.757V667.875C651.757 668.348 651.826 668.704 651.963 668.94C652.105 669.172 652.285 669.329 652.503 669.409C652.726 669.485 652.96 669.523 653.206 669.523C653.391 669.523 653.542 669.513 653.661 669.494C653.779 669.471 653.874 669.452 653.945 669.438L654.286 670.943C654.172 670.986 654.014 671.028 653.81 671.071C653.606 671.118 653.348 671.142 653.036 671.142C652.562 671.142 652.098 671.04 651.644 670.837C651.194 670.633 650.82 670.323 650.522 669.906C650.228 669.49 650.081 668.964 650.081 668.33V657.477ZM656.608 671V660.091H658.284V671H656.608ZM657.461 658.273C657.134 658.273 656.852 658.161 656.615 657.939C656.383 657.716 656.267 657.449 656.267 657.136C656.267 656.824 656.383 656.556 656.615 656.334C656.852 656.111 657.134 656 657.461 656C657.787 656 658.067 656.111 658.299 656.334C658.535 656.556 658.654 656.824 658.654 657.136C658.654 657.449 658.535 657.716 658.299 657.939C658.067 658.161 657.787 658.273 657.461 658.273ZM665.786 671.227C664.801 671.227 663.937 670.993 663.194 670.524C662.455 670.055 661.878 669.4 661.461 668.557C661.049 667.714 660.843 666.729 660.843 665.602C660.843 664.466 661.049 663.474 661.461 662.626C661.878 661.779 662.455 661.121 663.194 660.652C663.937 660.183 664.801 659.949 665.786 659.949C666.771 659.949 667.633 660.183 668.371 660.652C669.115 661.121 669.692 661.779 670.104 662.626C670.521 663.474 670.729 664.466 670.729 665.602C670.729 666.729 670.521 667.714 670.104 668.557C669.692 669.4 669.115 670.055 668.371 670.524C667.633 670.993 666.771 671.227 665.786 671.227ZM665.786 669.722C666.534 669.722 667.15 669.53 667.633 669.146C668.116 668.763 668.473 668.259 668.705 667.634C668.937 667.009 669.053 666.331 669.053 665.602C669.053 664.873 668.937 664.194 668.705 663.564C668.473 662.934 668.116 662.425 667.633 662.037C667.15 661.649 666.534 661.455 665.786 661.455C665.038 661.455 664.423 661.649 663.94 662.037C663.457 662.425 663.099 662.934 662.867 663.564C662.635 664.194 662.519 664.873 662.519 665.602C662.519 666.331 662.635 667.009 662.867 667.634C663.099 668.259 663.457 668.763 663.94 669.146C664.423 669.53 665.038 669.722 665.786 669.722ZM674.964 664.438V671H673.288V660.091H674.907V661.795H675.049C675.305 661.241 675.693 660.796 676.214 660.46C676.735 660.119 677.407 659.949 678.231 659.949C678.97 659.949 679.616 660.1 680.17 660.403C680.724 660.702 681.155 661.156 681.463 661.767C681.77 662.373 681.924 663.14 681.924 664.068V671H680.248V664.182C680.248 663.325 680.026 662.657 679.581 662.179C679.136 661.696 678.525 661.455 677.748 661.455C677.213 661.455 676.735 661.571 676.314 661.803C675.897 662.035 675.568 662.373 675.326 662.818C675.085 663.263 674.964 663.803 674.964 664.438ZM688.567 664.864C688.567 666.653 688.332 668.301 687.864 669.807C687.4 671.308 686.734 672.69 685.868 673.955H684.391C684.732 673.486 685.049 672.908 685.342 672.222C685.641 671.54 685.901 670.792 686.124 669.977C686.346 669.158 686.519 668.313 686.642 667.442C686.77 666.566 686.834 665.706 686.834 664.864C686.834 663.737 686.725 662.593 686.507 661.433C686.289 660.273 685.996 659.196 685.626 658.202C685.257 657.207 684.845 656.398 684.391 655.773H685.868C686.734 657.037 687.4 658.422 687.864 659.928C688.332 661.429 688.567 663.074 688.567 664.864Z" fill="#03031C"/>
<path d="M312.293 187.293C311.902 187.683 311.902 188.317 312.293 188.707L318.657 195.071C319.047 195.462 319.681 195.462 320.071 195.071C320.462 194.681 320.462 194.047 320.071 193.657L314.414 188L320.071 182.343C320.462 181.953 320.462 181.319 320.071 180.929C319.681 180.538 319.047 180.538 318.657 180.929L312.293 187.293ZM437.707 188.707C438.098 188.317 438.098 187.683 437.707 187.293L431.343 180.929C430.953 180.538 430.319 180.538 429.929 180.929C429.538 181.319 429.538 181.953 429.929 182.343L435.586 188L429.929 193.657C429.538 194.047 429.538 194.681 429.929 195.071C430.319 195.462 430.953 195.462 431.343 195.071L437.707 188.707ZM313 189H437V187H313V189Z" fill="#03031C"/>
<path d="M563.293 439.707C563.683 440.098 564.317 440.098 564.707 439.707L571.071 433.343C571.462 432.953 571.462 432.319 571.071 431.929C570.681 431.538 570.047 431.538 569.657 431.929L564 437.586L558.343 431.929C557.953 431.538 557.319 431.538 556.929 431.929C556.538 432.319 556.538 432.953 556.929 433.343L563.293 439.707ZM564.707 314.293C564.317 313.902 563.683 313.902 563.293 314.293L556.929 320.657C556.538 321.047 556.538 321.681 556.929 322.071C557.319 322.462 557.953 322.462 558.343 322.071L564 316.414L569.657 322.071C570.047 322.462 570.681 322.462 571.071 322.071C571.462 321.681 571.462 321.047 571.071 320.657L564.707 314.293ZM565 439V315H563V439H565Z" fill="#03031C"/>
<path d="M691.293 187.293C690.902 187.683 690.902 188.317 691.293 188.707L697.657 195.071C698.047 195.462 698.681 195.462 699.071 195.071C699.462 194.681 699.462 194.047 699.071 193.657L693.414 188L699.071 182.343C699.462 181.953 699.462 181.319 699.071 180.929C698.681 180.538 698.047 180.538 697.657 180.929L691.293 187.293ZM816.707 188.707C817.098 188.317 817.098 187.683 816.707 187.293L810.343 180.929C809.953 180.538 809.319 180.538 808.929 180.929C808.538 181.319 808.538 181.953 808.929 182.343L814.586 188L808.929 193.657C808.538 194.047 808.538 194.681 808.929 195.071C809.319 195.462 809.953 195.462 810.343 195.071L816.707 188.707ZM692 189H816V187H692V189Z" fill="#03031C"/>
<defs>
<filter id="filter0_bd_15_838" x="44" y="50" width="283" height="283" filterUnits="userSpaceOnUse" color-interpolation-filters="sRGB">
<feFlood flood-opacity="0" result="BackgroundImageFix"/>
<feGaussianBlur in="BackgroundImageFix" stdDeviation="5"/>
<feComposite in2="SourceAlpha" operator="in" result="effect1_backgroundBlur_15_838"/>
<feColorMatrix in="SourceAlpha" type="matrix" values="0 0 0 0 0 0 0 0 0 0 0 0 0 0 0 0 0 0 127 0" result="hardAlpha"/>
<feOffset dy="4"/>
<feGaussianBlur stdDeviation="12.5"/>
<feComposite in2="hardAlpha" operator="out"/>
<feColorMatrix type="matrix" values="0 0 0 0 0.356863 0 0 0 0 0.309804 0 0 0 0 0.403922 0 0 0 0.25 0"/>
<feBlend mode="normal" in2="effect1_backgroundBlur_15_838" result="effect2_dropShadow_15_838"/>
<feBlend mode="normal" in="SourceGraphic" in2="effect2_dropShadow_15_838" result="shape"/>
</filter>
<filter id="filter1_bd_15_838" x="802" y="50" width="283" height="283" filterUnits="userSpaceOnUse" color-interpolation-filters="sRGB">
<feFlood flood-opacity="0" result="BackgroundImageFix"/>
<feGaussianBlur in="BackgroundImageFix" stdDeviation="5"/>
<feComposite in2="SourceAlpha" operator="in" result="effect1_backgroundBlur_15_838"/>
<feColorMatrix in="SourceAlpha" type="matrix" values="0 0 0 0 0 0 0 0 0 0 0 0 0 0 0 0 0 0 127 0" result="hardAlpha"/>
<feOffset dy="4"/>
<feGaussianBlur stdDeviation="12.5"/>
<feComposite in2="hardAlpha" operator="out"/>
<feColorMatrix type="matrix" values="0 0 0 0 0.356863 0 0 0 0 0.309804 0 0 0 0 0.403922 0 0 0 0.25 0"/>
<feBlend mode="normal" in2="effect1_backgroundBlur_15_838" result="effect2_dropShadow_15_838"/>
<feBlend mode="normal" in="SourceGraphic" in2="effect2_dropShadow_15_838" result="shape"/>
</filter>
<filter id="filter2_bd_15_838" x="423" y="50" width="283" height="283" filterUnits="userSpaceOnUse" color-interpolation-filters="sRGB">
<feFlood flood-opacity="0" result="BackgroundImageFix"/>
<feGaussianBlur in="BackgroundImageFix" stdDeviation="5"/>
<feComposite in2="SourceAlpha" operator="in" result="effect1_backgroundBlur_15_838"/>
<feColorMatrix in="SourceAlpha" type="matrix" values="0 0 0 0 0 0 0 0 0 0 0 0 0 0 0 0 0 0 127 0" result="hardAlpha"/>
<feOffset dy="4"/>
<feGaussianBlur stdDeviation="12.5"/>
<feComposite in2="hardAlpha" operator="out"/>
<feColorMatrix type="matrix" values="0 0 0 0 0.356863 0 0 0 0 0.309804 0 0 0 0 0.403922 0 0 0 0.25 0"/>
<feBlend mode="normal" in2="effect1_backgroundBlur_15_838" result="effect2_dropShadow_15_838"/>
<feBlend mode="normal" in="SourceGraphic" in2="effect2_dropShadow_15_838" result="shape"/>
</filter>
<filter id="filter3_bd_15_838" x="372" y="429" width="384" height="321" filterUnits="userSpaceOnUse" color-interpolation-filters="sRGB">
<feFlood flood-opacity="0" result="BackgroundImageFix"/>
<feGaussianBlur in="BackgroundImageFix" stdDeviation="5"/>
<feComposite in2="SourceAlpha" operator="in" result="effect1_backgroundBlur_15_838"/>
<feColorMatrix in="SourceAlpha" type="matrix" values="0 0 0 0 0 0 0 0 0 0 0 0 0 0 0 0 0 0 127 0" result="hardAlpha"/>
<feOffset dy="4"/>
<feGaussianBlur stdDeviation="12.5"/>
<feComposite in2="hardAlpha" operator="out"/>
<feColorMatrix type="matrix" values="0 0 0 0 0.356863 0 0 0 0 0.309804 0 0 0 0 0.403922 0 0 0 0.25 0"/>
<feBlend mode="normal" in2="effect1_backgroundBlur_15_838" result="effect2_dropShadow_15_838"/>
<feBlend mode="normal" in="SourceGraphic" in2="effect2_dropShadow_15_838" result="shape"/>
</filter>
</defs>
</svg>
