<svg width="23" height="24" viewBox="0 0 23 24" fill="none" xmlns="http://www.w3.org/2000/svg">
<g clip-path="url(#clip0)">
<path d="M12.1344 10.1952C11.952 10.1952 11.7984 10.0416 11.7984 9.8592C11.7984 8.976 11.0784 8.256 10.1952 8.256C9.31201 8.256 8.59201 8.976 8.59201 9.8592C8.59201 10.0416 8.43841 10.1952 8.25601 10.1952C8.07361 10.1952 7.92001 10.0416 7.92001 9.8592C7.92001 8.6016 8.93761 7.584 10.1952 7.584C11.4528 7.584 12.4704 8.6016 12.4704 9.8592C12.4704 10.0512 12.3168 10.1952 12.1344 10.1952Z" fill="#258B80"/>
<path d="M14.9088 16.2144C14.9088 16.2144 14.88 17.3184 14.3808 18.2208C13.7184 19.44 13.056 20.352 13.056 21.8784" stroke="#505071" stroke-miterlimit="10" stroke-linecap="round" stroke-linejoin="round"/>
<path d="M12.288 14.4576C12.3456 12.864 12.4224 12.4512 12.0864 12.2304C11.7024 11.9712 11.3184 12.288 11.0208 12.5856" stroke="#505071" stroke-miterlimit="10" stroke-linecap="round" stroke-linejoin="round"/>
<path d="M13.6032 15.2256C13.6608 13.632 13.7376 13.2192 13.4016 12.9984C13.0176 12.7392 12.6336 13.056 12.336 13.3536" stroke="#505071" stroke-miterlimit="10" stroke-linecap="round" stroke-linejoin="round"/>
<path d="M14.9088 16.2144C14.9664 14.6208 15.0432 14.208 14.7072 13.9872C14.3232 13.728 13.9392 14.0448 13.6416 14.3424" stroke="#505071" stroke-miterlimit="10" stroke-linecap="round" stroke-linejoin="round"/>
<path d="M7.62241 23.52V22.368C7.62241 22.0992 7.83361 21.888 8.10241 21.888H13.4496C13.7184 21.888 13.9296 22.0992 13.9296 22.368V23.52" stroke="#505071" stroke-miterlimit="10" stroke-linecap="round" stroke-linejoin="round"/>
<path d="M8.5536 21.888V20.304C8.5536 17.8464 7.8624 17.136 6.9888 16.08C6.9888 16.08 6.384 15.2544 6.4512 14.2944C6.5088 13.4688 7.6896 13.3824 7.872 14.1792C7.8912 14.256 7.9008 14.3328 7.9104 14.4288C7.9488 14.8416 8.1792 15.216 8.5536 15.3984C9.0336 15.6384 9.5904 15.2928 9.5904 14.7552V14.5248V10.0224C9.5904 9.6576 9.888 9.3504 10.2624 9.3504C10.6272 9.3504 10.9344 9.648 10.9344 10.0224V13.9776" stroke="#505071" stroke-miterlimit="10" stroke-linecap="round" stroke-linejoin="round"/>
<path d="M5.45281 17.808H1.87201C1.10401 17.808 0.480011 17.184 0.480011 16.416V1.6224C0.480011 0.9984 0.988811 0.48 1.62241 0.48H20.5344C21.1584 0.48 21.6768 0.9888 21.6768 1.6224V16.416C21.6768 17.184 21.0528 17.808 20.2848 17.808H16.8864" stroke="#505071" stroke-miterlimit="10" stroke-linecap="round" stroke-linejoin="round"/>
<path d="M0.480011 5.0112H21.6672" stroke="#505071" stroke-miterlimit="10" stroke-linecap="round" stroke-linejoin="round"/>
<path d="M2.88001 2.4C2.88001 2.13506 2.66495 1.92 2.40001 1.92C2.13508 1.92 1.92001 2.13506 1.92001 2.4C1.92001 2.66493 2.13508 2.88 2.40001 2.88C2.66495 2.88 2.88001 2.66493 2.88001 2.4Z" fill="#505071"/>
<path d="M4.8 2.4C4.8 2.13506 4.58493 1.92 4.32 1.92C4.05506 1.92 3.84 2.13506 3.84 2.4C3.84 2.66493 4.05506 2.88 4.32 2.88C4.58493 2.88 4.8 2.66493 4.8 2.4Z" fill="#505071"/>
<path d="M6.72001 2.4C6.72001 2.13506 6.50495 1.92 6.24001 1.92C5.97508 1.92 5.76001 2.13506 5.76001 2.4C5.76001 2.66493 5.97508 2.88 6.24001 2.88C6.50495 2.88 6.72001 2.66493 6.72001 2.4Z" fill="#505071"/>
</g>
<defs>
<clipPath id="clip0">
<rect width="22.1472" height="24" fill="white"/>
</clipPath>
</defs>
</svg>
