<svg width="24" height="22" viewBox="0 0 24 22" fill="none" xmlns="http://www.w3.org/2000/svg">
<g clip-path="url(#clip0)">
<path d="M23.5677 13.4611V14.4294C23.5677 14.7925 23.317 15.121 22.9625 15.2161C19.9453 16.0202 16.781 16.0202 13.7637 15.2161C13.4092 15.121 13.1585 14.8012 13.1585 14.4294V13.4611" stroke="#505071" stroke-miterlimit="10" stroke-linecap="round"/>
<path d="M23.5677 16.1412V17.1095C23.5677 17.4726 23.317 17.8012 22.9625 17.8963C19.9453 18.7003 16.781 18.7003 13.7637 17.8963C13.4092 17.8012 13.1585 17.4813 13.1585 17.1095V16.1412" stroke="#505071" stroke-miterlimit="10" stroke-linecap="round"/>
<path d="M23.5677 18.83V19.7983C23.5677 20.1614 23.317 20.4899 22.9625 20.585C19.9453 21.389 16.781 21.389 13.7637 20.585C13.4092 20.4899 13.1585 20.17 13.1585 19.7983V18.83" stroke="#505071" stroke-miterlimit="10" stroke-linecap="round"/>
<path d="M20.6888 10.3746C22.4006 10.6167 23.5764 11.1182 23.5764 11.6974C23.5764 12.5101 21.2507 13.1671 18.3718 13.1671C15.5014 13.1671 13.1671 12.5101 13.1671 11.6974C13.1671 11.1182 14.3429 10.6167 16.0548 10.3746" stroke="#505071" stroke-miterlimit="10" stroke-linecap="round"/>
<path d="M18.6311 5.5245V1.77234C18.6311 1.02882 18.0346 0.432278 17.291 0.432278H16.0374" stroke="#505071" stroke-miterlimit="10" stroke-linecap="round" stroke-linejoin="round"/>
<path d="M16.0288 0.432278H1.98846C1.24495 0.432278 0.648407 1.02882 0.648407 1.77234V12.4409C0.648407 13.1844 1.24495 13.781 1.98846 13.781H11.8962" stroke="#505071" stroke-miterlimit="10" stroke-linecap="round" stroke-linejoin="round"/>
<path d="M5.04898 13.781L4.2363 15.8473H9.63976H12.0951" stroke="#505071" stroke-miterlimit="10" stroke-linecap="round" stroke-linejoin="round"/>
<path d="M12.4928 21.1816H9.63112H1.07204C0.587892 21.1816 0.276653 20.6628 0.518728 20.2392L2.08357 17.4121H12.0951" stroke="#505071" stroke-miterlimit="10" stroke-linecap="round" stroke-linejoin="round"/>
<path d="M19.6002 10.375C19.6836 9.69735 19.2019 9.08035 18.5243 8.99691C17.8466 8.91347 17.2296 9.3952 17.1461 10.0729C17.0627 10.7505 17.5444 11.3676 18.2221 11.451C18.8998 11.5344 19.5168 11.0527 19.6002 10.375Z" stroke="#505071" stroke-miterlimit="10" stroke-linecap="round"/>
<path d="M13.4092 6.76081C13.4092 7.44381 12.8559 7.99712 12.1729 7.99712C11.4899 7.99712 10.9366 7.44381 10.9366 6.76081C10.9366 6.07781 11.4899 5.5245 12.1729 5.5245C12.8472 5.5245 13.4092 6.07781 13.4092 6.76081Z" stroke="#505071" stroke-miterlimit="10" stroke-linecap="round"/>
<path d="M7.77234 10.0288C7.77234 10.7118 7.21902 11.2651 6.53602 11.2651C5.85303 11.2651 5.29971 10.7118 5.29971 10.0288C5.29971 9.34582 5.85303 8.79251 6.53602 8.79251C7.21902 8.78386 7.77234 9.34582 7.77234 10.0288Z" stroke="#505071" stroke-miterlimit="10" stroke-linecap="round"/>
<path d="M6.46685 4.5389C6.46685 5.2219 5.91354 5.77522 5.23054 5.77522C4.54755 5.77522 3.99423 5.2219 3.99423 4.5389C3.99423 3.85591 4.54755 3.30259 5.23054 3.30259C5.91354 3.30259 6.46685 3.85591 6.46685 4.5389Z" stroke="#505071" stroke-miterlimit="10" stroke-linecap="round"/>
<path d="M18.3718 8.99135V6.76081H13.4006" stroke="#505071" stroke-miterlimit="10" stroke-linecap="round" stroke-linejoin="round"/>
<path d="M6.39771 4.94524L10.9885 6.38905" stroke="#505071" stroke-miterlimit="10" stroke-linecap="round"/>
<path d="M7.634 9.3804L11.0836 7.35735" stroke="#505071" stroke-miterlimit="10" stroke-linecap="round"/>
<path d="M1.81555 20.1009H8.2997L9.90777 18.4928H2.71469L1.81555 20.1009Z" fill="#FFC524"/>
</g>
<defs>
<clipPath id="clip0">
<rect width="24" height="21.6138" fill="white"/>
</clipPath>
</defs>
</svg>
