<svg width="22" height="26" viewBox="0 0 22 26" fill="none" xmlns="http://www.w3.org/2000/svg">
<path d="M5.49813 4.46516C4.33195 4.46516 3.38234 5.29378 3.34069 6.3484V6.42373L3.26572 6.45386C1.90796 6.92844 1 8.12618 1 9.44444C1 11.2147 2.591 12.661 4.55685 12.661H16.3103C17.1516 12.661 17.9763 12.4576 18.6843 12.081C20.1087 11.3277 21 9.92655 21 8.42749C21 6.09228 18.9009 4.19397 16.3103 4.19397H16.227L16.1853 4.11864C15.4273 2.258 13.4365 1 11.2457 1C8.91337 1 6.8309 2.4162 6.1895 4.44256L6.14785 4.54802L6.03124 4.52542C5.86464 4.48776 5.68971 4.46516 5.49813 4.46516Z" stroke="#505071" stroke-miterlimit="10" stroke-linecap="round" stroke-linejoin="round"/>
<path d="M15.4357 13.7156C15.4357 15.8475 13.4449 17.58 10.9875 17.58C8.53024 17.58 6.5394 15.8475 6.5394 13.7156" stroke="#505071" stroke-miterlimit="10" stroke-linecap="round" stroke-linejoin="round"/>
<path d="M10.9875 19.9228V23.1921" stroke="#505071" stroke-miterlimit="10" stroke-linecap="round" stroke-linejoin="round"/>
<path d="M7.9971 19.3503V21.5574" stroke="#505071" stroke-miterlimit="10" stroke-linecap="round" stroke-linejoin="round"/>
<path d="M13.9446 19.3578V21.5122" stroke="#505071" stroke-miterlimit="10" stroke-linecap="round" stroke-linejoin="round"/>
<path d="M10.9876 25C11.5373 25 11.9871 24.5932 11.9871 24.096C11.9871 23.5989 11.5373 23.1921 10.9876 23.1921C10.4378 23.1921 9.98798 23.5989 9.98798 24.096C9.98798 24.5932 10.4378 25 10.9876 25Z" stroke="#505071" stroke-miterlimit="10" stroke-linecap="round" stroke-linejoin="round"/>
<path d="M7.99708 23.3653C8.54685 23.3653 8.99666 22.9586 8.99666 22.4614C8.99666 21.9642 8.54685 21.5574 7.99708 21.5574C7.44731 21.5574 6.9975 21.9642 6.9975 22.4614C6.9975 22.9586 7.44731 23.3653 7.99708 23.3653Z" stroke="#505071" stroke-miterlimit="10" stroke-linecap="round" stroke-linejoin="round"/>
<path d="M13.9446 23.3201C14.4944 23.3201 14.9442 22.9134 14.9442 22.4162C14.9442 21.919 14.4944 21.5122 13.9446 21.5122C13.3948 21.5122 12.945 21.919 12.945 22.4162C12.945 22.9134 13.3948 23.3201 13.9446 23.3201Z" stroke="#505071" stroke-miterlimit="10" stroke-linecap="round" stroke-linejoin="round"/>
<path d="M13.953 19.3578C16.4186 18.3785 18.1263 16.2166 18.1263 13.7081" stroke="#505071" stroke-miterlimit="10" stroke-linecap="round" stroke-linejoin="round"/>
<path d="M7.9971 19.3503C8.90506 19.7119 9.9213 19.9153 10.9875 19.9153" stroke="#505071" stroke-miterlimit="10" stroke-linecap="round" stroke-linejoin="round"/>
<path d="M3.84888 13.7157C3.84888 15.6818 4.89844 17.437 6.53942 18.5669" stroke="#505071" stroke-miterlimit="10" stroke-linecap="round" stroke-linejoin="round"/>
<path d="M16.3019 5.24859H15.4856L15.1024 4.53296L15.0774 4.48023C14.5027 3.07157 13.0283 2.11488 11.379 2.06215C11.8454 2.38607 12.2703 2.77025 12.6201 3.19963C13.4614 4.23164 13.9029 5.53484 13.8363 6.81544C15.4273 6.38607 17.2015 6.55932 18.6509 7.29002C19.0591 7.49341 19.4423 7.74953 19.7921 8.03578C19.5756 6.4614 18.1012 5.24859 16.3019 5.24859Z" fill="#A2A2CC"/>
</svg>
