<svg width="23" height="24" viewBox="0 0 23 24" fill="none" xmlns="http://www.w3.org/2000/svg">
<g clip-path="url(#clip0)">
<path d="M19.5225 21.6847L21.4955 15.0541C21.7117 14.3243 21.1712 13.5946 20.4054 13.5946H11.2613H2.1081C1.35135 13.5946 0.801798 14.3243 1.01801 15.0541L2.99099 21.6847H11.2883" stroke="#505071" stroke-miterlimit="10" stroke-linecap="round" stroke-linejoin="round"/>
<path d="M1.60361 20.2973L0.54956 22.2793C0.243253 22.8559 0.657668 23.5495 1.31533 23.5495H11.2613H21.2072C21.8559 23.5495 22.2793 22.8559 21.973 22.2793L20.9189 20.2973" stroke="#505071" stroke-miterlimit="10" stroke-linecap="round" stroke-linejoin="round"/>
<path d="M13.8018 7.95496C13.8018 7.95496 16.3243 9.32433 17.3063 10.1081C17.5406 10.2973 17.7388 10.5225 17.8919 10.7748C18.1892 11.2432 18.3243 11.8018 18.3243 12.3604V13.5946" stroke="#505071" stroke-miterlimit="10" stroke-linecap="round" stroke-linejoin="round"/>
<path d="M8.72074 7.95496C8.72074 7.95496 6.19821 9.32433 5.21623 10.1081C4.982 10.2973 4.7838 10.5225 4.63064 10.7748C4.33335 11.2432 4.19821 11.8018 4.19821 12.3604V13.5946" stroke="#505071" stroke-miterlimit="10" stroke-linecap="round" stroke-linejoin="round"/>
<path d="M11.2613 9.27928C13.2266 9.27928 14.8198 7.30288 14.8198 4.86487C14.8198 2.42685 13.2266 0.450451 11.2613 0.450451C9.29595 0.450451 7.70273 2.42685 7.70273 4.86487C7.70273 7.30288 9.29595 9.27928 11.2613 9.27928Z" stroke="#505071" stroke-miterlimit="10" stroke-linecap="round" stroke-linejoin="round"/>
<path d="M20.4415 14.7027C20.4324 14.6847 20.4234 14.6847 20.4144 14.6847H11.2613H2.10812C2.09911 14.6847 2.0901 14.6847 2.08109 14.7027C2.07208 14.7207 2.07208 14.7297 2.07208 14.7387L3.09911 18.2072C3.10812 18.1982 3.10812 18.1892 3.11713 18.1802C3.78379 17.045 4.991 16.3514 6.30632 16.3514H19.973L20.4505 14.7387C20.4505 14.7297 20.4505 14.7207 20.4415 14.7027Z" fill="#258B80"/>
<path d="M18.973 5.74775V5.12613C18.973 4.61261 19.2613 4.14415 19.7207 3.90991C20.2072 3.66667 20.5315 3.18018 20.5406 2.63964C20.5406 2.61261 20.5406 2.58559 20.5406 2.54955C20.5045 1.75676 19.8649 1.0991 19.0631 1.05406C18.1622 1.00901 17.4144 1.72072 17.4144 2.61261" stroke="#505071" stroke-miterlimit="10" stroke-linecap="round" stroke-linejoin="round"/>
<path d="M19.6397 7.74775C19.6397 8.11712 19.3424 8.4054 18.982 8.4054C18.6216 8.4054 18.3243 8.10811 18.3243 7.74775C18.3243 7.38739 18.6216 7.09009 18.982 7.09009C19.3424 7.08108 19.6397 7.37838 19.6397 7.74775Z" fill="#505071"/>
</g>
<defs>
<clipPath id="clip0">
<rect width="22.5225" height="24" fill="white"/>
</clipPath>
</defs>
</svg>
