<svg width="24" height="24" viewBox="0 0 24 24" fill="none" xmlns="http://www.w3.org/2000/svg">
<g clip-path="url(#clip0)">
<path d="M13.2296 18.3994H2.05534C1.16679 18.3994 0.448761 17.6814 0.448761 16.7928V1.62454C0.448761 0.969337 0.978305 0.448769 1.62453 0.448769H21.2266C21.8818 0.448769 22.4024 0.978312 22.4024 1.62454V15.8145" stroke="#505071" stroke-miterlimit="10" stroke-linecap="round" stroke-linejoin="round"/>
<path d="M0.448761 5.15184H22.4114" stroke="#505071" stroke-miterlimit="10" stroke-linecap="round" stroke-linejoin="round"/>
<path d="M17.0262 6.15707L21.4061 10.528V6.15707H17.0262Z" fill="#A2A2CC"/>
<path d="M17.816 17.2236C19.0815 16.5595 20.6791 16.7569 21.7472 17.825C23.0576 19.1354 23.0576 21.2625 21.7472 22.5729C20.4368 23.8833 18.3096 23.8833 16.9992 22.5729C15.6888 21.2625 15.6888 19.1354 16.9992 17.825" stroke="#505071" stroke-miterlimit="10" stroke-linecap="round" stroke-linejoin="round"/>
<path d="M17.816 17.2236L13.9656 13.3643L11.4525 10.8512L8.34705 13.9566L9.21765 14.8272L10.4293 13.6066L11.2191 14.3964L10.6088 14.9978L11.4705 15.8594L12.5744 14.7554L16.4159 18.5969" stroke="#505071" stroke-miterlimit="10" stroke-linecap="round" stroke-linejoin="round"/>
<path d="M19.7906 20.1945C19.7906 21.0023 19.4405 21.7293 18.893 22.2408C19.0546 22.2767 19.2072 22.2947 19.3687 22.2947C19.9072 22.2947 20.4458 22.0883 20.8586 21.6844C21.6754 20.8676 21.6754 19.5303 20.8586 18.7135C20.4547 18.3097 19.9162 18.0942 19.3777 18.0942C19.2161 18.0942 19.0546 18.1122 18.893 18.1481C19.4495 18.6597 19.7906 19.3867 19.7906 20.1945Z" fill="#FFE280"/>
<path d="M1.93866 7.0905H12.1256" stroke="#505071" stroke-miterlimit="10" stroke-linecap="round" stroke-linejoin="round"/>
<path d="M1.93866 9.26254H12.1256" stroke="#505071" stroke-miterlimit="10" stroke-linecap="round" stroke-linejoin="round"/>
</g>
<path d="M3 2.5C3 2.22403 2.77598 2 2.5 2C2.22403 2 2 2.22403 2 2.5C2 2.77597 2.22403 3 2.5 3C2.77598 3 3 2.77597 3 2.5Z" fill="#505071"/>
<path d="M5 2.5C5 2.22403 4.77598 2 4.5 2C4.22403 2 4 2.22403 4 2.5C4 2.77597 4.22403 3 4.5 3C4.77598 3 5 2.77597 5 2.5Z" fill="#505071"/>
<path d="M7 2.5C7 2.22403 6.77598 2 6.5 2C6.22403 2 6 2.22403 6 2.5C6 2.77597 6.22403 3 6.5 3C6.77598 3 7 2.77597 7 2.5Z" fill="#505071"/>
<defs>
<clipPath id="clip0">
<rect width="23.1743" height="24" fill="white"/>
</clipPath>
</defs>
</svg>
