<svg width="1006" height="223" viewBox="0 0 1006 223" fill="none" xmlns="http://www.w3.org/2000/svg">
<g clip-path="url(#clip0_2044_7888)">
<path d="M195.531 4.86524C192.742 1.96814 189.095 0.573242 184.912 0.573242H62.9604V15.2733C62.9604 19.2434 64.355 22.677 67.2507 25.4668C70.1469 28.3639 73.7937 29.8661 77.9765 29.8661H116.911V177.618L131.176 177.726C135.359 177.726 139.006 176.224 141.795 173.434C144.691 170.536 146.192 166.995 146.192 163.133V29.9734L199.928 29.8661V16.239C199.821 12.3762 198.427 7.86964 195.531 4.86524Z" fill="#03031C"/>
<path d="M272.97 54.6519C268.787 54.6519 265.141 56.047 262.352 58.9439C259.456 61.8412 257.954 65.3819 257.954 69.2447V128.153C252.806 142.638 237.146 149.613 220.307 149.613C206.364 149.613 199.606 143.067 199.606 129.762V69.2447C199.606 65.3819 198.105 61.9483 195.209 58.9439C192.42 56.047 188.773 54.6519 184.59 54.6519H170.325V132.552C170.325 162.489 185.556 177.725 217.089 177.725C232.641 177.725 249.588 172.253 257.74 161.63C257.096 171.073 256.024 176.008 250.768 183.09C244.869 191.03 233.285 194.035 221.165 194.035C209.581 194.035 198.427 191.781 186.199 187.168C184.161 186.631 182.231 186.416 180.622 186.416C173.972 186.416 170.325 190.064 170.325 196.717V208.735L171.183 209.271C185.127 217.748 201.43 222.04 221.165 222.04C262.137 222.04 287.128 199.614 287.128 155.299V54.6519H272.97Z" fill="#03031C"/>
<path d="M407.256 123.647C405.111 117.101 402.537 116.136 399.427 113.238C400.821 111.414 402.537 107.981 405.004 100.684L423.453 54.76H406.72C397.603 54.76 391.704 58.5152 389.345 65.8116L376.795 95.1048C375.83 97.5724 372.934 98.753 368.215 98.753H340.864L340.971 14.9514C340.971 11.0886 339.684 7.86964 336.789 4.86524C334 1.96814 330.353 0.573242 326.17 0.573242H311.69V177.618H326.063C330.246 177.618 333.892 176.116 336.789 173.219C339.577 170.429 341.079 166.996 341.079 163.025L340.864 128.368H373.256C377.868 128.368 379.048 130.514 379.584 132.123L394.6 167.21C396.853 174.185 402.645 177.618 411.869 177.618H428.493L407.256 123.647Z" fill="#03031C"/>
<path d="M77.7618 85.4483C76.0452 65.4905 59.6351 49.825 39.4707 49.6104H7.72253H6.64996H0V56.3703V58.4088V90.5988C0.858059 111.093 17.1612 127.617 37.5401 128.368H70.1463H71.2189H77.8688V121.609V85.5559C77.8688 85.4484 77.7618 85.4483 77.7618 85.4483Z" fill="#20EDBA"/>
<path d="M619.025 110.897C619.025 131.641 612.457 147.876 599.32 159.601C586.676 170.998 569.82 176.697 548.748 176.697H478.343V66.3738C478.343 45.7112 484.913 29.4763 498.049 17.6691C510.693 6.27186 527.593 0.573242 548.748 0.573242C569.82 0.573242 586.676 6.27186 599.32 17.6691C612.457 29.4763 619.025 45.7112 619.025 66.3738V110.897ZM548.748 156.035C562.793 156.035 574.115 152.181 582.711 144.473C591.632 136.52 596.095 125.656 596.095 111.881V66.3738C596.095 52.5985 591.632 41.6934 582.711 33.658C574.115 25.9505 562.793 22.0968 548.748 22.0968C534.615 22.0968 523.253 25.9505 514.663 33.658C505.737 41.6934 501.274 52.5985 501.274 66.3738V156.035H548.748Z" fill="#8438FA"/>
<path d="M706.907 68.3419C692.197 68.3419 681.748 72.6877 675.549 81.3788C670.509 88.4305 667.989 98.9666 667.989 112.988C667.989 127.009 670.509 137.586 675.549 144.72C681.748 153.411 692.197 157.757 706.907 157.757C721.618 157.757 732.067 153.411 738.266 144.72C743.227 137.586 745.702 127.009 745.702 112.988C745.702 98.9666 743.227 88.4305 738.266 81.3788C732.067 72.6877 721.618 68.3419 706.907 68.3419ZM706.907 47.8022C747.315 47.8022 767.519 69.5309 767.519 112.988C767.519 156.445 747.315 178.173 706.907 178.173C666.416 178.173 646.173 156.445 646.173 112.988C646.173 69.5309 666.416 47.8022 706.907 47.8022Z" fill="#8438FA"/>
<path d="M899.403 166.501C886.182 174.373 869.613 178.308 849.7 178.308C809.209 178.308 788.96 156.58 788.96 113.122C788.96 69.6656 809.209 47.937 849.7 47.937C869.613 47.937 886.182 51.8726 899.403 59.7442V70.0756C899.403 74.2571 897.46 76.3483 893.575 76.3483C892.253 76.3483 890.769 76.1431 889.117 75.7331C875.728 70.8136 862.591 68.3539 849.7 68.3539C834.99 68.3539 824.535 72.7406 818.342 81.5135C813.297 88.5652 810.777 99.1013 810.777 113.122C810.777 127.144 813.297 137.68 818.342 144.731C824.535 153.505 834.99 157.891 849.7 157.891C862.591 157.891 875.728 155.432 889.117 150.512C890.769 150.102 892.253 149.897 893.575 149.897C897.46 149.897 899.403 151.988 899.403 156.17V166.501Z" fill="#8438FA"/>
<path d="M955.675 47.937C973.527 47.937 989.061 51.9135 1002.28 59.867V70.0756C1002.28 74.3395 1000.34 76.4712 996.458 76.4712C995.215 76.4712 993.731 76.225 991.995 75.7331C978.523 70.8955 966.421 68.4767 955.675 68.4767C948.569 68.4767 942.992 70.3213 938.943 74.0114C935.225 77.2911 933.366 81.3088 933.366 86.0645C933.366 91.9682 937.207 96.1088 944.891 98.4867C945.058 98.5686 953.446 100.167 970.055 103.283C981.378 105.333 989.722 108.572 995.092 113C1002.37 118.903 1006 127.636 1006 139.197V140.304C1005.83 150.635 1001.91 159.367 994.224 166.501C985.796 174.373 974.434 178.308 960.138 178.308C942.208 178.308 926.63 174.373 913.409 166.501V156.292C913.409 152.029 915.391 149.897 919.361 149.897C920.599 149.897 922.043 150.102 923.695 150.512C937.168 155.432 949.314 157.891 960.138 157.891C967.244 157.891 973.068 156.047 977.615 152.357C981.748 148.995 983.814 144.977 983.814 140.304C983.814 133.58 980.051 128.825 972.536 126.037C970.302 125.217 961.958 123.495 947.494 120.871C936.177 118.821 927.872 115.828 922.581 111.892C914.977 106.235 911.18 97.6258 911.18 86.0645C911.18 75.6512 914.814 66.9188 922.088 59.867C930.185 51.9135 941.379 47.937 955.675 47.937Z" fill="#8438FA"/>
</g>
<defs>
<clipPath id="clip0_2044_7888">
<rect width="1006" height="222" fill="white" transform="translate(0 0.573242)"/>
</clipPath>
</defs>
</svg>
