<?xml version="1.0" encoding="UTF-8" standalone="no"?>
<!DOCTYPE svg PUBLIC "-//W3C//DTD SVG 1.1//EN"
 "http://www.w3.org/Graphics/SVG/1.1/DTD/svg11.dtd">
<!-- Generated by graphviz version 10.0.1 (20240210.2158)
 -->
<!-- Title: Object Pages: 1 -->
<svg width="605pt" height="645pt"
 viewBox="0.00 0.00 604.50 644.50" xmlns="http://www.w3.org/2000/svg" xmlns:xlink="http://www.w3.org/1999/xlink">
<g id="graph0" class="graph" transform="scale(1 1) rotate(0) translate(4 640.5)">
<title>Object</title>
<!-- Node1 -->
<g id="Node000001" class="node">
<title>Node1</title>
<g id="a_Node000001"><a xlink:title="Main entry point.">
<polygon fill="#999999" stroke="none" points="330.5,-116 220.5,-116 220.5,0 330.5,0 330.5,-116"/>
<text text-anchor="start" x="261.25" y="-102.5" font-family="Helvetica,sans-Serif" font-size="10.00">Object</text>
<text text-anchor="start" x="224.5" y="-87.5" font-family="Helvetica,sans-Serif" font-size="10.00">+</text>
<text text-anchor="start" x="234.5" y="-87.5" font-family="Helvetica,sans-Serif" font-size="10.00">HookType hook_type</text>
<text text-anchor="start" x="224.5" y="-72.5" font-family="Helvetica,sans-Serif" font-size="10.00">+</text>
<text text-anchor="start" x="234.5" y="-72.5" font-family="Helvetica,sans-Serif" font-size="10.00">string hook_name</text>
<text text-anchor="start" x="224.5" y="-57.5" font-family="Helvetica,sans-Serif" font-size="10.00">+</text>
<text text-anchor="start" x="234.5" y="-57.5" font-family="Helvetica,sans-Serif" font-size="10.00">map&lt; string, string</text>
<text text-anchor="start" x="234.5" y="-46.25" font-family="Helvetica,sans-Serif" font-size="10.00"> &gt; metadata</text>
<text text-anchor="start" x="224.5" y="-31.5" font-family="Helvetica,sans-Serif" font-size="10.00">+</text>
<text text-anchor="start" x="234.5" y="-31.5" font-family="Helvetica,sans-Serif" font-size="10.00">map&lt; string, string</text>
<text text-anchor="start" x="234.5" y="-20.25" font-family="Helvetica,sans-Serif" font-size="10.00"> &gt; spec</text>
<text text-anchor="start" x="274" y="-5.5" font-family="Helvetica,sans-Serif" font-size="10.00"> </text>
<polygon fill="#666666" stroke="#666666" points="220.5,-99 220.5,-99 330.5,-99 330.5,-99 220.5,-99"/>
<polygon fill="#666666" stroke="#666666" points="220.5,-17 220.5,-17 232.5,-17 232.5,-17 220.5,-17"/>
<polygon fill="#666666" stroke="#666666" points="232.5,-17 232.5,-17 330.5,-17 330.5,-17 232.5,-17"/>
<polygon fill="none" stroke="#666666" points="220.5,0 220.5,-116 330.5,-116 330.5,0 220.5,0"/>
</a>
</g>
</g>
<!-- Node2 -->
<g id="Node000002" class="node">
<title>Node2</title>
<g id="a_Node000002"><a xlink:href="struct_mini_request_object.html" target="_top" xlink:title="Represents a request that can be modified by middleware.">
<polygon fill="white" stroke="none" points="147,-469.25 36,-469.25 36,-163.25 147,-163.25 147,-469.25"/>
<text text-anchor="start" x="49.88" y="-455.75" font-family="Helvetica,sans-Serif" font-size="10.00">MiniRequestObject</text>
<text text-anchor="start" x="40" y="-440.75" font-family="Helvetica,sans-Serif" font-size="10.00">+</text>
<text text-anchor="start" x="50" y="-440.75" font-family="Helvetica,sans-Serif" font-size="10.00">map&lt; string, string</text>
<text text-anchor="start" x="50" y="-429.5" font-family="Helvetica,sans-Serif" font-size="10.00"> &gt; headers</text>
<text text-anchor="start" x="40" y="-414.75" font-family="Helvetica,sans-Serif" font-size="10.00">+</text>
<text text-anchor="start" x="50" y="-414.75" font-family="Helvetica,sans-Serif" font-size="10.00">map&lt; string, string</text>
<text text-anchor="start" x="50" y="-403.5" font-family="Helvetica,sans-Serif" font-size="10.00"> &gt; set_headers</text>
<text text-anchor="start" x="40" y="-388.75" font-family="Helvetica,sans-Serif" font-size="10.00">+</text>
<text text-anchor="start" x="50" y="-388.75" font-family="Helvetica,sans-Serif" font-size="10.00">repeated string delete</text>
<text text-anchor="start" x="50" y="-377.5" font-family="Helvetica,sans-Serif" font-size="10.00">_headers</text>
<text text-anchor="start" x="40" y="-362.75" font-family="Helvetica,sans-Serif" font-size="10.00">+</text>
<text text-anchor="start" x="50" y="-362.75" font-family="Helvetica,sans-Serif" font-size="10.00">string body</text>
<text text-anchor="start" x="40" y="-347.75" font-family="Helvetica,sans-Serif" font-size="10.00">+</text>
<text text-anchor="start" x="50" y="-347.75" font-family="Helvetica,sans-Serif" font-size="10.00">string url</text>
<text text-anchor="start" x="40" y="-332.75" font-family="Helvetica,sans-Serif" font-size="10.00">+</text>
<text text-anchor="start" x="50" y="-332.75" font-family="Helvetica,sans-Serif" font-size="10.00">map&lt; string, string</text>
<text text-anchor="start" x="50" y="-321.5" font-family="Helvetica,sans-Serif" font-size="10.00"> &gt; params</text>
<text text-anchor="start" x="40" y="-306.75" font-family="Helvetica,sans-Serif" font-size="10.00">+</text>
<text text-anchor="start" x="50" y="-306.75" font-family="Helvetica,sans-Serif" font-size="10.00">map&lt; string, string</text>
<text text-anchor="start" x="50" y="-295.5" font-family="Helvetica,sans-Serif" font-size="10.00"> &gt; add_params</text>
<text text-anchor="start" x="40" y="-280.75" font-family="Helvetica,sans-Serif" font-size="10.00">+</text>
<text text-anchor="start" x="50" y="-280.75" font-family="Helvetica,sans-Serif" font-size="10.00">map&lt; string, string</text>
<text text-anchor="start" x="50" y="-269.5" font-family="Helvetica,sans-Serif" font-size="10.00"> &gt; extended_params</text>
<text text-anchor="start" x="40" y="-254.75" font-family="Helvetica,sans-Serif" font-size="10.00">+</text>
<text text-anchor="start" x="50" y="-254.75" font-family="Helvetica,sans-Serif" font-size="10.00">repeated string delete</text>
<text text-anchor="start" x="50" y="-243.5" font-family="Helvetica,sans-Serif" font-size="10.00">_params</text>
<text text-anchor="start" x="40" y="-228.75" font-family="Helvetica,sans-Serif" font-size="10.00">+</text>
<text text-anchor="start" x="50" y="-228.75" font-family="Helvetica,sans-Serif" font-size="10.00">string method</text>
<text text-anchor="start" x="40" y="-213.75" font-family="Helvetica,sans-Serif" font-size="10.00">+</text>
<text text-anchor="start" x="50" y="-213.75" font-family="Helvetica,sans-Serif" font-size="10.00">string request_uri</text>
<text text-anchor="start" x="40" y="-198.75" font-family="Helvetica,sans-Serif" font-size="10.00">+</text>
<text text-anchor="start" x="50" y="-198.75" font-family="Helvetica,sans-Serif" font-size="10.00">string scheme</text>
<text text-anchor="start" x="40" y="-183.75" font-family="Helvetica,sans-Serif" font-size="10.00">+</text>
<text text-anchor="start" x="50" y="-183.75" font-family="Helvetica,sans-Serif" font-size="10.00">bytes raw_body</text>
<text text-anchor="start" x="90" y="-168.75" font-family="Helvetica,sans-Serif" font-size="10.00"> </text>
<polygon fill="#666666" stroke="#666666" points="36,-452.25 36,-452.25 147,-452.25 147,-452.25 36,-452.25"/>
<polygon fill="#666666" stroke="#666666" points="36,-180.25 36,-180.25 48,-180.25 48,-180.25 36,-180.25"/>
<polygon fill="#666666" stroke="#666666" points="48,-180.25 48,-180.25 147,-180.25 147,-180.25 48,-180.25"/>
<polygon fill="none" stroke="#666666" points="36,-163.25 36,-469.25 147,-469.25 147,-163.25 36,-163.25"/>
</a>
</g>
</g>
<!-- Node2&#45;&gt;Node1 -->
<g id="edge1_Node000001_Node000002" class="edge">
<title>Node2&#45;&gt;Node1</title>
<g id="a_edge1_Node000001_Node000002"><a xlink:title=" ">
<path fill="none" stroke="#63b8ff" d="M146.93,-227.85C161.07,-206.45 176.52,-183.8 191.5,-163.25 200.43,-151 210.27,-138.22 219.97,-125.98"/>
<polygon fill="none" stroke="#63b8ff" points="220.01,-125.93 220.62,-118.75 227.49,-116.56 226.88,-123.74 220.01,-125.93"/>
</a>
</g>
<text text-anchor="middle" x="232.12" y="-135.75" font-family="Helvetica,sans-Serif" font-size="10.00" fill="grey"> +request</text>
</g>
<!-- Node3 -->
<g id="Node000003" class="node">
<title>Node3</title>
<g id="a_Node000003"><a xlink:href="struct_return_overrides.html" target="_top" xlink:title="Used to override the response for a given HTTP request.">
<polygon fill="white" stroke="none" points="111,-636.5 0,-636.5 0,-516.5 111,-516.5 111,-636.5"/>
<text text-anchor="start" x="19.88" y="-623" font-family="Helvetica,sans-Serif" font-size="10.00">ReturnOverrides</text>
<text text-anchor="start" x="4" y="-608" font-family="Helvetica,sans-Serif" font-size="10.00">+</text>
<text text-anchor="start" x="14" y="-608" font-family="Helvetica,sans-Serif" font-size="10.00">int32 response_code</text>
<text text-anchor="start" x="4" y="-593" font-family="Helvetica,sans-Serif" font-size="10.00">+</text>
<text text-anchor="start" x="14" y="-593" font-family="Helvetica,sans-Serif" font-size="10.00">string response_error</text>
<text text-anchor="start" x="4" y="-578" font-family="Helvetica,sans-Serif" font-size="10.00">+</text>
<text text-anchor="start" x="14" y="-578" font-family="Helvetica,sans-Serif" font-size="10.00">map&lt; string, string</text>
<text text-anchor="start" x="14" y="-566.75" font-family="Helvetica,sans-Serif" font-size="10.00"> &gt; headers</text>
<text text-anchor="start" x="4" y="-552" font-family="Helvetica,sans-Serif" font-size="10.00">+</text>
<text text-anchor="start" x="14" y="-552" font-family="Helvetica,sans-Serif" font-size="10.00">bool override_error</text>
<text text-anchor="start" x="4" y="-537" font-family="Helvetica,sans-Serif" font-size="10.00">+</text>
<text text-anchor="start" x="14" y="-537" font-family="Helvetica,sans-Serif" font-size="10.00">string response_body</text>
<text text-anchor="start" x="54" y="-522" font-family="Helvetica,sans-Serif" font-size="10.00"> </text>
<polygon fill="#666666" stroke="#666666" points="0,-619.5 0,-619.5 111,-619.5 111,-619.5 0,-619.5"/>
<polygon fill="#666666" stroke="#666666" points="0,-533.5 0,-533.5 12,-533.5 12,-533.5 0,-533.5"/>
<polygon fill="#666666" stroke="#666666" points="12,-533.5 12,-533.5 111,-533.5 111,-533.5 12,-533.5"/>
<polygon fill="none" stroke="#666666" points="0,-516.5 0,-636.5 111,-636.5 111,-516.5 0,-516.5"/>
</a>
</g>
</g>
<!-- Node3&#45;&gt;Node2 -->
<g id="edge2_Node000002_Node000003" class="edge">
<title>Node3&#45;&gt;Node2</title>
<g id="a_edge2_Node000002_Node000003"><a xlink:title=" ">
<path fill="none" stroke="#63b8ff" d="M63.71,-516.58C65.22,-505.8 66.85,-494.09 68.54,-481.93"/>
<polygon fill="none" stroke="#63b8ff" points="68.55,-481.88 65.42,-475.39 70.21,-470 73.34,-476.49 68.55,-481.88"/>
</a>
</g>
<text text-anchor="middle" x="106.88" y="-489" font-family="Helvetica,sans-Serif" font-size="10.00" fill="grey"> +return_overrides</text>
</g>
<!-- Node4 -->
<g id="Node000004" class="node">
<title>Node4</title>
<g id="a_Node000004"><a xlink:href="struct_session_state.html" target="_top" xlink:title="Created for every authenticated request and stored in Redis.">
<polygon fill="white" stroke="none" points="350,-421.25 201,-421.25 201,-211.25 350,-211.25 350,-421.25"/>
<text text-anchor="start" x="246.25" y="-407.75" font-family="Helvetica,sans-Serif" font-size="10.00">SessionState</text>
<text text-anchor="start" x="205" y="-392.75" font-family="Helvetica,sans-Serif" font-size="10.00">+</text>
<text text-anchor="start" x="215" y="-392.75" font-family="Helvetica,sans-Serif" font-size="10.00">int64 last_check</text>
<text text-anchor="start" x="205" y="-377.75" font-family="Helvetica,sans-Serif" font-size="10.00">+</text>
<text text-anchor="start" x="215" y="-377.75" font-family="Helvetica,sans-Serif" font-size="10.00">double allowance</text>
<text text-anchor="start" x="205" y="-362.75" font-family="Helvetica,sans-Serif" font-size="10.00">+</text>
<text text-anchor="start" x="215" y="-362.75" font-family="Helvetica,sans-Serif" font-size="10.00">double rate</text>
<text text-anchor="start" x="205" y="-347.75" font-family="Helvetica,sans-Serif" font-size="10.00">+</text>
<text text-anchor="start" x="215" y="-347.75" font-family="Helvetica,sans-Serif" font-size="10.00">double per</text>
<text text-anchor="start" x="205" y="-332.75" font-family="Helvetica,sans-Serif" font-size="10.00">+</text>
<text text-anchor="start" x="215" y="-332.75" font-family="Helvetica,sans-Serif" font-size="10.00">int64 expires</text>
<text text-anchor="start" x="205" y="-317.75" font-family="Helvetica,sans-Serif" font-size="10.00">+</text>
<text text-anchor="start" x="215" y="-317.75" font-family="Helvetica,sans-Serif" font-size="10.00">int64 quota_max</text>
<text text-anchor="start" x="205" y="-302.75" font-family="Helvetica,sans-Serif" font-size="10.00">+</text>
<text text-anchor="start" x="215" y="-302.75" font-family="Helvetica,sans-Serif" font-size="10.00">int64 quota_renews</text>
<text text-anchor="start" x="205" y="-287.75" font-family="Helvetica,sans-Serif" font-size="10.00">+</text>
<text text-anchor="start" x="215" y="-287.75" font-family="Helvetica,sans-Serif" font-size="10.00">int64 quota_remaining</text>
<text text-anchor="start" x="205" y="-272.75" font-family="Helvetica,sans-Serif" font-size="10.00">+</text>
<text text-anchor="start" x="215" y="-272.75" font-family="Helvetica,sans-Serif" font-size="10.00">int64 quota_renewal_rate</text>
<text text-anchor="start" x="205" y="-257.75" font-family="Helvetica,sans-Serif" font-size="10.00">+</text>
<text text-anchor="start" x="215" y="-257.75" font-family="Helvetica,sans-Serif" font-size="10.00">map&lt; string, AccessDefinition</text>
<text text-anchor="start" x="215" y="-246.5" font-family="Helvetica,sans-Serif" font-size="10.00"> &gt; access_rights</text>
<text text-anchor="start" x="215" y="-231.75" font-family="Helvetica,sans-Serif" font-size="10.00">and 18 more...</text>
<text text-anchor="start" x="274" y="-216.75" font-family="Helvetica,sans-Serif" font-size="10.00"> </text>
<polygon fill="#666666" stroke="#666666" points="201,-404.25 201,-404.25 350,-404.25 350,-404.25 201,-404.25"/>
<polygon fill="#666666" stroke="#666666" points="201,-228.25 201,-228.25 213,-228.25 213,-228.25 201,-228.25"/>
<polygon fill="#666666" stroke="#666666" points="213,-228.25 213,-228.25 350,-228.25 350,-228.25 213,-228.25"/>
<polygon fill="none" stroke="#666666" points="201,-211.25 201,-421.25 350,-421.25 350,-211.25 201,-211.25"/>
</a>
</g>
</g>
<!-- Node4&#45;&gt;Node1 -->
<g id="edge3_Node000001_Node000004" class="edge">
<title>Node4&#45;&gt;Node1</title>
<g id="a_edge3_Node000001_Node000004"><a xlink:title=" ">
<path fill="none" stroke="#63b8ff" d="M275.5,-211.39C275.5,-183.63 275.5,-154.29 275.5,-128.84"/>
<polygon fill="none" stroke="#63b8ff" points="275.5,-128.82 271.5,-122.82 275.5,-116.82 279.5,-122.82 275.5,-128.82"/>
</a>
</g>
<text text-anchor="middle" x="296.88" y="-135.75" font-family="Helvetica,sans-Serif" font-size="10.00" fill="grey"> +session</text>
</g>
<!-- Node5 -->
<g id="Node000005" class="node">
<title>Node5</title>
<g id="a_Node000005"><a xlink:href="struct_basic_auth_data.html" target="_top" xlink:title="Contains a hashed password and the name of the hashing algorithm used.">
<polygon fill="white" stroke="none" points="216,-608.5 129,-608.5 129,-544.5 216,-544.5 216,-608.5"/>
<text text-anchor="start" x="139.5" y="-595" font-family="Helvetica,sans-Serif" font-size="10.00">BasicAuthData</text>
<text text-anchor="start" x="133" y="-580" font-family="Helvetica,sans-Serif" font-size="10.00">+</text>
<text text-anchor="start" x="143" y="-580" font-family="Helvetica,sans-Serif" font-size="10.00">string password</text>
<text text-anchor="start" x="133" y="-565" font-family="Helvetica,sans-Serif" font-size="10.00">+</text>
<text text-anchor="start" x="143" y="-565" font-family="Helvetica,sans-Serif" font-size="10.00">string hash</text>
<text text-anchor="start" x="171" y="-550" font-family="Helvetica,sans-Serif" font-size="10.00"> </text>
<polygon fill="#666666" stroke="#666666" points="129,-591.5 129,-591.5 216,-591.5 216,-591.5 129,-591.5"/>
<polygon fill="#666666" stroke="#666666" points="129,-561.5 129,-561.5 141,-561.5 141,-561.5 129,-561.5"/>
<polygon fill="#666666" stroke="#666666" points="141,-561.5 141,-561.5 216,-561.5 216,-561.5 141,-561.5"/>
<polygon fill="none" stroke="#666666" points="129,-544.5 129,-608.5 216,-608.5 216,-544.5 129,-544.5"/>
</a>
</g>
</g>
<!-- Node5&#45;&gt;Node4 -->
<g id="edge4_Node000004_Node000005" class="edge">
<title>Node5&#45;&gt;Node4</title>
<g id="a_edge4_Node000004_Node000005"><a xlink:title=" ">
<path fill="none" stroke="#63b8ff" d="M176.62,-544.74C179.44,-527.54 183.84,-505.87 190.25,-487.25 196.47,-469.2 204.23,-450.62 212.51,-432.69"/>
<polygon fill="none" stroke="#63b8ff" points="212.52,-432.67 211.46,-425.54 217.64,-421.82 218.7,-428.95 212.52,-432.67"/>
</a>
</g>
<text text-anchor="middle" x="230.62" y="-489" font-family="Helvetica,sans-Serif" font-size="10.00" fill="grey"> +basic_auth_data</text>
</g>
<!-- Node6 -->
<g id="Node000006" class="node">
<title>Node6</title>
<g id="a_Node000006"><a xlink:href="struct_j_w_t_data.html" target="_top" xlink:title="Added to sessions where a Tyk key (embedding a shared secret) is used as the public key for signing t...">
<polygon fill="white" stroke="none" points="309.5,-601 237.5,-601 237.5,-552 309.5,-552 309.5,-601"/>
<text text-anchor="start" x="252.5" y="-587.5" font-family="Helvetica,sans-Serif" font-size="10.00">JWTData</text>
<text text-anchor="start" x="241.5" y="-572.5" font-family="Helvetica,sans-Serif" font-size="10.00">+</text>
<text text-anchor="start" x="251.5" y="-572.5" font-family="Helvetica,sans-Serif" font-size="10.00">string secret</text>
<text text-anchor="start" x="272" y="-557.5" font-family="Helvetica,sans-Serif" font-size="10.00"> </text>
<polygon fill="#666666" stroke="#666666" points="237.5,-584 237.5,-584 309.5,-584 309.5,-584 237.5,-584"/>
<polygon fill="#666666" stroke="#666666" points="237.5,-569 237.5,-569 249.5,-569 249.5,-569 237.5,-569"/>
<polygon fill="#666666" stroke="#666666" points="249.5,-569 249.5,-569 309.5,-569 309.5,-569 249.5,-569"/>
<polygon fill="none" stroke="#666666" points="237.5,-552 237.5,-601 309.5,-601 309.5,-552 237.5,-552"/>
</a>
</g>
</g>
<!-- Node6&#45;&gt;Node4 -->
<g id="edge5_Node000004_Node000006" class="edge">
<title>Node6&#45;&gt;Node4</title>
<g id="a_edge5_Node000004_Node000006"><a xlink:title=" ">
<path fill="none" stroke="#63b8ff" d="M273.68,-552.13C273.89,-525.06 274.25,-478.46 274.6,-433.87"/>
<polygon fill="none" stroke="#63b8ff" points="274.6,-433.96 270.64,-427.93 274.69,-421.96 278.64,-427.99 274.6,-433.96"/>
</a>
</g>
<text text-anchor="middle" x="297.38" y="-489" font-family="Helvetica,sans-Serif" font-size="10.00" fill="grey"> +jwt_data</text>
</g>
<!-- Node7 -->
<g id="Node000007" class="node">
<title>Node7</title>
<g id="a_Node000007"><a xlink:href="struct_monitor.html" target="_top" xlink:title="Allow API endpoint users, stakeholders or an organisation to be notified by webhook when certain quot...">
<polygon fill="white" stroke="none" points="445,-606.5 328,-606.5 328,-546.5 445,-546.5 445,-606.5"/>
<text text-anchor="start" x="370.38" y="-593" font-family="Helvetica,sans-Serif" font-size="10.00">Monitor</text>
<text text-anchor="start" x="332" y="-578" font-family="Helvetica,sans-Serif" font-size="10.00">+</text>
<text text-anchor="start" x="342" y="-578" font-family="Helvetica,sans-Serif" font-size="10.00">repeated double trigger</text>
<text text-anchor="start" x="342" y="-566.75" font-family="Helvetica,sans-Serif" font-size="10.00">_limits</text>
<text text-anchor="start" x="385" y="-552" font-family="Helvetica,sans-Serif" font-size="10.00"> </text>
<polygon fill="#666666" stroke="#666666" points="328,-589.5 328,-589.5 445,-589.5 445,-589.5 328,-589.5"/>
<polygon fill="#666666" stroke="#666666" points="328,-563.5 328,-563.5 340,-563.5 340,-563.5 328,-563.5"/>
<polygon fill="#666666" stroke="#666666" points="340,-563.5 340,-563.5 445,-563.5 445,-563.5 340,-563.5"/>
<polygon fill="none" stroke="#666666" points="328,-546.5 328,-606.5 445,-606.5 445,-546.5 328,-546.5"/>
</a>
</g>
</g>
<!-- Node7&#45;&gt;Node4 -->
<g id="edge6_Node000004_Node000007" class="edge">
<title>Node7&#45;&gt;Node4</title>
<g id="a_edge6_Node000004_Node000007"><a xlink:title=" ">
<path fill="none" stroke="#63b8ff" d="M374.2,-546.88C362.25,-519.09 343.32,-475.05 325.22,-432.93"/>
<polygon fill="none" stroke="#63b8ff" points="325.24,-432.97 319.2,-429.04 320.5,-421.95 326.55,-425.88 325.24,-432.97"/>
</a>
</g>
<text text-anchor="middle" x="372.12" y="-489" font-family="Helvetica,sans-Serif" font-size="10.00" fill="grey"> +monitor</text>
</g>
<!-- Node8 -->
<g id="Node000008" class="node">
<title>Node8</title>
<g id="a_Node000008"><a xlink:href="struct_response_object.html" target="_top" xlink:title="Contains the HTTP reponse data received from the upstream.">
<polygon fill="white" stroke="none" points="519,-368.75 420,-368.75 420,-263.75 519,-263.75 519,-368.75"/>
<text text-anchor="start" x="433.12" y="-355.25" font-family="Helvetica,sans-Serif" font-size="10.00">ResponseObject</text>
<text text-anchor="start" x="424" y="-340.25" font-family="Helvetica,sans-Serif" font-size="10.00">+</text>
<text text-anchor="start" x="434" y="-340.25" font-family="Helvetica,sans-Serif" font-size="10.00">int32 status_code</text>
<text text-anchor="start" x="424" y="-325.25" font-family="Helvetica,sans-Serif" font-size="10.00">+</text>
<text text-anchor="start" x="434" y="-325.25" font-family="Helvetica,sans-Serif" font-size="10.00">bytes raw_body</text>
<text text-anchor="start" x="424" y="-310.25" font-family="Helvetica,sans-Serif" font-size="10.00">+</text>
<text text-anchor="start" x="434" y="-310.25" font-family="Helvetica,sans-Serif" font-size="10.00">string body</text>
<text text-anchor="start" x="424" y="-295.25" font-family="Helvetica,sans-Serif" font-size="10.00">+</text>
<text text-anchor="start" x="434" y="-295.25" font-family="Helvetica,sans-Serif" font-size="10.00">map&lt; string, string</text>
<text text-anchor="start" x="434" y="-284" font-family="Helvetica,sans-Serif" font-size="10.00"> &gt; headers</text>
<text text-anchor="start" x="468" y="-269.25" font-family="Helvetica,sans-Serif" font-size="10.00"> </text>
<polygon fill="#666666" stroke="#666666" points="420,-351.75 420,-351.75 519,-351.75 519,-351.75 420,-351.75"/>
<polygon fill="#666666" stroke="#666666" points="420,-280.75 420,-280.75 432,-280.75 432,-280.75 420,-280.75"/>
<polygon fill="#666666" stroke="#666666" points="432,-280.75 432,-280.75 519,-280.75 519,-280.75 432,-280.75"/>
<polygon fill="none" stroke="#666666" points="420,-263.75 420,-368.75 519,-368.75 519,-263.75 420,-263.75"/>
</a>
</g>
</g>
<!-- Node8&#45;&gt;Node1 -->
<g id="edge7_Node000001_Node000008" class="edge">
<title>Node8&#45;&gt;Node1</title>
<g id="a_edge7_Node000001_Node000008"><a xlink:title=" ">
<path fill="none" stroke="#63b8ff" d="M432.77,-263.84C411.4,-234.21 383.77,-196.38 358.5,-163.25 349.24,-151.11 339.23,-138.29 329.49,-125.96"/>
<polygon fill="none" stroke="#63b8ff" points="329.4,-125.85 322.53,-123.64 321.94,-116.45 328.8,-118.67 329.4,-125.85"/>
</a>
</g>
<text text-anchor="middle" x="367.88" y="-135.75" font-family="Helvetica,sans-Serif" font-size="10.00" fill="grey"> +response</text>
</g>
<!-- Node9 -->
<g id="Node000009" class="node">
<title>Node9</title>
<g id="a_Node000009"><a xlink:href="struct_header.html" target="_top" xlink:title="A reponse header that contains multiple associated values.">
<polygon fill="white" stroke="none" points="577.5,-608.5 463.5,-608.5 463.5,-544.5 577.5,-544.5 577.5,-608.5"/>
<text text-anchor="start" x="504.75" y="-595" font-family="Helvetica,sans-Serif" font-size="10.00">Header</text>
<text text-anchor="start" x="467.5" y="-580" font-family="Helvetica,sans-Serif" font-size="10.00">+</text>
<text text-anchor="start" x="477.5" y="-580" font-family="Helvetica,sans-Serif" font-size="10.00">string key</text>
<text text-anchor="start" x="467.5" y="-565" font-family="Helvetica,sans-Serif" font-size="10.00">+</text>
<text text-anchor="start" x="477.5" y="-565" font-family="Helvetica,sans-Serif" font-size="10.00">repeated string values</text>
<text text-anchor="start" x="519" y="-550" font-family="Helvetica,sans-Serif" font-size="10.00"> </text>
<polygon fill="#666666" stroke="#666666" points="463.5,-591.5 463.5,-591.5 577.5,-591.5 577.5,-591.5 463.5,-591.5"/>
<polygon fill="#666666" stroke="#666666" points="463.5,-561.5 463.5,-561.5 475.5,-561.5 475.5,-561.5 463.5,-561.5"/>
<polygon fill="#666666" stroke="#666666" points="475.5,-561.5 475.5,-561.5 577.5,-561.5 577.5,-561.5 475.5,-561.5"/>
<polygon fill="none" stroke="#666666" points="463.5,-544.5 463.5,-608.5 577.5,-608.5 577.5,-544.5 463.5,-544.5"/>
</a>
</g>
</g>
<!-- Node9&#45;&gt;Node8 -->
<g id="edge8_Node000008_Node000009" class="edge">
<title>Node9&#45;&gt;Node8</title>
<g id="a_edge8_Node000008_Node000009"><a xlink:title=" ">
<path fill="none" stroke="#63b8ff" d="M514.4,-544.61C506.48,-504.49 492.45,-433.47 482.18,-381.45"/>
<polygon fill="none" stroke="#63b8ff" points="482.15,-381.33 477.07,-376.21 479.83,-369.55 484.92,-374.66 482.15,-381.33"/>
</a>
</g>
<text text-anchor="middle" x="550" y="-489" font-family="Helvetica,sans-Serif" font-size="10.00" fill="grey"> +multivalue_headers</text>
</g>
</g>
</svg>
