<svg xmlns="http://www.w3.org/2000/svg" width="86" height="64" viewBox="0 0 86 64" fill="none">
  <path d="M39.2937 0.841183C38.7344 0.280394 38.0352 0 37.1962 0H12.7246V2.94414C12.7246 3.71522 13.0043 4.41621 13.5636 4.977C14.123 5.53779 14.8921 5.88828 15.7311 5.88828H23.562V35.2596H26.4287C27.2677 35.2596 27.9669 34.9792 28.5262 34.4184C29.0856 33.8576 29.4352 33.1566 29.4352 32.3855V5.81818H40.2027V3.08434C40.2027 2.31325 39.923 1.47207 39.2937 0.841183Z" fill="#03031C"/>
  <path d="M54.8858 10.7251C54.0468 10.7251 53.3476 11.0055 52.7882 11.5663C52.2289 12.1271 51.8793 12.8281 51.8793 13.5992V25.3056C50.8305 28.1797 47.6842 29.5816 44.3281 29.5816C41.5313 29.5816 40.2029 28.3199 40.2029 25.6561V13.6693C40.2029 12.8982 39.9232 12.1972 39.2939 11.6364C38.7346 11.0756 38.0354 10.7952 37.1964 10.7952H34.2598V26.287C34.2598 32.2454 37.3362 35.2596 43.6289 35.2596C46.7053 35.2596 50.1313 34.2081 51.8094 32.0351C51.6695 33.9277 51.4598 34.9091 50.411 36.3111C49.2224 37.8533 46.915 38.4842 44.4679 38.4842C42.1606 38.4842 39.9232 37.9935 37.476 37.0822C37.0565 37.0121 36.7069 36.942 36.3573 36.942C35.0289 36.942 34.2598 37.643 34.2598 38.9748V41.3582L34.4695 41.4984C37.2663 43.1808 40.5524 44.0219 44.4679 44.0219C52.6484 44.0219 57.6825 39.5356 57.6825 30.7733V10.7251H54.8858Z" fill="#03031C"/>
  <path d="M81.8048 24.4644C81.3853 23.2026 80.8259 22.9923 80.2666 22.4315C80.5462 22.081 80.8958 21.3801 81.3853 19.908L85.091 10.7952H81.7349C79.917 10.7952 78.7284 11.5663 78.2389 12.9682L75.7219 18.7864C75.5121 19.2771 74.9528 19.4874 73.9739 19.4874H68.4503V2.80394C68.4503 2.03286 68.1706 1.40197 67.6113 0.841183C67.0519 0.280394 66.3528 0 65.5137 0H62.5771V35.1895H65.5137C66.3528 35.1895 67.0519 34.9091 67.6812 34.3483C68.2406 33.7875 68.5202 33.0865 68.5202 32.3154L68.4503 25.4458H74.9527C75.8617 25.4458 76.1414 25.8664 76.2113 26.2169L79.2178 33.1566C79.7072 34.5586 80.8259 35.2596 82.6438 35.2596H85.9999L81.8048 24.4644Z" fill="#03031C"/>
  <path d="M15.7315 16.8237C15.3819 12.8281 12.0957 9.74373 8.04046 9.67363H1.67786H1.4681H0.139648V11.0055V11.4261V17.8051C0.279486 21.9409 3.56566 25.2355 7.62095 25.3757H14.1234H14.3331H15.6616V24.0438L15.7315 16.8237C15.7315 16.8938 15.7315 16.8938 15.7315 16.8237Z" fill="#20EDBA"/>
  <path d="M11.5366 48.5082V49.77C11.5366 50.1906 11.3268 50.4009 10.9772 50.4009C10.8374 50.4009 10.6276 50.4009 10.4878 50.3308C8.66992 49.6999 7.06179 49.3494 5.66341 49.3494C4.68455 49.3494 3.84553 49.6298 3.28618 50.1205C2.72683 50.6112 2.51707 51.172 2.51707 51.8729C2.51707 52.7842 3.07642 53.4151 4.19512 53.7656C4.19512 53.7656 5.31382 53.9759 7.55122 54.3965C9.01951 54.6769 10.0683 55.0975 10.7675 55.6583C11.6764 56.4294 12.0959 57.4808 12.0959 58.9529V59.0931C12.0959 60.425 11.6065 61.4765 10.6276 62.3877C9.57886 63.3691 8.11057 63.8598 6.29268 63.8598C3.98536 63.8598 2.02764 63.3691 0.349593 62.3877V61.126C0.349593 60.7054 0.559349 60.4951 0.908943 60.4951C1.04878 60.4951 1.18862 60.4951 1.39837 60.5652C3.21626 61.1961 4.82439 61.5466 6.29268 61.5466C7.27154 61.5466 8.11057 61.2662 8.73983 60.7755C9.3691 60.2848 9.64878 59.724 9.64878 59.023C9.64878 58.0416 9.08943 57.3406 7.97073 56.92C7.69105 56.7798 6.57236 56.5696 4.68455 56.2191C3.14634 55.9387 2.09756 55.5882 1.39837 55.0975C0.489431 54.3965 0 53.2749 0 51.8729C0 50.5411 0.489431 49.4195 1.39837 48.5783C2.37724 47.5268 3.84553 46.966 5.66341 46.966C7.97073 46.966 9.92845 47.4567 11.5366 48.5082Z" fill="#8438FA"/>
  <path d="M28.247 56.4294C28.247 61.4064 25.9397 63.9299 21.395 63.9299C16.7804 63.9299 14.543 61.4064 14.543 56.4294C14.543 51.4524 16.8503 48.9288 21.395 48.9288C25.9397 48.9288 28.247 51.3823 28.247 56.4294ZM21.395 50.9617C19.647 50.9617 18.3186 51.5225 17.5495 52.574C16.9202 53.4151 16.6405 54.747 16.6405 56.4294C16.6405 58.1117 16.9202 59.3735 17.5495 60.2848C18.3186 61.3363 19.5771 61.8971 21.395 61.8971C23.2129 61.8971 24.4714 61.3363 25.2405 60.2848C25.8698 59.3735 26.1495 58.1117 26.1495 56.4294C26.1495 54.747 25.8698 53.4852 25.2405 52.574C24.4714 51.4524 23.143 50.9617 21.395 50.9617Z" fill="#8438FA"/>
  <path d="M41.8812 60.425C40.7625 62.7382 39.0145 63.9299 36.6373 63.9299C33.2113 63.9299 31.5332 62.3176 31.5332 59.0931V49.069H32.582C32.8617 49.069 33.1413 49.2092 33.3511 49.4195C33.5608 49.6298 33.7007 49.9102 33.7007 50.1906V58.7426C33.7007 60.8456 34.8194 61.897 37.0568 61.897C39.5739 61.897 41.182 60.9157 41.8812 58.8828V50.1906C41.8812 49.9102 42.021 49.6298 42.2308 49.4195C42.4405 49.2092 42.7202 49.069 42.9999 49.069H44.0486V63.6495H42.9999C42.7202 63.6495 42.4405 63.5794 42.2308 63.3691C42.021 63.1588 41.8812 62.8784 41.8812 62.598V60.425Z" fill="#8438FA"/>
  <path d="M47.8242 49.069H48.873C49.1527 49.069 49.4323 49.2092 49.6421 49.4195C49.8519 49.6298 49.9917 49.9102 49.9917 50.1906V52.4338C51.1104 50.1205 52.5787 48.9288 54.4665 48.9288C55.3754 48.9288 56.2844 48.9989 57.1234 49.2092V50.2607C57.1234 50.7514 56.7738 51.0318 56.1445 51.0318C55.5852 50.9617 54.886 50.8916 54.1169 50.8916C52.1592 50.8916 50.8307 51.9431 50.0616 54.1161V62.5981C50.0616 62.8784 49.9218 63.1588 49.712 63.3691C49.5023 63.5794 49.2226 63.6495 48.9429 63.6495H47.8941V49.069H47.8242Z" fill="#8438FA"/>
  <path d="M71.5969 62.5981C70.1286 63.4392 68.3107 63.9299 66.0034 63.9299C61.3888 63.9299 59.1514 61.4064 59.1514 56.4294C59.1514 51.4524 61.4587 48.9288 66.0034 48.9288C68.3107 48.9288 70.1286 49.3494 71.5969 50.2607V51.3823C71.5969 51.7328 71.4571 51.9431 71.1075 51.9431C70.9676 51.9431 70.8278 51.9431 70.618 51.873C69.0798 51.3122 67.4717 51.0318 65.9335 51.0318C64.1855 51.0318 62.8571 51.5926 62.088 52.6441C61.4587 53.4852 61.179 54.8171 61.179 56.4995C61.179 58.1818 61.4587 59.4436 62.088 60.3549C62.8571 61.4765 64.1156 61.9672 65.9335 61.9672C67.4717 61.9672 69.0099 61.6868 70.618 61.126C70.7579 61.0559 70.9676 61.0559 71.1075 61.0559C71.4571 61.0559 71.5969 61.2662 71.5969 61.6167V62.5981Z" fill="#8438FA"/>
  <path d="M73.415 56.4294C73.415 51.4524 75.5825 48.9288 79.8476 48.9288C82.1549 48.9288 83.8329 49.6298 84.8118 51.1019C85.5809 52.2936 86.0004 54.046 86.0004 56.4294C86.0004 57.0603 85.6508 57.4108 84.9516 57.4108H75.6524C75.7224 60.425 77.2606 61.8971 80.337 61.8971C81.8752 61.8971 83.4134 61.6167 85.0215 61.0559C85.1614 60.9858 85.3711 60.9858 85.511 60.9858C85.8606 60.9858 86.0004 61.1961 86.0004 61.5466V62.6682C84.5321 63.5093 82.7142 64 80.4069 64C75.7224 63.8598 73.415 61.4064 73.415 56.4294ZM83.8329 55.3078C83.6931 53.8357 83.4134 52.7843 82.9939 52.1534C82.3646 51.3122 81.3159 50.8916 79.8476 50.8916C78.3093 50.8916 77.2606 51.3122 76.5614 52.1534C76.002 52.7843 75.7224 53.8357 75.5825 55.3078H83.8329Z" fill="#8438FA"/>
  <path d="M12.4453 41.7787C12.4453 42.6199 12.1656 43.3209 11.6761 43.7415C11.1867 44.2322 10.4875 44.4425 9.57858 44.4425C8.73956 44.4425 8.04037 44.2322 7.48102 43.7415C6.92167 43.2508 6.71191 42.6199 6.71191 41.7787V39.9562C6.71191 39.115 6.99159 38.414 7.48102 37.9934C7.97045 37.5027 8.66964 37.2924 9.57858 37.2924C10.4176 37.2924 11.1168 37.5027 11.6761 37.9934C12.2355 38.4841 12.4453 39.115 12.4453 39.9562V41.7787ZM8.32004 38.6944C7.97045 38.9748 7.83061 39.3954 7.83061 39.9562V41.7787C7.83061 42.3395 7.97045 42.69 8.32004 43.0405C8.59972 43.3209 9.01923 43.4611 9.57858 43.4611C10.068 43.4611 10.4875 43.3209 10.8371 43.0405C11.1867 42.7601 11.3266 42.3395 11.3266 41.7787V39.9562C11.3266 39.4655 11.1867 39.0449 10.8371 38.6944C10.5574 38.414 10.1379 38.2738 9.57858 38.2738C9.01923 38.2738 8.59972 38.414 8.32004 38.6944Z" fill="#8438FA"/>
  <path d="M16.2903 39.115C17.8285 39.115 18.5976 40.0263 18.5976 41.7787C18.5976 43.6013 17.7586 44.4425 16.0806 44.4425C15.5212 44.4425 15.0318 44.3724 14.6822 44.2322V45.7042C14.6822 45.8444 14.6123 45.9846 14.5423 46.0547C14.4724 46.1248 14.3326 46.1949 14.1228 46.1949H13.5635V39.1851H14.1228C14.2627 39.1851 14.4025 39.2552 14.5423 39.3253C14.6822 39.4655 14.6822 39.5356 14.6822 39.6758C15.0318 39.2552 15.5212 39.115 16.2903 39.115ZM14.6822 43.1807C15.1716 43.3209 15.5911 43.4611 16.0806 43.4611C16.57 43.4611 16.9895 43.3209 17.1993 43.0405C17.409 42.7601 17.4789 42.3395 17.4789 41.7787C17.4789 41.2179 17.409 40.7973 17.1993 40.5169C16.9895 40.2366 16.6399 40.0964 16.0806 40.0964C15.3114 40.0964 14.822 40.3768 14.6123 40.9375V43.1807H14.6822Z" fill="#8438FA"/>
  <path d="M19.3672 41.7787C19.3672 39.9562 20.1363 39.115 21.7444 39.115C22.5834 39.115 23.2127 39.3954 23.5623 39.9562C23.842 40.3768 23.9818 41.0076 23.9818 41.8488C23.9818 42.1993 23.7721 42.3395 23.4225 42.3395H20.4859C20.4859 43.1106 20.9753 43.5312 21.8843 43.5312C22.3737 43.5312 22.8631 43.4611 23.3526 43.2508C23.4225 43.2508 23.4924 43.2508 23.5623 43.2508C23.7721 43.2508 23.9119 43.391 23.9119 43.6013V44.092C23.3526 44.4425 22.6534 44.5827 21.8143 44.5827C20.2062 44.4425 19.3672 43.5312 19.3672 41.7787ZM22.7932 41.2179C22.7932 40.8674 22.6534 40.587 22.5834 40.4468C22.4436 40.2366 22.094 40.0964 21.6745 40.0964C21.255 40.0964 20.9054 40.2366 20.6956 40.4468C20.5558 40.6571 20.416 40.9375 20.416 41.2179H22.7932Z" fill="#8438FA"/>
  <path d="M29.4359 44.3724H28.8766C28.7367 44.3724 28.5969 44.3023 28.4571 44.2322C28.3871 44.1621 28.3172 44.0219 28.3172 43.8817V41.0077C28.3172 40.3768 28.0376 40.0964 27.4083 40.0964C26.6392 40.0964 26.2197 40.4469 25.94 41.0777V43.8817C25.94 44.0219 25.8701 44.1621 25.8002 44.2322C25.6603 44.3724 25.5904 44.3724 25.3806 44.3724H24.8213V39.115H25.3806C25.5205 39.115 25.6603 39.1851 25.8002 39.2552C25.8701 39.3253 25.94 39.4655 25.94 39.6057C26.2896 39.1851 26.779 39.0449 27.4782 39.0449C28.7367 39.0449 29.366 39.6758 29.366 40.8675V44.3724H29.4359Z" fill="#8438FA"/>
</svg>