<svg width="1440" height="262" viewBox="0 0 1440 262" fill="none" xmlns="http://www.w3.org/2000/svg">
<g opacity="0.75">
<path opacity="0.5" d="M757.784 31.0218L758.074 44.6403L758.134 47.1963L755.599 47.2462H755.19L742.766 47.5258C734.992 47.406 728.645 41.3056 728.156 33.5678L727.896 21.407L727.876 20.6382L727.816 18.0823L730.351 18.0324H730.76L742.855 17.7628C750.539 17.6829 756.926 23.4638 757.735 30.9819C757.735 30.9819 757.775 30.9819 757.775 31.0218H757.784Z" stroke="#20EDBA" stroke-width="1.33333" stroke-miterlimit="10"/>
<path opacity="0.5" d="M758.383 232.753L759.101 242.198L759.241 243.966L757.485 244.095L757.205 244.115L748.593 244.774C743.194 244.994 738.554 240.99 737.915 235.639L737.267 227.212L737.227 226.683L737.087 224.916L738.843 224.786L739.123 224.766L747.515 224.127C752.844 223.777 757.495 227.551 758.353 232.743C758.353 232.743 758.383 232.743 758.383 232.773V232.753Z" stroke="#20EDBA" stroke-width="1.33333" stroke-miterlimit="10"/>
<path opacity="0.5" d="M801.364 29.7138L801.863 37.3718L801.953 38.8095L800.526 38.8993H800.296L793.311 39.3686C788.94 39.4984 785.217 36.2136 784.748 31.8704L784.299 25.0412L784.269 24.6119L784.18 23.1742L785.607 23.0843H785.836L792.632 22.625C796.953 22.3854 800.686 25.4905 801.334 29.7039C801.334 29.7039 801.354 29.7039 801.354 29.7238L801.364 29.7138Z" stroke="#20EDBA" stroke-width="1.33333" stroke-miterlimit="10"/>
<path opacity="0.5" d="M807.522 79.1959L807.262 86.2647L807.212 87.5926L805.895 87.5427H805.686L799.239 87.2931C795.217 86.9935 792.114 83.6388 792.094 79.6152L792.323 73.3052V72.9058L792.383 71.5779L793.7 71.6278H793.91L800.187 71.8674C804.169 72.0571 807.302 75.2421 807.502 79.1759C807.502 79.1759 807.522 79.1759 807.522 79.1959Z" stroke="#20EDBA" stroke-width="1.33333" stroke-miterlimit="10"/>
<path opacity="0.5" d="M802.432 188.643L802.362 197.669V199.356L800.666 199.346H800.396L792.163 199.276C787.014 199.046 782.932 194.873 782.763 189.741L782.833 181.684V181.175L782.853 179.487H784.529L784.799 179.507L792.822 179.577C797.911 179.677 802.023 183.631 802.422 188.623C802.422 188.623 802.452 188.623 802.452 188.653L802.432 188.643Z" stroke="#20EDBA" stroke-width="1.33333" stroke-miterlimit="10"/>
<path opacity="0.5" d="M810.655 230.397L811.464 240.671L811.613 242.598L809.697 242.748L809.388 242.768L800.007 243.506C794.13 243.756 789.07 239.403 788.362 233.582L787.643 224.407L787.593 223.828L787.443 221.901L789.359 221.751L789.669 221.731L798.8 221.012C804.608 220.623 809.677 224.716 810.615 230.367C810.615 230.367 810.645 230.367 810.645 230.397H810.655Z" stroke="#20EDBA" stroke-width="1.33333" stroke-miterlimit="10"/>
<path opacity="0.5" d="M859.284 34.6561L858.825 45.7985L858.736 47.8852L856.66 47.7953H856.321L846.152 47.366C839.805 46.8768 834.935 41.5552 834.925 35.2152L835.334 25.2709L835.364 24.6419L835.454 22.5552L837.529 22.645H837.869L847.768 23.0644C854.055 23.3839 858.975 28.4359 859.255 34.6261C859.255 34.6261 859.284 34.6261 859.284 34.6561Z" stroke="#20EDBA" stroke-width="1.33333" stroke-miterlimit="10"/>
<path opacity="0.5" d="M860.103 82.3108L859.564 96.5384L859.464 99.2042L856.82 99.1043L856.391 99.0844L843.408 98.5951C835.304 97.9961 829.067 91.2268 829.027 83.1295L829.506 70.4296L829.536 69.6209L829.636 66.9551L832.281 67.0549L832.71 67.0749L845.344 67.5541C853.367 67.9435 859.664 74.3634 860.053 82.2709C860.053 82.2709 860.093 82.2709 860.093 82.3108H860.103Z" stroke="#20EDBA" stroke-width="1.33333" stroke-miterlimit="10"/>
<path opacity="0.5" d="M850.992 129.197L850.703 135.976L850.643 137.244L849.385 137.194H849.186L842.999 136.915C839.137 136.605 836.173 133.36 836.183 129.496L836.442 123.436L836.462 123.057L836.522 121.789L837.779 121.838H837.979L844.006 122.108C847.829 122.318 850.822 125.393 850.982 129.167C850.982 129.167 851.002 129.167 851.002 129.187L850.992 129.197Z" stroke="#20EDBA" stroke-width="1.33333" stroke-miterlimit="10"/>
<path opacity="0.5" d="M859.055 185.628L860.153 199.636L860.363 202.262L857.758 202.471L857.339 202.501L844.555 203.51C836.542 203.849 829.646 197.928 828.678 189.991L827.7 177.481L827.64 176.692L827.431 174.066L830.035 173.856L830.454 173.826L842.909 172.848C850.822 172.309 857.738 177.89 859.015 185.598C859.015 185.598 859.055 185.598 859.065 185.638L859.055 185.628Z" stroke="#20EDBA" stroke-width="1.33333" stroke-miterlimit="10"/>
<path opacity="0.5" d="M858.216 229.938L858.556 241.47L858.616 243.636L856.47 243.696H856.121L845.592 244.016C839.006 243.966 833.587 238.834 833.128 232.284L832.829 221.99L832.809 221.341L832.749 219.175L834.895 219.115H835.244L845.493 218.805C851.999 218.686 857.448 223.538 858.186 229.908C858.186 229.908 858.216 229.908 858.226 229.938H858.216Z" stroke="#20EDBA" stroke-width="1.33333" stroke-miterlimit="10"/>
<path opacity="0.5" d="M912.165 27.5072L913.073 38.4999L913.243 40.5566L911.197 40.7264L910.868 40.7563L900.839 41.585C894.552 41.8746 889.113 37.2518 888.335 31.0217L887.526 21.2072L887.476 20.5882L887.307 18.5314L889.352 18.3617L889.682 18.3317L899.452 17.523C905.659 17.0737 911.107 21.4368 912.135 27.4773C912.135 27.4773 912.165 27.4773 912.175 27.5072H912.165Z" stroke="#20EDBA" stroke-width="1.33333" stroke-miterlimit="10"/>
<path opacity="0.5" d="M904.422 79.5852L904.062 88.8705L903.993 90.6078L902.266 90.5379H901.987L893.514 90.1984C888.225 89.799 884.154 85.376 884.144 80.0944L884.463 71.8074L884.483 71.2783L884.553 69.541L886.279 69.6109H886.559L894.812 69.9404C900.051 70.2 904.152 74.4033 904.402 79.5552C904.402 79.5552 904.432 79.5552 904.432 79.5852H904.422Z" stroke="#20EDBA" stroke-width="1.33333" stroke-miterlimit="10"/>
<path opacity="0.5" d="M906.388 132.542L906.857 143.005L906.947 144.962L905.001 145.052H904.691L895.151 145.491C889.173 145.541 884.194 140.958 883.675 135.028L883.255 125.692L883.226 125.103L883.136 123.146L885.082 123.057H885.391L894.682 122.627C900.59 122.428 905.589 126.761 906.348 132.522C906.348 132.522 906.378 132.522 906.378 132.552L906.388 132.542Z" stroke="#20EDBA" stroke-width="1.33333" stroke-miterlimit="10"/>
<path opacity="0.5" d="M906.028 184.4V195.522V197.609H903.962H903.633H893.484C887.137 197.379 882.058 192.287 881.788 185.957V176.023V175.394V173.307H883.854H884.183H894.073C900.35 173.367 905.459 178.199 905.998 184.36C905.998 184.36 906.028 184.36 906.028 184.39V184.4Z" stroke="#20EDBA" stroke-width="1.33333" stroke-miterlimit="10"/>
<path opacity="0.5" d="M909.511 230.886L908.742 240.921L908.603 242.808L906.736 242.668L906.437 242.648L897.276 241.939C891.568 241.29 887.336 236.338 887.536 230.617L888.225 221.651L888.265 221.082L888.404 219.195L890.27 219.335L890.57 219.355L899.491 220.043C905.15 220.543 909.431 225.255 909.481 230.846C909.481 230.846 909.511 230.846 909.511 230.876V230.886Z" stroke="#20EDBA" stroke-width="1.33333" stroke-miterlimit="10"/>
<path opacity="0.5" d="M956.184 33.6676L955.925 46.1679L955.875 48.5142L953.549 48.4643H953.17L941.764 48.2247C934.639 47.8153 929.06 41.9745 928.9 34.8657L929.13 23.7034V22.9945L929.19 20.6482L931.515 20.6981H931.894L943.001 20.9278C950.057 21.1474 955.685 26.6887 956.144 33.6277C956.144 33.6277 956.184 33.6277 956.184 33.6676Z" stroke="#20EDBA" stroke-width="1.33333" stroke-miterlimit="10"/>
<path opacity="0.5" d="M966.074 82.6203V96.718V99.3639H963.449H963.03H950.167C942.123 99.0743 935.697 92.6045 935.357 84.5972V72.0071V71.2083V68.5625H937.982H938.401H950.925C958.879 68.6424 965.355 74.7727 966.034 82.5804C966.034 82.5804 966.074 82.5804 966.074 82.6203Z" stroke="#20EDBA" stroke-width="1.33333" stroke-miterlimit="10"/>
<path opacity="0.5" d="M954.158 134.648L954.607 144.053L954.687 145.821L952.941 145.9H952.661L944.079 146.32C938.7 146.38 934.21 142.276 933.731 136.935L933.331 128.538L933.302 128.009L933.222 126.241L934.968 126.162H935.247L943.6 125.752C948.909 125.553 953.43 129.436 954.128 134.618C954.128 134.618 954.158 134.618 954.158 134.648Z" stroke="#20EDBA" stroke-width="1.33333" stroke-miterlimit="10"/>
<path opacity="0.5" d="M956.334 179.827L956.684 190.7L956.753 192.736L954.728 192.796H954.398L944.479 193.126C938.272 193.096 933.152 188.273 932.693 182.103L932.384 172.398L932.364 171.779L932.294 169.743L934.32 169.683H934.649L944.309 169.363C950.446 169.234 955.596 173.796 956.304 179.797C956.304 179.797 956.334 179.797 956.334 179.827Z" stroke="#20EDBA" stroke-width="1.33333" stroke-miterlimit="10"/>
<path opacity="0.5" d="M958.55 230.137L959.468 242.059L959.637 244.295L957.422 244.465L957.063 244.495L946.185 245.333C939.369 245.613 933.501 240.561 932.693 233.812L931.875 223.168L931.825 222.49L931.655 220.253L933.871 220.083L934.23 220.053L944.828 219.235C951.564 218.785 957.432 223.548 958.52 230.098C958.52 230.098 958.56 230.098 958.56 230.127L958.55 230.137Z" stroke="#20EDBA" stroke-width="1.33333" stroke-miterlimit="10"/>
<path opacity="0.5" d="M1003.04 25.2309L1003.78 34.2067L1003.92 35.894L1002.25 36.0338L1001.98 36.0538L993.786 36.7227C988.647 36.9524 984.216 33.1783 983.578 28.0864L982.919 20.069L982.879 19.5598L982.739 17.8725L984.406 17.7327L984.675 17.7127L992.659 17.0638C997.728 16.7043 1002.18 20.2687 1003.02 25.2009C1003.02 25.2009 1003.05 25.2009 1003.05 25.2209L1003.04 25.2309Z" stroke="#20EDBA" stroke-width="1.33333" stroke-miterlimit="10"/>
<path opacity="0.5" d="M1006.28 75.9308L1006.31 85.7653V87.6124H1004.48H1004.19L995.214 87.6424C989.605 87.4527 985.105 82.9597 984.855 77.3786L984.825 68.6024V68.0433V66.1962H986.651H986.951L995.683 66.1663C1001.23 66.2062 1005.76 70.4695 1006.25 75.9009C1006.25 75.9009 1006.28 75.9009 1006.28 75.9308Z" stroke="#20EDBA" stroke-width="1.33333" stroke-miterlimit="10"/>
<path opacity="0.5" d="M1017.74 134.508L1016.56 148.426L1016.34 151.032L1013.75 150.813L1013.33 150.773L1000.62 149.694C992.709 148.736 986.901 141.817 987.23 133.879L988.278 121.449L988.348 120.66L988.567 118.054L991.162 118.274L991.581 118.314L1003.95 119.362C1011.79 120.111 1017.68 126.701 1017.69 134.459C1017.69 134.459 1017.73 134.459 1017.73 134.508H1017.74Z" stroke="#20EDBA" stroke-width="1.33333" stroke-miterlimit="10"/>
<path opacity="0.5" d="M1007.81 177.061L1007.14 189.072L1007.01 191.329L1004.77 191.199L1004.41 191.179L993.458 190.57C986.622 189.941 981.452 184.13 981.542 177.281L982.141 166.558L982.181 165.879L982.311 163.623L984.546 163.752L984.905 163.772L995.573 164.371C1002.35 164.821 1007.57 170.352 1007.78 177.031C1007.78 177.031 1007.82 177.031 1007.81 177.071V177.061Z" stroke="#20EDBA" stroke-width="1.33333" stroke-miterlimit="10"/>
<path opacity="0.5" d="M1008.48 234.171V243.007L1008.5 244.665H1006.85H1006.58H998.517C993.477 244.505 989.436 240.451 989.216 235.429V227.542L989.206 227.042V225.385H990.853H991.122L998.976 225.375C1003.97 225.425 1008.03 229.259 1008.47 234.151C1008.47 234.151 1008.5 234.151 1008.5 234.181L1008.48 234.171Z" stroke="#20EDBA" stroke-width="1.33333" stroke-miterlimit="10"/>
<path opacity="0.5" d="M1060.04 31.9003L1060.79 41.8546L1060.93 43.7216L1059.07 43.8614L1058.77 43.8814L1049.68 44.5603C1043.98 44.78 1039.1 40.5566 1038.44 34.9056L1037.78 26.0196L1037.74 25.4605L1037.6 23.5934L1039.45 23.4536L1039.75 23.4337L1048.6 22.7747C1054.23 22.4153 1059.12 26.399 1060.01 31.8803C1060.01 31.8803 1060.04 31.8803 1060.04 31.9103V31.9003Z" stroke="#20EDBA" stroke-width="1.33333" stroke-miterlimit="10"/>
<path opacity="0.5" d="M1062.18 83.5489L1062.25 93.5531V95.4301L1060.4 95.4401H1060.1L1050.97 95.51C1045.26 95.3403 1040.66 90.7874 1040.38 85.0964L1040.32 76.1605V75.5914L1040.3 73.7144H1042.17L1042.47 73.6944L1051.36 73.6345C1057.01 73.6545 1061.64 77.9677 1062.16 83.5089C1062.16 83.5089 1062.19 83.5089 1062.19 83.5389L1062.18 83.5489Z" stroke="#20EDBA" stroke-width="1.33333" stroke-miterlimit="10"/>
<path opacity="0.5" d="M1063.61 134.359L1062.98 144.732L1062.86 146.679L1060.93 146.559L1060.62 146.539L1051.15 145.97C1045.24 145.401 1040.8 140.359 1040.9 134.439L1041.46 125.173L1041.5 124.584L1041.62 122.637L1043.55 122.757L1043.86 122.777L1053.08 123.336C1058.93 123.755 1063.43 128.548 1063.58 134.319C1063.58 134.319 1063.61 134.319 1063.61 134.349V134.359Z" stroke="#20EDBA" stroke-width="1.33333" stroke-miterlimit="10"/>
<path opacity="0.5" d="M1054.55 186.107L1054 195.941L1053.9 197.788L1052.08 197.689L1051.78 197.669L1042.81 197.169C1037.21 196.65 1032.98 191.888 1033.06 186.287L1033.54 177.51L1033.57 176.951L1033.67 175.104L1035.5 175.204L1035.8 175.224L1044.54 175.713C1050.09 176.083 1054.36 180.606 1054.53 186.077C1054.53 186.077 1054.56 186.077 1054.56 186.107H1054.55Z" stroke="#20EDBA" stroke-width="1.33333" stroke-miterlimit="10"/>
<path opacity="0.5" d="M1059.69 229.139L1059.1 239.123L1058.99 240.99L1057.14 240.88L1056.84 240.86L1047.72 240.321C1042.05 239.782 1037.76 234.94 1037.85 229.249L1038.36 220.333L1038.39 219.764L1038.5 217.897L1040.36 218.007L1040.66 218.027L1049.53 218.546C1055.16 218.935 1059.49 223.538 1059.65 229.099C1059.65 229.099 1059.68 229.099 1059.68 229.129L1059.69 229.139Z" stroke="#20EDBA" stroke-width="1.33333" stroke-miterlimit="10"/>
<path opacity="0.5" d="M1115.74 30.303L1114.93 42.5836L1114.78 44.8899L1112.49 44.7402L1112.12 44.7202L1100.92 43.9714C1093.93 43.2525 1088.69 37.242 1088.86 30.2431L1089.59 19.2704L1089.64 18.5715L1089.79 16.2651L1092.07 16.4149L1092.44 16.4349L1103.36 17.1637C1110.29 17.6929 1115.58 23.4139 1115.71 30.2531C1115.71 30.2531 1115.75 30.2531 1115.74 30.293V30.303Z" stroke="#20EDBA" stroke-width="1.33333" stroke-miterlimit="10"/>
<path opacity="0.5" d="M1106.4 78.6366L1105.85 89.4495L1105.75 91.4763L1103.74 91.3765L1103.41 91.3565L1093.54 90.8473C1087.38 90.3082 1082.7 85.0964 1082.75 78.9361L1083.25 69.2813L1083.28 68.6723L1083.38 66.6455L1085.4 66.7454L1085.73 66.7653L1095.34 67.2545C1101.43 67.6339 1106.16 72.5861 1106.38 78.6066C1106.38 78.6066 1106.41 78.6066 1106.41 78.6366H1106.4Z" stroke="#20EDBA" stroke-width="1.33333" stroke-miterlimit="10"/>
<path opacity="0.5" d="M1108.08 132.621L1108.8 144.173L1108.93 146.34L1106.78 146.47L1106.43 146.49L1095.9 147.138C1089.29 147.308 1083.69 142.336 1083.01 135.786L1082.37 125.473L1082.33 124.824L1082.2 122.657L1084.35 122.527L1084.7 122.507L1094.97 121.868C1101.49 121.529 1107.11 126.222 1108.06 132.581C1108.06 132.581 1108.09 132.581 1108.1 132.611L1108.08 132.621Z" stroke="#20EDBA" stroke-width="1.33333" stroke-miterlimit="10"/>
<path opacity="0.5" d="M1110.83 183.621L1110.2 195.033L1110.08 197.17L1107.95 197.05L1107.61 197.03L1097.19 196.451C1090.7 195.852 1085.78 190.32 1085.87 183.821L1086.44 173.627L1086.48 172.978L1086.59 170.841L1088.72 170.961L1089.06 170.981L1099.2 171.55C1105.64 171.979 1110.61 177.231 1110.79 183.581C1110.79 183.581 1110.82 183.581 1110.82 183.621H1110.83Z" stroke="#20EDBA" stroke-width="1.33333" stroke-miterlimit="10"/>
<path opacity="0.5" d="M1113.14 233.083L1113.39 243.287L1113.44 245.204L1111.54 245.254H1111.23L1101.92 245.483C1096.09 245.413 1091.32 240.841 1090.95 235.05L1090.73 225.934V225.355L1090.67 223.438L1092.56 223.388H1092.87L1101.94 223.159C1107.7 223.079 1112.5 227.402 1113.13 233.043C1113.13 233.043 1113.16 233.043 1113.16 233.073L1113.14 233.083Z" stroke="#20EDBA" stroke-width="1.33333" stroke-miterlimit="10"/>
<path opacity="0.5" d="M1161.49 24.0028L1162.3 34.6161L1162.45 36.603L1160.47 36.7527L1160.15 36.7727L1150.46 37.5115C1144.39 37.7511 1139.18 33.2482 1138.47 27.2377L1137.75 17.7527L1137.7 17.1537L1137.55 15.1668L1139.53 15.017L1139.85 14.9971L1149.28 14.2782C1155.27 13.8888 1160.5 18.1321 1161.45 23.9729C1161.45 23.9729 1161.48 23.9729 1161.48 24.0028H1161.49Z" stroke="#20EDBA" stroke-width="1.33333" stroke-miterlimit="10"/>
<path opacity="0.5" d="M1163.33 80.6634L1163 93.5231L1162.94 95.9293L1160.54 95.8694H1160.15L1148.42 95.5599C1141.09 95.1006 1135.37 89.0602 1135.25 81.7517L1135.54 70.2698L1135.56 69.541L1135.62 67.1348L1138.02 67.1947H1138.41L1149.83 67.4942C1157.09 67.7538 1162.85 73.4947 1163.29 80.6235C1163.29 80.6235 1163.33 80.6235 1163.33 80.6634Z" stroke="#20EDBA" stroke-width="1.33333" stroke-miterlimit="10"/>
<path opacity="0.5" d="M1158.51 128.798L1159.38 140.799L1159.54 143.045L1157.31 143.205L1156.95 143.235L1146 144.033C1139.14 144.283 1133.27 139.181 1132.48 132.382L1131.7 121.669L1131.65 120.99L1131.49 118.743L1133.73 118.584L1134.09 118.554L1144.74 117.775C1151.52 117.356 1157.41 122.168 1158.48 128.768C1158.48 128.768 1158.52 128.768 1158.52 128.798H1158.51Z" stroke="#20EDBA" stroke-width="1.33333" stroke-miterlimit="10"/>
<path opacity="0.5" d="M1156.6 184.679L1156.35 192.776L1156.3 194.294L1154.79 194.244H1154.55L1147.17 194.014C1142.56 193.705 1138.98 189.881 1138.93 185.278L1139.15 178.05V177.59L1139.21 176.073L1140.71 176.123H1140.95L1148.15 176.352C1152.72 176.542 1156.32 180.166 1156.58 184.659C1156.58 184.659 1156.6 184.659 1156.6 184.679Z" stroke="#20EDBA" stroke-width="1.33333" stroke-miterlimit="10"/>
<path opacity="0.5" d="M1154.71 231.745L1154.96 240.002L1155.01 241.55L1153.48 241.599H1153.23L1145.69 241.839C1140.97 241.809 1137.09 238.135 1136.75 233.452L1136.53 226.074V225.605L1136.47 224.057L1138.01 224.007H1138.26L1145.59 223.778C1150.25 223.688 1154.16 227.162 1154.69 231.715C1154.69 231.715 1154.71 231.715 1154.72 231.735L1154.71 231.745Z" stroke="#20EDBA" stroke-width="1.33333" stroke-miterlimit="10"/>
<path opacity="0.5" d="M1209 25.5905L1209.39 33.3083L1209.46 34.756L1208.02 34.8259H1207.79L1200.75 35.1953C1196.34 35.2552 1192.64 31.9005 1192.23 27.5174L1191.88 20.6283L1191.86 20.189L1191.79 18.7413L1193.22 18.6714H1193.45L1200.31 18.312C1204.67 18.1322 1208.38 21.3072 1208.97 25.5705C1208.97 25.5705 1208.99 25.5705 1208.99 25.5905H1209Z" stroke="#20EDBA" stroke-width="1.33333" stroke-miterlimit="10"/>
<path opacity="0.5" d="M1205.6 77.5783L1205.09 90.0985L1204.99 92.4448L1202.66 92.345L1202.29 92.325L1190.86 91.8557C1183.73 91.3066 1178.26 85.336 1178.25 78.2073L1178.7 67.0349L1178.73 66.326L1178.83 63.9797L1181.16 64.0796L1181.54 64.0995L1192.66 64.5588C1199.72 64.9183 1205.24 70.5993 1205.56 77.5483C1205.56 77.5483 1205.6 77.5483 1205.6 77.5883V77.5783Z" stroke="#20EDBA" stroke-width="1.33333" stroke-miterlimit="10"/>
<path opacity="0.5" d="M1207.1 126.88L1207.08 137.074V138.981H1205.18H1204.87L1195.57 138.961C1189.76 138.742 1185.12 134.059 1184.88 128.268L1184.9 119.173V118.594V116.687H1186.8H1187.11L1196.16 116.706C1201.91 116.776 1206.58 121.209 1207.07 126.86C1207.07 126.86 1207.1 126.86 1207.1 126.89V126.88Z" stroke="#20EDBA" stroke-width="1.33333" stroke-miterlimit="10"/>
<path opacity="0.5" d="M1209.3 176.991L1209.34 189.621V191.988H1207H1206.62L1195.09 192.028C1187.89 191.788 1182.11 186.017 1181.78 178.838L1181.74 167.566V166.847V164.481H1184.09H1184.47L1195.69 164.441C1202.81 164.491 1208.63 169.962 1209.26 176.951C1209.26 176.951 1209.3 176.951 1209.3 176.991Z" stroke="#20EDBA" stroke-width="1.33333" stroke-miterlimit="10"/>
<path opacity="0.5" d="M1210.71 232.274L1211.04 242.977L1211.1 244.984L1209.1 245.044H1208.78L1199.01 245.363C1192.9 245.333 1187.87 240.581 1187.42 234.501L1187.12 224.946L1187.1 224.337L1187.04 222.33L1189.03 222.27H1189.35L1198.86 221.96C1204.91 221.841 1209.97 226.333 1210.67 232.244C1210.67 232.244 1210.7 232.244 1210.7 232.274H1210.71Z" stroke="#20EDBA" stroke-width="1.33333" stroke-miterlimit="10"/>
<path opacity="0.5" d="M1259.97 29.9134L1259.58 40.0474L1259.51 41.9444L1257.62 41.8745H1257.32L1248.08 41.5051C1242.31 41.0658 1237.87 36.2534 1237.85 30.4825L1238.2 21.4368L1238.22 20.8677L1238.29 18.9707L1240.18 19.0406H1240.48L1249.48 19.4C1255.2 19.6796 1259.68 24.2623 1259.95 29.8935C1259.95 29.8935 1259.98 29.8935 1259.98 29.9234L1259.97 29.9134Z" stroke="#20EDBA" stroke-width="1.33333" stroke-miterlimit="10"/>
<path opacity="0.5" d="M1262.2 80.6533L1262.82 92.7343L1262.94 95.0007L1260.7 95.1205L1260.34 95.1405L1249.31 95.7096C1242.4 95.8094 1236.62 90.5577 1235.97 83.7085L1235.42 72.9255L1235.38 72.2466L1235.26 69.9802L1237.5 69.8604L1237.86 69.8404L1248.59 69.2913C1255.41 69.0117 1261.22 73.9739 1262.15 80.6334C1262.15 80.6334 1262.19 80.6334 1262.19 80.6633L1262.2 80.6533Z" stroke="#20EDBA" stroke-width="1.33333" stroke-miterlimit="10"/>
<path opacity="0.5" d="M1257.52 127.32L1257.08 135.717L1257 137.294L1255.44 137.214H1255.19L1247.52 136.795C1242.74 136.366 1239.11 132.312 1239.16 127.53L1239.56 120.031L1239.59 119.552L1239.67 117.975L1241.24 118.054H1241.48L1248.95 118.464C1253.69 118.763 1257.35 122.617 1257.51 127.29C1257.51 127.29 1257.54 127.29 1257.53 127.32H1257.52Z" stroke="#20EDBA" stroke-width="1.33333" stroke-miterlimit="10"/>
<path opacity="0.5" d="M1255.57 175.733L1255.63 185.128V186.886L1253.89 186.896H1253.61L1245.04 186.946C1239.68 186.786 1235.37 182.503 1235.11 177.171L1235.06 168.784V168.255L1235.05 166.498H1236.79L1237.07 166.488L1245.42 166.438C1250.72 166.458 1255.06 170.512 1255.54 175.713C1255.54 175.713 1255.57 175.713 1255.57 175.743V175.733Z" stroke="#20EDBA" stroke-width="1.33333" stroke-miterlimit="10"/>
<path opacity="0.5" d="M1261.52 229.988L1262.23 241.789L1262.36 244.005L1260.17 244.135L1259.82 244.155L1249.05 244.804C1242.3 244.964 1236.59 239.882 1235.91 233.193L1235.27 222.659L1235.23 221.99L1235.1 219.774L1237.29 219.644L1237.64 219.624L1248.13 218.995C1254.8 218.666 1260.53 223.468 1261.48 229.968C1261.48 229.968 1261.52 229.968 1261.52 229.998V229.988Z" stroke="#20EDBA" stroke-width="1.33333" stroke-miterlimit="10"/>
<path opacity="0.5" d="M1305.06 24.9813L1304.6 36.4632L1304.51 38.6198L1302.38 38.5299H1302.03L1291.55 38.0906C1285.01 37.5914 1279.98 32.11 1279.97 25.5704L1280.38 15.3166L1280.41 14.6676L1280.5 12.511L1282.64 12.6008H1282.99L1293.19 13.0302C1299.66 13.3596 1304.73 18.5614 1305.03 24.9414C1305.03 24.9414 1305.06 24.9414 1305.06 24.9813Z" stroke="#20EDBA" stroke-width="1.33333" stroke-miterlimit="10"/>
<path opacity="0.5" d="M1306.98 84.2179L1306.94 97.487V99.973H1304.46H1304.07L1291.96 99.9331C1284.4 99.6336 1278.36 93.5332 1278.07 85.9851L1278.11 74.1338V73.385L1278.12 70.8989H1280.58H1280.98L1292.77 70.9389C1300.25 71.0387 1306.33 76.8296 1306.94 84.178C1306.94 84.178 1306.98 84.178 1306.98 84.2179Z" stroke="#20EDBA" stroke-width="1.33333" stroke-miterlimit="10"/>
<path opacity="0.5" d="M1308.65 131.693L1308.23 142.037L1308.15 143.974L1306.22 143.894H1305.91L1296.47 143.494C1290.58 143.035 1286.05 138.103 1286.05 132.222L1286.43 122.987L1286.45 122.398L1286.53 120.461L1288.46 120.541H1288.77L1297.96 120.93C1303.8 121.229 1308.36 125.912 1308.62 131.663C1308.62 131.663 1308.65 131.663 1308.65 131.693Z" stroke="#20EDBA" stroke-width="1.33333" stroke-miterlimit="10"/>
<path opacity="0.5" d="M1308.5 179.707L1307.89 190.081L1307.77 192.027L1305.83 191.918L1305.52 191.898L1296.05 191.339C1290.14 190.769 1285.69 185.737 1285.79 179.827L1286.34 170.561L1286.37 169.972L1286.49 168.025L1288.43 168.135L1288.74 168.155L1297.96 168.704C1303.81 169.114 1308.31 173.906 1308.47 179.677C1308.47 179.677 1308.5 179.677 1308.5 179.707Z" stroke="#20EDBA" stroke-width="1.33333" stroke-miterlimit="10"/>
<path opacity="0.5" d="M1305.55 229.868L1305.2 238.754L1305.14 240.421L1303.49 240.361H1303.22L1295.11 240.032C1290.05 239.652 1286.16 235.419 1286.14 230.367L1286.45 222.44L1286.47 221.94L1286.53 220.273L1288.19 220.333H1288.46L1296.35 220.652C1301.36 220.902 1305.29 224.916 1305.53 229.848C1305.53 229.848 1305.56 229.848 1305.56 229.878L1305.55 229.868Z" stroke="#20EDBA" stroke-width="1.33333" stroke-miterlimit="10"/>
<path opacity="0.5" d="M1358.54 33.8174L1357.83 42.8132L1357.7 44.5005L1356.03 44.3707L1355.76 44.3507L1347.55 43.7018C1342.43 43.1127 1338.65 38.6597 1338.84 33.5278L1339.48 25.5005L1339.52 24.9913L1339.65 23.304L1341.33 23.4338L1341.6 23.4537L1349.59 24.0827C1354.66 24.542 1358.48 28.7753 1358.52 33.7874C1358.52 33.7874 1358.55 33.7874 1358.54 33.8174Z" stroke="#20EDBA" stroke-width="1.33333" stroke-miterlimit="10"/>
<path opacity="0.5" d="M1358.29 76.0108L1358.65 86.7838L1358.72 88.8006L1356.72 88.8705H1356.4L1346.56 89.21C1340.4 89.19 1335.32 84.4176 1334.86 78.2972L1334.54 68.6724L1334.52 68.0634L1334.45 66.0466L1336.46 65.9767H1336.78L1346.36 65.6472C1352.45 65.5074 1357.54 70.0303 1358.26 75.9809C1358.26 75.9809 1358.29 75.9809 1358.29 76.0108Z" stroke="#20EDBA" stroke-width="1.33333" stroke-miterlimit="10"/>
<path opacity="0.5" d="M1358.11 133.031L1358.35 142.516L1358.39 144.293L1356.63 144.333H1356.34L1347.69 144.553C1342.28 144.493 1337.84 140.249 1337.48 134.868L1337.27 126.401V125.862L1337.21 124.085L1338.97 124.045H1339.26L1347.69 123.825C1353.03 123.746 1357.5 127.759 1358.08 133.001C1358.08 133.001 1358.11 133.001 1358.11 133.031Z" stroke="#20EDBA" stroke-width="1.33333" stroke-miterlimit="10"/>
<path opacity="0.5" d="M1354.25 184.51L1353.93 194.434L1353.87 196.291L1352.03 196.231H1351.73L1342.68 195.932C1337.03 195.542 1332.65 190.85 1332.59 185.198L1332.88 176.342L1332.9 175.783L1332.96 173.926L1334.8 173.986H1335.1L1343.92 174.276C1349.52 174.515 1353.94 178.978 1354.24 184.48C1354.24 184.48 1354.27 184.48 1354.27 184.51H1354.25Z" stroke="#20EDBA" stroke-width="1.33333" stroke-miterlimit="10"/>
<path opacity="0.5" d="M1355.33 230.537L1354.52 242.758L1354.37 245.044L1352.1 244.894L1351.73 244.874L1340.58 244.135C1333.62 243.417 1328.42 237.446 1328.58 230.487L1329.3 219.574L1329.35 218.885L1329.5 216.599L1331.78 216.749L1332.15 216.769L1343 217.487C1349.9 218.017 1355.16 223.698 1355.3 230.507C1355.3 230.507 1355.34 230.507 1355.33 230.547V230.537Z" stroke="#20EDBA" stroke-width="1.33333" stroke-miterlimit="10"/>
<path opacity="0.5" d="M1409.48 29.7738L1409.38 38.8994L1409.36 40.6067L1407.66 40.5867H1407.39L1399.07 40.4969C1393.87 40.2473 1389.75 36.0239 1389.59 30.8321L1389.68 22.685V22.1658L1389.7 20.4585L1391.4 20.4785H1391.66L1399.77 20.5683C1404.92 20.6781 1409.06 24.6918 1409.45 29.7438C1409.45 29.7438 1409.48 29.7438 1409.48 29.7738Z" stroke="#20EDBA" stroke-width="1.33333" stroke-miterlimit="10"/>
<path opacity="0.5" d="M1409.33 77.7479L1409.92 92.4447L1410.03 95.2004L1407.29 95.3102L1406.85 95.3302L1393.45 95.8693C1385.06 95.8993 1378.08 89.4395 1377.39 81.0926L1376.86 67.9734L1376.83 67.1447L1376.72 64.389L1379.46 64.2792L1379.9 64.2592L1392.95 63.74C1401.24 63.4904 1408.25 69.6108 1409.28 77.708C1409.28 77.708 1409.32 77.708 1409.33 77.7479Z" stroke="#20EDBA" stroke-width="1.33333" stroke-miterlimit="10"/>
<path opacity="0.5" d="M1412.5 128.019L1411.78 138.951L1411.64 140.998L1409.61 140.868L1409.28 140.848L1399.3 140.189C1393.08 139.55 1388.42 134.209 1388.57 127.979L1389.22 118.214L1389.26 117.595L1389.4 115.548L1391.43 115.678L1391.76 115.698L1401.47 116.337C1407.64 116.806 1412.34 121.888 1412.47 127.979C1412.47 127.979 1412.5 127.979 1412.5 128.009V128.019Z" stroke="#20EDBA" stroke-width="1.33333" stroke-miterlimit="10"/>
<path opacity="0.5" d="M1410.31 176.831L1409.55 190.011L1409.41 192.487L1406.95 192.347L1406.55 192.327L1394.53 191.628C1387.02 190.919 1381.36 184.529 1381.48 177.011L1382.15 165.24L1382.19 164.491L1382.33 162.015L1384.79 162.155L1385.19 162.175L1396.9 162.854C1404.34 163.363 1410.07 169.443 1410.28 176.772C1410.28 176.772 1410.32 176.772 1410.32 176.812L1410.31 176.831Z" stroke="#20EDBA" stroke-width="1.33333" stroke-miterlimit="10"/>
<path opacity="0.5" d="M1407.38 233.912L1407.73 244.944L1407.79 247.011L1405.74 247.071H1405.41L1395.34 247.4C1389.04 247.37 1383.84 242.468 1383.38 236.208L1383.07 226.353L1383.05 225.734L1382.99 223.668L1385.05 223.608H1385.38L1395.18 223.288C1401.4 223.159 1406.62 227.791 1407.34 233.892C1407.34 233.892 1407.37 233.892 1407.37 233.922L1407.38 233.912Z" stroke="#20EDBA" stroke-width="1.33333" stroke-miterlimit="10"/>
</g>
</svg>
