<svg xmlns="http://www.w3.org/2000/svg" xmlns:xlink="http://www.w3.org/1999/xlink" viewBox="0,0,256,256" width="512px" height="512px" fill-rule="nonzero" fill="#ffffff"><g fill="#ffffff" fill-rule="nonzero" stroke="none" stroke-width="1" stroke-linecap="butt" stroke-linejoin="miter" stroke-miterlimit="10" stroke-dasharray="" stroke-dashoffset="0" font-family="none" font-weight="none" font-size="none" text-anchor="none" style="mix-blend-mode: normal"><g transform="scale(16,16)"><path d="M9,2v1h3.29297l-6.26953,6.27344l0.70313,0.70313l6.27344,-6.26953v3.29297h1v-5zM4,4c-1.10547,0 -2,0.89453 -2,2v6c0,1.10547 0.89453,2 2,2h6c1.10547,0 2,-0.89453 2,-2v-5l-1,1v4c0,0.55078 -0.44922,1 -1,1h-6c-0.55078,0 -1,-0.44922 -1,-1v-6c0,-0.55078 0.44922,-1 1,-1h4l1,-1z"></path></g></g></svg>