<svg id="Layer_1" data-name="Layer 1" xmlns="http://www.w3.org/2000/svg" viewBox="0 0 4817.57 1000"><rect width="100%" height="100%" y="296px" fill="#e3ceff"/><path fill="#e3ceff" class="cls-1" d="M4529.57,260.31c-290.53,44-562-69.34-846.42-99.61-128.29-13.66-253.86-.26-377.74,32.72-65.89,17.54-129.36,42.63-196,57.15-69.58,15.17-140.82,19.62-211.88,17.8a1749.23,1749.23,0,0,1-349-44.9c-86.63-20.2-173.23-41.48-260.7-57.79-89.83-16.76-182.35-20.5-273.14-9.88-82.36,9.64-160.47,38.83-239.56,62.32-78.32,23.26-158.49,41.17-240,48-69.61,5.82-139.21,3.62-208.67-2.69-237-24.73-465.84-122-703.95-113.7C412.52,157,210.09,246.47,0,240.59l3.06,55.78c.2,4.16,523.74,0,571.52,0l574.41,0q270.3,0,540.6,0h3128V182.17S4603.24,249.15,4529.57,260.31Z"/></svg>