<svg id="Layer_1" data-name="Layer 1" xmlns="http://www.w3.org/2000/svg" viewBox="0 0 156.86 60.32"><defs><style>.cls-1{fill:#fff;}.cls-2{fill:#00d9ba;}</style></defs><title>Tyk Logo</title><path class="cls-1" d="M1336.12,51.29a4,4,0,0,0-2.93-1.18h-30.93v3.72a3.74,3.74,0,0,0,1.18,2.77,4.05,4.05,0,0,0,3,1.21h9.11V98h4.43a4,4,0,0,0,2.93-1.18,3.87,3.87,0,0,0,1.21-2.8V57.82h13.25V54.1A3.87,3.87,0,0,0,1336.12,51.29Z" transform="translate(-1246.28 -50.12)"/><path class="cls-1" d="M1359.51,65.27a4,4,0,0,0-2.93,1.18,3.86,3.86,0,0,0-1.21,2.8V84.83c-1.43,4-4.39,5.87-9,5.87-3.85,0-5.72-1.78-5.72-5.43v-16a3.87,3.87,0,0,0-1.21-2.8,4,4,0,0,0-2.93-1.18h-4.14V86c0,8.18,4.42,12.33,13.14,12.33,4.29,0,7.6-1.48,9.86-4.41a11.69,11.69,0,0,1-1.69,5.95c-1.33,1.93-3.7,2.91-7,2.91a28.28,28.28,0,0,1-9.88-1.89,6.71,6.71,0,0,0-1.54-.21,2.56,2.56,0,0,0-2.85,2.82v3.28l.24.15a26.93,26.93,0,0,0,14,3.49c11.33,0,17.07-6.13,17.07-18.23V65.27Z" transform="translate(-1246.28 -50.12)"/><path class="cls-1" d="M1398,83.73a5.51,5.51,0,0,0-2.16-2.84,13,13,0,0,0,1.54-3.43l4.5-12.18h-4.62c-2.53,0-4.15,1-4.82,3l-3.38,9c-.26.67-1.06,1-2.37,1h-7V54.1a3.86,3.86,0,0,0-1.21-2.8,4,4,0,0,0-2.93-1.18h-4.14V99h4.14a4,4,0,0,0,3-1.2,3.74,3.74,0,0,0,1.18-2.78V85h8.95c1.27,0,1.61.58,1.75,1l3.45,10.12c.63,1.9,2.24,2.86,4.76,2.86h4.6Z" transform="translate(-1246.28 -50.12)"/><path class="cls-2" d="M1293.67,72.21a23.74,23.74,0,0,0-23.32-21.6h-24.07V75.26h0a23.74,23.74,0,0,0,22.85,22.8v0h24.61V72.28Z" transform="translate(-1246.28 -50.12)"/></svg>