<svg width="101" height="100" viewBox="0 0 101 100" fill="none" xmlns="http://www.w3.org/2000/svg">
<path d="M87.1923 17.1724H11.6107C10.0668 17.1724 8.81152 18.4277 8.81152 19.9715V67.5567C8.81152 69.1005 10.0668 70.3559 11.6107 70.3559H87.1872C88.731 70.3559 89.9863 69.1005 89.9863 67.5567V19.9715C89.9863 18.4277 88.731 17.1724 87.1872 17.1724H87.1923Z" fill="#F7F7FF"/>
<path d="M8.81152 61.9585H89.9914V67.5568C89.9914 69.1006 88.7411 70.3559 87.1923 70.3559H11.6107C10.0668 70.3559 8.81152 69.1056 8.81152 67.5568V61.9585Z" fill="#37D3CF"/>
<path d="M59.1955 70.356H39.6016L35.4004 81.5525H63.3917L59.1955 70.356Z" fill="#2B9994"/>
<path d="M89.389 18.4429H13.8074C12.2636 18.4429 11.0083 19.6982 11.0083 21.242V68.8272C11.0083 70.3711 12.2636 71.6264 13.8074 71.6264H89.384C90.9278 71.6264 92.1831 70.3711 92.1831 68.8272V21.242C92.1831 19.6982 90.9278 18.4429 89.384 18.4429H89.389Z" stroke="#505071" stroke-width="2.5" stroke-linecap="round" stroke-linejoin="round"/>
<path d="M11.0083 63.229H92.1882V68.8273C92.1882 70.3711 90.9379 71.6264 89.389 71.6264H13.8074C12.2636 71.6264 11.0083 70.3762 11.0083 68.8273V63.229Z" stroke="#505071" stroke-width="2.5" stroke-linecap="round" stroke-linejoin="round"/>
<path d="M61.3972 71.6313H41.8033L37.6021 82.8279H65.5934L61.3972 71.6313Z" stroke="#505071" stroke-width="2.5" stroke-linecap="round" stroke-linejoin="round"/>
<path d="M33.4014 38.7052V29.7763C33.4014 29.4169 33.6899 29.1284 34.0493 29.1284H39.0907C39.4501 29.1284 39.7386 29.4169 39.7386 29.7763V29.8067C39.7386 30.1661 39.4501 30.4546 39.0907 30.4546H35.5931C35.2337 30.4546 34.9452 30.7431 34.9452 31.1025V32.9196C34.9452 33.279 35.2337 33.5675 35.5931 33.5675H38.6402C38.9996 33.5675 39.2881 33.8561 39.2881 34.2154V34.2408C39.2881 34.6001 38.9996 34.8887 38.6402 34.8887H35.5931C35.2337 34.8887 34.9452 35.1772 34.9452 35.5366V38.6951C34.9452 39.0544 34.6567 39.343 34.2973 39.343H34.0543C33.6949 39.343 33.4064 39.0544 33.4064 38.6951L33.4014 38.7052Z" fill="#4F516F"/>
<path d="M41.6421 38.7052V29.7763C41.6421 29.4169 41.9306 29.1284 42.29 29.1284H45.2865C46.0762 29.1284 46.7392 29.2651 47.2606 29.5384C47.782 29.8117 48.1768 30.1863 48.4349 30.6672C48.6931 31.148 48.8247 31.7048 48.8247 32.3325C48.8247 32.9601 48.6931 33.5068 48.4349 33.9826C48.1717 34.4584 47.782 34.8279 47.2555 35.0911C46.7291 35.3543 46.0711 35.4859 45.2815 35.4859H43.1707C42.8113 35.4859 42.5228 35.1974 42.5228 34.838V34.8077C42.5228 34.4483 42.8113 34.1598 43.1707 34.1598H45.1448C45.6459 34.1598 46.0508 34.0889 46.3647 33.9472C46.6785 33.8054 46.9113 33.5979 47.0581 33.3246C47.2049 33.0512 47.2758 32.7222 47.2758 32.3426C47.2758 31.963 47.1999 31.6238 47.0531 31.3404C46.9063 31.0569 46.6734 30.8393 46.3596 30.6874C46.0458 30.5356 45.6307 30.4596 45.1246 30.4596H43.8389C43.4795 30.4596 43.191 30.7482 43.191 31.1075V38.7103C43.191 39.0696 42.9025 39.3582 42.5431 39.3582H42.3001C41.9407 39.3582 41.6522 39.0696 41.6522 38.7103L41.6421 38.7052ZM46.8708 35.0759L48.688 38.3914C48.9259 38.8216 48.6121 39.3531 48.1211 39.3531H47.8478C47.6099 39.3531 47.3871 39.2215 47.2758 39.0089L45.4941 35.6935C45.2612 35.2632 45.575 34.7368 46.066 34.7368H46.3039C46.5418 34.7368 46.7595 34.8684 46.8708 35.0759Z" fill="#4F516F"/>
<path d="M50.708 38.7052V29.7763C50.708 29.4169 50.9965 29.1284 51.3559 29.1284H56.4682C56.8276 29.1284 57.1161 29.4169 57.1161 29.7763V29.8067C57.1161 30.1661 56.8276 30.4546 56.4682 30.4546H52.8997C52.5404 30.4546 52.2518 30.7431 52.2518 31.1025V32.9196C52.2518 33.279 52.5404 33.5675 52.8997 33.5675H56.1342C56.4936 33.5675 56.7821 33.8561 56.7821 34.2154V34.2408C56.7821 34.6001 56.4936 34.8887 56.1342 34.8887H52.8997C52.5404 34.8887 52.2518 35.1772 52.2518 35.5366V37.3689C52.2518 37.7283 52.5404 38.0168 52.8997 38.0168H56.529C56.8884 38.0168 57.1769 38.3053 57.1769 38.6647V38.6951C57.1769 39.0544 56.8884 39.343 56.529 39.343H51.3559C50.9965 39.343 50.708 39.0544 50.708 38.6951V38.7052Z" fill="#4F516F"/>
<path d="M59.1812 38.7052V29.7763C59.1812 29.4169 59.4697 29.1284 59.8291 29.1284H64.9414C65.3008 29.1284 65.5893 29.4169 65.5893 29.7763V29.8067C65.5893 30.1661 65.3008 30.4546 64.9414 30.4546H61.3729C61.0135 30.4546 60.725 30.7431 60.725 31.1025V32.9196C60.725 33.279 61.0135 33.5675 61.3729 33.5675H64.6073C64.9667 33.5675 65.2552 33.8561 65.2552 34.2154V34.2408C65.2552 34.6001 64.9667 34.8887 64.6073 34.8887H61.3729C61.0135 34.8887 60.725 35.1772 60.725 35.5366V37.3689C60.725 37.7283 61.0135 38.0168 61.3729 38.0168H65.0021C65.3615 38.0168 65.65 38.3053 65.65 38.6647V38.6951C65.65 39.0544 65.3615 39.343 65.0021 39.343H59.8291C59.4697 39.343 59.1812 39.0544 59.1812 38.6951V38.7052Z" fill="#4F516F"/>
<path d="M30.1367 44.025V43.9946C30.1367 43.6352 30.4252 43.3467 30.7846 43.3467H37.4003C37.7597 43.3467 38.0482 43.6352 38.0482 43.9946V44.025C38.0482 44.3843 37.7597 44.6729 37.4003 44.6729H35.5072C35.1478 44.6729 34.8593 44.9614 34.8593 45.3208V52.9184C34.8593 53.2778 34.5708 53.5663 34.2114 53.5663H33.9735C33.6141 53.5663 33.3256 53.2778 33.3256 52.9184V45.3208C33.3256 44.9614 33.0371 44.6729 32.6777 44.6729H30.7897C30.4303 44.6729 30.1418 44.3843 30.1418 44.025H30.1367Z" fill="#4F516F"/>
<path d="M39.7944 52.9238V44C39.7944 43.6406 40.083 43.3521 40.4423 43.3521H43.4389C44.2285 43.3521 44.8916 43.4887 45.4129 43.762C45.9343 44.0354 46.3291 44.4099 46.5873 44.8908C46.8454 45.3717 46.977 45.9285 46.977 46.5561C46.977 47.1838 46.8454 47.7304 46.5873 48.2062C46.324 48.682 45.9343 49.0515 45.4079 49.3148C44.8815 49.578 44.2234 49.7096 43.4338 49.7096H41.3231C40.9637 49.7096 40.6752 49.4211 40.6752 49.0617V49.0313C40.6752 48.6719 40.9637 48.3834 41.3231 48.3834H43.2971C43.7983 48.3834 44.2032 48.3125 44.517 48.1708C44.8308 48.0291 45.0637 47.8215 45.2105 47.5482C45.3573 47.2749 45.4281 46.9459 45.4281 46.5662C45.4281 46.1866 45.3522 45.8475 45.2054 45.564C45.0586 45.2806 44.8258 45.0629 44.512 44.9111C44.1981 44.7592 43.7831 44.6833 43.2769 44.6833H41.9912C41.6318 44.6833 41.3433 44.9718 41.3433 45.3312V52.9339C41.3433 53.2933 41.0548 53.5818 40.6954 53.5818H40.4525C40.0931 53.5818 39.8046 53.2933 39.8046 52.9339L39.7944 52.9238ZM45.0232 49.2996L46.8403 52.615C47.0782 53.0452 46.7644 53.5767 46.2734 53.5767H46.0001C45.7622 53.5767 45.5395 53.4451 45.4281 53.2325L43.6464 49.9171C43.4136 49.4869 43.7274 48.9604 44.2184 48.9604H44.4563C44.6942 48.9604 44.9118 49.092 45.0232 49.2996Z" fill="#4F516F"/>
<path d="M50.404 43.9946V52.9184C50.404 53.2778 50.1155 53.5663 49.7561 53.5663H49.5131C49.1538 53.5663 48.8652 53.2778 48.8652 52.9184V43.9946C48.8652 43.6352 49.1538 43.3467 49.5131 43.3467H49.7561C50.1155 43.3467 50.404 43.6352 50.404 43.9946Z" fill="#4F516F"/>
<path d="M53.0517 53.5714H52.7986C52.3481 53.5714 52.0343 53.1259 52.1862 52.7007L55.4004 43.7769C55.4915 43.5188 55.7395 43.3467 56.0128 43.3467H56.8834C57.1568 43.3467 57.3997 43.5188 57.4959 43.7769L60.7101 52.7007C60.8619 53.1259 60.5481 53.5714 60.0976 53.5714H59.8445C59.5661 53.5714 59.3232 53.3942 59.2321 53.136L56.4937 45.2043H56.4127L53.6692 53.136C53.5781 53.3993 53.3301 53.5714 53.0568 53.5714H53.0517ZM54.4336 49.5675H58.4475C58.8069 49.5675 59.0954 49.8561 59.0954 50.2154C59.0954 50.5748 58.8069 50.8633 58.4475 50.8633H54.4336C54.0742 50.8633 53.7857 50.5748 53.7857 50.2154C53.7857 49.8561 54.0742 49.5675 54.4336 49.5675Z" fill="#4F516F"/>
<path d="M62.4865 52.9238V44C62.4865 43.6406 62.775 43.3521 63.1344 43.3521H63.3774C63.7368 43.3521 64.0253 43.6406 64.0253 44V51.5976C64.0253 51.957 64.3138 52.2455 64.6732 52.2455H68.0088C68.3682 52.2455 68.6567 52.534 68.6567 52.8934V52.9238C68.6567 53.2831 68.3682 53.5717 68.0088 53.5717H63.1293C62.77 53.5717 62.4814 53.2831 62.4814 52.9238H62.4865Z" fill="#4F516F"/>
</svg>
