<svg width="100" height="100" viewBox="0 0 100 100" fill="none" xmlns="http://www.w3.org/2000/svg">
<path d="M65.3518 12.7998H23.2318C20.7838 12.7998 18.7998 14.7838 18.7998 17.2318V77.0878C18.7998 79.5358 20.7838 81.5198 23.2318 81.5198H65.3518C67.7998 81.5198 69.7838 79.5358 69.7838 77.0878V17.2318C69.7838 14.7838 67.7998 12.7998 65.3518 12.7998Z" fill="#FFC743"/>
<path d="M63.1359 17.2319H25.4479C24.2239 17.2319 23.2319 18.2239 23.2319 19.4479V74.8679C23.2319 76.0919 24.2239 77.0839 25.4479 77.0839H63.1359C64.3599 77.0839 65.3519 76.0919 65.3519 74.8679V19.4479C65.3519 18.2239 64.3599 17.2319 63.1359 17.2319Z" fill="#F7F7FF"/>
<path d="M56.4839 23.884H32.0999C30.2679 23.884 28.7759 22.392 28.7759 20.56V18.344C28.7759 16.512 30.2679 15.02 32.0999 15.02H56.4839C58.3159 15.02 59.8079 16.512 59.8079 18.344V20.56C59.8079 22.392 58.3159 23.884 56.4839 23.884ZM32.0999 17.232C31.4879 17.232 30.9919 17.728 30.9919 18.34V20.556C30.9919 21.168 31.4879 21.664 32.0999 21.664H56.4839C57.0959 21.664 57.5919 21.168 57.5919 20.556V18.34C57.5919 17.728 57.0959 17.232 56.4839 17.232H32.0999Z" fill="#9393AA"/>
<path d="M54.2676 12.7998H34.3156C33.0916 12.7998 32.0996 13.7918 32.0996 15.0158V17.2358C32.0996 18.4598 33.0916 19.4518 34.3156 19.4518H54.2676C55.4916 19.4518 56.4836 18.4598 56.4836 17.2358V15.0158C56.4836 13.7918 55.4916 12.7998 54.2676 12.7998Z" fill="#D1D1E0"/>
<path d="M58.5479 32.1558H33.9279C32.2092 32.1558 30.8159 33.5491 30.8159 35.2678V35.2718C30.8159 36.9905 32.2092 38.3838 33.9279 38.3838H58.5479C60.2666 38.3838 61.6599 36.9905 61.6599 35.2718V35.2678C61.6599 33.5491 60.2666 32.1558 58.5479 32.1558Z" fill="#37D3CF"/>
<path d="M60.2319 42.1758H32.2439C31.4553 42.1758 30.8159 42.8151 30.8159 43.6038C30.8159 44.3924 31.4553 45.0318 32.2439 45.0318H60.2319C61.0206 45.0318 61.6599 44.3924 61.6599 43.6038C61.6599 42.8151 61.0206 42.1758 60.2319 42.1758Z" fill="#D1D1E0"/>
<path d="M60.2319 47.8198H32.2439C31.4553 47.8198 30.8159 48.4592 30.8159 49.2478C30.8159 50.0365 31.4553 50.6758 32.2439 50.6758H60.2319C61.0206 50.6758 61.6599 50.0365 61.6599 49.2478C61.6599 48.4592 61.0206 47.8198 60.2319 47.8198Z" fill="#D1D1E0"/>
<path d="M60.2319 53.4639H32.2439C31.4553 53.4639 30.8159 54.1032 30.8159 54.8919C30.8159 55.6805 31.4553 56.3199 32.2439 56.3199H60.2319C61.0206 56.3199 61.6599 55.6805 61.6599 54.8919C61.6599 54.1032 61.0206 53.4639 60.2319 53.4639Z" fill="#D1D1E0"/>
<path d="M60.2319 59.1079H32.2439C31.4553 59.1079 30.8159 59.7472 30.8159 60.5359C30.8159 61.3246 31.4553 61.9639 32.2439 61.9639H60.2319C61.0206 61.9639 61.6599 61.3246 61.6599 60.5359C61.6599 59.7472 61.0206 59.1079 60.2319 59.1079Z" fill="#D1D1E0"/>
<path d="M60.2319 64.752H32.2439C31.4553 64.752 30.8159 65.3913 30.8159 66.1799C30.8159 66.9686 31.4553 67.608 32.2439 67.608H60.2319C61.0206 67.608 61.6599 66.9686 61.6599 66.1799C61.6599 65.3913 61.0206 64.752 60.2319 64.752Z" fill="#D1D1E0"/>
<path d="M37.9639 82.1555C37.1319 83.0755 37.1959 84.4955 38.1159 85.3315C39.0359 86.1635 40.4559 86.0995 41.2879 85.1795L49.8279 75.7795C50.6599 74.8595 50.5959 73.4355 49.6759 72.6035C48.7559 71.7715 47.3319 71.8355 46.4999 72.7555L37.9599 82.1555H37.9639Z" fill="#FFC743"/>
<path d="M48.5601 71.5875L50.7961 73.6195L55.1641 68.6995L52.9281 66.6675L48.5601 71.5915V71.5875Z" fill="#9E6C15"/>
<path d="M47.1917 70.8996C46.7757 71.3596 46.8076 72.0756 47.2676 72.4916L49.8637 74.8516C50.3237 75.2716 51.0396 75.2356 51.4556 74.7756C51.8756 74.3156 51.8396 73.5996 51.3796 73.1836L48.7836 70.8236C48.3236 70.4036 47.6077 70.4396 47.1917 70.8996Z" fill="#C98B0E"/>
<path d="M51.0479 46.0316C53.9039 42.8836 57.8239 41.0396 62.0679 40.8316C66.3119 40.6316 70.3919 42.0916 73.5399 44.9516C76.6879 47.8116 78.5319 51.7236 78.7399 55.9716C78.9439 60.2196 77.4839 64.2956 74.6199 67.4436C71.7639 70.5916 67.8439 72.4356 63.5999 72.6436C63.3399 72.6516 63.0799 72.6596 62.8199 72.6596C58.8559 72.6596 55.0839 71.2076 52.1279 68.5236C48.6719 65.3836 46.9199 61.0636 46.9199 56.7276C46.9199 52.9076 48.2839 49.0716 51.0479 46.0316ZM50.3919 57.3356C50.4719 58.9956 50.8719 60.5956 51.5639 62.0516C52.2519 63.5156 53.2279 64.8396 54.4559 65.9516C56.9199 68.1916 60.0959 69.3356 63.4319 69.1756C66.7559 69.0156 69.8159 67.5716 72.0519 65.1116C76.6679 60.0276 76.2919 52.1396 71.2079 47.5196C68.8279 45.3556 65.8279 44.2916 62.8359 44.2916C59.4479 44.2916 56.0679 45.6596 53.6119 48.3636C51.3719 50.8276 50.2279 54.0116 50.3879 57.3396L50.3919 57.3356Z" fill="#FFC743"/>
<path d="M59.3998 19.544V21.76C59.3998 22.372 58.9038 22.868 58.2918 22.868H33.9078C33.2958 22.868 32.7998 22.372 32.7998 21.76V19.544C32.7998 18.932 33.2958 18.436 33.9078 18.436C33.9078 19.664 34.8998 20.656 36.1238 20.656H56.0758C57.2998 20.656 58.2918 19.664 58.2918 18.44C58.9038 18.436 59.3998 18.932 59.3998 19.544Z" stroke="#505071" stroke-width="2.5" stroke-linecap="round" stroke-linejoin="round"/>
<path d="M67.1599 14H56.0759C57.2999 14 58.2919 14.992 58.2919 16.216C59.7319 16.216 60.9639 17.144 61.4239 18.432C61.5479 18.78 61.6159 19.152 61.6159 19.544V21.76C61.6159 23.592 60.1239 25.084 58.2919 25.084H33.9079C32.0759 25.084 30.5839 23.592 30.5839 21.76V19.544C30.5839 19.152 30.6519 18.78 30.7759 18.432C31.2359 17.144 32.4679 16.22 33.9079 16.22C33.9079 14.992 34.8999 14 36.1239 14H25.0399C22.5919 14 20.6079 15.984 20.6079 18.432V78.288C20.6079 80.736 22.5919 82.72 25.0399 82.72H39.2479C39.3239 82.588 39.4159 82.464 39.5199 82.348H39.5159L43.2079 78.284L48.0559 72.952C48.2319 72.76 48.4359 72.604 48.6519 72.488C48.3639 72.068 48.3919 71.488 48.7519 71.092C49.1679 70.632 49.8799 70.596 50.3399 71.016L50.5919 71.244L53.2239 68.28C50.0759 65.184 48.4759 61.056 48.4759 56.924C48.4759 53.104 49.8399 49.268 52.6039 46.224C55.4639 43.08 59.3799 41.232 63.6279 41.024C64.8239 40.968 66.0079 41.044 67.1599 41.244C68.7079 41.516 70.1959 42.012 71.5919 42.724V18.432C71.5919 15.984 69.6079 14 67.1599 14ZM65.1559 72.84C64.8959 72.848 64.6399 72.856 64.3759 72.856C61.2119 72.856 58.1719 71.932 55.5719 70.188L52.8319 73.272L52.9399 73.372C53.3999 73.792 53.4359 74.504 53.0159 74.964C52.7039 75.312 52.2279 75.416 51.8159 75.272C51.7199 75.524 51.5759 75.76 51.3839 75.972L49.2839 78.284L45.2559 82.72H67.1599C69.6079 82.72 71.5919 80.736 71.5919 78.288V71.148C70.2039 71.848 68.7159 72.344 67.1599 72.616C66.5039 72.732 65.8319 72.808 65.1559 72.84Z" stroke="#505071" stroke-width="2.5" stroke-linecap="round" stroke-linejoin="round"/>
<path d="M59.3998 19.544V21.76C59.3998 22.372 58.9038 22.868 58.2918 22.868H33.9078C33.2958 22.868 32.7998 22.372 32.7998 21.76V19.544C32.7998 18.932 33.2958 18.436 33.9078 18.436C33.9078 19.664 34.8998 20.656 36.1238 20.656H56.0758C57.2998 20.656 58.2918 19.664 58.2918 18.44C58.9038 18.436 59.3998 18.932 59.3998 19.544Z" stroke="#505071" stroke-width="2.5" stroke-linecap="round" stroke-linejoin="round"/>
<path d="M64.376 72.8561C61.212 72.8561 58.172 71.9321 55.572 70.1881L52.832 73.2721L52.94 73.3721C53.4 73.7921 53.436 74.5041 53.016 74.9641C52.704 75.3121 52.228 75.4161 51.816 75.2721C51.72 75.5241 51.576 75.7601 51.384 75.9721L49.284 78.2841H64.944C66.168 78.2841 67.16 77.2921 67.16 76.0681V72.6161C66.504 72.7321 65.832 72.8081 65.156 72.8401C64.896 72.8481 64.64 72.8561 64.376 72.8561ZM64.944 18.4321H61.424C61.548 18.7801 61.616 19.1521 61.616 19.5441V21.7601C61.616 23.5921 60.124 25.0841 58.292 25.0841H33.908C32.076 25.0841 30.584 23.5921 30.584 21.7601V19.5441C30.584 19.1521 30.652 18.7801 30.776 18.4321H27.256C26.032 18.4321 25.04 19.4241 25.04 20.6481V76.0681C25.04 77.2921 26.032 78.2841 27.256 78.2841H43.208L48.056 72.9521C48.232 72.7601 48.436 72.6041 48.652 72.4881C48.364 72.0681 48.392 71.4881 48.752 71.0921C49.168 70.6321 49.88 70.5961 50.34 71.0161L50.592 71.2441L53.224 68.2801C50.076 65.1841 48.476 61.0561 48.476 56.9241C48.476 53.1041 49.84 49.2681 52.604 46.2241C55.464 43.0801 59.38 41.2321 63.628 41.0241C64.824 40.9681 66.008 41.0441 67.16 41.2441V20.6481C67.16 19.4241 66.168 18.4321 64.944 18.4321Z" stroke="#505071" stroke-width="2.5" stroke-linecap="round" stroke-linejoin="round"/>
<path d="M61.616 19.5481V21.7641C61.616 23.5961 60.124 25.0881 58.292 25.0881H33.908C32.076 25.0881 30.584 23.5961 30.584 21.7641V19.5481C30.584 19.1561 30.652 18.7841 30.776 18.4361C31.236 17.1481 32.468 16.2241 33.908 16.2241V18.4361C33.296 18.4361 32.8 18.9321 32.8 19.5441V21.7601C32.8 22.3721 33.296 22.8681 33.908 22.8681H58.292C58.904 22.8681 59.4 22.3721 59.4 21.7601V19.5441C59.4 18.9321 58.904 18.4361 58.292 18.4361V16.2241C59.732 16.2241 60.964 17.1481 61.424 18.4361C61.548 18.7841 61.616 19.1561 61.616 19.5481Z" stroke="#505071" stroke-width="2.5" stroke-linecap="round" stroke-linejoin="round"/>
<path d="M56.0757 14.0039H36.1237C34.8999 14.0039 33.9077 14.996 33.9077 16.2199V18.4399C33.9077 19.6638 34.8999 20.6559 36.1237 20.6559H56.0757C57.2996 20.6559 58.2917 19.6638 58.2917 18.4399V16.2199C58.2917 14.996 57.2996 14.0039 56.0757 14.0039Z" stroke="#505071" stroke-width="2.5" stroke-linecap="round" stroke-linejoin="round"/>
<path d="M51.8158 75.2718C51.7198 75.5238 51.5758 75.7598 51.3838 75.9718L49.2838 78.2838L45.2558 82.7198L42.8478 85.3718C42.0118 86.2918 40.5918 86.3598 39.6718 85.5238C38.8678 84.7918 38.7158 83.6158 39.2478 82.7198C39.3238 82.5878 39.4158 82.4638 39.5198 82.3478H39.5158L43.2078 78.2838L48.0558 72.9518C48.2318 72.7598 48.4358 72.6038 48.6518 72.4878C48.7038 72.5598 48.7598 72.6238 48.8278 72.6838L51.4238 75.0398C51.5398 75.1478 51.6758 75.2238 51.8158 75.2718Z" stroke="#505071" stroke-width="2.5" stroke-linecap="round" stroke-linejoin="round"/>
<path d="M55.5718 70.1878L52.8318 73.2718L50.5918 71.2438L53.2238 68.2798C53.3758 68.4238 53.5278 68.5718 53.6878 68.7158C54.2838 69.2598 54.9158 69.7518 55.5718 70.1878Z" stroke="#505071" stroke-width="2.5" stroke-linecap="round" stroke-linejoin="round"/>
<path d="M53.0159 74.964C52.7039 75.312 52.2279 75.416 51.8159 75.272C51.6759 75.224 51.5399 75.148 51.4239 75.04L48.8279 72.684C48.7599 72.624 48.7039 72.56 48.6519 72.488C48.3639 72.068 48.3919 71.488 48.7519 71.092C49.1679 70.632 49.8799 70.596 50.3399 71.016L50.5919 71.244L52.8319 73.272L52.9399 73.372C53.3999 73.792 53.4359 74.504 53.0159 74.964Z" stroke="#505071" stroke-width="2.5" stroke-linecap="round" stroke-linejoin="round"/>
<path d="M80.2956 56.1678C80.0876 51.9198 78.2436 48.0078 75.0956 45.1478C74.0276 44.1718 72.8476 43.3638 71.5916 42.7238C70.1956 42.0118 68.7076 41.5158 67.1596 41.2438C66.0076 41.0438 64.8236 40.9678 63.6276 41.0238C59.3796 41.2318 55.4636 43.0798 52.6036 46.2238C49.8396 49.2678 48.4756 53.1038 48.4756 56.9238C48.4756 61.0558 50.0756 65.1838 53.2236 68.2798C53.3756 68.4238 53.5276 68.5718 53.6876 68.7158C54.2836 69.2598 54.9156 69.7518 55.5716 70.1878C58.1716 71.9318 61.2116 72.8558 64.3756 72.8558C64.6396 72.8558 64.8956 72.8478 65.1556 72.8398C65.8316 72.8078 66.5036 72.7318 67.1596 72.6158C68.7156 72.3438 70.2036 71.8478 71.5916 71.1478C73.2996 70.2798 74.8516 69.0998 76.1796 67.6398C79.0396 64.4918 80.4996 60.4158 80.2956 56.1678ZM73.6116 65.3078C72.9956 65.9838 72.3196 66.5798 71.5916 67.0918C70.2596 68.0478 68.7596 68.7158 67.1596 69.0758C66.4516 69.2358 65.7276 69.3358 64.9876 69.3718C61.6516 69.5318 58.4756 68.3878 56.0116 66.1478C54.7836 65.0358 53.8076 63.7118 53.1196 62.2478C52.4276 60.7878 52.0276 59.1918 51.9476 57.5318C51.7876 54.2078 52.9316 51.0238 55.1716 48.5598C57.6276 45.8558 61.0076 44.4878 64.3956 44.4878C65.3236 44.4878 66.2476 44.5878 67.1596 44.7958C68.7196 45.1478 70.2276 45.8038 71.5916 46.7718C71.9996 47.0558 72.3916 47.3718 72.7676 47.7158C77.8476 52.3358 78.2276 60.2278 73.6116 65.3078Z" stroke="#505071" stroke-width="2.5" stroke-linecap="round" stroke-linejoin="round"/>
<path d="M73.6119 65.3078C72.9959 65.9838 72.3199 66.5798 71.5919 67.0918C70.2599 68.0478 68.7599 68.7158 67.1599 69.0758C66.4519 69.2358 65.7279 69.3358 64.9879 69.3718C61.6519 69.5318 58.4759 68.3878 56.0119 66.1478C54.7839 65.0358 53.8079 63.7118 53.1199 62.2478C52.4279 60.7878 52.0279 59.1918 51.9479 57.5318C51.7879 54.2078 52.9319 51.0238 55.1719 48.5598C57.6279 45.8558 61.0079 44.4878 64.3959 44.4878C65.3239 44.4878 66.2479 44.5878 67.1599 44.7958C68.7199 45.1478 70.2279 45.8038 71.5919 46.7718C71.9999 47.0558 72.3919 47.3718 72.7679 47.7158C77.8479 52.3358 78.2279 60.2278 73.6119 65.3078Z" stroke="#505071" stroke-width="2.5" stroke-linecap="round" stroke-linejoin="round"/>
</svg>
