<svg width="19" height="27" viewBox="0 0 19 27" fill="none" xmlns="http://www.w3.org/2000/svg">
<path d="M13.081 1.3254C12.4162 0.692381 11.5692 0.261341 10.647 0.0868214C9.72486 -0.0876986 8.76908 0.00214109 7.90056 0.344981C7.03206 0.687821 6.28986 1.26826 5.7679 2.01284C5.24592 2.75742 4.96764 3.63268 4.96826 4.5279V11.2131C4.96826 12.4132 5.46894 13.5641 6.36018 14.4128C7.2514 15.2614 8.46018 15.738 9.72058 15.738C10.981 15.738 12.1896 15.2614 13.081 14.4128C13.9722 13.5641 14.4728 12.4132 14.4728 11.2131V4.5279C14.4746 3.93302 14.3524 3.3437 14.1136 2.79402C13.8746 2.24434 13.5236 1.74518 13.081 1.3254Z" fill="#EDEDF9"/>
<path d="M17.641 11.957C17.641 12.9421 17.4362 13.9176 17.0382 14.8276C16.6402 15.7378 16.0568 16.5648 15.3212 17.2614C14.5858 17.9578 13.7126 18.5104 12.7516 18.8874C11.7906 19.2644 10.7606 19.4584 9.72059 19.4584C8.68045 19.4584 7.65049 19.2644 6.68953 18.8874C5.72857 18.5104 4.85541 17.9578 4.11993 17.2614C3.38443 16.5648 2.80101 15.7378 2.40297 14.8276C2.00493 13.9176 1.80005 12.9421 1.80005 11.957" stroke="#EDEDF9" stroke-width="1.75" stroke-linecap="round" stroke-linejoin="round"/>
<path d="M9.52319 20V26" stroke="#EDEDF9" stroke-width="1.75" stroke-linecap="round" stroke-linejoin="round"/>
<path d="M4.22217 26H15.2053" stroke="#EDEDF9" stroke-width="1.75" stroke-linecap="round" stroke-linejoin="round"/>
</svg>
