<svg width="40" height="40" viewBox="0 0 40 40" fill="none" xmlns="http://www.w3.org/2000/svg">
<path d="M27 12.0841C23.0373 8.12476 16.8119 7.95891 12.6562 11.6949C8.5005 15.431 7.79009 21.8441 11.026 26.4583C14.2618 31.0726 20.3619 32.3654 25.0844 29.4353L17.6373 21.7229L27 12.0841Z" fill="#36364C"/>
<path d="M20.546 31.9957C18.0524 31.9655 15.6233 31.2405 13.5615 29.9113C11.4997 28.5821 9.89626 26.7074 8.95103 24.5208C8.00646 22.3358 7.75866 19.9363 8.2383 17.6193C8.71793 15.3023 9.90395 13.1693 11.6496 11.4843C14.0505 9.25114 17.2805 8 20.6449 8C24.0093 8 27.2393 9.25114 29.6402 11.4843C29.8696 11.6676 30 11.9382 30 12.2237C29.9994 12.3642 29.967 12.5029 29.905 12.6305C29.8429 12.7581 29.7526 12.8715 29.6402 12.9631L19.9253 21.6569L27.3014 28.5331C27.4209 28.6413 27.5107 28.7755 27.5628 28.9241C27.6149 29.0726 27.6279 29.2311 27.6005 29.3855C27.5827 29.5344 27.5306 29.6779 27.4478 29.8057C27.3651 29.9334 27.2537 30.0424 27.1215 30.1249C25.1399 31.2985 22.8619 31.9461 20.5257 32L20.546 31.9957ZM20.546 9.94798C16.2732 9.96929 12.4502 12.4048 10.8468 16.1274C9.24338 19.85 10.1159 24.1351 13.1114 26.9947C14.6013 28.4146 16.509 29.3751 18.5848 29.7504C20.6605 30.1257 22.8075 29.8982 24.7445 29.0978L17.6675 22.3921C17.555 22.3068 17.4641 22.1987 17.4017 22.0757C17.3393 21.9527 17.3069 21.8179 17.3069 21.6814C17.3069 21.5449 17.3393 21.4102 17.4017 21.2872C17.4641 21.1642 17.555 21.056 17.6675 20.9708L27.0226 12.049C25.1629 10.6985 22.8889 9.96222 20.546 9.94798Z" fill="white"/>
<path d="M27.9719 13L19 22.4437L26.1362 30C26.8545 29.5634 27.5232 29.0413 28.1293 28.4437C29.9997 26.3505 31.0288 23.5696 30.9994 20.6882C30.97 17.8067 29.8845 15.05 27.9719 13Z" fill="#36364C"/>
<path d="M26.0153 30.9604C25.8984 30.9671 25.7816 30.9457 25.6735 30.8977C25.5654 30.8497 25.4688 30.7764 25.3908 30.6831L18.3129 23.1216C18.2153 23.0382 18.1365 22.9324 18.0823 22.812C18.0281 22.6917 18 22.5599 18 22.4263C18 22.2928 18.0281 22.1609 18.0823 22.0406C18.1365 21.9202 18.2153 21.8144 18.3129 21.731L27.1588 12.4475C27.2443 12.3099 27.3603 12.197 27.4965 12.119C27.6327 12.0409 27.7848 12 27.9394 12C28.094 12 28.2461 12.0409 28.3823 12.119C28.5185 12.197 28.6345 12.3099 28.72 12.4475C29.7585 13.5346 30.5835 14.832 31.1467 16.2639C31.7099 17.6959 32 19.2334 32 20.7866C32 22.3398 31.7099 23.8774 31.1467 25.3094C30.5835 26.7413 29.7585 28.0387 28.72 29.1257C28.1074 29.8199 27.4065 30.4185 26.6378 30.9041C26.4442 31.0083 26.2224 31.0285 26.0153 30.9604ZM20.2917 22.4003L26.1714 28.6817C26.5758 28.3788 26.9587 28.0444 27.3169 27.681C29.0453 25.8395 30.0188 23.3403 30.0235 20.7324C30.0275 18.3986 29.2313 16.1441 27.7852 14.3947L20.2917 22.4003Z" fill="white"/>
<path d="M27.6746 19.4298C27.5812 19.2443 27.4335 19.1059 27.2596 19.0409C27.0858 18.9759 26.8979 18.9887 26.7315 19.0771C26.6494 19.1264 26.5765 19.1947 26.517 19.278C26.4576 19.3613 26.4129 19.4579 26.3855 19.562C26.3303 19.7722 26.3477 19.9997 26.4339 20.1947C26.7817 21.061 26.685 22.086 26.1865 22.8399C26.1245 22.9125 26.076 22.9996 26.044 23.0956C26.012 23.1916 25.9972 23.2945 26.0004 23.3976C26.0023 23.6044 26.0685 23.803 26.1865 23.9553C26.3138 24.0149 26.4554 24.0149 26.5827 23.9553C26.6982 23.9897 26.8194 23.9859 26.9332 23.9444C27.0471 23.9028 27.1491 23.825 27.2282 23.7195C27.6366 23.1268 27.8953 22.4093 27.9743 21.6499C28.0533 20.8905 27.9494 20.1222 27.6746 19.4298Z" fill="white"/>
</svg>
