<svg width="14" height="16" viewBox="0 0 14 16" fill="none" xmlns="http://www.w3.org/2000/svg">
<path d="M3.13375 14.0004H0.23125V4.65354H3.13375V14.0004ZM1.68094 3.37854C0.752813 3.37854 0 2.60979 0 1.68167C6.64312e-09 1.23586 0.177098 0.808305 0.492335 0.493068C0.807572 0.177831 1.23513 0.000732422 1.68094 0.000732422C2.12675 0.000732422 2.5543 0.177831 2.86954 0.493068C3.18478 0.808305 3.36188 1.23586 3.36188 1.68167C3.36188 2.60979 2.60875 3.37854 1.68094 3.37854ZM13.9969 14.0004H11.1006V9.45042C11.1006 8.36604 11.0787 6.97542 9.59156 6.97542C8.0825 6.97542 7.85125 8.15354 7.85125 9.37229V14.0004H4.95188V4.65354H7.73562V5.92854H7.77625C8.16375 5.19417 9.11031 4.41917 10.5225 4.41917C13.46 4.41917 14 6.35355 14 8.86604V14.0004H13.9969Z" fill="white"/>
</svg>
