<svg width="29" height="24" viewBox="0 0 29 24" fill="none" xmlns="http://www.w3.org/2000/svg">
<path d="M21 0.94043C21.4 1.74043 21.6 3.24043 21.3 4.24043C22.8 5.54043 23.3 8.54043 22.6 11.0404C24.7 11.2404 27.2 10.9404 28.8 11.6404C27.3 11.4404 25.2 11.0404 23.3 11.2404C22.9 11.2404 22.4 11.2404 22.4 11.7404C24.7 11.9404 26.9 12.1404 28.8 12.7404C27 12.4404 24.7 11.9404 22.4 11.9404C21.5 13.8404 19.6 14.7404 16.9 14.9404C17.2 15.5404 17.7 15.7404 17.9 16.7404C18.1 18.2404 17.6 20.3404 18.1 21.3404C18.3 21.8404 18.7 21.8404 19 22.2404C18.4 23.0404 16.8 22.1404 16.6 21.3404C16.3 19.9404 17.1 17.8404 16.2 16.9404C16.3 18.4404 15.8 20.5404 16.3 21.8404C16.5 22.3404 16.9 22.5404 16.8 23.0404C13.8 23.3404 15.1 19.1404 14.6 16.7404C14.1 16.7404 14.3 17.4404 14.3 17.6404C14.3 20.0404 14.8 23.3404 12.2 23.0404C12.1 22.5404 12.5 22.3404 12.7 21.9404C13.2 20.5404 12.6 18.5404 12.8 16.9404C11.8 17.6404 12.9 20.2404 12.3 21.6404C11.9 22.4404 10.8 22.7404 9.9 22.4404C10 21.8404 10.6 21.9404 10.9 21.4404C11.3 20.7404 10.9 19.6404 11 18.5404C9.2 18.9404 7.7 18.4404 7.1 17.3404C6.8 16.8404 6.7 16.2404 6.3 15.7404C5.9 15.2404 5.3 15.2404 5.2 14.6404C7.5 14.1404 7.6 16.9404 9.6 17.0404C10.2 17.0404 10.5 16.8404 11.1 16.7404C11.3 16.0404 11.6 15.4404 12.1 15.1404C9.6 14.8404 7.5 14.0404 6.5 12.1404C4.2 12.2404 2.1 12.5404 0.1 13.0404C1.9 12.4404 4.1 12.1404 6.4 12.0404C6.3 11.2404 5.1 11.4404 4.3 11.4404C2.9 11.5404 1.1 11.6404 0 11.8404C1.6 11.2404 3.9 11.3404 6 11.3404C5.3 9.24043 5.6 5.94043 7 4.74043C6.6 3.74043 6.7 2.04043 7.3 1.24043C8.9 1.34043 9.9 2.04043 10.9 2.74043C12.2 2.34043 13.5 2.24043 15.2 2.34043C15.9 2.34043 16.7 2.74043 17.2 2.64043C17.7 2.54043 18.3 1.94043 18.9 1.74043C19.6 1.04043 20.2 0.94043 21 0.94043Z" fill="#EDEDF9"/>
</svg>
