<svg width="30" height="20" viewBox="0 0 30 20" fill="none" xmlns="http://www.w3.org/2000/svg">
<path d="M26.5 8.9C28.1 8.8 29.2001 8 29.7001 7C29.1001 7.4 27.3 7.8 26.3 7.4C26.3 7.2 26.2 6.9 26.1 6.7C25.3 3.9 22.7 1.6 20 1.9C20.2 1.8 20.4001 1.7 20.7001 1.7C21.0001 1.6 22.8 1.3 22.5 0.700001C22.3 0.100001 20.1001 1.1 19.7001 1.2C20.2001 1 21.1001 0.6 21.2001 0C20.4001 0.1 19.6 0.5 18.9 1.1C19.1 0.9 19.3 0.600001 19.3 0.200001C17.1 1.6 15.8 4.5 14.8 7.2C14 6.4 13.3 5.8 12.6 5.4C10.8 4.4 8.60005 3.4 5.20005 2.1C5.10005 3.2 5.80005 4.7 7.70005 5.7C7.30005 5.6 6.50005 5.8 5.90005 5.9C6.10005 7.2 7.00005 8.3 9.10005 8.8C8.10005 8.9 7.60005 9.1 7.10005 9.6C7.60005 10.5 8.70005 11.6 10.7 11.3C8.50005 12.3 9.80005 14 11.6 13.8C8.50005 17 3.60005 16.8 0.800049 14.1C8.10005 24 24 20 26.3 10.4C28.1 10.4 29.1 9.8 29.8 9.1C28.8 9.4 27.3 9.2 26.5 8.9Z" fill="#EDEDF9"/>
</svg>
