<svg width="14" height="18" viewBox="0 0 14 18" fill="none" xmlns="http://www.w3.org/2000/svg">
<g clip-path="url(#clip0_591_1183)">
<path d="M6.99967 0C5.06738 0 3.49967 1.51172 3.49967 3.375V9C3.49967 10.8633 5.06738 12.375 6.99967 12.375C8.93197 12.375 10.4997 10.8633 10.4997 9V3.375C10.4997 1.51172 8.93197 0 6.99967 0ZM2.33301 7.59375C2.33301 7.12617 1.9429 6.75 1.45801 6.75C0.973112 6.75 0.583008 7.12617 0.583008 7.59375V9C0.583008 12.1324 2.99655 14.7199 6.12467 15.1312V16.3125H4.37467C3.88978 16.3125 3.49967 16.6887 3.49967 17.1562C3.49967 17.6238 3.88978 18 4.37467 18H6.99967H9.62467C10.1096 18 10.4997 17.6238 10.4997 17.1562C10.4997 16.6887 10.1096 16.3125 9.62467 16.3125H7.87467V15.1312C11.0028 14.7199 13.4163 12.1324 13.4163 9V7.59375C13.4163 7.12617 13.0262 6.75 12.5413 6.75C12.0564 6.75 11.6663 7.12617 11.6663 7.59375V9C11.6663 11.4855 9.57728 13.5 6.99967 13.5C4.42207 13.5 2.33301 11.4855 2.33301 9V7.59375Z" fill="white"/>
</g>
<defs>
<clipPath id="clip0_591_1183">
<rect width="14" height="18" fill="white"/>
</clipPath>
</defs>
</svg>
