<svg id="Layer_1" data-name="Layer 1" xmlns="http://www.w3.org/2000/svg" viewBox="0 0 134 98"><defs><style>.cls-1{fill:#e1e1e1;}</style></defs><title>2018-01-19 - Footer Update - Logos</title><path class="cls-1" d="M16.31,10H117.69V71.39H16.31Zm-.45,61.81H118.14V9.59H15.86Z"/><path class="cls-1" d="M89.63,66.18A3.81,3.81,0,0,1,89.78,65a1.47,1.47,0,0,1,.45-.69,1.15,1.15,0,0,1,.75-.24,1.22,1.22,0,0,1,.58.13,1.1,1.1,0,0,1,.41.39,2,2,0,0,1,.25.63,4,4,0,0,1,.09,1,3.8,3.8,0,0,1-.15,1.17,1.46,1.46,0,0,1-.45.69,1.15,1.15,0,0,1-.75.24,1.13,1.13,0,0,1-.94-.43,2.7,2.7,0,0,1-.4-1.67m.52,0a2.57,2.57,0,0,0,.24,1.35.68.68,0,0,0,1.17,0,2.56,2.56,0,0,0,.24-1.35,2.61,2.61,0,0,0-.24-1.35.71.71,0,0,0-.59-.36.65.65,0,0,0-.56.29,2.62,2.62,0,0,0-.26,1.39"/><path class="cls-1" d="M92.83,66.18A3.76,3.76,0,0,1,93,65a1.46,1.46,0,0,1,.45-.69,1.15,1.15,0,0,1,.75-.24,1.22,1.22,0,0,1,.58.13,1.1,1.1,0,0,1,.41.39,2.09,2.09,0,0,1,.25.63,4.08,4.08,0,0,1,.09,1,3.78,3.78,0,0,1-.15,1.17,1.46,1.46,0,0,1-.45.69,1.25,1.25,0,0,1-1.68-.18,2.71,2.71,0,0,1-.41-1.67m.52,0a2.57,2.57,0,0,0,.24,1.35.68.68,0,0,0,1.17,0,3.93,3.93,0,0,0,0-2.69.71.71,0,0,0-.59-.33.65.65,0,0,0-.56.29,2.62,2.62,0,0,0-.26,1.39"/><path class="cls-1" d="M98.69,67.73v.48H96a.9.9,0,0,1,.06-.35,1.88,1.88,0,0,1,.33-.55,5.25,5.25,0,0,1,.66-.63,5.7,5.7,0,0,0,.91-.87,1,1,0,0,0,.24-.61.67.67,0,0,0-.21-.51.78.78,0,0,0-.56-.21.79.79,0,0,0-.58.22.82.82,0,0,0-.22.6l-.52-.05a1.27,1.27,0,0,1,.4-.88,1.36,1.36,0,0,1,.94-.31,1.31,1.31,0,0,1,.94.31,1.08,1.08,0,0,1,.35.82,1.26,1.26,0,0,1-.1.49,1.88,1.88,0,0,1-.34.5,8.18,8.18,0,0,1-.78.72,6.29,6.29,0,0,0-.58.52,1.72,1.72,0,0,0-.21.27h2Z"/><path class="cls-1" d="M101.82,65.12l-.5,0a.94.94,0,0,0-.19-.43.67.67,0,0,0-.51-.22.7.7,0,0,0-.42.13,1.17,1.17,0,0,0-.38.51,2.67,2.67,0,0,0-.14.94,1.17,1.17,0,0,1,.45-.41,1.2,1.2,0,0,1,.55-.13,1.14,1.14,0,0,1,.86.37,1.33,1.33,0,0,1,.35,1,1.57,1.57,0,0,1-.17.72,1.21,1.21,0,0,1-.46.51,1.25,1.25,0,0,1-.66.18,1.3,1.3,0,0,1-1-.46,2.35,2.35,0,0,1-.4-1.53,2.75,2.75,0,0,1,.44-1.73,1.25,1.25,0,0,1,1-.47,1.17,1.17,0,0,1,.8.27,1.15,1.15,0,0,1,.38.76m-2.06,1.78a1.16,1.16,0,0,0,.11.5.82.82,0,0,0,.31.36.78.78,0,0,0,.42.13.71.71,0,0,0,.55-.26,1,1,0,0,0,.23-.7.94.94,0,0,0-.23-.67.75.75,0,0,0-.57-.24.78.78,0,0,0-.58.24.88.88,0,0,0-.24.64"/><path class="cls-1" d="M98.63,49.91H100c-.22-.63-.44-1.22-.68-1.82-.26.6-.5,1.2-.72,1.82M76.71,62.32h37.87V13.15H76.71V62.32Zm28.62-33.24L94.66,44.94l-5.38-6V31.19l5.39,7.08,10.55-15Zm-3.95,22.81c-.21,0-.44,0-.65,0-.16-.52-.34-1-.53-1.57H98.43a15.13,15.13,0,0,0-.52,1.57l-.36,0-.38,0c.37-.85,1.52-3.57,2.18-5.31a1.16,1.16,0,0,0,.58,0c.65,1.74,1.54,4.08,2.12,5.31-.24,0-.46,0-.67,0m.63,4.65-.34,0-.35,0c0-.58-.1-1.29-.17-1.94h0l-.94,1.94h-.16l-.91-1.9h0c-.09.63-.13,1.25-.17,1.9l-.2,0-.2,0c.18-1,.31-1.93.43-2.89l.17,0,.17,0c.31.67.66,1.41,1,2,.33-.63.67-1.34,1-2l.18,0,.18,0c.11,1,.25,2.3.36,2.89M98.32,54,97.38,54c0,.31,0,.61,0,.91.36,0,.63,0,.94,0a1,1,0,0,0,0,.19,1.17,1.17,0,0,0,0,.17q-.47,0-.94,0v1.06a8.26,8.26,0,0,0,1-.05,1.2,1.2,0,0,0,0,.19,1,1,0,0,0,0,.18c-.15,0-.35,0-.73,0a5.43,5.43,0,0,0-.89,0c0-.37,0-.69,0-1.16v-.57c0-.47,0-.79,0-1.16l.74,0c.41,0,.76,0,.88,0a1.05,1.05,0,0,0,0,.18,1.25,1.25,0,0,0,0,.19m-5.66-2.09c-.17,0-.37,0-.63,0s-.46,0-.63,0c0-.67.06-1.25.06-2.12v-1c0-.86,0-1.44-.06-2.12a5,5,0,0,0,1.25,0c-.06.41-.06,1.45-.06,2.44.69-.81,1.68-2,1.95-2.44l.43,0a4.56,4.56,0,0,0,.46,0c-.35.35-1.57,1.71-2,2.2.66,1,1.68,2.53,2.09,3.07-.31,0-.52,0-.74,0s-.44,0-.67,0l-1.53-2.4h0c0,1.1,0,1.92.06,2.4m-4.37,4.61-.2,0-.19,0c0-.12.08-1.2.08-2.05,0-.38,0-.63,0-.83a.92.92,0,0,0,.38,0l1.82,2c0-.67,0-1.8,0-2a.92.92,0,0,0,.38,0c-.07,1.22-.07,1.78-.07,2.89l-.17,0-.16,0q-.86-1-1.83-2v1a8.68,8.68,0,0,0,0,1.06m14.12-34.33a.4.4,0,1,1,.36-.43s0,0,0,0a.4.4,0,0,1-.4.4h0m.37-1.47a.4.4,0,1,1-.4-.4.4.4,0,0,1,.4.4h0M102,19.39a.4.4,0,1,1-.4.4.4.4,0,0,1,.4-.4h0m-.76-.76a.4.4,0,1,1-.4.4.4.4,0,0,1,.4-.4h0m-.92-.45a.4.4,0,1,1-.4.4.4.4,0,0,1,.4-.4h0m-1.13-.08a.4.4,0,1,1-.4.4.4.4,0,0,1,.4-.4h0m-1.06.29a.4.4,0,1,1-.4.4.4.4,0,0,1,.4-.4h0m-1,.34a.4.4,0,1,1-.4.4.4.4,0,0,1,.4-.4h0m-2.9,0a.4.4,0,1,1-.4.4h0a.4.4,0,0,1,.4-.4m-1-.34a.4.4,0,1,1-.4.4h0a.4.4,0,0,1,.4-.4m.05.87a4.08,4.08,0,0,0,1.52.35v-.53h.31a1,1,0,0,1-.5-.93,1.05,1.05,0,0,1,.57-.94l0,0c.21-.19.21-1,.21-1h-.23l-.07,0a.38.38,0,0,0-.24.25h-.15v-.9h.15a.37.37,0,0,0,.24.25h.29s.08,0,.08-.18h0l0-.29a.37.37,0,0,0-.25-.24v-.16h.89v.15a.37.37,0,0,0-.25.24l0,.29c0,.22.08.18.08.18h.29a.37.37,0,0,0,.24-.25h.15v.89h-.15a.38.38,0,0,0-.24-.25.38.38,0,0,0-.29,0s0,.8.21,1v0a1.06,1.06,0,0,1,.59.94,1,1,0,0,1-.48.94h.33v.52a4.26,4.26,0,0,0,.63-.07l.26-.05a3.9,3.9,0,0,0,.8-.28l.25-.12a2.8,2.8,0,0,1,.75-.18h.18a2.9,2.9,0,0,1,.74.08l.21.06s.39.13.41.15l.23.15.13.1a2.32,2.32,0,0,1,.85,1.31v.05a2.1,2.1,0,0,1,0,.53,2.51,2.51,0,0,1-.1.82l-.1.45a.39.39,0,0,1,.73.29.42.42,0,0,1-.51.27l-.24-.47v0l.42.83-1.22,3-.05-.15-.6.2.2.6.22-.08-.22.55a14.19,14.19,0,0,0-9.75-.05l-.21-.52.24.08.2-.6-.6-.2-.06.19-1.24-3,.42-.83v0l-.23.46a.42.42,0,0,1-.51-.27.39.39,0,0,1,.73-.29,3.62,3.62,0,0,1,0-2.41A2.44,2.44,0,0,1,91.23,19a2.93,2.93,0,0,1,1.39.07l.6.25M92.1,18.1a.4.4,0,1,1-.4.4h0a.4.4,0,0,1,.4-.4M91,18.18a.4.4,0,1,1-.4.4h0a.4.4,0,0,1,.4-.4m-.92.45a.4.4,0,1,1-.4.4h0a.4.4,0,0,1,.4-.4m-.76.76a.4.4,0,1,1-.4.4h0a.4.4,0,0,1,.4-.4m-.38,1a.4.4,0,1,1-.4.4h0a.4.4,0,0,1,.4-.4m0,1.07a.4.4,0,1,1-.39.41.4.4,0,0,1,.39-.41m-4.2,25.28a5.72,5.72,0,0,0,.63,0,25.21,25.21,0,0,0-.11,2.68c0,1.87.53,2.17,1.53,2.17C88,51.51,88,50.19,88,48.77c0-.7,0-1.4-.06-2.1a2.25,2.25,0,0,0,.39,0,2.13,2.13,0,0,0,.38,0c0,.45-.1,1.54-.1,2.87,0,1.77-.77,2.51-2.26,2.51-1.31,0-2.32-.57-2.32-2V48.24c0-.81,0-1.32,0-1.57a5.74,5.74,0,0,0,.63,0m-.26,9.82-.35,0c0-.58-.1-1.29-.17-1.94h0l-.94,1.94h-.16l-.91-1.9h0c-.09.63-.13,1.25-.17,1.9l-.2,0-.2,0c.18-1,.31-1.93.43-2.89l.17,0,.17,0c.31.67.66,1.41,1,2,.33-.63.67-1.34,1-2l.18,0,.18,0c.11,1,.25,2.3.36,2.89l-.34,0m2.43,0c-.09-.29-.19-.57-.29-.86h-1a8.26,8.26,0,0,0-.29.86l-.2,0a.74.74,0,0,0-.21,0c.2-.46.83-2,1.19-2.91l.16,0,.16,0c.35.94.85,2.23,1.16,2.91l-.37,0a1.92,1.92,0,0,0-.35,0m1.23,3.84a1.2,1.2,0,0,1-.67-.18,4.26,4.26,0,0,0,.12-.53h.08a.55.55,0,0,0,.58.45.43.43,0,0,0,.49-.43c0-.63-1.25-.46-1.25-1.41a.88.88,0,0,1,.86-.9h.08a1.08,1.08,0,0,1,.69.2c-.05.13-.08.23-.13.41h-.06a.5.5,0,0,0-.51-.36.4.4,0,0,0-.44.37h0c0,.63,1.27.46,1.27,1.41a1,1,0,0,1-1.11.94m2.86-.05-.35,0a2,2,0,0,0-.36,0c0-.27.05-.55.05-.81v-.39c-.29-.56-.77-1.45-.9-1.69l.38,0a2.13,2.13,0,0,0,.37,0c.19.41.51,1.06.63,1.25h0a8.24,8.24,0,0,0,.63-1.25l.19,0,.2,0c-.19.31-.61,1.08-.88,1.6v.41a7.13,7.13,0,0,0,0,.88m.49-4.65a8.26,8.26,0,0,0-.29.86l-.2,0a.73.73,0,0,0-.21,0c.2-.46.83-2,1.19-2.91l.16,0,.16,0c.36.94.85,2.23,1.16,2.91l-.37,0a1.91,1.91,0,0,0-.35,0c-.09-.29-.19-.57-.29-.86h-1m1.17,4.71a1.2,1.2,0,0,1-.67-.18A4.22,4.22,0,0,0,92,59.7h.08a.55.55,0,0,0,.58.45.43.43,0,0,0,.49-.43c0-.63-1.25-.46-1.25-1.41a.88.88,0,0,1,.86-.9h.08a1.08,1.08,0,0,1,.69.2c-.05.13-.08.23-.13.41h-.06a.5.5,0,0,0-.51-.36.4.4,0,0,0-.44.37h0c0,.63,1.27.46,1.27,1.41,0,.56-.44.94-1.11.94M96,57.83a7.48,7.48,0,0,0-.75-.05v1.38c0,.47,0,.79,0,1.16a2.8,2.8,0,0,0-.69,0c0-.37,0-.69,0-1.16v-1a2.58,2.58,0,0,0,0-.37c-.16,0-.51,0-.77.05a.79.79,0,0,0,0-.37c.38,0,.57,0,1.09,0s.71,0,1.06,0a.89.89,0,0,0,0,.19.87.87,0,0,0,0,.19m.13-1.4a4.15,4.15,0,0,1-1.12.19,1.47,1.47,0,0,1-1.65-1.41,1.55,1.55,0,0,1,1.73-1.59,2,2,0,0,1,1,.25,3.22,3.22,0,0,0-.12.43H96a1,1,0,0,0-.83-.42c-.52,0-1.05.43-1.05,1.31a1,1,0,0,0,1,1.17,1.25,1.25,0,0,0,.46-.08,2,2,0,0,0,0-.29c0-.45,0-.63,0-.72l.31,0,.34,0a5.48,5.48,0,0,0,0,.7v.46M98,57.8,97,57.75c0,.31,0,.61,0,.91.36,0,.63,0,.94,0a1,1,0,0,0,0,.19A1.34,1.34,0,0,0,98,59c-.31,0-.63,0-.94,0V60A8.09,8.09,0,0,0,98,60a1.1,1.1,0,0,0,0,.19.91.91,0,0,0,0,.18c-.15,0-.35,0-.73,0a8.6,8.6,0,0,0-.89,0c0-.37,0-.69,0-1.16v-.57c0-.47,0-.79,0-1.16l.74,0a8.13,8.13,0,0,0,.88,0,1,1,0,0,0,0,.18,1.13,1.13,0,0,0,0,.19m3.34,2.51-.35,0c0-.58-.1-1.29-.17-1.94h0c-.31.65-.63,1.29-.93,1.94h-.16l-.91-1.9h0c-.09.63-.13,1.25-.17,1.9l-.2,0-.2,0c.18-1,.31-1.93.43-2.89l.17,0,.17,0c.31.67.66,1.41,1,2,.33-.63.67-1.34,1-2l.18,0,.18,0c.11,1,.25,2.3.36,2.89l-.34,0m1.25.08a1.21,1.21,0,0,1-.67-.18,4.11,4.11,0,0,0,.12-.53h.1a.55.55,0,0,0,.58.45.43.43,0,0,0,.49-.43c0-.63-1.25-.46-1.25-1.41a.88.88,0,0,1,.86-.9h.08a1.08,1.08,0,0,1,.69.2c-.05.13-.08.23-.13.41h-.05a.5.5,0,0,0-.51-.36.4.4,0,0,0-.44.37h0c0,.63,1.27.46,1.27,1.41,0,.56-.44.94-1.11.94M104,54l-.94-.05c0,.31,0,.61,0,.91.36,0,.63,0,.94,0a1,1,0,0,0,0,.19,1.25,1.25,0,0,0,0,.17q-.47,0-.94,0v1.06a8.28,8.28,0,0,0,1-.05,1.12,1.12,0,0,0,0,.19.94.94,0,0,0,0,.18c-.15,0-.35,0-.73,0a5.4,5.4,0,0,0-.89,0c0-.37,0-.69,0-1.16v-.57c0-.47,0-.79,0-1.16l.74,0c.41,0,.76,0,.88,0a1,1,0,0,0,0,.18,1.19,1.19,0,0,0,0,.19m3,2.51-.17,0-.16,0q-.86-1-1.83-2v1a8.68,8.68,0,0,0,0,1.06l-.2,0-.19,0c0-.12.08-1.2.08-2.05,0-.38,0-.63,0-.83a.92.92,0,0,0,.38,0l1.82,2c0-.67,0-1.8,0-2a.92.92,0,0,0,.38,0c-.07,1.22-.07,1.78-.07,2.89M105.21,52A2.17,2.17,0,0,1,104,51.7a7.64,7.64,0,0,0,.22-1h.13a1,1,0,0,0,1.05.83.79.79,0,0,0,.89-.78c0-1.15-2.28-.85-2.28-2.59a1.61,1.61,0,0,1,1.72-1.63,2,2,0,0,1,1.25.37c-.09.24-.14.42-.24.76h-.11a.91.91,0,0,0-.94-.66.74.74,0,0,0-.79.68h0c0,1.13,2.32.85,2.32,2.59a1.8,1.8,0,0,1-2,1.73m4.37,2c-.23,0-.58-.05-.75-.05v1.43c0,.47,0,.79,0,1.16l-.34,0a1.6,1.6,0,0,0-.35,0c0-.37,0-.69,0-1.16v-1a2.73,2.73,0,0,0,0-.37c-.16,0-.51,0-.77.05a.9.9,0,0,0,0-.37l1.09,0c.52,0,.71,0,1.06,0a.91.91,0,0,0,0,.18.92.92,0,0,0,0,.19M95.14,26.13l.5.5.5-.5-.5-.5ZM85.7,55.45h.77c-.12-.34-.24-.67-.37-1-.14.31-.27.66-.39,1m4.08-34.1v0a2.59,2.59,0,0,0,.27,1.19l.12.2a1.31,1.31,0,0,0-.28.89A2.1,2.1,0,0,0,90.24,25a1,1,0,0,0,1.69.35.79.79,0,0,0,.08-1.2s-.38-.24-.51.11a.31.31,0,0,0,.11.31A.54.54,0,0,1,91,24.3s-.22-.57.49-.71c0,0,.44.05.35-.27a1.6,1.6,0,0,1,.11-1.2,1.25,1.25,0,0,1,.6,1s0,.41.38.13c.73-.22.76.27.76.27.16.51-.41.76-.41.76a.72.72,0,0,0,0-.41c-.28-.23-.49.13-.49.13a1.35,1.35,0,0,0,.44,1,1,1,0,0,0,.84.31c.52,0,.57-.13.57-.13.87-.6.68-1.22.68-1.22a1.15,1.15,0,0,0-.31.05,1.65,1.65,0,0,0-.82.68V25H94V22.6h.19a.89.89,0,0,0,.76.82h.35V23a1.23,1.23,0,0,0-.68-.71h-.27V22h2.58v.25h-.27A1.23,1.23,0,0,0,96,23v.43h.35a.89.89,0,0,0,.76-.82h.19V25h-.16v-.27a1.64,1.64,0,0,0-.82-.68A1.14,1.14,0,0,0,96,24s-.19.63.68,1.22c0,0,.05.11.57.13a1,1,0,0,0,.84-.31,1.35,1.35,0,0,0,.43-1s-.22-.35-.49-.13a.7.7,0,0,0,0,.41s-.57-.24-.41-.76c0,0,0-.49.76-.27.38.27.38-.13.38-.13.13-.82.6-1,.6-1a1.67,1.67,0,0,1,.11,1.2c-.08.31.35.27.35.27.71.13.49.71.49.71a.54.54,0,0,1-.65.31.31.31,0,0,0,.11-.31c-.13-.35-.52-.11-.52-.11a.78.78,0,0,0,.08,1.2A1,1,0,0,0,101,25a2.57,2.57,0,0,0,.35-1.38,1.31,1.31,0,0,0-.28-.89l.12-.2a2.59,2.59,0,0,0,.27-1.19v0a1.91,1.91,0,0,0-.89-1.71,2.38,2.38,0,0,0-2.17-.06h0a5.9,5.9,0,0,1-1.88.51V22l-1.77,0V20.07a5.61,5.61,0,0,1-1.86-.49h0a2.39,2.39,0,0,0-2.17.06,1.91,1.91,0,0,0-.92,1.71M101,23.08l0,.24a1.87,1.87,0,0,0,0,.92.22.22,0,0,0,.3.08h0l-.2.56s-.2-.27-.54.06a2,2,0,0,0-.43.51h-.19Zm-9.62,2.36h-.2a2,2,0,0,0-.44-.51c-.35-.31-.54-.05-.54-.05l-.22-.56a.24.24,0,0,0,.34-.07h0a1.87,1.87,0,0,0,0-.92l0-.24Zm.21,30h.77c-.12-.34-.24-.67-.37-1-.14.31-.27.66-.4,1m7.3-29.35L98,26a.32.32,0,0,0-.08.63l.86.11a.32.32,0,1,0,.08-.63m-3-7h0m-2.54,6.86-.86.11a.32.32,0,1,0,.08.63l.86-.11a.32.32,0,0,0-.08-.63"/><path class="cls-1" d="M24.1,52.84H69.87A25.73,25.73,0,0,0,72.8,42.78H21.18A25.73,25.73,0,0,0,24.1,52.84m30.75-7.42h.94c.94,0,2,0,2,1.17a1,1,0,0,1-.89,1h0a.63.63,0,0,1,.46.45l.7,1.69h-1l-.52-1.35a.54.54,0,0,0-.6-.45h-.29v1.8h-.87V45.42Zm-3,0h1l1.69,4.32h-1l-.37-1H51.41l-.38,1h-.9Zm-4-.07a2,2,0,0,1,2.12,2.23,2.1,2.1,0,0,1-1.09,2l1,1H48.78L48,49.83h-.2a2.24,2.24,0,0,1,0-4.48m-4.67,0A2.24,2.24,0,1,1,41,47.58a2,2,0,0,1,2.12-2.23m-3.84,0a3.27,3.27,0,0,1,1,.16l-.08.72a2.25,2.25,0,0,0-.88-.19.6.6,0,0,0-.68.6c0,.75,1.9.44,1.9,1.88,0,.94-.75,1.31-1.63,1.31a3.83,3.83,0,0,1-1.11-.17l.08-.78a2.09,2.09,0,0,0,1,.27c.31,0,.77-.17.77-.56,0-.83-1.9-.48-1.9-1.92,0-1,.75-1.32,1.52-1.32m-3,.08h.87v4.32h-.88V45.42ZM47,14.82A25.9,25.9,0,0,0,21.09,40.7h0c0,.48,0,1,0,1.44h2.37c0-.48,0-.94,0-1.44a23.54,23.54,0,0,1,47.08,0c0,.48,0,1,0,1.44h2.37c0-.48,0-.94,0-1.44A25.9,25.9,0,0,0,47,14.81h0M58.64,56.54a.82.82,0,0,0-.74-.89h-.49v1.79h.31a.81.81,0,0,0,.92-.89M43.16,49.15c.89,0,1.22-.79,1.22-1.57S44,46,43.16,46s-1.22.78-1.22,1.55.31,1.57,1.22,1.57M56.5,21.31a.72.72,0,1,0-.72.72.72.72,0,0,0,.72-.72m-1.3,0a.58.58,0,1,1,.58.63.58.58,0,0,1-.58-.63v0M53.1,55.95c0-.28-.28-.31-.57-.31h-.21v.67h.21c.25,0,.57,0,.57-.34M66.49,21.23a27.57,27.57,0,1,0,0,39,27.57,27.57,0,0,0,0-39m-.69,38.3a26.59,26.59,0,1,1,0-37.61,26.59,26.59,0,0,1,0,37.61M56.12,21.73l-.24-.37a.21.21,0,0,0,.22-.23.24.24,0,0,0-.23-.24H55.5v.84h.14v-.37h.12l.24.37h.13Zm-.5-.48V21h.16a.14.14,0,0,1,.17.11v0c0,.11-.07.13-.17.13ZM47,66.61A25.88,25.88,0,0,0,69.53,53.47H24.45A25.88,25.88,0,0,0,47,66.61m9.64-11.53H57.7c1,0,1.74.31,1.74,1.46S58.71,58,57.7,58H56.63Zm-2.39,0h2.09v.56H55v.61h1.22v.56H55v.67h1.34V58H54.25v-3Zm-2.71,0h1.4c.52,0,.94.24.94.74a.69.69,0,0,1-.57.74h0c.25.07.27.29.42.65L54,58H53.2L53,57.49c-.16-.51-.26-.63-.55-.63h-.16V58h-.79V55.08Zm-2.48,0h2.08v.56H49.84v.61h1.22v.56H49.84v.67h1.34V58H49.05Zm-2.51,0h2.24v.58h-.73V58h-.79V55.66h-.72ZM45.48,55a2.51,2.51,0,0,1,.76.11l-.05.61a1.57,1.57,0,0,0-.66-.13c-.2,0-.53,0-.53.28,0,.48,1.4.16,1.4,1.22,0,.77-.63,1-1.3,1a3.08,3.08,0,0,1-.88-.13l.07-.68a1.73,1.73,0,0,0,.81.19c.25,0,.49-.05.49-.29,0-.55-1.4-.2-1.4-1.28,0-.71.69-.9,1.29-.9M43,55.05h.78V58H43V55.05ZM41.55,55a2.82,2.82,0,0,1,.89.13l-.06.63a1.5,1.5,0,0,0-.72-.19c-.63,0-1.16.27-1.16.94a.9.9,0,0,0,.86.94h.12a.69.69,0,0,0,.28-.05v-.58H41.3v-.56h1.23V57.9a4.36,4.36,0,0,1-1.14.13,1.52,1.52,0,0,1-1.69-1.51c0-1.11.78-1.54,1.86-1.54m-4.15.09h2.08v.56H38.19v.61h1.22v.56H38.19v.67h1.34V58H37.4Zm-2.72,0h1.4c.52,0,.94.24.94.74a.69.69,0,0,1-.57.74h0c.25.07.27.29.42.65l.32.8h-.83l-.17-.53c-.16-.51-.26-.63-.55-.63h-.17V58h-.79ZM52.3,46.29h0l-.63,1.79h1.25Zm4.61.38c0-.52-.48-.56-.92-.56h-.28v1.17H56c.43,0,.92-.06.92-.6M36.25,55.95c0-.28-.27-.31-.57-.31h-.2v.67h.21c.25,0,.57,0,.57-.34M41.48,31.8c-2.07.72-3.93,4.51-3.93,4.51,2.3,1.32,1.88,3,1.88,3s1.55-.69,3.23,1.35c0,0,3.4-2.45,3.79-4.6.05,2.2,3.07,5.14,3.07,5.14,2-1.78,3.39-.86,3.39-.86s-.18-1.69,2.29-2.65c0,0-1.28-4-3.21-5,2.1.63,5.84-1.33,5.84-1.33-1.08-2.42.23-3.49.23-3.49s-1.66-.35-1.82-3c0,0-4.19,0-5.77,1.5,1.25-1.8.54-6,.54-6-2.63.28-3.25-1.3-3.25-1.3s-.85,1.47-3.41.8c0,0-1.31,4-.36,6-1.35-1.75-5.53-2.36-5.53-2.36-.54,2.59-2.24,2.69-2.24,2.69s1.14,1.25-.29,3.49c0,0,3.38,2.48,5.55,2.2m4.26,4a2.89,2.89,0,0,1-.36.94,7,7,0,0,1-.73,1A14.29,14.29,0,0,1,43,39.39l-.35.29-.31-.29a4.19,4.19,0,0,0-1.15-.71,10.13,10.13,0,0,0,4-5.61c.12.54.29,1.29.52,2.26a1.25,1.25,0,0,1,0,.5m6.62-2a6.9,6.9,0,0,1,.76,1,14.22,14.22,0,0,1,1,2l.17.42-.38.21a4.15,4.15,0,0,0-1,.88,10.23,10.23,0,0,0-4.11-5.54l2.31.2a1.25,1.25,0,0,1,.47.14,2.9,2.9,0,0,1,.79.63m-1.75-6.59a1.25,1.25,0,0,1,.28-.41,2.9,2.9,0,0,1,.85-.56A6.9,6.9,0,0,1,53,25.9a14.24,14.24,0,0,1,2.24-.34l.45,0q0,.22.08.42a4.16,4.16,0,0,0,.52,1.25,10.18,10.18,0,0,0-6.54,2.2c.22-.51.52-1.21.9-2.14m-6.24-4a14.29,14.29,0,0,1,.36-2.24c0-.16.08-.31.11-.44l.43.05a4.16,4.16,0,0,0,1.36-.1,10.25,10.25,0,0,0,.07,6.9c-.4-.38-1-.88-1.75-1.53a1.25,1.25,0,0,1-.31-.39,2.89,2.89,0,0,1-.26-1,7,7,0,0,1,0-1.28m0,3.21a1.75,1.75,0,0,0-.12-.31,1.76,1.76,0,0,0,.25.27C46.26,28,47,28.72,47,28.72s.86-.62,2.87-1.87a1.76,1.76,0,0,0,.27-.22,1.76,1.76,0,0,0-.18.31c-.9,2.2-1.36,3.14-1.36,3.14s.84.63,2.65,2.16a1.77,1.77,0,0,0,.29.19,1.77,1.77,0,0,0-.36-.07c-2.36-.18-3.4-.31-3.4-.31s-.34,1-1.23,3.19a1.77,1.77,0,0,0-.09.34,1.78,1.78,0,0,0,0-.37c-.56-2.28-.77-3.33-.77-3.33s-1.05,0-3.41-.19a1.78,1.78,0,0,0-.35,0,1.77,1.77,0,0,0,.34-.16c2-1.25,2.94-1.74,2.94-1.74s-.31-1-.88-3.3M37,29a4.15,4.15,0,0,0,.31-1.31,10.26,10.26,0,0,0,6.59,2.06c-.48.28-1.14.67-2,1.2a1.25,1.25,0,0,1-.47.16,2.88,2.88,0,0,1-1-.05,7,7,0,0,1-1.22-.39,14.28,14.28,0,0,1-2-1l-.38-.25c.07-.13.13-.26.18-.39m10.8,20.18c.89,0,1.22-.79,1.22-1.57S48.68,46,47.82,46s-1.21.79-1.21,1.56.31,1.57,1.22,1.57"/><path class="cls-1" d="M46.67,80.24a3.45,3.45,0,0,1-1.42.26,2.52,2.52,0,0,1-2.66-2.73,2.68,2.68,0,0,1,2.81-2.83,2.9,2.9,0,0,1,1.28.24l-.17.57a2.55,2.55,0,0,0-1.09-.22,2,2,0,0,0-2.1,2.22,2,2,0,0,0,2.07,2.17,2.79,2.79,0,0,0,1.14-.22Z"/><path class="cls-1" d="M47.83,78.61a1.24,1.24,0,0,0,1.33,1.34,2.54,2.54,0,0,0,1.07-.2l.12.5a3.13,3.13,0,0,1-1.29.24,1.8,1.8,0,0,1-1.9-2A1.88,1.88,0,0,1,49,76.46a1.64,1.64,0,0,1,1.6,1.82,2.61,2.61,0,0,1,0,.33Zm2.06-.5a1,1,0,0,0-1-1.14,1.17,1.17,0,0,0-1.08,1.14Z"/><path class="cls-1" d="M51.44,77.75c0-.46,0-.85,0-1.21H52l0,.76h0a1.16,1.16,0,0,1,1.07-.85l.2,0v.66l-.24,0a1,1,0,0,0-.94.9,2,2,0,0,0,0,.33v2.06h-.7Z"/><path class="cls-1" d="M55.1,75.43v1.11h1v.54h-1v2.09c0,.48.14.75.53.75a1.55,1.55,0,0,0,.41,0l0,.53a1.73,1.73,0,0,1-.62.1,1,1,0,0,1-.76-.3,1.43,1.43,0,0,1-.27-1V77.08h-.6v-.54h.6v-.93Z"/><path class="cls-1" d="M58.6,77.59c0-.4,0-.73,0-1h.62l0,.64h0a1.42,1.42,0,0,1,1.28-.73c.54,0,1.37.32,1.37,1.65v2.31h-.7V78.18c0-.62-.23-1.14-.9-1.14a1,1,0,0,0-1,1v2.33h-.7Z"/><path class="cls-1" d="M66.54,78.45a1.89,1.89,0,0,1-1.93,2.05,1.84,1.84,0,0,1-1.85-2,1.89,1.89,0,0,1,1.92-2.05A1.83,1.83,0,0,1,66.54,78.45Zm-3.07,0c0,.85.49,1.49,1.18,1.49s1.18-.63,1.18-1.5c0-.66-.33-1.49-1.16-1.49S63.47,77.75,63.47,78.49Z"/><path class="cls-1" d="M67.26,77.18a.48.48,0,1,1,1,0,.48.48,0,1,1-1,0Zm0,2.82a.48.48,0,1,1,1,0,.48.48,0,1,1-1,0Z"/><path class="cls-1" d="M77.17,75.87h0l-.9.49-.14-.54,1.14-.61h.6v5.2h-.68Z"/><path class="cls-1" d="M82.85,75.81h-2l-.2,1.33a2.85,2.85,0,0,1,.42,0,2.2,2.2,0,0,1,1.12.28A1.48,1.48,0,0,1,83,78.73,1.8,1.8,0,0,1,81,80.5a2.55,2.55,0,0,1-1.29-.32l.18-.54a2.33,2.33,0,0,0,1.11.29,1.15,1.15,0,0,0,1.23-1.13c0-.67-.46-1.15-1.5-1.15a5.29,5.29,0,0,0-.72.06l.34-2.5h2.49Z"/><path class="cls-1" d="M85.38,75.87h0l-.9.49-.14-.54,1.14-.61h.6v5.2h-.68Z"/><path class="cls-1" d="M88.36,79.92a2.93,2.93,0,0,0,.57,0,2,2,0,0,0,1.09-.5A2.28,2.28,0,0,0,90.71,78h0a1.53,1.53,0,0,1-1.22.56A1.51,1.51,0,0,1,87.92,77a1.78,1.78,0,0,1,1.78-1.85c1.06,0,1.72.86,1.72,2.19a3.29,3.29,0,0,1-.9,2.44,2.6,2.6,0,0,1-1.51.7,3.28,3.28,0,0,1-.65,0Zm.26-3a1,1,0,0,0,1,1.1,1.16,1.16,0,0,0,1-.54.46.46,0,0,0,.06-.26c0-.89-.33-1.57-1.06-1.57S88.62,76.19,88.62,76.93Z"/><path class="cls-1" d="M53.56,83v5.39h-.7V83Z"/><path class="cls-1" d="M54.68,87.57a2.46,2.46,0,0,0,1.25.35c.71,0,1.13-.37,1.13-.92s-.29-.79-1-1.07c-.88-.31-1.42-.77-1.42-1.53a1.55,1.55,0,0,1,1.74-1.46,2.45,2.45,0,0,1,1.19.26l-.19.57a2.15,2.15,0,0,0-1-.26c-.74,0-1,.44-1,.81s.33.75,1.07,1c.91.35,1.38.79,1.38,1.58s-.62,1.55-1.89,1.55a2.79,2.79,0,0,1-1.37-.34Z"/><path class="cls-1" d="M63.33,85.66a2.52,2.52,0,0,1-2.5,2.84,2.47,2.47,0,0,1-2.42-2.73,2.56,2.56,0,0,1,2.5-2.83A2.45,2.45,0,0,1,63.33,85.66Zm-4.18.09c0,1.15.62,2.18,1.72,2.18s1.73-1,1.73-2.24c0-1.07-.56-2.19-1.72-2.19S59.15,84.57,59.15,85.75Z"/><path class="cls-1" d="M66.09,87.92a2.93,2.93,0,0,0,.57,0,2,2,0,0,0,1.09-.5A2.28,2.28,0,0,0,68.43,86h0a1.53,1.53,0,0,1-1.22.56A1.51,1.51,0,0,1,65.65,85a1.78,1.78,0,0,1,1.78-1.85c1.06,0,1.72.86,1.72,2.19a3.29,3.29,0,0,1-.9,2.44,2.6,2.6,0,0,1-1.51.7,3.28,3.28,0,0,1-.65,0Zm.26-3a1,1,0,0,0,1,1.1,1.16,1.16,0,0,0,1-.54.46.46,0,0,0,.06-.26c0-.89-.33-1.57-1.06-1.57S66.35,84.19,66.35,84.93Z"/><path class="cls-1" d="M73.24,85.76c0,1.77-.66,2.74-1.81,2.74s-1.7-1-1.72-2.67.75-2.7,1.81-2.7S73.24,84.1,73.24,85.76Zm-2.82.08c0,1.35.42,2.12,1.06,2.12s1.06-.84,1.06-2.17-.33-2.12-1.06-2.12S70.42,84.42,70.42,85.84Z"/><path class="cls-1" d="M77.35,85.76c0,1.77-.66,2.74-1.81,2.74s-1.7-1-1.72-2.67.75-2.7,1.81-2.7S77.35,84.1,77.35,85.76Zm-2.82.08c0,1.35.42,2.12,1.06,2.12s1.06-.84,1.06-2.17-.33-2.12-1.06-2.12S74.52,84.42,74.52,85.84Z"/><path class="cls-1" d="M79.52,83.87h0l-.9.49-.14-.54,1.14-.61h.6v5.2h-.68Z"/></svg>