<svg id="Layer_1" data-name="Layer 1" xmlns="http://www.w3.org/2000/svg" viewBox="0 0 224.12 98"><defs><style>.cls-1{fill:#e1e1e1;}</style></defs><title>2018-01-19 - Footer Update - Logos</title><path class="cls-1" d="M110.21,44.19a4,4,0,0,0,2.11.61c1.23,0,1.93-.61,1.93-1.58s-.53-1.32-1.75-1.84C111,40.86,110,40.07,110,38.75s1.23-2.46,3-2.46a3.82,3.82,0,0,1,2,.44l-.35,1a3.3,3.3,0,0,0-1.75-.44c-1.23,0-1.75.79-1.75,1.4,0,.88.53,1.32,1.84,1.75,1.58.61,2.28,1.32,2.28,2.72s-1.05,2.63-3.16,2.63a4.72,4.72,0,0,1-2.37-.61l.44-1"/><path class="cls-1" d="M117.75,42.53A2.12,2.12,0,0,0,120,44.81a4.54,4.54,0,0,0,1.84-.35l.18.88a5.55,5.55,0,0,1-2.19.44,3.06,3.06,0,0,1-3.25-3.33c0-2,1.23-3.6,3.07-3.6a2.83,2.83,0,0,1,2.72,3.07v.61h-4.65m3.51-.79a1.71,1.71,0,0,0-1.67-1.93,2,2,0,0,0-1.84,1.93Z"/><path class="cls-1" d="M128.63,45.42a4.69,4.69,0,0,1-1.93.35,3.06,3.06,0,0,1-3.25-3.33A3.36,3.36,0,0,1,127,38.93a3.94,3.94,0,0,1,1.67.35l-.26.88a2.48,2.48,0,0,0-1.4-.35,2.35,2.35,0,0,0-2.37,2.54,2.26,2.26,0,0,0,2.28,2.46,3.1,3.1,0,0,0,1.49-.35l.26,1"/><path class="cls-1" d="M135.47,43.84a10.1,10.1,0,0,0,.09,1.75h-1.05l-.09-1.05h0a2.49,2.49,0,0,1-2.19,1.23c-1.05,0-2.28-.61-2.28-2.89V39h1.23v3.6c0,1.23.44,2.11,1.49,2.11a1.63,1.63,0,0,0,1.58-1.14,1.3,1.3,0,0,0,.09-.61v-4h1.23v4.91"/><path class="cls-1" d="M137.49,41.12a14.23,14.23,0,0,0-.09-2h1.05l.09,1.32h0a2,2,0,0,1,1.84-1.4h.35v1.14h-.44a1.61,1.61,0,0,0-1.58,1.49v4.12h-1.23V41.12"/><path class="cls-1" d="M142.58,37.88a.79.79,0,1,1,.79-.79.74.74,0,0,1-.79.79h0m.61,7.81h-1.14V39.11h1.23v6.58Z"/><path class="cls-1" d="M146.61,37.53v1.58h1.75V40h-1.75v3.6c0,.79.26,1.32.88,1.32a1.51,1.51,0,0,0,.7-.09l.09.88a3.27,3.27,0,0,1-1.05.18,1.79,1.79,0,0,1-1.32-.53,2.48,2.48,0,0,1-.44-1.75V40h-1.05v-.88h1.05V37.88l1.14-.35"/><path class="cls-1" d="M150.3,39.11,151.7,43a11.53,11.53,0,0,1,.44,1.32h0c.09-.35.26-.88.44-1.4L153.89,39h1.23l-1.84,4.74c-.88,2.28-1.4,3.42-2.28,4.12a3.51,3.51,0,0,1-1.49.79l-.26-1a2.69,2.69,0,0,0,1.05-.61,3.21,3.21,0,0,0,1-1.32.44.44,0,0,0,0-.53l-2.46-6.05h1.49"/><path class="cls-1" d="M110.21,57.79a4,4,0,0,0,2.11.61c1.23,0,1.93-.61,1.93-1.58s-.53-1.32-1.75-1.84C111,54.46,110,53.67,110,52.35s1.23-2.46,3-2.46a3.82,3.82,0,0,1,2,.44l-.35,1a3.3,3.3,0,0,0-1.75-.44c-1.23,0-1.75.79-1.75,1.4,0,.88.53,1.32,1.84,1.75,1.58.61,2.28,1.32,2.28,2.72s-1.05,2.63-3.16,2.63a4.72,4.72,0,0,1-2.37-.61l.44-1"/><path class="cls-1" d="M118.37,51.12V52.7h1.75v.88h-1.75v3.51c0,.79.26,1.32.88,1.32a1.51,1.51,0,0,0,.7-.09l.09.88a3.27,3.27,0,0,1-1.05.18,1.79,1.79,0,0,1-1.32-.53,2.48,2.48,0,0,1-.44-1.75v-3.6h-1.05v-.88h1.05V51.39l1.14-.26"/><path class="cls-1" d="M126.09,57.7a8.53,8.53,0,0,0,.09,1.58h-1.05l-.09-.79h0a2.37,2.37,0,0,1-2,1,1.91,1.91,0,0,1-2-1.93c0-1.58,1.4-2.46,3.95-2.46v-.18a1.32,1.32,0,0,0-1.49-1.49,3.16,3.16,0,0,0-1.75.53l-.26-.79a4.06,4.06,0,0,1,2.19-.53c2,0,2.54,1.4,2.54,2.72V57.7m-1.23-1.75c-1.32,0-2.81.18-2.81,1.49a1.06,1.06,0,0,0,1.14,1.14,1.55,1.55,0,0,0,1.58-1.14c0-.09.09-.26.09-.35Z"/><path class="cls-1" d="M128,54.46a10.63,10.63,0,0,0-.09-1.75H129l.09,1.05h0a2.43,2.43,0,0,1,2.19-1.23c.88,0,2.37.53,2.37,2.81v3.95H132.4V55.51c0-1.05-.44-1.93-1.49-1.93a1.61,1.61,0,0,0-1.58,1.23,1.11,1.11,0,0,0-.09.53v3.95H128V54.46"/><path class="cls-1" d="M141.26,49.63v8a9.55,9.55,0,0,0,.09,1.67H140.3l-.09-1.14h0A2.44,2.44,0,0,1,138,59.46c-1.58,0-2.81-1.32-2.81-3.33,0-2.19,1.4-3.51,3-3.51a2.26,2.26,0,0,1,2,1h0V49.63h1.05M140,55.33a1.11,1.11,0,0,0-.09-.53,1.72,1.72,0,0,0-1.75-1.4c-1.23,0-2,1.05-2,2.54,0,1.32.7,2.46,1.93,2.46a1.85,1.85,0,0,0,1.75-1.4,1.11,1.11,0,0,0,.09-.53V55.33Z"/><path class="cls-1" d="M147.93,57.7a8.53,8.53,0,0,0,.09,1.58H147l-.09-.79h0a2.37,2.37,0,0,1-2,1,1.91,1.91,0,0,1-2-1.93c0-1.58,1.4-2.46,3.95-2.46v-.18a1.32,1.32,0,0,0-1.49-1.49,3.16,3.16,0,0,0-1.75.53l-.26-.79a4.06,4.06,0,0,1,2.19-.53c2,0,2.54,1.4,2.54,2.72V57.7m-1.32-1.75c-1.32,0-2.81.18-2.81,1.49A1.06,1.06,0,0,0,145,58.58a1.55,1.55,0,0,0,1.58-1.14c0-.09.09-.26.09-.35V55.95Z"/><path class="cls-1" d="M149.86,54.72a14.23,14.23,0,0,0-.09-2h1.05l.09,1.32H151a2,2,0,0,1,1.84-1.4h.35v1.14h-.44a1.61,1.61,0,0,0-1.58,1.49v4.12h-1.23l-.09-4.65"/><path class="cls-1" d="M159.86,49.63v8a9.55,9.55,0,0,0,.09,1.67h-1.05l-.09-1.14h0a2.48,2.48,0,0,1-2.28,1.32c-1.58,0-2.81-1.32-2.81-3.33,0-2.19,1.32-3.51,3-3.51a2.26,2.26,0,0,1,2,1h0V49.63h1.14m-1.14,5.7a1.11,1.11,0,0,0-.09-.53,1.79,1.79,0,0,0-1.75-1.4c-1.23,0-1.93,1.05-1.93,2.54,0,1.32.7,2.46,1.93,2.46a1.77,1.77,0,0,0,1.75-1.4c0-.18.09-.35.09-.53Z"/><path class="cls-1" d="M161.7,58.05a2.81,2.81,0,0,0,1.58.44c.88,0,1.23-.44,1.23-1s-.35-.88-1.23-1.23c-1.23-.44-1.75-1.05-1.75-1.84a2,2,0,0,1,2.28-1.93,2.6,2.6,0,0,1,1.58.44l-.26.88a2.37,2.37,0,0,0-1.32-.35.93.93,0,0,0-1.05.88c0,.53.35.79,1.23,1.14,1.14.44,1.75,1,1.75,2s-.88,2-2.46,2a3.81,3.81,0,0,1-1.84-.44l.26-1.05"/><path class="cls-1" d="M176.61,59a6.79,6.79,0,0,1-2.46.44,4.35,4.35,0,0,1-4.56-4.65A4.56,4.56,0,0,1,174.42,50a4.86,4.86,0,0,1,2.19.44l-.26,1a4.89,4.89,0,0,0-1.84-.35,3.41,3.41,0,0,0-3.6,3.77c0,2.28,1.32,3.68,3.51,3.68a5.84,5.84,0,0,0,1.93-.35l.26.88"/><path class="cls-1" d="M180.56,59.46A3.16,3.16,0,0,1,177.4,56a3.25,3.25,0,0,1,3.25-3.51,3.09,3.09,0,0,1,3.16,3.33,3.28,3.28,0,0,1-3.25,3.6h0m0-1c1.14,0,2-1.05,2-2.54,0-1.14-.53-2.54-2-2.54s-2,1.32-2,2.54c.09,1.49.88,2.54,2,2.54Z"/><path class="cls-1" d="M190.82,57.44a10.1,10.1,0,0,0,.09,1.75h-1.05l-.09-1.05h0a2.49,2.49,0,0,1-2.19,1.23c-1.05,0-2.28-.61-2.28-2.89V52.61h1.23v3.6c0,1.23.35,2.11,1.49,2.11a1.72,1.72,0,0,0,1.58-1.14,1.3,1.3,0,0,0,.09-.61v-4h1.23v4.91"/><path class="cls-1" d="M192.84,54.46a10.63,10.63,0,0,0-.09-1.75h1.05l.09,1.05h0a2.43,2.43,0,0,1,2.19-1.23c.88,0,2.37.53,2.37,2.81v3.95h-1.23V55.51c0-1.05-.44-1.93-1.49-1.93a1.61,1.61,0,0,0-1.58,1.23,1.11,1.11,0,0,0-.09.53v3.95h-1.23V54.46"/><path class="cls-1" d="M205.12,59a4.38,4.38,0,0,1-1.93.35A3.06,3.06,0,0,1,199.95,56a3.36,3.36,0,0,1,3.51-3.51,3.94,3.94,0,0,1,1.67.35l-.26.88a2.48,2.48,0,0,0-1.4-.35,2.35,2.35,0,0,0-2.37,2.54,2.26,2.26,0,0,0,2.28,2.46,3.1,3.1,0,0,0,1.49-.35l.26,1"/><path class="cls-1" d="M207.05,51.47a.79.79,0,1,1,.79-.79.74.74,0,0,1-.79.79h0m.61,7.81h-1.23V52.7h1.23Z"/><rect class="cls-1" x="209.68" y="49.63" width="1.23" height="9.65"/><path class="cls-1" d="M80.21,59.54v-24h9.21v24l14.65-4.6L87.05,17,13.1,21.12,33.63,77,89.26,59.54ZM49.86,47.44a7.78,7.78,0,0,1-2.63,2.72,13.47,13.47,0,0,1-4.12,1.58,24.57,24.57,0,0,1-5.35.53h-1.4v7.19H27.23V35.51h10.7c4,0,7.19.7,9.47,2a6.66,6.66,0,0,1,3.42,6.14A7.78,7.78,0,0,1,49.86,47.44ZM76.44,58.75c-1.4.35-1.58.44-3,.7a25.87,25.87,0,0,1-4.82.44A22.53,22.53,0,0,1,61.88,59a16.16,16.16,0,0,1-5.09-2.46,10.25,10.25,0,0,1-3.16-3.86,12.29,12.29,0,0,1-1.05-5.09,11.1,11.1,0,0,1,1.14-5.09A12.61,12.61,0,0,1,57,38.58,16.76,16.76,0,0,1,62,36a20.75,20.75,0,0,1,6.32-.88,28.76,28.76,0,0,1,4.91.35,13.55,13.55,0,0,1,2.63.79v6.4a10.71,10.71,0,0,0-3.07-1.23,12.3,12.3,0,0,0-3.6-.53,7.88,7.88,0,0,0-5.09,1.67,6,6,0,0,0-1.93,4.91,6.36,6.36,0,0,0,.61,2.89,6.23,6.23,0,0,0,1.67,2,7.18,7.18,0,0,0,2.46,1.23,11.14,11.14,0,0,0,3,.44,13.63,13.63,0,0,0,3.25-.35,18.16,18.16,0,0,0,3.33-1.05Zm4.47-34.65a6.25,6.25,0,0,1,7.89,0A4.78,4.78,0,0,1,90.39,28a4.71,4.71,0,0,1-1.58,3.77,6,6,0,0,1-3.95,1.4,5.59,5.59,0,0,1-3.95-1.4A4.71,4.71,0,0,1,79.33,28,4.9,4.9,0,0,1,80.91,24.11Z"/><path class="cls-1" d="M37.4,40.6H36.26V47h1.05a6.5,6.5,0,0,0,3.51-.79,2.64,2.64,0,0,0,1.23-2.46C42.05,41.65,40.47,40.6,37.4,40.6Z"/><path class="cls-1" d="M211.17,38.49a2.81,2.81,0,1,1-2.81-2.72A2.75,2.75,0,0,1,211.17,38.49Zm-4.74,0a2,2,0,0,0,1.93,2,1.91,1.91,0,0,0,1.93-2,2,2,0,0,0-2-2A1.9,1.9,0,0,0,206.44,38.49ZM208,39.81h-.79V37.26c.18,0,.61-.09,1.14-.09a2,2,0,0,1,1,.18.53.53,0,0,1,.26.53c0,.26-.26.44-.61.53h0a.77.77,0,0,1,.53.61c.09.35.09.53.18.61h-.88c-.09-.09-.09-.35-.18-.53s-.18-.35-.44-.35h-.26v1.05Zm.09-1.4h.26c.26,0,.44-.09.44-.26a.4.4,0,0,0-.44-.35h-.26Z"/></svg>