<svg width="251" height="250" viewBox="0 0 251 250" fill="none" xmlns="http://www.w3.org/2000/svg">
<path d="M209.706 118.159C205.892 74.2912 169.517 39.8627 124.816 39.3902H37.3164V129.478C39.2291 174.516 75.3677 210.846 120.541 212.5H209.954V118.396C209.954 118.171 209.706 118.171 209.706 118.171V118.159Z" fill="#F7F7FF"/>
<path d="M213.554 116.28C209.74 72.4122 173.365 37.9725 128.664 37.5H41.1641V127.588C43.0768 172.626 79.2154 208.956 124.389 210.61H213.801V116.505C213.801 116.28 213.554 116.28 213.554 116.28Z" stroke="#505071" stroke-width="3.97" stroke-linecap="round" stroke-linejoin="round"/>
<path d="M142.789 152.214C142.789 153.604 141.667 154.721 140.273 154.721H140.05V154.51H109.44V154.721H109.218C107.833 154.721 106.701 153.604 106.701 152.214C106.701 150.825 107.833 149.717 109.218 149.717H140.283C141.677 149.717 142.799 150.845 142.799 152.214H142.789Z" fill="#D1D1E0"/>
<path d="M140.05 154.5V165.303C140.05 171.827 134.745 177.103 128.206 177.103H121.274C114.735 177.103 109.43 171.827 109.43 165.303V154.5H140.04H140.05Z" fill="#D1D1E0"/>
<path d="M159.666 105.478C159.666 118.093 148.579 124.96 142.769 135.199C141.263 137.837 140.464 143.093 140.06 148.6H131.824V133.991C131.824 133.578 132.168 132.742 132.461 132.461L133.926 131.001C134.977 129.943 135.755 128.091 135.755 126.591V107.954C136.483 107.36 136.958 106.454 136.958 105.478C136.958 103.726 135.523 102.316 133.774 102.316C132.026 102.316 130.591 103.736 130.591 105.478C130.591 106.404 131.005 107.27 131.672 107.864V126.591C131.672 126.993 131.329 127.829 131.046 128.121L129.58 129.581C128.519 130.628 127.741 132.491 127.741 133.991V148.6H121.577V133.991C121.577 132.491 120.809 130.638 119.737 129.581L118.272 128.121C117.989 127.829 117.645 127.004 117.645 126.591V107.864C118.312 107.27 118.727 106.404 118.727 105.478C118.727 103.726 117.292 102.316 115.543 102.316C113.795 102.316 112.36 103.736 112.36 105.478C112.36 106.454 112.815 107.36 113.563 107.954V126.591C113.563 128.091 114.331 129.933 115.392 131.001L116.857 132.461C117.15 132.742 117.494 133.568 117.494 133.991V148.6H109.723C109.308 143.103 108.51 137.837 107.014 135.199C101.203 124.96 90.1172 118.093 90.1172 105.478C90.097 86.338 105.68 70.8228 124.881 70.8228C144.082 70.8228 159.676 86.338 159.676 105.478H159.666Z" fill="#FFC743"/>
<path d="M118.818 151.792H111.037C110.623 146.294 109.834 141.039 108.329 138.401C102.518 128.161 91.4316 121.295 91.4316 108.679C91.4316 89.5396 107.005 74.0245 126.206 74.0245C145.407 74.0245 161 89.5396 161 108.679C161 121.295 149.924 128.161 144.103 138.401C142.597 141.039 141.799 146.294 141.395 151.792H133.149" stroke="#505071" stroke-width="3.97" stroke-linecap="round" stroke-linejoin="round"/>
<path d="M129.075 151.792H122.91" stroke="#505071" stroke-width="3.97" stroke-linecap="round" stroke-linejoin="round"/>
<path d="M143.91 154.288C143.91 155.678 142.788 156.795 141.394 156.795H141.172V156.584H110.561V156.795H110.339C108.954 156.795 107.822 155.678 107.822 154.288C107.822 152.899 108.954 151.792 110.339 151.792H141.404C142.799 151.792 143.92 152.919 143.92 154.288H143.91Z" stroke="#505071" stroke-width="3.97" stroke-linecap="round" stroke-linejoin="round"/>
<path d="M141.172 156.574H110.562V156.785H141.172V156.574Z" stroke="#03031C" stroke-width="2.94" stroke-linecap="round" stroke-linejoin="round"/>
<path d="M141.172 156.574V167.377C141.172 173.901 135.867 179.177 129.328 179.177H122.396C115.857 179.177 110.552 173.901 110.552 167.377V156.574H141.162H141.172Z" stroke="#505071" stroke-width="3.97" stroke-linecap="round" stroke-linejoin="round"/>
</svg>
