<svg width="251" height="250" viewBox="0 0 251 250" fill="none" xmlns="http://www.w3.org/2000/svg">
<path d="M209.706 118.159C205.892 74.2912 169.517 39.8628 124.816 39.3902H37.3164V129.478C39.2291 174.516 75.3677 210.846 120.541 212.5H209.954V118.396C209.954 118.171 209.706 118.171 209.706 118.171V118.159Z" fill="#00A3A0"/>
<path d="M213.554 116.28C209.74 72.4122 173.365 37.9725 128.664 37.5H41.1641V127.588C43.0768 172.626 79.2154 208.956 124.389 210.61H213.801V116.505C213.801 116.28 213.554 116.28 213.554 116.28Z" stroke="#505071" stroke-width="3.97" stroke-linecap="round" stroke-linejoin="round"/>
<path d="M176.234 88.6814H75.0191C72.9489 88.6814 71.2725 90.3578 71.2725 92.428V156.121C71.2725 158.191 72.9489 159.867 75.0191 159.867H176.223C178.293 159.867 179.97 158.191 179.97 156.121V92.428C179.97 90.3578 178.293 88.6814 176.223 88.6814H176.234Z" fill="#F7F7FF"/>
<path d="M71.2725 148.627H179.981V156.121C179.981 158.191 178.304 159.867 176.234 159.867H75.0191C72.9489 159.867 71.2725 158.191 71.2725 156.121V148.627Z" fill="#D1D1E0"/>
<path d="M138.745 159.867H112.507L106.882 174.854H144.371L138.756 159.867H138.745Z" fill="#D1D1E0"/>
<path d="M179.744 86.9262H78.5289C76.4586 86.9262 74.7822 88.6026 74.7822 90.6728V154.365C74.7822 156.436 76.4586 158.112 78.5289 158.112H179.733C181.803 158.112 183.479 156.436 183.479 154.365V90.6728C183.479 88.6026 181.803 86.9262 179.733 86.9262H179.744Z" stroke="#505071" stroke-width="3.97" stroke-linecap="round" stroke-linejoin="round"/>
<path d="M74.7822 146.872H183.491V154.365C183.491 156.436 181.814 158.112 179.744 158.112H78.5289C76.4586 158.112 74.7822 156.436 74.7822 154.365V146.872Z" stroke="#505071" stroke-width="3.97" stroke-linecap="round" stroke-linejoin="round"/>
<path d="M142.255 158.112H116.017L110.392 173.099H147.88L142.266 158.112H142.255Z" stroke="#505071" stroke-width="3.97" stroke-linecap="round" stroke-linejoin="round"/>
<path d="M146.869 120.86C146.869 121.703 146.543 122.491 145.946 123.087L131.365 137.635C131.23 137.77 131.083 137.894 130.903 138.018C130.375 138.366 129.767 138.558 129.137 138.558C128.507 138.558 127.899 138.378 127.382 138.018C127.202 137.894 127.056 137.77 126.921 137.635L112.328 123.076C111.732 122.491 111.405 121.703 111.405 120.848C111.405 119.993 111.732 119.217 112.328 118.632C113.554 117.405 115.546 117.405 116.772 118.632L125.987 127.824V100.585C125.987 98.8524 127.404 97.446 129.137 97.446C130.87 97.446 132.287 98.8524 132.287 100.585V127.824L141.502 118.632C142.728 117.405 144.731 117.405 145.957 118.632C146.554 119.217 146.88 120.016 146.88 120.848L146.869 120.86Z" fill="#505071"/>
</svg>
