<svg width="86" height="64" viewBox="0 0 86 64" fill="none" xmlns="http://www.w3.org/2000/svg">
<path d="M39.2937 0.835691C38.7344 0.278564 38.0352 0 37.1962 0H12.7246V2.92492C12.7246 3.69097 13.0043 4.38738 13.5636 4.94451C14.123 5.50163 14.8921 5.84984 15.7311 5.84984H23.562V35.0294H26.4287C27.2677 35.0294 27.9669 34.7508 28.5262 34.1937C29.0856 33.6366 29.4352 32.9402 29.4352 32.1741V5.7802H40.2027V3.0642C40.2027 2.29815 39.923 1.46246 39.2937 0.835691Z" fill="#03031C"/>
<path d="M54.8858 10.6551C54.0468 10.6551 53.3476 10.9337 52.7882 11.4908C52.2289 12.0479 51.8793 12.7443 51.8793 13.5104V25.1404C50.8305 27.9957 47.6842 29.3885 44.3281 29.3885C41.5313 29.3885 40.2029 28.135 40.2029 25.4886V13.58C40.2029 12.814 39.9232 12.1175 39.2939 11.5604C38.7346 11.0033 38.0354 10.7247 37.1964 10.7247H34.2598V26.1154C34.2598 32.0348 37.3362 35.0294 43.6289 35.0294C46.7053 35.0294 50.1313 33.9848 51.8094 31.8259C51.6695 33.7062 51.4598 34.6812 50.411 36.074C49.2224 37.6061 46.915 38.2329 44.4679 38.2329C42.1606 38.2329 39.9232 37.7454 37.476 36.8401C37.0565 36.7704 36.7069 36.7008 36.3573 36.7008C35.0289 36.7008 34.2598 37.3972 34.2598 38.7204V41.0882L34.4695 41.2274C37.2663 42.8988 40.5524 43.7345 44.4679 43.7345C52.6484 43.7345 57.6825 39.2775 57.6825 30.5724V10.6551H54.8858Z" fill="#03031C"/>
<path d="M81.8048 24.3047C81.3853 23.0511 80.8259 22.8422 80.2666 22.2851C80.5462 21.9369 80.8958 21.2405 81.3853 19.778L85.091 10.7247H81.7349C79.917 10.7247 78.7284 11.4908 78.2389 12.8836L75.7219 18.6638C75.5121 19.1513 74.9528 19.3602 73.9739 19.3602H68.4503V2.78564C68.4503 2.01959 68.1706 1.39282 67.6113 0.835691C67.0519 0.278564 66.3528 0 65.5137 0H62.5771V34.9597H65.5137C66.3528 34.9597 67.0519 34.6812 67.6812 34.1241C68.2406 33.5669 68.5202 32.8705 68.5202 32.1045L68.4503 25.2797H74.9527C75.8617 25.2797 76.1414 25.6975 76.2113 26.0457L79.2178 32.9402C79.7072 34.333 80.8259 35.0294 82.6438 35.0294H85.9999L81.8048 24.3047Z" fill="#03031C"/>
<path d="M15.7315 16.7138C15.3819 12.7443 12.0957 9.68011 8.04046 9.61047H1.67786H1.4681H0.139648V10.9337V11.3515V17.6888C0.279486 21.7976 3.56566 25.0708 7.62095 25.21H14.1234H14.3331H15.6616V23.8869L15.7315 16.7138C15.7315 16.7835 15.7315 16.7835 15.7315 16.7138Z" fill="#20EDBA"/>
<path d="M23.9824 57.4538C23.1434 59.1948 21.8849 60.0305 20.067 60.0305C16.9206 60.0305 15.3125 58.2198 15.3125 54.5289C15.3125 50.8379 16.9905 49.0272 20.4166 49.0272C23.8426 49.0272 25.5206 50.8379 25.5206 54.5289V59.8912H24.7515C24.5418 59.8912 24.332 59.8216 24.1922 59.6823C24.0523 59.543 23.9824 59.3341 23.9824 59.1252V57.4538ZM23.9824 54.4592C23.9824 53.2057 23.7727 52.3003 23.2832 51.6039C22.7239 50.7682 21.745 50.42 20.4166 50.42C19.0881 50.42 18.1792 50.8379 17.5499 51.6039C17.0605 52.2307 16.8507 53.2057 16.8507 54.4592C16.8507 55.7127 17.0605 56.6877 17.48 57.3145C18.0393 58.1502 18.9483 58.4984 20.2767 58.4984C22.0946 58.4984 23.2832 57.7323 23.8426 56.1306V54.4592H23.9824Z" fill="#8438FA"/>
<path d="M37.4767 59.8912H36.7076C36.4979 59.8912 36.2881 59.8216 36.1483 59.6823C36.0084 59.543 35.9385 59.3341 35.9385 59.1251V52.7878C35.9385 51.2557 35.0995 50.4897 33.4214 50.4897C31.6036 50.4897 30.4149 51.2557 29.8556 52.8575V59.1251C29.8556 59.3341 29.7857 59.543 29.6458 59.6823C29.506 59.8216 29.2962 59.8912 29.0865 59.8912H28.3174V49.0969H29.0865C29.2962 49.0969 29.506 49.1665 29.6458 49.3058C29.7857 49.4451 29.8556 49.654 29.8556 49.8629V51.5343C30.6946 49.7933 31.9532 48.9576 33.771 48.9576C36.2881 48.9576 37.5467 50.1415 37.5467 52.5093V59.8912H37.4767Z" fill="#8438FA"/>
<path d="M48.3838 57.4538C47.5448 59.1948 46.2862 60.0305 44.4683 60.0305C41.322 60.0305 39.7139 58.2198 39.7139 54.5289C39.7139 50.8379 41.3919 49.0272 44.8179 49.0272C48.2439 49.0272 49.922 50.8379 49.922 54.5289V59.8912H49.1529C48.9431 59.8912 48.7334 59.8216 48.5935 59.6823C48.4537 59.543 48.3838 59.3341 48.3838 59.1252V57.4538ZM48.3838 54.4592C48.3838 53.2057 48.174 52.3003 47.6846 51.6039C47.1252 50.7682 46.1464 50.42 44.8179 50.42C43.4895 50.42 42.5805 50.8379 41.9513 51.6039C41.4618 52.2307 41.2521 53.2057 41.2521 54.4592C41.2521 55.7127 41.4618 56.6877 41.8813 57.3145C42.4407 58.1502 43.3496 58.4984 44.6781 58.4984C46.496 58.4984 47.6846 57.7323 48.2439 56.1306V54.4592H48.3838Z" fill="#8438FA"/>
<path d="M60.7598 57.4538C59.9207 59.1948 58.6622 60.0305 56.8443 60.0305C53.698 60.0305 52.0898 58.2198 52.0898 54.5289C52.0898 50.8379 53.7679 49.0272 57.1939 49.0272C60.6199 49.0272 62.298 50.8379 62.298 54.5289V58.4984C62.298 62.1893 60.6199 64 57.1939 64C55.5159 64 54.1175 63.6518 52.9988 63.025V62.1893C52.9988 61.9108 53.1386 61.7715 53.3484 61.7715C53.4183 61.7715 53.5581 61.7715 53.698 61.8411C54.8866 62.259 56.0053 62.4679 57.1939 62.4679C58.5224 62.4679 59.4313 62.0501 60.0606 61.284C60.4801 60.6572 60.7598 59.6823 60.7598 58.4287V57.4538ZM60.7598 54.4592C60.7598 53.2057 60.55 52.3003 60.0606 51.6039C59.5012 50.7682 58.5224 50.42 57.1939 50.42C55.8655 50.42 54.9565 50.8379 54.3272 51.6039C53.8378 52.2307 53.6281 53.2057 53.6281 54.4592C53.6281 55.7127 53.8378 56.6877 54.2573 57.3145C54.8167 58.1502 55.7256 58.4984 57.0541 58.4984C58.872 58.4984 60.0606 57.7323 60.6199 56.1306V54.4592H60.7598Z" fill="#8438FA"/>
<path d="M64.5352 54.4592C64.5352 50.7682 66.1433 48.9576 69.2896 48.9576C71.0376 48.9576 72.2262 49.5147 72.9953 50.5593C73.5547 51.395 73.9043 52.7182 73.9043 54.4592C73.9043 54.9467 73.6246 55.1556 73.1351 55.1556H66.2132C66.2831 57.3841 67.4018 58.4984 69.7091 58.4984C70.8278 58.4984 72.0164 58.2895 73.1351 57.8716C73.275 57.802 73.3449 57.802 73.4847 57.802C73.6945 57.802 73.8343 57.9413 73.8343 58.2198V59.0555C72.7856 59.6823 71.3872 60.0305 69.7091 60.0305C66.2831 60.0305 64.5352 58.1502 64.5352 54.4592ZM72.2961 53.6932C72.2262 52.5789 72.0165 51.8129 71.6669 51.395C71.2473 50.7682 70.4083 50.4897 69.3595 50.4897C68.2408 50.4897 67.4018 50.7682 66.9124 51.395C66.4929 51.8825 66.2831 52.6485 66.2132 53.7628H72.2961V53.6932Z" fill="#8438FA"/>
<path d="M84.4619 57.4538C83.6229 59.1948 82.3643 60.0305 80.5465 60.0305C77.4001 60.0305 75.792 58.2198 75.792 54.5289C75.792 50.8379 77.47 49.0272 80.8961 49.0272C82.0847 49.0272 83.2733 49.2362 84.392 49.654V45.8934C84.392 45.6845 84.4619 45.4755 84.6017 45.3363C84.7416 45.197 84.9513 45.1273 85.1611 45.1273H85.9302V59.8912H85.1611C84.9513 59.8912 84.7416 59.8216 84.6017 59.6823C84.4619 59.543 84.392 59.3341 84.392 59.1252V57.4538H84.4619ZM84.4619 51.1165C83.2733 50.6986 82.0847 50.42 80.966 50.42C79.7074 50.42 78.7286 50.7682 78.1692 51.5343C77.6798 52.1611 77.47 53.136 77.47 54.4592C77.47 55.7824 77.6798 56.6877 78.1692 57.3841C78.7286 58.1502 79.6375 58.4984 80.8961 58.4984C82.7139 58.4984 83.9026 57.7323 84.4619 56.1306V51.1165Z" fill="#8438FA"/>
<path d="M0 59.7519V48.2612C0 48.0523 0.0699187 47.8434 0.209756 47.7041C0.349593 47.5648 0.559349 47.4951 0.769106 47.4951H1.60813C2.16748 47.4951 2.51707 47.7737 2.72683 48.3308L6.64228 58.3591L10.5577 48.3308C10.7675 47.7737 11.187 47.4951 11.6764 47.4951H12.5154C12.7252 47.4951 12.935 47.5648 13.0748 47.7041C13.2146 47.8434 13.2846 48.0523 13.2846 48.2612V59.7519H12.5154C12.3057 59.7519 12.0959 59.6823 11.9561 59.543C11.8163 59.4037 11.7463 59.1948 11.7463 58.9859V49.2362L7.97073 58.9859C7.76097 59.4734 7.4813 59.7519 6.99187 59.7519H6.3626C5.87317 59.7519 5.59349 59.4734 5.38374 58.9859L1.60813 49.2362V58.9163C1.60813 59.1252 1.53821 59.3341 1.39837 59.4734C1.25854 59.6127 1.04878 59.6823 0.839024 59.6823H0V59.7519Z" fill="#8438FA"/>
<path d="M15.6614 43.7345C15.941 43.5256 16.0809 43.3167 16.0809 42.9685C16.0809 42.6203 15.8711 42.3417 15.5215 42.2024C15.3817 42.1328 14.8923 42.0631 14.263 41.9238C13.6337 41.8542 13.1443 41.7149 12.8646 41.506C12.4451 41.2274 12.2354 40.74 12.2354 40.1132C12.2354 39.4864 12.4451 38.9989 12.9345 38.6507C13.3541 38.3025 13.9134 38.1632 14.5427 38.1632C15.2419 38.1632 16.011 38.3025 16.85 38.5811V38.9293C16.85 39.0686 16.7801 39.2079 16.7101 39.2775C16.6402 39.3471 16.5004 39.4168 16.2906 39.4168C15.6614 39.2079 15.0321 39.1382 14.5427 39.1382C14.1931 39.1382 13.9134 39.2079 13.7036 39.4168C13.424 39.6257 13.2841 39.8346 13.2841 40.1828C13.2841 40.531 13.4939 40.74 13.8435 40.8792C13.9833 40.9489 14.4028 41.0185 15.1719 41.0882C15.8012 41.1578 16.2906 41.3667 16.5703 41.5756C16.9898 41.8542 17.1996 42.3417 17.1996 42.9685V43.0381C17.1996 43.6649 16.9199 44.1524 16.4305 44.5006C16.011 44.8488 15.4516 44.988 14.8223 44.988C14.1232 44.988 13.3541 44.8488 12.515 44.5702V44.222C12.515 44.0827 12.5849 43.9434 12.6549 43.8738C12.7248 43.8042 12.8646 43.7345 13.0744 43.7345C13.7036 43.9434 14.3329 44.0131 14.8223 44.0131C15.102 44.0131 15.3817 43.9434 15.6614 43.7345Z" fill="#8438FA"/>
<path d="M17.8291 42.481C17.8291 40.8096 18.5982 39.9739 20.0665 39.9739C20.9055 39.9739 21.4649 40.2525 21.8145 40.7399C22.0941 41.1578 22.234 41.7149 22.234 42.481C22.234 42.7595 22.0941 42.9685 21.7445 42.9685H18.9478C18.9478 43.7345 19.4372 44.0827 20.2763 44.0827C20.7657 44.0827 21.1852 44.0131 21.6746 43.8041C21.7445 43.8041 21.8145 43.8041 21.8844 43.8041C22.0941 43.8041 22.234 43.9434 22.234 44.1523V44.5702C21.6746 44.9184 21.0454 45.0577 20.2763 45.0577C18.5982 44.988 17.8291 44.1523 17.8291 42.481ZM21.1153 41.9238C21.1153 41.5756 21.0454 41.2971 20.9055 41.1578C20.7657 40.9489 20.486 40.8096 20.0665 40.8096C19.647 40.8096 19.3673 40.9489 19.1576 41.1578C19.0177 41.3667 18.9478 41.5756 18.8779 41.9238H21.1153Z" fill="#8438FA"/>
<path d="M23.0031 38.2329H23.4925C23.6324 38.2329 23.7722 38.3025 23.8421 38.3722C23.9121 38.4418 23.982 38.5811 23.982 38.7204V43.247C23.982 43.7345 24.0519 43.9434 24.1218 43.9434C24.1917 43.9434 24.2617 43.9434 24.3316 43.9434C24.4015 43.9434 24.4714 43.9434 24.5413 43.9434C24.8909 43.9434 25.0308 44.0827 25.0308 44.3613V44.8488C24.7511 44.9184 24.4714 44.988 24.1917 44.988C24.1218 44.988 24.0519 44.988 23.982 44.988C23.6324 44.988 23.3527 44.8488 23.143 44.5702C22.9332 44.2916 22.8633 43.8738 22.8633 43.247V38.2329H23.0031Z" fill="#8438FA"/>
<path d="M27.8968 39.9739C28.0366 39.9739 28.1764 40.0435 28.2463 40.1132C28.3163 40.1828 28.3862 40.3221 28.3862 40.4614V40.9489H26.7781V44.4309C26.7781 44.5702 26.7081 44.7095 26.6382 44.7791C26.5683 44.8488 26.4285 44.9184 26.2886 44.9184H25.7992V40.9489H25.6594C25.5195 40.9489 25.3797 40.8792 25.3098 40.8096C25.1699 40.6703 25.1699 40.6007 25.1699 40.4614V39.9739H25.7992C25.7992 39.2775 26.0089 38.8596 26.3585 38.5811C26.6382 38.3025 27.1976 38.2329 27.8268 38.2329C28.1065 38.2329 28.4561 38.3025 28.8756 38.3722V38.8596C28.8756 39.1382 28.7358 39.2775 28.3862 39.2775C28.1764 39.2775 28.0366 39.2079 27.8968 39.2079C27.5472 39.2079 27.2675 39.2775 27.1276 39.3471C26.9878 39.4864 26.848 39.6953 26.848 40.0435H27.8968V39.9739Z" fill="#8438FA"/>
<path d="M29.3658 42.8988C29.226 42.8988 29.156 42.8292 29.0162 42.7595C28.9463 42.6899 28.9463 42.5506 28.9463 42.4113V42.0631H31.5333C31.6731 42.0631 31.743 42.1328 31.8829 42.2024C31.9528 42.272 31.9528 42.4113 31.9528 42.5506V42.8988H29.3658Z" fill="#8438FA"/>
</svg>
