<svg width="83" height="64" viewBox="0 0 83 64" fill="none" xmlns="http://www.w3.org/2000/svg">
<path d="M37.5094 0.803347C36.9745 0.267783 36.3059 0 35.4367 0H12.0352V2.81172C12.0352 3.54812 12.3026 4.21757 12.8375 4.75314C13.3724 5.2887 14.1079 5.62343 14.9102 5.62343H22.3987V33.6736H25.14C25.9424 33.6736 26.611 33.4059 27.1459 32.8703C27.6808 32.3347 28.0151 31.6653 28.0151 30.9289V5.55649H38.3117V2.94561C38.3117 2.20921 38.0443 1.40586 37.5094 0.803347Z" fill="#03031C"/>
<path d="M52.3526 10.2427C51.5503 10.2427 50.8816 10.5105 50.3468 11.0461C49.8119 11.5816 49.4775 12.2511 49.4775 12.9875V24.1674C48.4746 26.9122 45.4659 28.2511 42.2565 28.2511C39.582 28.2511 38.3117 27.046 38.3117 24.5021V13.0544C38.3117 12.318 38.0442 11.6486 37.4425 11.113C36.9076 10.5774 36.239 10.3097 35.4366 10.3097H32.6953V25.1046C32.6953 30.795 35.6372 33.6737 41.6548 33.6737C44.5967 33.6737 47.8729 32.6695 49.4775 30.5942C49.3438 32.4017 49.1432 33.3389 48.1403 34.6778C47.0037 36.1507 44.7972 36.7532 42.4571 36.7532C40.2507 36.7532 38.1111 36.2845 35.7709 35.4142C35.3698 35.3473 35.0355 35.2804 34.7012 35.2804C33.4308 35.2804 32.6953 35.9498 32.6953 37.2218V39.4979L32.8959 39.6318C35.5704 41.2385 38.7128 42.0419 42.4571 42.0419C50.2799 42.0419 55.0939 37.7573 55.0939 29.3891V10.2427H52.3526Z" fill="#03031C"/>
<path d="M78.0939 23.364C77.6928 22.159 77.1579 21.9582 76.623 21.4226C76.8904 21.0879 77.2247 20.4184 77.6928 19.0126L81.2364 10.3096H78.0271C76.2887 10.3096 75.152 11.046 74.684 12.3849L72.277 17.9414C72.0764 18.41 71.5415 18.6109 70.6055 18.6109H65.3234V2.67782C65.3234 1.94142 65.0559 1.33891 64.5211 0.803347C63.9862 0.267783 63.3176 0 62.5152 0H59.707V33.6067H62.5152C63.3176 33.6067 63.9862 33.3389 64.5879 32.8034C65.1228 32.2678 65.3903 31.5983 65.3903 30.8619L65.3234 24.3013H71.5415C72.4107 24.3013 72.6782 24.7029 72.745 25.0377L75.6201 31.6653C76.0881 33.0042 77.1579 33.6736 78.8963 33.6736H82.1056L78.0939 23.364Z" fill="#03031C"/>
<path d="M14.9101 16.067C14.5758 12.2511 11.4333 9.30546 7.55535 9.23851H1.47095H1.27037H0V10.5105V10.9122V17.0042C0.133723 20.954 3.27621 24.1004 7.22104 24.2343H13.4392H13.6397H14.9101V22.9624V16.067C14.9101 16.1339 14.9101 16.1339 14.9101 16.067Z" fill="#20EDBA"/>
<path d="M2.74121 49.3389C2.74121 46.6611 3.61041 44.5188 5.28195 43.046C6.88663 41.5732 9.09306 40.8368 11.8344 40.8368C14.2414 40.8368 16.7821 41.3054 19.3897 42.2427V43.046C19.3897 43.3808 19.256 43.7155 18.9886 43.9163C18.7211 44.1841 18.4537 44.318 18.1194 44.318C15.7792 43.5816 13.7065 43.2469 11.8344 43.2469C9.8954 43.2469 8.35758 43.7824 7.15407 44.8536C5.95056 45.9916 5.34881 47.4644 5.34881 49.3389V55.431C5.34881 57.3724 5.95056 58.8452 7.15407 59.9163C8.35758 60.9874 9.8954 61.523 11.8344 61.523C13.7065 61.523 15.7792 61.1883 18.1194 60.4519C18.4537 60.4519 18.7211 60.5858 18.9886 60.8535C19.256 61.1213 19.3897 61.3891 19.3897 61.7238V62.5272C16.7821 63.4644 14.3083 63.933 11.8344 63.933C9.09306 63.933 6.95349 63.1966 5.28195 61.7238C3.61041 60.1841 2.74121 58.1088 2.74121 55.431V49.3389Z" fill="#8438FA"/>
<path d="M22.4658 41.1715H23.6693C24.0036 41.1715 24.2711 41.3054 24.5385 41.5063C24.806 41.7741 24.8728 42.0418 24.8728 42.3766V58.3766C24.8728 60.251 25.2071 61.3222 25.8089 61.4561C26.0763 61.523 26.4775 61.59 26.8118 61.59C27.0793 61.59 27.3467 61.59 27.6142 61.523C28.3496 61.523 28.7508 61.7908 28.7508 62.3933V63.5983C28.0822 63.7322 27.2799 63.8661 26.4775 63.8661C26.2101 63.8661 25.9426 63.8661 25.742 63.8661C24.6723 63.7992 23.8699 63.3975 23.335 62.6611C22.8001 61.9247 22.4658 60.5188 22.4658 58.3766V41.1715Z" fill="#8438FA"/>
<path d="M45.7336 55.5649C45.7336 61.1883 43.126 64 37.9776 64C32.7624 64 30.2217 61.1883 30.2217 55.5649C30.2217 49.9414 32.7624 47.1297 37.9776 47.1297C43.126 47.1297 45.7336 49.9414 45.7336 55.5649ZM37.9776 49.4059C35.9718 49.4059 34.5008 50.0084 33.6316 51.2134C32.963 52.2176 32.5618 53.6234 32.5618 55.5649C32.5618 57.5063 32.8961 58.9121 33.6316 59.9163C34.5008 61.1213 35.9049 61.7239 37.9776 61.7239C40.0503 61.7239 41.4544 61.1213 42.3236 59.9163C42.9922 58.9121 43.3265 57.5063 43.3265 55.5649C43.3265 53.6234 42.9922 52.2176 42.3236 51.2134C41.4544 50.0084 39.9835 49.4059 37.9776 49.4059Z" fill="#8438FA"/>
<path d="M61.1114 60.0502C59.8411 62.6611 57.9021 64 55.2276 64C51.3497 64 49.4775 62.1924 49.4775 58.5774V47.3305H50.681C51.0154 47.3305 51.2828 47.4644 51.5502 47.6652C51.8177 47.933 51.8846 48.2008 51.8846 48.5355V58.1757C51.8846 60.5857 53.1549 61.7238 55.6957 61.7238C58.5707 61.7238 60.376 60.5857 61.1783 58.3765V48.5355C61.1783 48.2008 61.312 47.933 61.5126 47.6652C61.7801 47.3975 62.0475 47.3305 62.3818 47.3305H63.5853V63.7991H62.3818C62.0475 63.7991 61.7801 63.6652 61.5126 63.4644C61.2452 63.1966 61.1783 62.9288 61.1783 62.5941V60.0502H61.1114Z" fill="#8438FA"/>
<path d="M80.3002 60.0502C79.0298 62.6611 77.0908 64 74.4164 64C69.6023 64 67.1953 61.1883 67.1953 55.5648C67.1953 49.9414 69.8029 47.1297 74.9512 47.1297C76.7565 47.1297 78.5618 47.4644 80.3002 48.1339V42.3766C80.3002 42.0418 80.4339 41.774 80.6345 41.5063C80.9019 41.2385 81.1694 41.1715 81.5037 41.1715H82.7072V63.8661H81.5037C81.1694 63.8661 80.9019 63.7322 80.6345 63.5314C80.367 63.3305 80.3002 62.9958 80.3002 62.6611V60.0502ZM80.3002 50.41C78.428 49.7406 76.6228 49.4059 74.9512 49.4059C73.0123 49.4059 71.5413 50.0084 70.6721 51.1464C69.9366 52.1506 69.5355 53.6234 69.5355 55.5648C69.5355 57.5732 69.8698 59.046 70.6052 59.9833C71.4744 61.1213 72.8117 61.7238 74.8175 61.7238C77.6257 61.7238 79.431 60.5188 80.3002 58.0418V50.41Z" fill="#8438FA"/>
</svg>
